<?xml version="1.0" encoding="UTF-8" standalone="no"?>
<svg
   width="80"
   height="80"
   version="1.1"
   id="svg4"
   sodipodi:docname="attachment_custom.svg"
   inkscape:version="1.1 (c68e22c387, 2021-05-23)"
   xmlns:inkscape="http://www.inkscape.org/namespaces/inkscape"
   xmlns:sodipodi="http://sodipodi.sourceforge.net/DTD/sodipodi-0.dtd"
   xmlns="http://www.w3.org/2000/svg"
   xmlns:svg="http://www.w3.org/2000/svg">
  <defs
     id="defs8" />
  <sodipodi:namedview
     id="namedview6"
     pagecolor="#ffffff"
     bordercolor="#666666"
     borderopacity="1.0"
     inkscape:pageshadow="2"
     inkscape:pageopacity="0.0"
     inkscape:pagecheckerboard="0"
     showgrid="false"
     inkscape:zoom="5.45625"
     inkscape:cx="16.403207"
     inkscape:cy="50.21764"
     inkscape:window-width="1920"
     inkscape:window-height="1131"
     inkscape:window-x="0"
     inkscape:window-y="0"
     inkscape:window-maximized="1"
     inkscape:current-layer="svg4" />
  <path
     d="m 49.4075,52.387281 c -0.005,5.174838 -4.225,9.424706 -9.415,9.484705 A 9.2675,9.2672109 0 0 1 30.6,52.592276 V 24.453153 a 6.355,6.3548016 0 0 1 6.28,-6.324802 6.1675,6.1673075 0 0 1 6.2575,6.184807 v 28.141621 c 0,1.727447 -1.4125,3.139902 -3.1425,3.162402 A 3.085,3.0849038 0 0 1 36.8675,52.519777 V 27.510559 l -3.135,0.0325 v 25.011718 c 0,3.452392 2.8,6.224805 6.2675,6.187307 a 6.35,6.3498018 0 0 0 6.2725,-6.317303 V 24.28066 A 9.265,9.2647109 0 0 0 36.875,15.000948 9.5,9.4997034 0 0 0 27.5,24.480653 v 29.704073 c 0.76,6.159806 6.1,10.87716 12.4875,10.814661 6.3925,-0.075 11.74,-4.899846 12.5125,-11.082153 V 21.110758 h -3.0925 z"
     fill="#000000"
     fill-rule="evenodd"
     id="path2"
     style="stroke-width:2.49995" />
</svg>
