<?xml version="1.0" encoding="UTF-8" standalone="no"?>
<svg
   width="80"
   height="80"
   viewBox="0 0 80 80"
   version="1.1"
   id="svg12"
   sodipodi:docname="chat_micro_custom.svg"
   inkscape:version="1.1 (c68e22c387, 2021-05-23)"
   xmlns:inkscape="http://www.inkscape.org/namespaces/inkscape"
   xmlns:sodipodi="http://sodipodi.sourceforge.net/DTD/sodipodi-0.dtd"
   xmlns="http://www.w3.org/2000/svg"
   xmlns:svg="http://www.w3.org/2000/svg">
  <defs
     id="defs16" />
  <sodipodi:namedview
     id="namedview14"
     pagecolor="#ffffff"
     bordercolor="#666666"
     borderopacity="1.0"
     inkscape:pageshadow="2"
     inkscape:pageopacity="0.0"
     inkscape:pagecheckerboard="0"
     showgrid="false"
     inkscape:zoom="4.365"
     inkscape:cx="7.2164948"
     inkscape:cy="48.568156"
     inkscape:window-width="1920"
     inkscape:window-height="1131"
     inkscape:window-x="0"
     inkscape:window-y="0"
     inkscape:window-maximized="1"
     inkscape:current-layer="svg12" />
  <g
     fill="none"
     fill-rule="evenodd"
     id="g10"
     transform="matrix(1.6850146,0,0,2,25,15)">
    <g
       fill="#444444"
       fill-rule="nonzero"
       id="g8">
      <g
         id="g6">
        <g
           id="g4">
          <path
             d="m 1.69,12.667 c 0.627,3.413 3.617,6 7.212,6 3.595,0 6.585,-2.587 7.212,-6 h 1.69 C 17.208,16.68 13.962,19.83 9.901,20.278 V 25 h -2 V 20.278 C 3.842,19.83 0.597,16.68 0,12.666 H 1.69 Z M 8.902,0 c 3.13,0 5.667,2.537 5.667,5.667 v 5 c 0,3.13 -2.537,5.666 -5.667,5.666 -3.13,0 -5.667,-2.537 -5.667,-5.666 v -5 C 3.235,2.537 5.772,0 8.902,0 Z m 0,1.667 c -2.175,0 -3.945,1.736 -3.999,3.898 L 4.902,5.667 v 5 c 0,2.209 1.79,4 4,4 2.175,0 3.945,-1.737 3.999,-3.899 V 5.667 c 0,-2.21 -1.79,-4 -4,-4 z"
             id="path2" />
        </g>
      </g>
    </g>
  </g>
</svg>
