<?xml version="1.0" encoding="UTF-8" standalone="no"?>
<svg
   width="30"
   height="30"
   viewBox="0 0 30 30"
   version="1.1"
   id="svg21"
   sodipodi:docname="chat_room.svg"
   inkscape:version="1.1 (c68e22c387, 2021-05-23)"
   xmlns:inkscape="http://www.inkscape.org/namespaces/inkscape"
   xmlns:sodipodi="http://sodipodi.sourceforge.net/DTD/sodipodi-0.dtd"
   xmlns="http://www.w3.org/2000/svg"
   xmlns:svg="http://www.w3.org/2000/svg">
  <sodipodi:namedview
     id="namedview23"
     pagecolor="#ffffff"
     bordercolor="#666666"
     borderopacity="1.0"
     inkscape:pageshadow="2"
     inkscape:pageopacity="0.0"
     inkscape:pagecheckerboard="0"
     showgrid="false"
     width="30px"
     inkscape:zoom="22.636364"
     inkscape:cx="18.487952"
     inkscape:cy="18.487952"
     inkscape:window-width="1920"
     inkscape:window-height="1092"
     inkscape:window-x="1920"
     inkscape:window-y="33"
     inkscape:window-maximized="1"
     inkscape:current-layer="svg21" />
  <defs
     id="defs5">
    <filter
       id="d1wmealema"
       color-interpolation-filters="auto"
       x="0"
       y="0"
       width="1"
       height="1">
      <feColorMatrix
         in="SourceGraphic"
         values="0 0 0 0 0.349020 0 0 0 0 0.341176 0 0 0 0 0.349020 0 0 0 1.000000 0"
         id="feColorMatrix2" />
    </filter>
  </defs>
  <g
     fill="none"
     fill-rule="evenodd"
     id="g19"
     transform="matrix(0.55084802,0,0,0.55553678,-0.42038105,4.569459)">
    <g
       id="g17">
      <g
         id="g15">
        <g
           filter="url(#d1wmealema)"
           transform="translate(0.763635,0.775)"
           id="g13">
          <g
             fill="#444444"
             fill-rule="nonzero"
             id="g11">
            <path
               d="m 45.911,13.38 c 1.019,0 2,-0.213 2.882,-0.616 0.049,-0.022 0.098,-0.04 0.149,-0.055 0.06,-0.018 0.21,-0.075 0.417,-0.178 0.362,-0.18 0.727,-0.419 1.066,-0.723 0.294,-0.264 0.555,-0.565 0.775,-0.906 0.432,-0.67 0.709,-1.305 0.864,-1.88 0.052,-0.19 0.085,-0.358 0.104,-0.498 L 52.18,8.419 52.185,8.326 c 0.018,-0.169 0.026,-0.34 0.026,-0.51 0,-3.046 -2.796,-5.566 -6.3,-5.566 -3.503,0 -6.3,2.52 -6.3,5.565 0,1.452 0.633,2.82 1.758,3.855 0.181,0.166 0.302,0.388 0.346,0.63 l 0.013,0.075 c 0.157,0.635 0.156,1.22 0.026,1.752 0.291,-0.182 0.532,-0.363 0.74,-0.542 0.071,-0.06 0.132,-0.116 0.184,-0.166 l 0.043,-0.041 0.028,-0.028 0.032,-0.03 C 42.8,13.303 42.8,13.303 42.887,13.235 l 0.1,-0.063 0.849,-0.1 c 0.678,0.206 1.367,0.308 2.075,0.308 z m 0,2.25 c -0.707,0 -1.404,-0.078 -2.077,-0.232 -0.258,0.213 -0.545,0.422 -0.86,0.62 -1.44,0.905 -3.045,1.324 -4.733,0.947 -1.135,-0.253 -1.186,-1.852 -0.07,-2.178 0.027,-0.008 0.105,-0.035 0.216,-0.083 0.193,-0.084 0.386,-0.19 0.56,-0.315 0.5,-0.359 0.72,-0.756 0.628,-1.324 -1.41,-1.421 -2.214,-3.275 -2.214,-5.25 0,-4.343 3.853,-7.815 8.55,-7.815 4.697,0 8.55,3.472 8.55,7.815 0,0.235 -0.01,0.468 -0.033,0.7 -0.011,0.253 -0.065,0.625 -0.192,1.095 -0.214,0.794 -0.585,1.641 -1.145,2.51 -0.332,0.516 -0.725,0.969 -1.164,1.363 -0.5,0.448 -1.032,0.798 -1.568,1.064 -0.283,0.14 -0.521,0.236 -0.696,0.293 -1.159,0.518 -2.435,0.79 -3.752,0.79 z M 42.454,5.506 h 6.895 c 1.5,0 1.5,2.25 0,2.25 h -6.895 c -1.5,0 -1.5,-2.25 0,-2.25 z m 0,2.818 h 6.895 c 1.5,0 1.5,2.25 0,2.25 h -6.895 c -1.5,0 -1.5,-2.25 0,-2.25 z M 8.671,32.229 c 2.257,0.675 4.576,1.106 6.87,1.336 1.674,0.167 3.097,0.207 4.157,0.177 0.104,-0.003 0.173,-0.006 0.203,-0.008 l 0.209,-0.002 0.265,0.01 c 1.06,0.03 2.483,-0.01 4.156,-0.177 2.295,-0.23 4.614,-0.66 6.87,-1.336 0.34,-1.838 0.01,-3.916 -1.507,-5.904 -1.151,-1.51 -2.924,-2.845 -5.428,-3.946 -0.064,-0.028 -0.124,-0.061 -0.181,-0.1 l -0.274,-0.187 c -0.607,-0.413 -0.662,-1.287 -0.112,-1.773 0.087,-0.103 0.105,-0.125 0.185,-0.21 0.944,-1.019 1.478,-2.356 1.478,-3.782 0,-3.055 -2.448,-5.527 -5.463,-5.527 h -0.126 c -3.014,0 -5.462,2.472 -5.462,5.527 0,1.426 0.534,2.763 1.48,3.783 0.079,0.086 0.092,0.102 0.163,0.193 0.57,0.5 0.516,1.377 -0.093,1.79 l -0.276,0.187 c -0.056,0.038 -0.116,0.071 -0.178,0.099 -2.504,1.1 -4.277,2.437 -5.428,3.946 -1.517,1.988 -1.848,4.066 -1.508,5.904 z m 11.32,3.753 -0.229,0.009 c -1.151,0.033 -2.67,-0.01 -4.444,-0.187 C 12.671,35.539 9.992,35.021 7.388,34.187 7.05,34.079 6.784,33.818 6.668,33.484 6.615,33.33 6.545,33.081 6.48,32.747 5.999,30.307 6.414,27.55 8.39,24.96 c 1.217,-1.596 2.96,-2.995 5.276,-4.155 -0.905,-1.294 -1.405,-2.848 -1.405,-4.478 0,-4.293 3.45,-7.777 7.712,-7.777 h 0.126 c 4.263,0 7.713,3.484 7.713,7.777 0,1.63 -0.5,3.183 -1.406,4.478 2.316,1.16 4.06,2.56 5.277,4.155 1.976,2.59 2.39,5.347 1.91,7.787 -0.066,0.334 -0.135,0.583 -0.188,0.737 -0.116,0.334 -0.383,0.595 -0.72,0.703 -2.604,0.834 -5.284,1.352 -7.93,1.617 -1.775,0.177 -3.294,0.22 -4.445,0.187 l -0.228,-0.009 z"
               id="path7" />
            <path
               d="m 27.704,16.327 c 0,1.63 -0.5,3.183 -1.405,4.478 3.468,1.736 5.623,3.985 6.655,6.56 1.97,-0.151 4.02,-0.496 6.038,-1.09 0.223,-1.387 -0.052,-2.942 -1.193,-4.437 -0.901,-1.181 -2.296,-2.232 -4.275,-3.102 -0.063,-0.028 -0.123,-0.061 -0.18,-0.1 l -0.221,-0.15 c -0.607,-0.414 -0.662,-1.288 -0.111,-1.774 0.049,-0.062 0.069,-0.085 0.132,-0.153 0.721,-0.778 1.129,-1.799 1.129,-2.889 0,-2.333 -1.868,-4.22 -4.168,-4.22 h -0.102 c -1.611,0 -3.048,0.935 -3.739,2.35 0.928,1.306 1.44,2.878 1.44,4.527 z m 5.278,0.423 0.002,-0.001 z m -7.719,3.57 -0.452,1.03 0.633,-0.93 -0.085,-0.058 c -0.031,-0.015 -0.063,-0.029 -0.096,-0.043 z m -1.287,-0.211 c 0.945,-1.019 1.478,-2.356 1.478,-3.782 0,-1.348 -0.476,-2.617 -1.33,-3.615 -0.255,-0.299 -0.336,-0.71 -0.213,-1.083 C 24.775,9.007 27.216,7.2 30.003,7.2 h 0.102 c 3.547,0 6.418,2.9 6.418,6.47 0,1.269 -0.364,2.482 -1.028,3.515 1.78,0.925 3.133,2.03 4.093,3.289 1.631,2.137 1.974,4.416 1.576,6.434 -0.054,0.279 -0.113,0.489 -0.159,0.622 -0.116,0.334 -0.382,0.594 -0.72,0.702 -2.702,0.866 -5.457,1.303 -8.056,1.432 -0.517,0.026 -0.985,-0.306 -1.133,-0.802 -0.755,-2.53 -2.838,-4.77 -6.738,-6.483 -0.063,-0.028 -0.124,-0.061 -0.18,-0.1 l -0.275,-0.187 c -0.607,-0.413 -0.661,-1.287 -0.111,-1.773 0.086,-0.103 0.105,-0.125 0.184,-0.21 z m -10.31,0.696 c -0.905,-1.294 -1.405,-2.848 -1.405,-4.478 0,-2.066 0.805,-4 2.192,-5.432 C 13.675,9.992 12.54,9.45 11.312,9.45 H 11.21 c -2.3,0 -4.168,1.887 -4.168,4.22 0,1.09 0.408,2.111 1.13,2.89 0.064,0.069 0.08,0.088 0.13,0.15 0.553,0.486 0.498,1.363 -0.111,1.777 l -0.221,0.15 c -0.057,0.038 -0.117,0.071 -0.18,0.099 -1.978,0.87 -3.373,1.92 -4.274,3.102 -1.14,1.495 -1.416,3.05 -1.193,4.438 1.561,0.458 3.157,0.771 4.741,0.96 1.053,-2.522 3.194,-4.725 6.602,-6.431 z M 8.333,16.75 8.332,16.748 v 0.002 z m 6.19,3.667 0.63,0.931 -0.452,-1.03 -0.095,0.042 -0.084,0.057 z m 1.538,1.675 -0.276,0.187 C 15.729,22.317 15.669,22.35 15.607,22.378 11.752,24.072 9.671,26.281 8.894,28.78 8.737,29.287 8.246,29.615 7.717,29.566 5.495,29.362 3.232,28.936 1.03,28.231 0.693,28.123 0.426,27.863 0.31,27.529 0.264,27.396 0.206,27.186 0.15,26.907 -0.247,24.888 0.096,22.61 1.727,20.473 2.687,19.214 4.04,18.108 5.82,17.183 5.157,16.151 4.792,14.938 4.792,13.669 c 0,-3.57 2.871,-6.47 6.418,-6.47 h 0.102 c 2.356,0 4.486,1.29 5.61,3.325 0.267,0.483 0.144,1.089 -0.29,1.43 -1.329,1.04 -2.121,2.638 -2.121,4.372 0,1.426 0.534,2.763 1.48,3.783 0.079,0.086 0.092,0.102 0.163,0.193 0.57,0.5 0.516,1.377 -0.093,1.79 z"
               id="path9" />
          </g>
        </g>
      </g>
    </g>
  </g>
</svg>
