<?xml version="1.0" encoding="UTF-8" standalone="no"?>
<svg
   width="80"
   height="80"
   viewBox="0 0 80.000002 80"
   version="1.1"
   id="svg6"
   sodipodi:docname="chat_micro_custom.svg"
   inkscape:version="1.1.2 (0a00cf5339, 2022-02-04)"
   xmlns:inkscape="http://www.inkscape.org/namespaces/inkscape"
   xmlns:sodipodi="http://sodipodi.sourceforge.net/DTD/sodipodi-0.dtd"
   xmlns="http://www.w3.org/2000/svg"
   xmlns:svg="http://www.w3.org/2000/svg"
   xmlns:rdf="http://www.w3.org/1999/02/22-rdf-syntax-ns#"
   xmlns:cc="http://creativecommons.org/ns#"
   xmlns:dc="http://purl.org/dc/elements/1.1/">
  <defs
     id="defs10" />
  <sodipodi:namedview
     id="namedview8"
     pagecolor="#ffffff"
     bordercolor="#666666"
     borderopacity="1.0"
     inkscape:pageshadow="2"
     inkscape:pageopacity="0.0"
     inkscape:pagecheckerboard="0"
     showgrid="false"
     inkscape:zoom="5.5533333"
     inkscape:cx="-6.6626651"
     inkscape:cy="1.4405762"
     inkscape:window-width="1920"
     inkscape:window-height="1163"
     inkscape:window-x="1920"
     inkscape:window-y="500"
     inkscape:window-maximized="1"
     inkscape:current-layer="svg6" />
  <title
     id="title2">Icons/Microphone</title>
  <g
     id="Icons/Microphone"
     stroke="none"
     stroke-width="1"
     fill="none"
     fill-rule="evenodd"
     transform="matrix(0.66666667,0,0,0.66666667,22.5,15)">
    <path
       d="M 5.0684271,37.999599 C 6.9492918,48.240269 15.921329,56 26.705748,56 37.49001,56 46.461942,48.240497 48.342987,38.000049 l 5.06851,-5.8e-5 C 51.62331,50.041198 41.885134,59.489062 29.705287,60.835265 L 29.705748,75 h -6 L 23.70521,60.835154 C 11.52583,59.488545 1.7881379,50.040869 0,37.999991 Z M 26.705748,0 c 9.388841,0 17,7.6111592 17,17 v 15 c 0,9.388841 -7.611159,17 -17,17 C 17.316908,49 9.7057484,41.388841 9.7057484,32 V 17 c 0,-9.3888408 7.6111596,-17 16.9999996,-17 z m 0,5 c -6.525456,0 -11.834392,5.208544 -11.9962,11.695025 L 14.705748,17 v 15 c 0,6.627417 5.372583,12 12,12 6.525457,0 11.834393,-5.208544 11.9962,-11.695025 L 38.705748,32 V 17 c 0,-6.627417 -5.372583,-12 -12,-12 z"
       id="Combined-Shape"
       fill="#000000"
       fill-rule="nonzero" />
  </g>
  <metadata
     id="metadata827">
    <rdf:RDF>
      <cc:Work
         rdf:about="">
        <dc:title>Icons/Microphone</dc:title>
      </cc:Work>
    </rdf:RDF>
  </metadata>
</svg>
