<?xml version="1.0" standalone="yes"?>
<svg width="56" height="56">
<path style="fill:#000000; stroke:none;" d="M0 0L0 56L56 56L56 0L0 0z"/>
<path style="fill:#a1a1a1; stroke:none;" d="M10.0154 4.74228C0.1465 8.63443 3.99673 28.5359 4 37C4.0014 40.6204 3.56014 44.7548 5.74228 47.8912C10.5596 54.8152 38.5589 54.1863 45.9846 51.2577C55.8535 47.3656 52.0033 27.4641 52 19C51.9986 15.3796 52.4399 11.2452 50.2577 8.1088C45.4404 1.18482 17.4411 1.81372 10.0154 4.74228z"/>
<path style="fill:#5b595b; stroke:none;" d="M14.3179 25.0864C10.5599 27.2561 13.924 33.0833 17.6821 30.9136C21.4402 28.7439 18.076 22.9167 14.3179 25.0864M26.3179 25.0864C22.5599 27.2561 25.924 33.0833 29.6821 30.9136C33.4401 28.7439 30.076 22.9167 26.3179 25.0864M38.3179 25.0864C34.5598 27.2561 37.924 33.0833 41.6821 30.9136C45.4401 28.7439 42.076 22.9167 38.3179 25.0864z"/>
</svg>
