<?xml version="1.0" encoding="UTF-8" standalone="no"?>
<svg
   width="500"
   height="60"
   viewBox="0 0 500 60"
   version="1.1"
   id="svg8"
   sodipodi:docname="chat_audio_soundwave_custom.svg"
   inkscape:version="1.1 (c68e22c387, 2021-05-23)"
   xmlns:inkscape="http://www.inkscape.org/namespaces/inkscape"
   xmlns:sodipodi="http://sodipodi.sourceforge.net/DTD/sodipodi-0.dtd"
   xmlns="http://www.w3.org/2000/svg"
   xmlns:svg="http://www.w3.org/2000/svg">
  <defs
     id="defs12" />
  <sodipodi:namedview
     id="namedview10"
     pagecolor="#ffffff"
     bordercolor="#666666"
     borderopacity="1.0"
     inkscape:pageshadow="2"
     inkscape:pageopacity="0.0"
     inkscape:pagecheckerboard="0"
     showgrid="false"
     inkscape:zoom="1.2704082"
     inkscape:cx="250.70682"
     inkscape:cy="-59.036143"
     inkscape:window-width="1920"
     inkscape:window-height="1043"
     inkscape:window-x="0"
     inkscape:window-y="0"
     inkscape:window-maximized="1"
     inkscape:current-layer="svg8" />
  <g
     fill="none"
     fill-rule="evenodd"
     id="g6"
     transform="matrix(1.0204082,0,0,0.66666667,0,10)">
    <g
       fill="#444444"
       fill-rule="nonzero"
       id="g4">
      <path
         d="m 65,0 c 2.761,0 5,2.239 5,5 v 50 c 0,2.761 -2.239,5 -5,5 -2.761,0 -5,-2.239 -5,-5 V 5 c 0,-2.761 2.239,-5 5,-5 z m 120,0 c 2.761,0 5,2.239 5,5 v 50 c 0,2.761 -2.239,5 -5,5 -2.761,0 -5,-2.239 -5,-5 V 5 c 0,-2.761 2.239,-5 5,-5 z m 120,0 c 2.761,0 5,2.239 5,5 v 50 c 0,2.761 -2.239,5 -5,5 -2.761,0 -5,-2.239 -5,-5 V 5 c 0,-2.761 2.239,-5 5,-5 z m 120,0 c 2.761,0 5,2.239 5,5 v 50 c 0,2.761 -2.239,5 -5,5 -2.761,0 -5,-2.239 -5,-5 V 5 c 0,-2.761 2.239,-5 5,-5 z M 85,5 c 2.761,0 5,2.239 5,5 v 40 c 0,2.761 -2.239,5 -5,5 -2.761,0 -5,-2.239 -5,-5 V 10 c 0,-2.761 2.239,-5 5,-5 z m 120,0 c 2.761,0 5,2.239 5,5 v 40 c 0,2.761 -2.239,5 -5,5 -2.761,0 -5,-2.239 -5,-5 V 10 c 0,-2.761 2.239,-5 5,-5 z m 120,0 c 2.761,0 5,2.239 5,5 v 40 c 0,2.761 -2.239,5 -5,5 -2.761,0 -5,-2.239 -5,-5 V 10 c 0,-2.761 2.239,-5 5,-5 z m 120,0 c 2.761,0 5,2.239 5,5 v 40 c 0,2.761 -2.239,5 -5,5 -2.761,0 -5,-2.239 -5,-5 V 10 c 0,-2.761 2.239,-5 5,-5 z M 45,5 c 2.761,0 5,2.239 5,5 v 40 c 0,2.761 -2.239,5 -5,5 -2.761,0 -5,-2.239 -5,-5 V 10 c 0,-2.761 2.239,-5 5,-5 z m 120,0 c 2.761,0 5,2.239 5,5 v 40 c 0,2.761 -2.239,5 -5,5 -2.761,0 -5,-2.239 -5,-5 V 10 c 0,-2.761 2.239,-5 5,-5 z m 120,0 c 2.761,0 5,2.239 5,5 v 40 c 0,2.761 -2.239,5 -5,5 -2.761,0 -5,-2.239 -5,-5 V 10 c 0,-2.761 2.239,-5 5,-5 z m 120,0 c 2.761,0 5,2.239 5,5 v 40 c 0,2.761 -2.239,5 -5,5 -2.761,0 -5,-2.239 -5,-5 V 10 c 0,-2.761 2.239,-5 5,-5 z M 25,15 c 2.761,0 5,2.239 5,5 v 20 c 0,2.761 -2.239,5 -5,5 -2.761,0 -5,-2.239 -5,-5 V 20 c 0,-2.761 2.239,-5 5,-5 z m 120,0 c 2.761,0 5,2.239 5,5 v 20 c 0,2.761 -2.239,5 -5,5 -2.761,0 -5,-2.239 -5,-5 V 20 c 0,-2.761 2.239,-5 5,-5 z m 120,0 c 2.761,0 5,2.239 5,5 v 20 c 0,2.761 -2.239,5 -5,5 -2.761,0 -5,-2.239 -5,-5 V 20 c 0,-2.761 2.239,-5 5,-5 z m 120,0 c 2.761,0 5,2.239 5,5 v 20 c 0,2.761 -2.239,5 -5,5 -2.761,0 -5,-2.239 -5,-5 V 20 c 0,-2.761 2.239,-5 5,-5 z m -280,0 c 2.761,0 5,2.239 5,5 v 20 c 0,2.761 -2.239,5 -5,5 -2.761,0 -5,-2.239 -5,-5 V 20 c 0,-2.761 2.239,-5 5,-5 z m 120,0 c 2.761,0 5,2.239 5,5 v 20 c 0,2.761 -2.239,5 -5,5 -2.761,0 -5,-2.239 -5,-5 V 20 c 0,-2.761 2.239,-5 5,-5 z m 120,0 c 2.761,0 5,2.239 5,5 v 20 c 0,2.761 -2.239,5 -5,5 -2.761,0 -5,-2.239 -5,-5 V 20 c 0,-2.761 2.239,-5 5,-5 z m 120,0 c 2.761,0 5,2.239 5,5 v 20 c 0,2.761 -2.239,5 -5,5 -2.761,0 -5,-2.239 -5,-5 V 20 c 0,-2.761 2.239,-5 5,-5 z M 5,25 c 2.761,0 5,2.239 5,5 0,2.761 -2.239,5 -5,5 -2.761,0 -5,-2.239 -5,-5 0,-2.761 2.239,-5 5,-5 z m 120,0 c 2.761,0 5,2.239 5,5 0,2.761 -2.239,5 -5,5 -2.761,0 -5,-2.239 -5,-5 0,-2.761 2.239,-5 5,-5 z m 120,0 c 2.761,0 5,2.239 5,5 0,2.761 -2.239,5 -5,5 -2.761,0 -5,-2.239 -5,-5 0,-2.761 2.239,-5 5,-5 z m 120,0 c 2.761,0 5,2.239 5,5 0,2.761 -2.239,5 -5,5 -2.761,0 -5,-2.239 -5,-5 0,-2.761 2.239,-5 5,-5 z m 120,0 c 2.761,0 5,2.239 5,5 0,2.761 -2.239,5 -5,5 -2.761,0 -5,-2.239 -5,-5 0,-2.761 2.239,-5 5,-5 z"
         id="path2" />
    </g>
  </g>
</svg>
