<?xml version="1.0" encoding="UTF-8" standalone="no"?>
<svg
   width="80"
   height="80"
   viewBox="0 0 80 80"
   fill="none"
   version="1.1"
   id="svg8"
   sodipodi:docname="chat_room_custom.svg"
   inkscape:version="1.1.2 (0a00cf5339, 2022-02-04)"
   xmlns:inkscape="http://www.inkscape.org/namespaces/inkscape"
   xmlns:sodipodi="http://sodipodi.sourceforge.net/DTD/sodipodi-0.dtd"
   xmlns="http://www.w3.org/2000/svg"
   xmlns:svg="http://www.w3.org/2000/svg">
  <defs
     id="defs12" />
  <sodipodi:namedview
     id="namedview10"
     pagecolor="#ffffff"
     bordercolor="#666666"
     borderopacity="1.0"
     inkscape:pageshadow="2"
     inkscape:pageopacity="0.0"
     inkscape:pagecheckerboard="0"
     showgrid="false"
     inkscape:zoom="6.9166667"
     inkscape:cx="15.180723"
     inkscape:cy="22.987952"
     inkscape:window-width="1920"
     inkscape:window-height="1043"
     inkscape:window-x="0"
     inkscape:window-y="0"
     inkscape:window-maximized="1"
     inkscape:current-layer="svg8" />
  <g
     id="g832"
     transform="matrix(0.67345025,0,0,0.67345025,9.9999997,20)">
    <path
       fill-rule="evenodd"
       clip-rule="evenodd"
       d="m 33.7385,59.5539 c -5.4936,-0.5499 -11.046,-1.5836 -16.4472,-3.2018 -0.8149,-4.4048 -0.0225,-9.3836 3.6084,-14.1483 2.756,-3.6166 7.0003,-6.8186 12.9943,-9.456 0.1497,-0.0658 0.2931,-0.1452 0.4285,-0.2371 l 0.6594,-0.4479 c 1.4585,-0.9906 1.5891,-3.0935 0.2234,-4.291 C 35.0358,27.5543 35.0033,27.5167 34.813,27.3106 32.5497,24.8668 31.2713,21.6615 31.2713,18.2449 31.2713,10.924 37.1314,5 44.3466,5 h 0.3033 c 7.2171,0 13.0769,5.9235 13.0769,13.2449 0,3.4172 -1.278,6.6224 -3.5383,9.063 -0.1905,0.2048 -0.2352,0.2573 -0.4418,0.5031 -1.3173,1.1642 -1.186,3.2589 0.2664,4.2491 L 54.67,32.508 c 0.1365,0.0931 0.2813,0.1734 0.4325,0.2399 5.9945,2.6373 10.2391,5.8394 12.9953,9.456 3.6313,4.7647 4.4238,9.7434 3.609,14.1482 -5.4018,1.6182 -10.9545,2.6519 -16.4482,3.2018 -4.0055,0.4008 -7.4119,0.4967 -9.9495,0.4236 -0.1865,-0.0054 -0.3252,-0.0106 -0.4752,-0.0162 -0.0509,-0.002 -0.1031,-0.0039 -0.1589,-0.006 l -0.4995,0.0041 c -0.0734,0.004 -0.2375,0.0109 -0.4874,0.0181 -2.5377,0.0731 -5.9441,-0.0228 -9.9496,-0.4236 z"
       fill="#444444"
       id="path2" />
    <path
       d="m 62.1606,17.3664 c 0,4.0408 -1.3225,8.2219 -3.5628,11.4314 8.5813,4.3036 11.0776,8.8212 13.6299,15.2022 4.874,-0.3728 11.6211,-1.122 16.5902,-2.8452 0.8014,-4.0073 -0.0642,-8.6958 -3.6707,-12.3023 -2.6641,-2.6641 -4.1035,-4.1096 -8.7036,-6.1351 -0.1563,-0.0689 -0.3481,-0.1803 -0.4891,-0.2766 -1.7232,-0.8015 -2.5246,-1.6029 -2.1239,-3.2058 0,-0.4008 1.021,-1.3364 1.2022,-1.6029 1.4108,-2.0755 2.5647,-3.3516 2.5647,-7.2132 C 77.5975,4.80874 73.2857,0 66.6175,0 61.408,0 57.8015,4.00729 57,7.21311 c 2.2963,3.23579 5.1606,6.06519 5.1606,10.15329 z"
       fill="#444444"
       id="path4" />
    <path
       d="m 26.8544,17.3664 c 0,4.0408 1.3187,8.2219 3.5525,11.4314 C 21.8505,33.1014 19.3615,37.619 16.8166,44 11.9569,43.6272 5.22934,42.878 0.274772,41.1548 -0.524352,37.1475 0.338703,32.459 3.93476,28.8525 6.59109,26.1884 8.02628,24.7429 12.613,22.7174 c 0.1559,-0.0689 0.347,-0.1803 0.4877,-0.2766 1.7181,-0.8015 2.5173,-1.6029 2.1177,-3.2058 0,-0.4008 -1.018,-1.3364 -1.1987,-1.6029 C 12.613,15.5566 11.4625,14.2805 11.4625,10.4189 11.4625,4.80874 15.7617,0 22.4105,0 27.6048,0 31.2009,4.00729 32,7.21311 29.7104,10.4489 26.8544,13.2783 26.8544,17.3664 Z"
       fill="#444444"
       id="path6" />
  </g>
</svg>
