<?xml version="1.0" encoding="UTF-8" standalone="no"?>
<svg
   width="30"
   height="30"
   version="1.1"
   id="svg8"
   sodipodi:docname="chat_room_light.svg"
   inkscape:version="1.1 (c68e22c387, 2021-05-23)"
   xmlns:inkscape="http://www.inkscape.org/namespaces/inkscape"
   xmlns:sodipodi="http://sodipodi.sourceforge.net/DTD/sodipodi-0.dtd"
   xmlns="http://www.w3.org/2000/svg"
   xmlns:svg="http://www.w3.org/2000/svg">
  <defs
     id="defs12" />
  <sodipodi:namedview
     id="namedview10"
     pagecolor="#ffffff"
     bordercolor="#666666"
     borderopacity="1.0"
     inkscape:pageshadow="2"
     inkscape:pageopacity="0.0"
     inkscape:pagecheckerboard="true"
     showgrid="false"
     inkscape:zoom="20.421053"
     inkscape:cx="5.4600516"
     inkscape:cy="10.087629"
     inkscape:window-width="1920"
     inkscape:window-height="1131"
     inkscape:window-x="0"
     inkscape:window-y="0"
     inkscape:window-maximized="1"
     inkscape:current-layer="svg8" />
  <g
     fill="#ffffff"
     fill-rule="nonzero"
     id="g6"
     transform="matrix(1.101667,0,0,1.1111909,0.13050176,4.3844002)">
    <path
       d="m 22.838,7.244 c 0.509,0 1,-0.106 1.44,-0.308 a 0.563,0.563 0 0 1 0.075,-0.027 2.39,2.39 0 0 0 0.741,-0.45 c 0.147,-0.133 0.278,-0.283 0.388,-0.454 0.216,-0.335 0.354,-0.652 0.432,-0.94 a 1.96,1.96 0 0 0 0.052,-0.249 l 0.006,-0.052 0.002,-0.047 c 0.01,-0.084 0.014,-0.17 0.014,-0.255 0,-1.523 -1.399,-2.783 -3.15,-2.783 -1.752,0 -3.15,1.26 -3.15,2.783 0,0.726 0.316,1.41 0.878,1.927 0.09,0.083 0.152,0.194 0.173,0.315 l 0.007,0.037 c 0.078,0.318 0.078,0.611 0.013,0.877 A 3.054,3.054 0 0 0 21.242,7.243 L 21.256,7.229 21.272,7.214 21.325,7.172 21.375,7.14 21.8,7.09 c 0.339,0.103 0.683,0.154 1.038,0.154 z m 0,1.125 A 4.67,4.67 0 0 1 21.798,8.253 C 21.67,8.36 21.526,8.464 21.369,8.563 20.649,9.016 19.846,9.225 19.002,9.037 18.435,8.91 18.409,8.111 18.967,7.947 a 1.522,1.522 0 0 0 0.388,-0.2 c 0.25,-0.178 0.36,-0.376 0.314,-0.66 -0.705,-0.71 -1.107,-1.638 -1.107,-2.625 0,-2.172 1.927,-3.908 4.276,-3.908 2.348,0 4.275,1.736 4.275,3.908 0,0.117 -0.006,0.234 -0.017,0.35 A 2.605,2.605 0 0 1 27,5.359 4.49,4.49 0 0 1 26.427,6.615 3.357,3.357 0 0 1 25.845,7.295 c -0.25,0.225 -0.516,0.4 -0.784,0.533 -0.141,0.07 -0.26,0.117 -0.348,0.146 a 4.596,4.596 0 0 1 -1.875,0.395 z m -1.73,-5.062 h 3.448 c 0.75,0 0.75,1.125 0,1.125 H 21.11 c -0.75,0 -0.75,-1.125 0,-1.125 z m 0,1.41 h 3.448 c 0.75,0 0.75,1.124 0,1.124 H 21.11 c -0.75,0 -0.75,-1.125 0,-1.125 z M 4.217,16.669 c 1.129,0.337 2.288,0.553 3.436,0.668 a 16.614,16.614 0 0 0 2.18,0.084 h 0.104 l 0.132,0.004 c 0.53,0.015 1.242,-0.005 2.078,-0.088 a 18.392,18.392 0 0 0 3.436,-0.668 c 0.17,-0.92 0.004,-1.958 -0.754,-2.952 -0.576,-0.755 -1.462,-1.423 -2.714,-1.973 a 0.562,0.562 0 0 1 -0.09,-0.05 L 11.887,11.6 a 0.562,0.562 0 0 1 -0.056,-0.886 c 0.044,-0.052 0.053,-0.063 0.093,-0.105 A 2.77,2.77 0 0 0 12.663,8.718 C 12.663,7.19 11.439,5.954 9.932,5.954 H 9.868 c -1.507,0 -2.73,1.236 -2.73,2.764 0,0.713 0.266,1.381 0.739,1.891 0.04,0.043 0.047,0.051 0.082,0.096 a 0.564,0.564 0 0 1 -0.047,0.896 l -0.137,0.093 a 0.562,0.562 0 0 1 -0.09,0.05 c -1.252,0.55 -2.138,1.218 -2.714,1.973 -0.758,0.994 -0.924,2.033 -0.754,2.952 z m 5.66,1.876 A 17.716,17.716 0 0 1 7.54,18.455 19.328,19.328 0 0 1 3.576,17.647 0.563,0.563 0 0 1 3.216,17.297 2.878,2.878 0 0 1 3.122,16.927 c -0.24,-1.22 -0.033,-2.598 0.955,-3.893 0.608,-0.798 1.48,-1.497 2.638,-2.077 A 3.898,3.898 0 0 1 6.012,8.717 c 0,-2.146 1.725,-3.888 3.856,-3.888 h 0.064 c 2.13,0 3.856,1.742 3.856,3.889 0,0.815 -0.25,1.591 -0.703,2.239 1.158,0.58 2.03,1.28 2.638,2.077 0.988,1.295 1.196,2.673 0.955,3.894 a 2.877,2.877 0 0 1 -0.094,0.368 0.563,0.563 0 0 1 -0.36,0.351 19.332,19.332 0 0 1 -3.965,0.809 17.716,17.716 0 0 1 -2.336,0.09 H 9.877 Z"
       id="path2" />
    <path
       d="m 13.734,8.718 c 0,0.815 -0.25,1.591 -0.703,2.239 1.734,0.868 2.812,1.992 3.328,3.28 0.985,-0.076 2.01,-0.248 3.019,-0.545 0.112,-0.694 -0.026,-1.471 -0.596,-2.219 -0.451,-0.59 -1.148,-1.116 -2.138,-1.55 A 0.562,0.562 0 0 1 16.554,9.872 L 16.444,9.797 A 0.563,0.563 0 0 1 16.388,8.91 0.99,0.99 0 0 1 16.454,8.834 c 0.36,-0.39 0.564,-0.9 0.564,-1.445 0,-1.166 -0.934,-2.11 -2.084,-2.11 h -0.05 c -0.806,0 -1.525,0.468 -1.87,1.176 0.464,0.652 0.72,1.438 0.72,2.263 z m 2.639,0.211 z m -3.86,1.785 -0.226,0.515 0.317,-0.465 -0.042,-0.029 A 12.052,12.052 0 0 0 12.514,10.714 Z M 11.87,10.609 A 2.77,2.77 0 0 0 12.609,8.718 2.77,2.77 0 0 0 11.944,6.91 0.563,0.563 0 0 1 11.837,6.369 3.212,3.212 0 0 1 14.883,4.154 h 0.051 c 1.774,0 3.21,1.45 3.21,3.235 0,0.635 -0.183,1.241 -0.515,1.758 0.89,0.462 1.567,1.015 2.047,1.644 0.815,1.069 0.987,2.208 0.788,3.217 -0.027,0.14 -0.056,0.245 -0.08,0.311 a 0.562,0.562 0 0 1 -0.36,0.351 15.836,15.836 0 0 1 -4.028,0.716 0.562,0.562 0 0 1 -0.566,-0.4 C 15.052,13.72 14.01,12.601 12.06,11.744 a 0.562,0.562 0 0 1 -0.09,-0.05 L 11.833,11.6 a 0.562,0.562 0 0 1 -0.055,-0.886 c 0.043,-0.052 0.052,-0.063 0.092,-0.105 z M 6.715,10.956 A 3.898,3.898 0 0 1 6.012,8.718 c 0,-1.033 0.403,-2 1.096,-2.716 A 2.07,2.07 0 0 0 5.538,5.279 H 5.487 c -1.15,0 -2.084,0.944 -2.084,2.11 0,0.545 0.204,1.056 0.565,1.445 C 4,8.869 4.008,8.878 4.033,8.909 A 0.563,0.563 0 0 1 3.977,9.798 l -0.11,0.075 a 0.563,0.563 0 0 1 -0.09,0.05 c -0.99,0.434 -1.687,0.96 -2.137,1.55 -0.57,0.748 -0.708,1.525 -0.597,2.22 0.78,0.228 1.579,0.385 2.37,0.48 C 3.94,12.911 5.011,11.81 6.715,10.956 Z M 4.048,8.93 Z m 3.095,1.834 0.316,0.466 -0.227,-0.515 -0.047,0.02 -0.042,0.03 z m 0.77,0.838 -0.138,0.093 a 0.562,0.562 0 0 1 -0.09,0.05 c -1.927,0.847 -2.968,1.951 -3.356,3.2 A 0.563,0.563 0 0 1 3.74,15.339 15.687,15.687 0 0 1 0.397,14.671 0.563,0.563 0 0 1 0.037,14.32 2.417,2.417 0 0 1 -0.043,14.01 C -0.242,13 -0.07,11.86 0.745,10.792 1.225,10.162 1.902,9.61 2.792,9.148 A 3.244,3.244 0 0 1 2.278,7.39 c 0,-1.785 1.435,-3.235 3.209,-3.235 h 0.05 c 1.179,0 2.244,0.645 2.806,1.663 A 0.563,0.563 0 0 1 8.198,6.532 2.77,2.77 0 0 0 7.138,8.719 c 0,0.713 0.266,1.381 0.739,1.891 0.04,0.043 0.047,0.051 0.082,0.096 a 0.564,0.564 0 0 1 -0.047,0.896 z"
       id="path4" />
  </g>
</svg>
