<?xml version="1.0" encoding="UTF-8" standalone="no"?>
<svg
   width="60"
   height="60"
   viewBox="0 0 60 60"
   version="1.1"
   id="svg8"
   sodipodi:docname="chat_audio_soundwave_custom.svg"
   inkscape:version="1.1.2 (0a00cf5339, 2022-02-04)"
   xmlns:inkscape="http://www.inkscape.org/namespaces/inkscape"
   xmlns:sodipodi="http://sodipodi.sourceforge.net/DTD/sodipodi-0.dtd"
   xmlns="http://www.w3.org/2000/svg"
   xmlns:svg="http://www.w3.org/2000/svg">
  <defs
     id="defs12" />
  <sodipodi:namedview
     id="namedview10"
     pagecolor="#ffffff"
     bordercolor="#666666"
     borderopacity="1.0"
     inkscape:pageshadow="2"
     inkscape:pageopacity="0.0"
     inkscape:pagecheckerboard="0"
     showgrid="false"
     inkscape:zoom="2.5408164"
     inkscape:cx="-1.37751"
     inkscape:cy="35.421686"
     inkscape:window-width="1458"
     inkscape:window-height="749"
     inkscape:window-x="146"
     inkscape:window-y="99"
     inkscape:window-maximized="0"
     inkscape:current-layer="svg8"
     showguides="false" />
  <g
     fill="none"
     fill-rule="evenodd"
     id="g6"
     transform="matrix(0.5,0,0,0.66666667,0,10)">
    <g
       fill="#444444"
       fill-rule="nonzero"
       id="g4">
      <path
         id="path2"
         d="m 65,0 c 2.761,0 5,2.239 5,5 v 50 c 0,2.761 -2.239,5 -5,5 -2.761,0 -5,-2.239 -5,-5 V 5 c 0,-2.761 2.239,-5 5,-5 z m 20,5 c 2.761,0 5,2.239 5,5 v 40 c 0,2.761 -2.239,5 -5,5 -2.761,0 -5,-2.239 -5,-5 V 10 C 80,7.239 82.239,5 85,5 Z M 45,5 c 2.761,0 5,2.239 5,5 v 40 c 0,2.761 -2.239,5 -5,5 -2.761,0 -5,-2.239 -5,-5 V 10 C 40,7.239 42.239,5 45,5 Z M 25,15 c 2.761,0 5,2.239 5,5 v 20 c 0,2.761 -2.239,5 -5,5 -2.761,0 -5,-2.239 -5,-5 V 20 c 0,-2.761 2.239,-5 5,-5 z m 80,0 c 2.761,0 5,2.239 5,5 v 20 c 0,2.761 -2.239,5 -5,5 -2.761,0 -5,-2.239 -5,-5 V 20 c 0,-2.761 2.239,-5 5,-5 z M 5,25 c 2.761,0 5,2.239 5,5 0,2.761 -2.239,5 -5,5 -2.761,0 -5,-2.239 -5,-5 0,-2.761 2.239,-5 5,-5 z m 115,5 C 40,5.0000002e-8 80,15 120,30 Z"
         sodipodi:nodetypes="sssssssssssssssssssssssssssssssssssssssscc" />
    </g>
  </g>
</svg>
