<?xml version="1.0" encoding="UTF-8" standalone="no"?>
<svg
   xmlns:dc="http://purl.org/dc/elements/1.1/"
   xmlns:cc="http://creativecommons.org/ns#"
   xmlns:rdf="http://www.w3.org/1999/02/22-rdf-syntax-ns#"
   xmlns:svg="http://www.w3.org/2000/svg"
   xmlns="http://www.w3.org/2000/svg"
   xmlns:sodipodi="http://sodipodi.sourceforge.net/DTD/sodipodi-0.dtd"
   xmlns:inkscape="http://www.inkscape.org/namespaces/inkscape"
   width="80"
   height="80"
   viewBox="0 0 80 80"
   version="1.1"
   id="svg6"
   sodipodi:docname="conference_layout_audio_custom.svg"
   inkscape:version="1.0.2 (e86c870879, 2021-01-15)">
  <metadata
     id="metadata12">
    <rdf:RDF>
      <cc:Work
         rdf:about="">
        <dc:format>image/svg+xml</dc:format>
        <dc:type
           rdf:resource="http://purl.org/dc/dcmitype/StillImage" />
        <dc:title></dc:title>
      </cc:Work>
    </rdf:RDF>
  </metadata>
  <defs
     id="defs10" />
  <sodipodi:namedview
     pagecolor="#ffffff"
     bordercolor="#666666"
     borderopacity="1"
     objecttolerance="10"
     gridtolerance="10"
     guidetolerance="10"
     inkscape:pageopacity="0"
     inkscape:pageshadow="2"
     inkscape:window-width="1670"
     inkscape:window-height="871"
     id="namedview8"
     showgrid="false"
     inkscape:zoom="5.7837838"
     inkscape:cx="74"
     inkscape:cy="46.336449"
     inkscape:window-x="26"
     inkscape:window-y="78"
     inkscape:window-maximized="0"
     inkscape:current-layer="svg6" />
  <g
     fill="#000000"
     fill-rule="nonzero"
     id="g4"
     transform="matrix(0.68965517,0,0,0.69444444,-11.206896,-11.388889)">
    <path
       d="m 41,60 a 3,3 0 0 0 -3,3 v 22 a 3,3 0 0 0 6,0 V 63 a 3,3 0 0 0 -3,-3 z m 16.5,-6 a 3,3 0 0 0 -3,3 v 35 a 3,3 0 0 0 6,0 V 57 a 3,3 0 0 0 -3,-3 z m 17,-16 a 3,3 0 0 0 -3,3 v 66 a 3,3 0 0 0 6,0 V 41 a 3,3 0 0 0 -3,-3 z m 16,7 a 3,3 0 0 0 -3,3 v 52 a 3,3 0 0 0 6,0 V 48 a 3,3 0 0 0 -3,-3 z m 17,15 a 3,3 0 0 0 -3,3 v 22 a 3,3 0 0 0 6,0 V 63 a 3,3 0 0 0 -3,-3 z"
       id="path2" />
  </g>
</svg>
