<?xml version="1.0" encoding="UTF-8" standalone="no"?>
<svg
   width="80"
   height="80"
   viewBox="0 0 80 80"
   fill="none"
   version="1.1"
   id="svg7"
   sodipodi:docname="conference_merge_custom.svg"
   inkscape:version="1.1.2 (0a00cf5339, 2022-02-04)"
   xmlns:inkscape="http://www.inkscape.org/namespaces/inkscape"
   xmlns:sodipodi="http://sodipodi.sourceforge.net/DTD/sodipodi-0.dtd"
   xmlns="http://www.w3.org/2000/svg"
   xmlns:svg="http://www.w3.org/2000/svg">
  <defs
     id="defs11" />
  <sodipodi:namedview
     id="namedview9"
     pagecolor="#ffffff"
     bordercolor="#666666"
     borderopacity="1.0"
     inkscape:pageshadow="2"
     inkscape:pageopacity="0.0"
     inkscape:pagecheckerboard="0"
     showgrid="false"
     inkscape:zoom="5.6283784"
     inkscape:cx="72.045618"
     inkscape:cy="45.661464"
     inkscape:window-width="1920"
     inkscape:window-height="1043"
     inkscape:window-x="0"
     inkscape:window-y="0"
     inkscape:window-maximized="1"
     inkscape:current-layer="svg7" />
  <g
     id="rassemblement_conf_over_alpha"
     transform="matrix(0.67228336,0,0,0.66946229,-9.7483237,-10.083869)">
    <path
       id="new_conference_default"
       fill-rule="evenodd"
       clip-rule="evenodd"
       d="m 57.542,109.575 c 0.2349,-0.253 0.6303,-0.268 0.8833,-0.033 6.9396,6.444 18.2098,6.444 25.1494,0 0.253,-0.235 0.6484,-0.22 0.8833,0.033 0.2349,0.253 0.2202,0.648 -0.0327,0.883 -7.4192,6.889 -19.4314,6.889 -26.8506,0 -0.2529,-0.235 -0.2676,-0.63 -0.0327,-0.883 z m 8.9776,-1.922 c 0.1435,0.214 0.1402,0.495 -0.0083,0.706 l -6.3268,9 c -0.1399,0.199 -0.3824,0.299 -0.6217,0.256 -0.2393,-0.043 -0.432,-0.221 -0.494,-0.456 l -1.8876,-7.162 c -0.0433,-0.164 -0.0179,-0.339 0.0704,-0.484 0.0883,-0.145 0.2318,-0.248 0.3975,-0.285 l 8.2144,-1.838 c 0.252,-0.056 0.5127,0.048 0.6561,0.263 z m -7.9643,2.653 1.3796,5.235 4.6243,-6.578 z M 50,46.625 c -9.5977,0 -17.375,7.7777 -17.375,17.375 0,0.3452 -0.2798,0.625 -0.625,0.625 -0.3452,0 -0.625,-0.2798 -0.625,-0.625 0,-10.2877 8.3369,-18.625 18.625,-18.625 0.3452,0 0.625,0.2798 0.625,0.625 0,0.3452 -0.2798,0.625 -0.625,0.625 z m -6.3179,-6.1631 c 0.2267,-0.1339 0.5129,-0.1114 0.7158,0.0562 l 6.0312,4.9797 c 0.2459,0.2031 0.2995,0.5587 0.1244,0.8252 l -3.9555,6.0202 c -0.1399,0.2129 -0.3951,0.3196 -0.6449,0.2697 -0.2499,-0.05 -0.4444,-0.2466 -0.4916,-0.497 l -2.0757,-11 c -0.0488,-0.2587 0.0697,-0.5202 0.2963,-0.654 z m 1.2525,2.1203 1.4683,7.7815 2.7982,-4.2588 z M 93.375,46 c 0,-0.3452 0.2798,-0.625 0.625,-0.625 10.286,0 18.625,8.3394 18.625,18.625 0,0.3452 -0.28,0.625 -0.625,0.625 -0.345,0 -0.625,-0.2798 -0.625,-0.625 0,-9.5953 -7.779,-17.375 -17.375,-17.375 -0.3452,0 -0.625,-0.2798 -0.625,-0.625 z m 23.138,11.6424 c 0.14,0.2018 0.15,0.4674 0.023,0.6785 l -3.853,6.4407 c -0.086,0.1431 -0.225,0.246 -0.387,0.2859 -0.162,0.0399 -0.333,0.0135 -0.475,-0.0735 l -7.147,-4.3647 c -0.22,-0.1348 -0.335,-0.3915 -0.289,-0.6459 0.047,-0.2543 0.245,-0.4537 0.499,-0.5017 l 11,-2.0759 c 0.242,-0.0456 0.488,0.0549 0.629,0.2566 z m -9.801,2.7465 5.222,3.1896 2.816,-4.7066 z"
       fill="#000000"
       stroke="#000000"
       stroke-width="4"
       stroke-linecap="round"
       stroke-linejoin="round" />
    <path
       id="chat_group_new"
       fill-rule="evenodd"
       clip-rule="evenodd"
       d="m 47.171,101.988 c 0.1201,-0.004 0.212,-0.007 0.2743,-0.01 h 0.109 c 0.0623,0.003 0.1542,0.006 0.2743,0.01 1.3829,0.039 3.2061,-0.012 5.3379,-0.225 3.178,-0.318 6.3965,-0.942 9.5244,-1.9443 0.4048,-0.1297 0.725,-0.4426 0.8643,-0.8446 0.0641,-0.1846 0.147,-0.4846 0.2259,-0.8858 0.5774,-2.9339 0.0789,-6.2473 -2.2942,-9.361 -1.4622,-1.9186 -3.5553,-3.6001 -6.3368,-4.995 C 56.2374,82.1758 56.838,80.3087 56.838,78.349 56.838,73.1884 52.6946,69 47.5757,69 h -0.1522 c -5.1179,0 -9.2615,4.1887 -9.2615,9.349 0,1.9599 0.601,3.8273 1.6879,5.3829 -2.7817,1.395 -4.8749,3.0766 -6.3372,4.9955 -2.3728,3.1136 -2.8711,6.427 -2.2938,9.3609 0.0789,0.4012 0.1619,0.7012 0.2259,0.8858 0.1393,0.402 0.4595,0.7148 0.8643,0.8446 3.1276,1.0023 6.3459,1.6263 9.5239,1.9443 2.1318,0.213 3.955,0.264 5.338,0.225 z m -4.5622,-4.1908 c -2.497,-0.2499 -5.0209,-0.7198 -7.476,-1.4553 -0.3703,-2.0022 -0.0102,-4.2653 1.6402,-6.4311 1.2528,-1.6439 3.182,-3.0994 5.9065,-4.2981 0.0681,-0.03 0.1333,-0.0661 0.1948,-0.1078 l 0.2997,-0.2036 c 0.663,-0.4503 0.7223,-1.4062 0.1016,-1.9505 -0.0771,-0.0989 -0.0918,-0.1159 -0.1783,-0.2096 -1.0288,-1.1108 -1.6099,-2.5678 -1.6099,-4.1208 0,-3.3277 2.6637,-6.0204 5.9433,-6.0204 h 0.1379 c 3.2805,0 5.944,2.6925 5.944,6.0204 0,1.5533 -0.5809,3.0102 -1.6083,4.1196 -0.0866,0.093 -0.1069,0.1169 -0.2008,0.2286 -0.5988,0.5292 -0.5391,1.4814 0.1211,1.9315 l 0.2986,0.2035 c 0.062,0.0423 0.1278,0.0788 0.1965,0.1091 2.7248,1.1988 4.6542,2.6543 5.907,4.2981 1.6506,2.1658 2.0108,4.4289 1.6405,6.4311 -2.4554,0.7355 -4.9794,1.2054 -7.4765,1.4553 -1.8207,0.1822 -3.369,0.2258 -4.5225,0.1926 -0.0846,-0.0025 -0.1476,-0.0048 -0.2157,-0.0074 -0.0232,-9e-4 -0.047,-0.0018 -0.0725,-0.0027 l -0.2271,0.0018 c -0.0333,0.0018 -0.1079,0.005 -0.2215,0.0083 -1.1535,0.0332 -2.7019,-0.0104 -4.5226,-0.1926 z"
       fill="#000000" />
    <path
       id="chat_group_new_2"
       fill-rule="evenodd"
       clip-rule="evenodd"
       d="m 100.171,101.988 c 0.12,-0.004 0.212,-0.007 0.274,-0.01 h 0.109 c 0.063,0.003 0.154,0.006 0.275,0.01 1.383,0.039 3.206,-0.012 5.337,-0.225 3.179,-0.318 6.397,-0.942 9.525,-1.9443 0.405,-0.1297 0.725,-0.4426 0.864,-0.8446 0.064,-0.1846 0.147,-0.4846 0.226,-0.8858 0.577,-2.9339 0.079,-6.2473 -2.294,-9.361 -1.462,-1.9186 -3.555,-3.6001 -6.337,-4.995 1.087,-1.5565 1.688,-3.4236 1.688,-5.3833 0,-5.1606 -4.143,-9.349 -9.262,-9.349 h -0.152 c -5.1184,0 -9.262,4.1887 -9.262,9.349 0,1.9599 0.601,3.8273 1.6879,5.3829 -2.7817,1.395 -4.8749,3.0766 -6.3372,4.9955 -2.3728,3.1136 -2.8711,6.427 -2.2938,9.3609 0.0789,0.4012 0.1619,0.7012 0.2259,0.8858 0.1393,0.402 0.4595,0.7148 0.8643,0.8446 3.1276,1.0023 6.3459,1.6263 9.5239,1.9443 2.1318,0.213 3.955,0.264 5.338,0.225 z m -4.5622,-4.1908 c -2.497,-0.2499 -5.0209,-0.7198 -7.476,-1.4553 -0.3703,-2.0022 -0.0102,-4.2653 1.6402,-6.4311 1.2528,-1.6439 3.182,-3.0994 5.9065,-4.2981 0.0681,-0.03 0.1333,-0.0661 0.1948,-0.1078 l 0.2997,-0.2036 c 0.663,-0.4503 0.7223,-1.4062 0.1016,-1.9505 -0.0771,-0.0989 -0.0918,-0.1159 -0.1783,-0.2096 -1.0288,-1.1108 -1.6099,-2.5678 -1.6099,-4.1208 0,-3.3277 2.6637,-6.0204 5.9436,-6.0204 h 0.138 c 3.28,0 5.944,2.6925 5.944,6.0204 0,1.5533 -0.581,3.0102 -1.609,4.1196 -0.086,0.093 -0.107,0.1169 -0.201,0.2286 -0.598,0.5292 -0.539,1.4814 0.122,1.9315 l 0.298,0.2035 c 0.062,0.0423 0.128,0.0788 0.197,0.1091 2.725,1.1988 4.654,2.6543 5.907,4.2981 1.65,2.1658 2.011,4.4289 1.64,6.4311 -2.455,0.7355 -4.979,1.2054 -7.476,1.4553 -1.821,0.1822 -3.369,0.2258 -4.523,0.1926 -0.084,-0.0025 -0.147,-0.0048 -0.215,-0.0074 -0.024,-9e-4 -0.048,-0.0018 -0.073,-0.0027 l -0.227,0.0018 c -0.033,0.0018 -0.108,0.005 -0.222,0.0083 -1.1531,0.0332 -2.7015,-0.0104 -4.5222,-0.1926 z"
       fill="#000000" />
    <path
       id="chat_group_new_3"
       fill-rule="evenodd"
       clip-rule="evenodd"
       d="m 73.171,62.9876 c 0.1201,-0.0035 0.212,-0.007 0.2743,-0.01 h 0.109 c 0.0623,0.003 0.1542,0.0065 0.2743,0.01 1.3829,0.0399 3.2061,-0.0115 5.3379,-0.2248 3.178,-0.3181 6.3965,-0.9415 9.5244,-1.9441 0.4048,-0.1297 0.725,-0.4426 0.8643,-0.8446 0.0641,-0.1846 0.147,-0.4846 0.2259,-0.8858 0.5774,-2.9339 0.0789,-6.2473 -2.2942,-9.361 -1.4622,-1.9186 -3.5553,-3.6001 -6.3368,-4.995 C 82.2374,43.1758 82.838,41.3087 82.838,39.349 82.838,34.1884 78.6946,30 73.5757,30 h -0.1522 c -5.1179,0 -9.2615,4.1887 -9.2615,9.349 0,1.9599 0.601,3.8273 1.6879,5.3829 -2.7817,1.395 -4.8749,3.0766 -6.3372,4.9955 -2.3728,3.1136 -2.8711,6.427 -2.2938,9.3609 0.0789,0.4012 0.1619,0.7012 0.2259,0.8858 0.1393,0.402 0.4595,0.7148 0.8643,0.8446 3.1276,1.0026 6.3459,1.626 9.5239,1.9441 2.1318,0.2133 3.955,0.2647 5.338,0.2248 z m -4.5622,-4.1904 c -2.497,-0.2499 -5.0209,-0.7198 -7.476,-1.4553 -0.3703,-2.0022 -0.0102,-4.2653 1.6402,-6.4311 1.2528,-1.6439 3.182,-3.0994 5.9065,-4.2981 0.0681,-0.03 0.1333,-0.0661 0.1948,-0.1078 l 0.2997,-0.2036 c 0.663,-0.4503 0.7223,-1.4062 0.1016,-1.9505 -0.0771,-0.0989 -0.0918,-0.1159 -0.1783,-0.2096 -1.0288,-1.1108 -1.6099,-2.5678 -1.6099,-4.1208 0,-3.3277 2.6637,-6.0204 5.9433,-6.0204 h 0.1379 c 3.2805,0 5.944,2.6925 5.944,6.0204 0,1.5533 -0.5809,3.0102 -1.6083,4.1196 -0.0866,0.093 -0.1069,0.1169 -0.2008,0.2286 -0.5988,0.5292 -0.5391,1.4814 0.1211,1.9315 l 0.2986,0.2035 c 0.062,0.0423 0.1278,0.0788 0.1965,0.1091 2.7248,1.1988 4.6542,2.6543 5.907,4.2981 1.6506,2.1658 2.0108,4.4289 1.6405,6.4311 -2.4554,0.7355 -4.9794,1.2054 -7.4765,1.4553 -1.8207,0.1822 -3.369,0.2258 -4.5225,0.1926 -0.0846,-0.0025 -0.1476,-0.0048 -0.2157,-0.0074 -0.0232,-9e-4 -0.047,-0.0018 -0.0725,-0.0027 l -0.2271,0.0018 c -0.0333,0.0018 -0.1079,0.005 -0.2215,0.0083 -1.1535,0.0332 -2.7019,-0.0104 -4.5226,-0.1926 z"
       fill="#000000" />
  </g>
</svg>
