<?xml version="1.0" encoding="UTF-8"?>
<svg width="24px" height="24px" viewBox="0 0 24 24" version="1.1" xmlns="http://www.w3.org/2000/svg" xmlns:xlink="http://www.w3.org/1999/xlink">
    <!-- Generator: Sketch 40.3 (33839) - http://www.bohemiancoding.com/sketch -->
    <title>contact_default</title>
    <desc>Created with Sketch.</desc>
    <defs></defs>
    <g id="Symbols-vecto" stroke="none" stroke-width="1" fill="none" fill-rule="evenodd" opacity="0.5">
        <g id="contact_default" fill="#FFFFFF">
            <path d="M16.8061559,6.80739857 C16.8061559,8.04777355 16.3417672,9.21099173 15.5204136,10.0967799 C15.4434922,10.1798811 15.4365738,10.1883818 15.3574501,10.2897899 C14.8712019,10.7074152 14.9187969,11.4869099 15.4594834,11.8549776 L15.6994402,12.0183261 L15.859758,12.1071437 C18.0426652,13.0666913 19.5879248,14.2312064 20.5911168,15.5459618 C21.9323211,17.3037066 22.209108,19.1412082 21.8904449,20.7591593 C21.8516838,20.9559612 21.8158733,21.0853677 21.7984541,21.1355667 L22.4381495,20.511055 C20.3066086,21.1938061 18.1017272,21.6205507 15.9222911,21.8384954 C14.462433,21.984482 13.2209671,22.0194037 12.2962639,21.9927551 C12.2052904,21.9901334 12.1455704,21.9876214 12.1189614,21.9861682 L11.9358329,21.9846803 L11.9358329,22.9846803 L12.9358329,22.9846803 L11.9108224,21.9849931 C11.8628815,21.9870261 11.8628815,21.9870261 11.8423479,21.9879051 C11.7889591,21.9900363 11.7889591,21.9900363 11.7035112,21.9926929 C10.7769249,22.0192234 9.53621081,21.984275 8.07648162,21.8382841 C5.89725134,21.6203341 3.69283284,21.1936639 1.56185338,20.5110593 L2.20153524,21.1355667 C2.18411742,21.0853718 2.14830897,20.9559724 2.1095499,20.7591801 C1.79088868,19.1412341 2.06769549,17.3037306 3.40895961,15.545977 C4.41219415,14.2312179 5.95751214,13.0666988 8.14049436,12.1071484 L8.30082278,12.0183261 L8.54077958,11.8549776 C9.08146603,11.4869099 9.12906109,10.7074152 8.63717186,10.2762996 C8.56368915,10.1883818 8.55677078,10.1798811 8.48044484,10.0974226 C7.65859291,9.21084479 7.19410709,8.0475319 7.19410709,6.80739857 C7.19410709,4.15018114 9.32330008,2 11.9448621,2 L12.0554009,2 C14.6769629,2 16.8061559,4.15018114 16.8061559,6.80739857 Z M11.9448621,0 C8.21431525,0 5.19410709,3.04997933 5.19410709,6.80739857 C5.19410709,8.55620797 5.85198152,10.203866 7.01320556,11.456543 C7.03781127,11.4831261 7.02183844,11.4635001 7.06599939,11.5200985 C7.14632933,11.6207546 7.21387737,11.6883003 7.31892913,11.7803728 L7.97805049,11.0283362 L7.41532141,10.2016948 L7.1753646,10.3650434 L7.73809369,11.1916847 L7.33569302,10.2762211 C4.85488983,11.3666815 3.03679647,12.7367584 1.81897884,14.3327329 C0.0899618353,16.5986445 -0.273330095,19.0102549 0.147247578,21.1456637 C0.204787561,21.4378128 0.265278163,21.6564049 0.312059712,21.7912208 C0.415188143,22.0884181 0.652154443,22.3197632 0.951741577,22.4157282 C3.2260852,23.1442558 5.56632944,23.5972155 7.87744985,23.828356 C9.42772204,23.9834024 10.7529177,24.0207305 11.7607528,23.9918736 C11.8595647,23.9888037 11.8595647,23.9888037 11.925618,23.9861709 C10.9358329,23.536965 12.0644301,23.9846803 12.0644301,23.9846803 C12.0534187,23.9855691 12.1302768,23.988802 12.2386508,23.9919252 C13.2447467,24.0209193 14.5708311,23.9836174 16.1212996,23.8285697 C18.4326271,23.5974358 20.7733351,23.1444026 23.0482343,22.4157325 C23.3478275,22.3197702 23.5847996,22.0884228 23.6879296,21.7912208 C23.7347124,21.6564012 23.795205,21.4378024 23.852747,21.145644 C24.2733244,19.0102426 23.9100607,16.5986484 22.1811207,14.3327481 C20.9633485,12.7367699 19.1453124,11.366689 16.6645805,10.2762257 L16.2621693,11.1916847 L16.8248984,10.3650434 L16.5849415,10.2016948 L16.0222125,11.0283362 L16.6813338,11.7803728 C16.7863856,11.6883003 16.8539336,11.6207546 16.9213349,11.5364713 C16.9784245,11.4635001 16.9624517,11.4831261 16.9875565,11.4560042 C18.1483583,10.204139 18.8061559,8.55646302 18.8061559,6.80739857 C18.8061559,3.04997933 15.7859477,0 12.0554009,0 L11.9448621,0 Z"></path>
        </g>
    </g>
</svg>