<?xml version="1.0" encoding="UTF-8" standalone="no"?>
<svg
   width="80"
   height="80"
   viewBox="0 0 80 80"
   version="1.1"
   id="svg12"
   sodipodi:docname="contact_custom.svg"
   inkscape:version="1.1 (c68e22c387, 2021-05-23)"
   xmlns:inkscape="http://www.inkscape.org/namespaces/inkscape"
   xmlns:sodipodi="http://sodipodi.sourceforge.net/DTD/sodipodi-0.dtd"
   xmlns="http://www.w3.org/2000/svg"
   xmlns:svg="http://www.w3.org/2000/svg"
   xmlns:rdf="http://www.w3.org/1999/02/22-rdf-syntax-ns#"
   xmlns:cc="http://creativecommons.org/ns#"
   xmlns:dc="http://purl.org/dc/elements/1.1/">
  <sodipodi:namedview
     id="namedview14"
     pagecolor="#ffffff"
     bordercolor="#666666"
     borderopacity="1.0"
     inkscape:pageshadow="2"
     inkscape:pageopacity="0.0"
     inkscape:pagecheckerboard="0"
     showgrid="false"
     inkscape:zoom="4.546875"
     inkscape:cx="5.3883161"
     inkscape:cy="20.453608"
     inkscape:window-width="1920"
     inkscape:window-height="1043"
     inkscape:window-x="0"
     inkscape:window-y="0"
     inkscape:window-maximized="1"
     inkscape:current-layer="svg12" />
  <!-- Generator: Sketch 40.3 (33839) - http://www.bohemiancoding.com/sketch -->
  <title
     id="title2">contact_selected</title>
  <desc
     id="desc4">Created with Sketch.</desc>
  <defs
     id="defs6" />
  <g
     id="Symbols-vecto"
     stroke="none"
     stroke-width="1"
     fill="none"
     fill-rule="evenodd"
     transform="matrix(1.6649786,0,0,1.6666039,20.020257,20)">
    <g
       id="contact_selected"
       fill="#000000">
      <path
         d="m 16.806156,6.8073986 c 0,1.240375 -0.464389,2.4035931 -1.285742,3.2893814 -0.07692,0.0831 -0.08384,0.0916 -0.162964,0.19301 -0.486248,0.417625 -0.438653,1.19712 0.102033,1.565188 l 0.239957,0.163348 0.160318,0.08882 c 2.182907,0.959547 3.728167,2.124062 4.731359,3.438818 1.341204,1.757745 1.617991,3.595246 1.299328,5.213197 -0.03876,0.196802 -0.07457,0.326209 -0.09199,0.376408 l 0.639696,-0.624512 c -2.131541,0.682751 -4.336423,1.109496 -6.515859,1.32744 -1.459858,0.145987 -2.701324,0.180909 -3.626027,0.15426 -0.09097,-0.0026 -0.150694,-0.0051 -0.177303,-0.0066 l -0.183128,-0.0015 v 1 h 1 L 11.910823,21.98497 c -0.04794,0.002 -0.04794,0.002 -0.06847,0.0029 -0.05339,0.0021 -0.05339,0.0021 -0.138837,0.0048 C 10.77693,22.0192 9.5362158,21.98427 8.0764866,21.838261 5.8972563,21.620311 3.6928378,21.193641 1.5618584,20.511036 l 0.6396818,0.624508 C 2.1841174,21.085372 2.148309,20.955972 2.1095499,20.75918 1.7908887,19.141234 2.0676955,17.303731 3.4089596,15.545977 4.4121942,14.231218 5.9575121,13.066699 8.1404944,12.107148 L 8.3008228,12.018328 8.5407796,11.85498 C 9.081466,11.48691 9.1290611,10.707415 8.6371719,10.2763 8.5636892,10.188382 8.5567708,10.179881 8.4804448,10.097423 7.6585929,9.2108448 7.1941071,8.0475319 7.1941071,6.8073986 7.1941071,4.1501811 9.3233001,2 11.944862,2 h 0.110539 c 2.621562,0 4.750755,2.1501811 4.750755,4.8073986 z M 11.944862,0 C 8.2143153,0 5.1941071,3.0499793 5.1941071,6.8073986 c 0,1.7488094 0.6578744,3.3964674 1.8190985,4.6491444 0.024606,0.02658 0.00863,0.007 0.052794,0.06356 0.08033,0.100656 0.147878,0.168201 0.2529297,0.260274 L 7.9780505,11.028336 7.4153214,10.201695 7.1753646,10.365043 7.7380937,11.191685 7.335693,10.276221 c -2.4808032,1.090461 -4.2988965,2.460537 -5.5167142,4.056512 -1.72901696,2.265911 -2.09230889,4.677522 -1.67173122,6.812931 0.05754,0.292149 0.11803058,0.510741 0.16481213,0.645557 0.10312843,0.297197 0.34009473,0.528542 0.63968187,0.624507 2.27434362,0.728528 4.61458782,1.181487 6.92570822,1.412628 1.5502722,0.155046 2.8754682,0.192374 3.8833032,0.163518 0.09881,-0.0031 0.09881,-0.0031 0.164865,-0.0057 -0.989785,-0.449206 0.138812,-0.0015 0.138812,-0.0015 -0.01101,8.89e-4 0.06585,0.0041 0.174221,0.0072 1.006096,0.02899 2.33218,-0.0083 3.882649,-0.163355 2.311327,-0.231134 4.652035,-0.684167 6.926934,-1.412838 0.299593,-0.09596 0.536566,-0.327309 0.639696,-0.624511 0.04678,-0.13482 0.107275,-0.353419 0.164817,-0.645577 0.420577,-2.135401 0.05731,-4.546996 -1.671626,-6.812896 -1.217773,-1.595978 -3.035809,-2.966059 -5.516541,-4.056522 l -0.402411,0.915459 0.562729,-0.826642 -0.239957,-0.163348 -0.562729,0.826641 0.659122,0.752037 c 0.105052,-0.09207 0.1726,-0.159618 0.240001,-0.243902 0.05709,-0.07297 0.04112,-0.05335 0.06622,-0.08047 1.160802,-1.251865 1.8186,-2.899541 1.8186,-4.6486054 C 18.806156,3.0499793 15.785948,0 12.055401,0 Z"
         id="path8" />
    </g>
  </g>
  <metadata
     id="metadata831">
    <rdf:RDF>
      <cc:Work
         rdf:about="">
        <dc:title>contact_selected</dc:title>
      </cc:Work>
    </rdf:RDF>
  </metadata>
</svg>
