<?xml version="1.0" encoding="UTF-8" standalone="no"?>
<svg
   width="80"
   height="80"
   viewBox="0 0 80 80"
   version="1.1"
   id="svg12"
   sodipodi:docname="contact_custom.svg"
   inkscape:version="1.1.2 (0a00cf5339, 2022-02-04)"
   xmlns:inkscape="http://www.inkscape.org/namespaces/inkscape"
   xmlns:sodipodi="http://sodipodi.sourceforge.net/DTD/sodipodi-0.dtd"
   xmlns="http://www.w3.org/2000/svg"
   xmlns:svg="http://www.w3.org/2000/svg"
   xmlns:rdf="http://www.w3.org/1999/02/22-rdf-syntax-ns#"
   xmlns:cc="http://creativecommons.org/ns#"
   xmlns:dc="http://purl.org/dc/elements/1.1/">
  <sodipodi:namedview
     id="namedview14"
     pagecolor="#ffffff"
     bordercolor="#666666"
     borderopacity="1.0"
     inkscape:pageshadow="2"
     inkscape:pageopacity="0.0"
     inkscape:pagecheckerboard="0"
     showgrid="false"
     inkscape:zoom="11.313709"
     inkscape:cx="24.085825"
     inkscape:cy="50.381358"
     inkscape:window-width="1920"
     inkscape:window-height="1043"
     inkscape:window-x="298"
     inkscape:window-y="0"
     inkscape:window-maximized="1"
     inkscape:current-layer="contact_selected" />
  <!-- Generator: Sketch 40.3 (33839) - http://www.bohemiancoding.com/sketch -->
  <title
     id="title2">contact_selected</title>
  <desc
     id="desc4">Created with Sketch.</desc>
  <defs
     id="defs6" />
  <g
     id="Symbols-vecto"
     stroke="none"
     stroke-width="1"
     fill="none"
     fill-rule="evenodd"
     transform="matrix(1.6649786,0,0,1.6666039,20.020257,20)">
    <g
       id="contact_selected"
       fill="#000000">
      <path
         d="m 16.806156,6.8073986 c 0,1.240375 -0.464389,2.4035931 -1.285742,3.2893814 -0.07692,0.0831 -0.08384,0.0916 -0.162964,0.19301 -0.486248,0.417625 -0.438653,1.19712 0.102033,1.565188 l 0.239957,0.163348 0.160318,0.08882 c 2.182907,0.959547 3.728167,2.124062 4.731359,3.438818 1.341204,1.757745 1.617991,3.595246 1.299328,5.213197 -0.06743,0.262136 -4.039005,0.897335 -5.968153,1.079336 -2.036172,0.192098 -5.492321,0.198713 -7.7888649,0.06354 C 7.1349766,21.830245 2.2956094,21.216918 2.0971289,20.781233 1.8988401,19.099457 2.0676955,17.303731 3.4089596,15.545977 4.4121942,14.231218 5.9575121,13.066699 8.1404944,12.107148 L 8.3008228,12.018328 8.5407796,11.85498 C 9.081466,11.48691 8.5035876,9.9883807 8.0807376,9.5994819 c -0.1571087,-0.2511322 0,0 0,0 C 7.2588857,8.7129037 7.1941071,8.0475319 7.1941071,6.8073986 7.1941071,4.1501811 9.3233001,2 11.944862,2 h 0.110539 c 2.621562,0 4.750755,2.1501811 4.750755,4.8073986 z M 11.944862,0 C 8.2143153,0 5.1941071,3.0499793 5.1941071,6.8073986 c 0,1.7488094 0.045614,2.6260782 1.2068384,3.8787554 0.024606,0.02658 -0.044164,-0.05656 0,0 0,0 -0.038344,0.278876 0,0 v 0 0 c -2.4808032,1.090461 -3.364149,2.050604 -4.5819667,3.646579 -1.72901696,2.265911 -2.09230889,4.677522 -1.67173122,6.812931 0.05754,0.292149 0.11803058,0.510741 0.16481213,0.645557 0.10312843,0.297197 0.34009473,0.528542 0.63968187,0.624507 2.27434362,0.728528 4.61458782,1.181487 6.92570822,1.412628 2.7609192,0.201216 5.7367432,0.245097 8.2438502,1.63e-4 2.311327,-0.231134 4.652035,-0.684167 6.926934,-1.412838 0.299593,-0.09596 0.536566,-0.327309 0.639696,-0.624511 0.04678,-0.13482 0.107275,-0.353419 0.164817,-0.645577 0.420577,-2.135401 -0.0084,-4.633265 -1.723355,-6.748195 C 21.425651,13.480387 17.597504,10.811464 18.008421,10.35195 18.603951,9.6859906 18.82723,9.0455667 18.806155,6.8073446 18.806156,3.0499793 15.785948,0 12.055401,0 Z"
         id="path8"
         sodipodi:nodetypes="sccsccscsccsccsccsssssscccccssssccssscscss" />
    </g>
  </g>
  <metadata
     id="metadata831">
    <rdf:RDF>
      <cc:Work
         rdf:about="">
        <dc:title>contact_selected</dc:title>
      </cc:Work>
    </rdf:RDF>
  </metadata>
</svg>
