<?xml version="1.0" encoding="UTF-8" standalone="no"?>
<svg
   width="80"
   height="80"
   version="1.1"
   id="svg8"
   sodipodi:docname="contact_add_custom.svg"
   inkscape:version="1.1.2 (0a00cf5339, 2022-02-04)"
   xmlns:inkscape="http://www.inkscape.org/namespaces/inkscape"
   xmlns:sodipodi="http://sodipodi.sourceforge.net/DTD/sodipodi-0.dtd"
   xmlns="http://www.w3.org/2000/svg"
   xmlns:svg="http://www.w3.org/2000/svg">
  <defs
     id="defs12" />
  <sodipodi:namedview
     id="namedview10"
     pagecolor="#ffffff"
     bordercolor="#666666"
     borderopacity="1.0"
     inkscape:pageshadow="2"
     inkscape:pageopacity="0.0"
     inkscape:pagecheckerboard="0"
     showgrid="false"
     inkscape:zoom="5.45625"
     inkscape:cx="-7.7892325"
     inkscape:cy="14.112257"
     inkscape:window-width="1920"
     inkscape:window-height="1011"
     inkscape:window-x="0"
     inkscape:window-y="32"
     inkscape:window-maximized="1"
     inkscape:current-layer="svg8" />
  <g
     stroke="#000000"
     fill="none"
     fill-rule="evenodd"
     stroke-linecap="round"
     id="g6"
     transform="matrix(2.2903613,0,0,2.3259625,18.848977,14.837019)">
    <path
       d="m 9.04,2.917 c 2.31,0 4.183,1.89 4.183,4.223 a 4.232,4.232 0 0 1 -1.13,2.887 c -0.098,0.106 -0.059,0.088 -0.168,0.183 l 0.175,0.119 c 6.339,2.786 4.713,7.47 4.713,7.47 -4.082,1.308 -7.766,1.107 -7.766,1.107 H 8.953 c 0,0 -3.684,0.2 -7.766,-1.107 0,0 -1.626,-4.684 4.713,-7.47 L 6.075,10.21 C 5.966,10.115 6.005,10.133 5.907,10.027 A 4.233,4.233 0 0 1 4.777,7.14 C 4.777,4.808 6.65,2.917 8.96,2.917 Z"
       stroke-linejoin="round"
       id="path2" />
    <path
       d="M 18.917,1 V 6.833 M 16,3.917 h 5.833"
       id="path4" />
  </g>
</svg>
