<?xml version="1.0" encoding="UTF-8" standalone="no"?>
<svg
   xmlns:dc="http://purl.org/dc/elements/1.1/"
   xmlns:cc="http://creativecommons.org/ns#"
   xmlns:rdf="http://www.w3.org/1999/02/22-rdf-syntax-ns#"
   xmlns:svg="http://www.w3.org/2000/svg"
   xmlns="http://www.w3.org/2000/svg"
   xmlns:sodipodi="http://sodipodi.sourceforge.net/DTD/sodipodi-0.dtd"
   xmlns:inkscape="http://www.inkscape.org/namespaces/inkscape"
   width="22"
   height="22"
   viewBox="0 0 22 22"
   version="1.1"
   id="svg16"
   sodipodi:docname="contact_add.svg"
   inkscape:version="0.92.2 2405546, 2018-03-11">
  <metadata
     id="metadata20">
    <rdf:RDF>
      <cc:Work
         rdf:about="">
        <dc:format>image/svg+xml</dc:format>
        <dc:type
           rdf:resource="http://purl.org/dc/dcmitype/StillImage" />
        <dc:title>contact_add_default</dc:title>
      </cc:Work>
    </rdf:RDF>
  </metadata>
  <sodipodi:namedview
     pagecolor="#ffffff"
     bordercolor="#666666"
     borderopacity="1"
     objecttolerance="10"
     gridtolerance="10"
     guidetolerance="10"
     inkscape:pageopacity="0"
     inkscape:pageshadow="2"
     inkscape:window-width="868"
     inkscape:window-height="480"
     id="namedview18"
     showgrid="false"
     inkscape:zoom="12.421053"
     inkscape:cx="11"
     inkscape:cy="9.5"
     inkscape:window-x="0"
     inkscape:window-y="35"
     inkscape:window-maximized="0"
     inkscape:current-layer="svg16" />
  <!-- Generator: Sketch 40.3 (33839) - http://www.bohemiancoding.com/sketch -->
  <title
     id="title2">contact_add_default</title>
  <desc
     id="desc4">Created with Sketch.</desc>
  <defs
     id="defs6" />
  <g
     id="Symbols"
     style="fill:none;fill-rule:evenodd;stroke:none;stroke-width:1;stroke-linecap:round"
     transform="translate(0,1.5)">
    <g
       id="contact_add_default">
      <path
         d="m 8.5402916,2.5 c 2.3098734,0 4.1823674,1.8909832 4.1823674,4.2235626 0,1.1163901 -0.428624,2.1313811 -1.129068,2.8867744 -0.0983,0.1061991 -0.0595,0.087599 -0.168346,0.1829984 l 0.174514,0.118799 c 6.33882,2.7863756 4.713471,7.4703336 4.713471,7.4703336 -4.082275,1.307589 -7.7663718,1.10639 -7.7663718,1.10639 H 8.453333 c 0,-2e-4 -3.6844948,0.201199 -7.7665712,-1.10639 0,0 -1.62534854,-4.683958 4.71367,-7.4703336 l 0.174514,-0.118799 C 5.4660984,9.6979363 5.5049014,9.7165361 5.4066005,9.610337 4.7063554,8.8549437 4.2775324,7.8399527 4.2775324,6.7235626 4.2775324,4.3909832 6.1500263,2.5 8.4598997,2.5 Z"
         id="path8"
         inkscape:connector-curvature="0"
         style="stroke:#ffffff;stroke-linejoin:round" />
      <path
         d="M 18.416667,0.58333333 V 6.4166667"
         id="path10"
         inkscape:connector-curvature="0"
         style="stroke:#ffffff" />
      <path
         d="m 15.5,3.5 h 5.833333"
         id="path12"
         inkscape:connector-curvature="0"
         style="stroke:#ffffff" />
    </g>
  </g>
</svg>
