<?xml version="1.0" encoding="UTF-8" standalone="no"?>
<svg
   width="80"
   height="80"
   version="1.1"
   id="svg8"
   sodipodi:docname="contact_view_custom.svg"
   inkscape:version="1.1.2 (0a00cf5339, 2022-02-04)"
   xmlns:inkscape="http://www.inkscape.org/namespaces/inkscape"
   xmlns:sodipodi="http://sodipodi.sourceforge.net/DTD/sodipodi-0.dtd"
   xmlns="http://www.w3.org/2000/svg"
   xmlns:svg="http://www.w3.org/2000/svg">
  <defs
     id="defs12" />
  <sodipodi:namedview
     id="namedview10"
     pagecolor="#ffffff"
     bordercolor="#666666"
     borderopacity="1.0"
     inkscape:pageshadow="2"
     inkscape:pageopacity="0.0"
     inkscape:pagecheckerboard="0"
     showgrid="false"
     inkscape:zoom="5.1964285"
     inkscape:cx="23.766323"
     inkscape:cy="17.704468"
     inkscape:window-width="1920"
     inkscape:window-height="1011"
     inkscape:window-x="0"
     inkscape:window-y="32"
     inkscape:window-maximized="1"
     inkscape:current-layer="svg8" />
  <g
     stroke="#000000"
     fill="none"
     fill-rule="evenodd"
     stroke-linecap="round"
     id="g6"
     transform="matrix(2.2644438,0,0,2.3157843,18.861995,12.526324)">
    <path
       d="m 9.04,4 c 2.31,0 4.183,1.891 4.183,4.224 a 4.232,4.232 0 0 1 -1.13,2.886 c -0.098,0.107 -0.059,0.088 -0.168,0.183 l 0.175,0.12 c 6.339,2.786 4.713,7.47 4.713,7.47 -4.082,1.307 -7.766,1.106 -7.766,1.106 H 8.953 c 0,0 -3.684,0.201 -7.766,-1.107 0,0 -1.626,-4.683 4.713,-7.47 L 6.075,11.293 C 5.966,11.198 6.005,11.217 5.907,11.11 A 4.233,4.233 0 0 1 4.777,8.224 C 4.778,5.89 6.65,4 8.96,4 Z"
       stroke-linejoin="round"
       id="path2" />
    <path
       d="m 16.25,5 h 5.833 M 16.25,8 h 5.833 M 16.25,2 h 5.833"
       id="path4" />
  </g>
</svg>
