<?xml version="1.0" encoding="UTF-8" standalone="no"?>
<svg
   width="80"
   height="80"
   viewBox="0 0 80 80"
   version="1.1"
   id="svg12"
   sodipodi:docname="menu_copy_text_light.svg"
   inkscape:version="1.1 (c68e22c387, 2021-05-23)"
   xmlns:inkscape="http://www.inkscape.org/namespaces/inkscape"
   xmlns:sodipodi="http://sodipodi.sourceforge.net/DTD/sodipodi-0.dtd"
   xmlns="http://www.w3.org/2000/svg"
   xmlns:svg="http://www.w3.org/2000/svg">
  <defs
     id="defs16" />
  <sodipodi:namedview
     id="namedview14"
     pagecolor="#ffffff"
     bordercolor="#666666"
     borderopacity="1.0"
     inkscape:pageshadow="2"
     inkscape:pageopacity="0.0"
     inkscape:pagecheckerboard="0"
     showgrid="false"
     inkscape:zoom="6.4191176"
     inkscape:cx="21.887743"
     inkscape:cy="29.599084"
     inkscape:window-width="1920"
     inkscape:window-height="1131"
     inkscape:window-x="0"
     inkscape:window-y="0"
     inkscape:window-maximized="1"
     inkscape:current-layer="svg12" />
  <g
     fill="none"
     fill-rule="evenodd"
     id="g10"
     transform="matrix(4.7763786,0,0,4.7058824,7,0)">
    <g
       fill="#000000"
       fill-rule="nonzero"
       id="g8">
      <g
         id="g6">
        <g
           id="g4">
          <path
             d="m 8.446,17 c 1.399,0 2.095,-0.716 2.095,-2.122 v -1.25 h 1.182 c 1.392,0 2.095,-0.716 2.095,-2.121 V 6.02 c 0,-0.83 -0.17,-1.358 -0.676,-1.878 L 9.73,0.676 C 9.25,0.182 8.682,0 7.96,0 H 5.371 C 3.98,0 3.277,0.716 3.277,2.122 v 1.25 H 2.095 C 0.703,3.372 0,4.082 0,5.493 v 9.385 C 0,16.291 0.696,17 2.095,17 h 6.35 z m 3.216,-4.46 H 10.541 V 9.602 c 0,-0.865 -0.102,-1.243 -0.642,-1.797 L 6.176,4.015 C 5.662,3.487 5.236,3.373 4.48,3.373 H 4.365 v -1.23 c 0,-0.669 0.358,-1.054 1.06,-1.054 h 2.987 v 3.466 c 0,0.784 0.379,1.155 1.156,1.155 h 3.162 v 5.777 c 0,0.676 -0.365,1.055 -1.068,1.055 z M 12.446,4.73 H 9.723 C 9.486,4.73 9.392,4.628 9.392,4.392 V 1.622 Z M 8.392,15.912 h -6.25 c -0.696,0 -1.054,-0.378 -1.054,-1.054 V 5.507 c 0,-0.662 0.358,-1.048 1.06,-1.048 h 2.217 v 3.92 c 0,0.85 0.432,1.276 1.27,1.276 h 3.818 v 5.203 c 0,0.676 -0.365,1.054 -1.061,1.054 z M 9.243,8.635 H 5.763 C 5.493,8.635 5.385,8.527 5.385,8.257 V 4.709 Z"
             id="path2" />
        </g>
      </g>
    </g>
  </g>
</svg>
