<?xml version="1.0" encoding="UTF-8" standalone="no"?>
<svg
   width="80"
   height="80"
   version="1.1"
   id="svg18"
   sodipodi:docname="call_dialpad_custom.svg"
   inkscape:version="1.1.1 (3bf5ae0d25, 2021-09-20)"
   xmlns:inkscape="http://www.inkscape.org/namespaces/inkscape"
   xmlns:sodipodi="http://sodipodi.sourceforge.net/DTD/sodipodi-0.dtd"
   xmlns="http://www.w3.org/2000/svg"
   xmlns:svg="http://www.w3.org/2000/svg">
  <defs
     id="defs22" />
  <sodipodi:namedview
     id="namedview20"
     pagecolor="#ffffff"
     bordercolor="#666666"
     borderopacity="1.0"
     inkscape:pageshadow="2"
     inkscape:pageopacity="0.0"
     inkscape:pagecheckerboard="0"
     showgrid="false"
     inkscape:zoom="5.45625"
     inkscape:cx="46.093929"
     inkscape:cy="77.250859"
     inkscape:window-width="1458"
     inkscape:window-height="1088"
     inkscape:window-x="2121"
     inkscape:window-y="325"
     inkscape:window-maximized="0"
     inkscape:current-layer="svg18" />
  <g
     fill="none"
     fill-rule="evenodd"
     id="g16"
     transform="matrix(2.3625902,0,0,2.3507069,-8.4884922,-5.8952633)">
    <g
       transform="translate(11,10)"
       stroke="#000000"
       stroke-width="1.5"
       id="g14">
      <rect
         x="0.75"
         y="0.75"
         width="4.0879998"
         height="4.1020002"
         rx="1"
         id="rect2" />
      <path
         d="m 11.295,0.75 0.25,3.85 -3.84,0.252 -0.25,-3.85 z m 6.705,0 0.25,3.85 -3.84,0.252 -0.248,-3.85 z"
         id="path4" />
      <rect
         x="0.75"
         y="7.473"
         width="4.0879998"
         height="4.1020002"
         rx="1"
         id="rect6" />
      <path
         d="m 11.295,7.473 0.25,3.85 -3.84,0.252 -0.25,-3.85 z m 6.705,0 0.25,3.85 -3.84,0.252 L 14.162,7.725 18,7.472 Z"
         id="path8" />
      <rect
         x="0.75"
         y="14.195"
         width="4.0879998"
         height="4.1020002"
         rx="1"
         id="rect10" />
      <path
         d="m 11.295,14.195 0.25,3.851 -3.84,0.252 -0.25,-3.851 z m 6.705,0 0.25,3.851 -3.84,0.252 -0.248,-3.851 z"
         id="path12" />
    </g>
  </g>
</svg>
