<?xml version="1.0" encoding="UTF-8" standalone="no"?>
<svg
   width="80"
   height="80"
   viewBox="0 0 80 80"
   version="1.1"
   id="svg8"
   sodipodi:docname="menu_forward_custom.svg"
   inkscape:version="1.1 (c68e22c387, 2021-05-23)"
   xmlns:inkscape="http://www.inkscape.org/namespaces/inkscape"
   xmlns:sodipodi="http://sodipodi.sourceforge.net/DTD/sodipodi-0.dtd"
   xmlns="http://www.w3.org/2000/svg"
   xmlns:svg="http://www.w3.org/2000/svg">
  <defs
     id="defs12" />
  <sodipodi:namedview
     id="namedview10"
     pagecolor="#ffffff"
     bordercolor="#666666"
     borderopacity="1.0"
     inkscape:pageshadow="2"
     inkscape:pageopacity="0.0"
     inkscape:pagecheckerboard="0"
     showgrid="false"
     inkscape:zoom="4.85"
     inkscape:cx="-16.597938"
     inkscape:cy="43.917526"
     inkscape:window-width="1920"
     inkscape:window-height="1043"
     inkscape:window-x="0"
     inkscape:window-y="0"
     inkscape:window-maximized="1"
     inkscape:current-layer="svg8" />
  <g
     fill="none"
     fill-rule="evenodd"
     id="g6"
     transform="matrix(0.94339623,0,0,0.90909091,15,19.609091)">
    <g
       fill="#444444"
       fill-rule="nonzero"
       id="g4">
      <path
         d="M 24.071,28.481 V 26.72 h 1.625 c 1.553,0 2.931,0.043 4.13,0.126 1.15,0.08 2.294,0.223 3.428,0.429 1.003,0.182 1.83,0.418 2.48,0.697 0.632,0.271 1.22,0.618 1.772,1.046 0.425,0.33 0.759,0.708 1.02,1.15 0.308,0.521 0.571,1.195 0.775,2.03 0.213,0.872 0.325,1.914 0.325,3.123 l -0.003,0.362 c -0.008,0.496 -0.033,1.038 -0.074,1.628 l -0.043,0.548 -0.018,0.125 c -0.073,0.46 -0.113,0.841 -0.113,1.229 0,1.225 0.446,2.401 1.308,3.312 0.95,0.999 2.203,1.475 3.496,1.475 1.48,0 2.772,-0.657 3.687,-1.716 l 0.04,-0.047 c 0.335,-0.388 0.616,-0.814 0.855,-1.277 l 0.245,-0.483 0.418,-0.853 C 51.77,34.91 53,30.994 53,27.76 53,24.254 52.46,21.216 51.328,18.652 l -0.15,-0.324 C 47.572,10.724 38.85,7.2 25.697,7.2 H 24.072 V 5.44 C 24.072,3.882 23.409,2.474 22.265,1.449 21.208,0.503 19.88,0 18.464,0 17.048,0 15.72,0.503 14.664,1.45 L 1.808,12.968 C 0.663,13.996 0,15.403 0,16.96 c 0,1.557 0.664,2.965 1.807,3.99 l 12.858,11.522 c 1.058,0.946 2.385,1.448 3.8,1.448 1.414,0 2.742,-0.502 3.797,-1.446 1.146,-1.027 1.81,-2.436 1.81,-3.994 z M 18.464,4 c 0.436,0 0.812,0.143 1.13,0.428 0.278,0.249 0.435,0.538 0.47,0.868 l 0.007,0.144 v 5.76 h 5.625 c 11.936,0 19.26,3.023 21.973,9.068 0.887,2.01 1.331,4.508 1.331,7.493 0,2.401 -0.989,5.632 -2.965,9.692 l -0.666,1.355 -0.16,0.314 c -0.102,0.196 -0.21,0.36 -0.327,0.496 C 44.681,39.873 44.447,40 44.179,40 c -0.251,0 -0.448,-0.075 -0.59,-0.225 -0.143,-0.15 -0.214,-0.337 -0.214,-0.562 l 0.003,-0.089 0.02,-0.223 0.087,-0.613 0.014,-0.148 0.002,-0.052 c 0.083,-1.02 0.125,-1.942 0.125,-2.767 0,-1.515 -0.147,-2.873 -0.44,-4.073 -0.292,-1.2 -0.698,-2.238 -1.217,-3.116 -0.52,-0.878 -1.189,-1.635 -2.01,-2.273 -0.82,-0.637 -1.703,-1.158 -2.649,-1.563 -0.946,-0.406 -2.06,-0.724 -3.34,-0.957 -1.28,-0.232 -2.57,-0.394 -3.867,-0.484 -1.135,-0.078 -2.402,-0.123 -3.8,-0.132 l -0.607,-0.002 h -5.625 v 5.76 c 0,0.39 -0.159,0.728 -0.477,1.013 -0.318,0.284 -0.695,0.427 -1.13,0.427 -0.38,0 -0.716,-0.11 -1.008,-0.327 L 17.334,29.494 4.477,17.973 C 4.16,17.688 4,17.351 4,16.961 4,16.619 4.122,16.318 4.365,16.057 L 4.477,15.947 17.334,4.427 C 17.652,4.143 18.029,4 18.464,4 Z"
         transform="matrix(-1,0,0,1,53,0.43)"
         id="path2" />
    </g>
  </g>
</svg>
