<?xml version="1.0" encoding="utf-8"?>
<svg width="148.43115px" height="148.43121px" viewBox="0 0 148.43115 148.43121" version="1.1" xmlns:xlink="http://www.w3.org/1999/xlink" xmlns="http://www.w3.org/2000/svg">
  <defs>
    <rect width="148.4312" height="148.4312" id="artboard_1" />
    <clipPath id="clip_1">
      <use xlink:href="#artboard_1" clip-rule="evenodd" />
    </clipPath>
  </defs>
  <g id="IconsPlaceholder---Photo" clip-path="url(#clip_1)">
    <path d="M118 0C134.569 0 148 13.4315 148 30L148 118C148 134.569 134.569 148 118 148L30 148C13.4315 148 0 134.569 0 118L0 30C0 13.4315 13.4315 0 30 0L118 0ZM118 15L30 15C21.8206 15 15.1703 21.5468 15.0032 29.6862L15 30L15 108.068L35.1878 89.0935C38.0781 86.3769 42.5683 86.3889 45.4434 89.077L45.6368 89.2645L55.27 98.931L91.3703 62.706C94.1908 59.8756 98.7193 59.7625 101.676 62.4035L101.875 62.5879L133 92.448L133 30C133 21.8206 126.453 15.1703 118.314 15.0032L118 15ZM133 113.235L96.8 78.507L60.583 114.851C57.7157 117.728 53.0952 117.791 50.1517 115.039L49.958 114.851L40.153 105.011L17.5037 126.3C20.1375 130.257 24.601 132.892 29.6862 132.997L30 133L118 133C126.179 133 132.83 126.453 132.997 118.314L133 118L133 113.235ZM45.5 60C54.0604 60 61 53.0604 61 44.5C61 35.9396 54.0604 29 45.5 29C36.9396 29 30 35.9396 30 44.5C30 53.0604 36.9396 60 45.5 60Z" id="IconsPlaceholder---Photo" fill="#000000" fill-rule="evenodd" stroke="none" />
  </g>
</svg>
