<?xml version="1.0" encoding="UTF-8" standalone="no"?>
<svg
   width="40px"
   height="40px"
   viewBox="0 0 40 40"
   version="1.1"
   id="svg25"
   sodipodi:docname="group_chat_pressed.svg"
   inkscape:version="1.1 (c68e22c387, 2021-05-23)"
   xmlns:inkscape="http://www.inkscape.org/namespaces/inkscape"
   xmlns:sodipodi="http://sodipodi.sourceforge.net/DTD/sodipodi-0.dtd"
   xmlns="http://www.w3.org/2000/svg"
   xmlns:svg="http://www.w3.org/2000/svg"
   xmlns:rdf="http://www.w3.org/1999/02/22-rdf-syntax-ns#"
   xmlns:cc="http://creativecommons.org/ns#"
   xmlns:dc="http://purl.org/dc/elements/1.1/">
  <sodipodi:namedview
     id="namedview27"
     pagecolor="#ffffff"
     bordercolor="#666666"
     borderopacity="1.0"
     inkscape:pageshadow="2"
     inkscape:pageopacity="0.0"
     inkscape:pagecheckerboard="0"
     showgrid="false"
     inkscape:zoom="21.825"
     inkscape:cx="20"
     inkscape:cy="19.954181"
     inkscape:window-width="1920"
     inkscape:window-height="1092"
     inkscape:window-x="1920"
     inkscape:window-y="33"
     inkscape:window-maximized="1"
     inkscape:current-layer="svg25" />
  <title
     id="title2">4DD8BA2F-EDDE-41CB-BCE6-DE37F912DDDA</title>
  <defs
     id="defs7">
    <filter
       color-interpolation-filters="auto"
       id="filter-1"
       x="0"
       y="0"
       width="1"
       height="1">
      <feColorMatrix
         in="SourceGraphic"
         type="matrix"
         values="0 0 0 0 1.000000 0 0 0 0 1.000000 0 0 0 0 1.000000 0 0 0 1.000000 0"
         id="feColorMatrix4" />
    </filter>
  </defs>
  <g
     id="Symbols"
     stroke="none"
     stroke-width="1"
     fill="none"
     fill-rule="evenodd">
    <g
       id="new_conf_chat_group_clic">
      <g
         id="Group-2"
         fill="#FF5E00">
        <circle
           id="call_clic"
           cx="20"
           cy="20"
           r="20" />
      </g>
      <g
         id="g21"
         transform="translate(5.873063, 10.000000)">
        <g
           filter="url(#filter-1)"
           id="chat_group_new2">
          <g
             transform="translate(0.000000, 0.685585)"
             id="g17">
            <g
               id="Group"
               transform="translate(0.000000, 3.745833)"
               fill="#444444"
               fill-rule="nonzero">
              <path
                 d="M4.65683464,13.441434 C5.86847836,13.8040695 7.11403319,14.0357253 8.34638612,14.1589398 C9.2449253,14.2487786 10.0090902,14.2702733 10.5783686,14.2538757 C10.6344097,14.2522614 10.6712298,14.2507134 10.6876867,14.2498151 L10.7997497,14.248917 C10.8491369,14.2507135 10.8859543,14.2522615 10.941992,14.2538757 C11.5112412,14.2702733 12.2753877,14.2487786 13.1739359,14.1589398 C14.4063116,14.0357242 15.6519395,13.8040654 16.8637194,13.4414238 C17.0464942,12.4543108 16.8687158,11.338558 16.0541229,10.270779 C15.4358226,9.46030301 14.4836344,8.74270868 13.1389084,8.15167671 C13.1049924,8.13677002 13.0725194,8.11877537 13.0418998,8.09792014 L12.8945356,7.99754945 C12.5687327,7.77564299 12.5392669,7.30621415 12.8347641,7.04530906 C12.8811133,6.99024032 12.8911536,6.9784664 12.9338728,6.93257487 C13.440938,6.38562663 13.7276246,5.66733163 13.7276246,4.9015363 C13.7276246,3.2607958 12.413109,1.93333333 10.7941108,1.93333333 L10.7260676,1.93333333 C9.10751525,1.93333333 7.79292976,3.26091515 7.79292976,4.9015363 C7.79292976,5.66720391 8.07970745,6.38552213 8.58742877,6.93317897 C8.63012927,6.97936414 8.63740247,6.98778536 8.6754369,7.03652855 C8.98179254,7.30489135 8.95251243,7.77614888 8.62531946,7.9981526 L8.47739137,8.09852329 C8.44703562,8.11911997 8.41486707,8.13690917 8.38128433,8.15167043 C7.03666137,8.74269851 6.08455338,9.46028752 5.46631162,10.2707585 C4.65178905,11.3385397 4.47404463,12.454305 4.65683464,13.441434 Z M10.735811,15.4572504 C10.707937,15.4585715 10.6668569,15.4601613 10.6131594,15.461708 C9.99471859,15.4795218 9.17944277,15.4565894 8.22617255,15.3612784 C6.80505941,15.2191911 5.36592605,14.9407026 3.967361,14.4927978 C3.78634827,14.4348266 3.64316842,14.2950534 3.58085601,14.1154888 C3.55223172,14.0330027 3.51514478,13.8989913 3.47984046,13.7197529 C3.22167978,12.4090829 3.44453019,10.9288728 4.505588,9.5379014 C5.15947516,8.68070181 6.09546621,7.9294568 7.33936063,7.30627158 C6.85333217,6.61131347 6.58459643,5.77707076 6.58459643,4.9015363 C6.58459643,2.59621755 8.43749575,0.725 10.7260676,0.725 L10.7941108,0.725 C13.0831185,0.725 14.9359579,2.59608838 14.9359579,4.9015363 C14.9359579,5.77698311 14.6673973,6.61109053 14.1811492,7.30641887 C15.4249708,7.92956995 16.3609278,8.6807568 17.0148152,9.53788089 C18.0759787,10.9288677 18.2988677,12.4091 18.0407067,13.7197801 C18.0054051,13.8990057 17.9683209,14.0330078 17.9396983,14.1154888 C17.8773837,14.2950597 17.7341961,14.4348361 17.5531752,14.4928036 C16.1544695,14.9407047 14.7152694,15.2191917 13.2941484,15.3612785 C12.3408698,15.4565894 11.5256118,15.4795218 10.9071996,15.461708 C10.8535053,15.4601613 10.8124275,15.4585715 10.7845546,15.4572504 L10.735811,15.4572504 Z"
                 id="chat_group_new" />
              <path
                 d="M14.8782522,4.9015363 C14.8782522,5.77694986 14.6097119,6.61102717 14.1234988,7.30633964 C15.9859498,8.23867402 17.1434583,9.44651141 17.6974019,10.8289025 C18.7552228,10.7481322 19.8565861,10.5630139 20.9402442,10.2444502 C21.0601644,9.49932616 20.9120364,8.66403123 20.2996994,7.86137195 C19.8155857,7.22678943 19.0666248,6.66235254 18.0037186,6.19518564 C17.9698027,6.18027895 17.9373297,6.1622843 17.9067101,6.14142907 L17.7882924,6.06077405 C17.4624895,5.83886759 17.4330237,5.36943875 17.7285209,5.10853366 C17.7548489,5.07521458 17.7657388,5.06268362 17.79968,5.02622215 C18.1869691,4.60847092 18.40587,4.06001341 18.40587,3.47482083 C18.40587,2.22165241 17.4024339,1.20833333 16.1672577,1.20833333 L16.1125802,1.20833333 C15.247296,1.20833333 14.4759707,1.71041714 14.1049905,2.47078381 C14.6033707,3.17178033 14.8782522,4.01589245 14.8782522,4.9015363 Z M17.7127808,5.12879665 C17.7130143,5.12849742 17.7132466,5.12819964 17.7134779,5.12790329 C17.7131003,5.1283878 17.7129938,5.12852408 17.7127808,5.12879665 Z M13.5673988,7.04547479 L13.3243007,7.59857575 L13.6644074,7.09923135 L13.6189333,7.06825868 C13.6018082,7.06064289 13.5846301,7.05304824 13.5673988,7.04547479 Z M12.8761671,6.93257487 C13.3832322,6.38562663 13.6699188,5.66733163 13.6699188,4.9015363 C13.6699188,4.17777318 13.4138505,3.49596954 12.9557903,2.96035771 C12.8184919,2.79981406 12.775017,2.57921832 12.841135,2.37858549 C13.3052404,0.970272261 14.6158309,0 16.1125802,0 L16.1672577,0 C18.0724434,0 19.6142033,1.556945 19.6142033,3.47482083 C19.6142033,4.15609404 19.4185792,4.80744786 19.0619794,5.36235033 C20.0178654,5.85886014 20.7449329,6.45280368 21.2603918,7.12847382 C22.1361153,8.27638354 22.3203515,9.49991785 22.1068535,10.5838442 C22.0773717,10.7335231 22.0461072,10.8464959 22.0213644,10.9177965 C21.9590498,11.0973675 21.8158622,11.2371438 21.6348413,11.2951113 C20.1834021,11.759899 18.7038017,11.9949481 17.3083013,12.0639878 C17.0303853,12.0777372 16.7790194,11.8998938 16.6994863,11.6332463 C16.2941442,10.2742718 15.1753838,9.07210806 13.0812026,8.15167671 C13.0472867,8.13677002 13.0148137,8.11877537 12.9841941,8.09792014 L12.8368299,7.99754945 C12.5110269,7.77564299 12.4815612,7.30621415 12.7770583,7.04530906 C12.8234075,6.99024032 12.8334479,6.9784664 12.8761671,6.93257487 Z"
                 id="path12" />
              <path
                 d="M7.33930815,7.30619655 C6.85331283,6.61125342 6.58459643,5.77703925 6.58459643,4.9015363 C6.58459643,3.79227352 7.01681602,2.75383663 7.76198941,1.98441603 C7.34404587,1.49943671 6.73470006,1.20833333 6.07496346,1.20833333 L6.02028592,1.20833333 C4.78546896,1.20833333 3.78197573,2.22174735 3.78197573,3.47482083 C3.78197573,4.05990649 4.00094709,4.60838399 4.38887607,5.02682626 C4.42295795,5.06368946 4.43183357,5.07381014 4.45814251,5.10735987 C4.75528703,5.36816661 4.72599249,5.83938542 4.3988171,6.0613772 L4.27994632,6.14203222 C4.24959056,6.1626289 4.21742201,6.1804181 4.18383928,6.19517936 C3.12101649,6.66234238 2.37212012,7.22677394 1.88805306,7.86135145 C1.27578244,8.66399472 1.12767353,9.49928127 1.2475919,10.2444064 C2.08596551,10.4906374 2.94308707,10.6585558 3.79368976,10.7600225 C4.35886164,9.40544539 5.50890862,8.222521 7.33930815,7.30619655 Z M4.47504971,5.12901881 C4.47477012,5.12866054 4.47463032,5.12848141 4.47441347,5.12820674 C4.47447091,5.12827563 4.4747594,5.12864605 4.47504971,5.12901881 Z M7.79895252,7.09862821 L8.13817195,7.59857575 L7.89505957,7.04548106 C7.8779986,7.0529802 7.86098967,7.06050015 7.84403271,7.06804085 L7.79895252,7.09862821 Z M8.62531946,7.9981526 L8.47739137,8.09852329 C8.44703562,8.11911997 8.41486707,8.13690917 8.38128433,8.15167043 C6.31106874,9.06163225 5.19354583,10.2478395 4.77660056,11.5895906 C4.69196944,11.8619379 4.42841632,12.038013 4.14441679,12.0119412 C2.95075778,11.9023607 1.73548033,11.6738114 0.552986254,11.2951055 C0.371973525,11.2371343 0.228793681,11.0973611 0.166481266,10.9177965 C0.141737149,10.8464919 0.110470473,10.7335116 0.0809864258,10.5838225 C-0.132510969,9.4999059 0.0516930927,8.27639134 0.927329439,7.12849432 C1.44278627,6.45276704 2.16987606,5.85877895 3.12581105,5.36224189 C2.76939923,4.80764285 2.5736424,4.15617699 2.5736424,3.47482083 C2.5736424,1.55704976 4.11544946,0 6.02028592,0 L6.07496346,0 C7.33997381,0 8.48401695,0.692974737 9.0878376,1.78558065 C9.23126644,2.04511333 9.16514563,2.37037406 8.93176977,2.55330779 C8.21843537,3.11246127 7.79292976,3.97057646 7.79292976,4.9015363 C7.79292976,5.66720391 8.07970745,6.38552213 8.58742877,6.93317897 C8.63012927,6.97936414 8.63740247,6.98778536 8.6754369,7.03652855 C8.98179254,7.30489135 8.95251243,7.77614888 8.62531946,7.9981526 Z"
                 id="path14" />
            </g>
          </g>
        </g>
        <path
           d="M30.2778914,6.9943257 C29.3707142,4.98405571 26.6704728,3.59739238 24.4212855,3.59739238 L24.3744464,3.59739238 C22.124955,3.59739238 19.4241053,4.98480717 18.5174349,6.9945404 L18.8482484,9.59739238 L21.7462885,9.59739238 L21.9513868,7.00688586 L26.8444464,7.00688586 L27.0490378,9.59739238 L29.9470779,9.59739238 L30.2778914,6.9943257 L30.2778914,6.9943257 Z"
           id="add_call_default"
           stroke="#FFFFFF"
           stroke-linecap="round"
           stroke-linejoin="round"
           transform="translate(24.397663, 6.597392) rotate(-119.000000) translate(-24.397663, -6.597392) " />
      </g>
    </g>
  </g>
  <metadata
     id="metadata29">
    <rdf:RDF>
      <cc:Work
         rdf:about="">
        <dc:title>4DD8BA2F-EDDE-41CB-BCE6-DE37F912DDDA</dc:title>
      </cc:Work>
    </rdf:RDF>
  </metadata>
  <path
     style="fill:#ffffff;stroke-width:0.045819"
     d="M 15.166094,29.843611 C 13.881449,29.788603 12.33054,29.560314 11.065292,29.239984 9.786811,28.916304 9.5647637,28.814878 9.4658175,28.509382 9.3354584,28.1069 9.267805,27.482053 9.2935883,26.918671 l 0.026211,-0.572737 -0.640858,-0.104726 C 7.5236868,26.052422 6.3924205,25.735094 6.2044097,25.547083 5.8898791,25.232553 5.8024636,24.045844 6.0298706,23.177629 c 0.3250316,-1.240935 1.273148,-2.379685 2.641378,-3.17247 0.1827033,-0.105862 0.3321878,-0.202392 0.3321878,-0.214509 0,-0.01212 -0.069846,-0.160727 -0.1552124,-0.330244 -0.5352107,-1.062786 -0.4920411,-2.294326 0.1167441,-3.330471 0.1115484,-0.189854 0.347342,-0.477726 0.5736002,-0.700287 0.3219545,-0.316693 0.4600292,-0.414629 0.8523637,-0.604573 0.740955,-0.358726 1.456013,-0.454588 2.217546,-0.297289 0.668488,0.13808 1.175639,0.40443 1.667121,0.875551 l 0.3008,0.288339 0.376725,-0.158883 c 0.660808,-0.278693 0.867554,-0.317825 1.679178,-0.317825 0.566054,0 0.800969,0.01884 1.030928,0.08268 0.405425,0.112553 0.858198,0.309511 1.169935,0.508927 0.14271,0.09129 0.275155,0.159786 0.294323,0.152212 0.01917,-0.0076 0.138973,-0.139477 0.266234,-0.293119 0.418654,-0.505441 1.078311,-0.921638 1.751753,-1.105232 0.221099,-0.06028 0.457176,-0.0802 0.916381,-0.07735 0.538741,0.0033 0.665854,0.01943 0.985108,0.124639 0.979656,0.322854 1.78348,1.067912 2.161295,2.00329 0.363068,0.898865 0.317443,1.971474 -0.121132,2.84772 l -0.179519,0.358668 0.192244,0.09772 c 0.313638,0.159433 0.901785,0.564839 1.259004,0.867823 0.485783,0.412029 0.928422,0.984046 1.220114,1.576733 0.355307,0.721948 0.416476,0.9946 0.416317,1.85567 -1.83e-4,1.110443 -0.12037,1.376287 -0.701173,1.551221 -0.848942,0.255697 -1.789116,0.45485 -2.740785,0.58057 l -0.601311,0.07944 0.02331,0.491764 c 0.024,0.506269 -0.03411,1.07941 -0.151758,1.496939 -0.116961,0.415082 -0.252221,0.482154 -1.692985,0.839512 -1.137338,0.282098 -2.419261,0.483712 -3.642611,0.572888 -0.582609,0.04247 -2.488632,0.05161 -3.321879,0.01593 z m 3.894616,-1.226082 c 1.182292,-0.13755 2.179645,-0.317844 3.106027,-0.561485 0.414081,-0.108904 0.552206,-0.164567 0.59176,-0.238474 0.0654,-0.1222 0.06569,-1.087062 4.12e-4,-1.334179 -0.144889,-0.548419 -0.528888,-1.336109 -0.875772,-1.796459 -0.553708,-0.734817 -1.337346,-1.336973 -2.522567,-1.938364 -0.747331,-0.379202 -0.872597,-0.497095 -0.872597,-0.821234 0,-0.187658 0.02493,-0.248022 0.173574,-0.42031 0.656885,-0.761364 0.882695,-1.31685 0.882695,-2.1714 0,-0.732703 -0.186883,-1.281402 -0.648472,-1.903947 -0.407348,-0.549389 -0.967743,-0.895959 -1.664219,-1.029217 -0.451977,-0.08648 -0.764953,-0.0859 -1.208282,0.0022 -0.883356,0.175585 -1.652007,0.773606 -2.042062,1.588752 -0.258807,0.54086 -0.321833,0.817672 -0.316034,1.388014 0.0075,0.734562 0.253287,1.368727 0.76268,1.967579 0.257582,0.302819 0.30296,0.394886 0.30296,0.614668 0,0.284691 -0.15357,0.42325 -0.874599,0.789106 -1.536354,0.779559 -2.447499,1.598889 -2.976714,2.676757 -0.316674,0.644979 -0.417003,1.061143 -0.420288,1.743359 -0.0015,0.314144 0.01873,0.592034 0.04698,0.644808 0.116942,0.218507 2.521469,0.703838 4.155897,0.838828 0.640823,0.05293 3.853257,0.02443 4.398625,-0.03902 z m 5.933563,-3.5125 c 0.365406,-0.06093 0.926431,-0.175509 1.246721,-0.254629 l 0.582345,-0.143853 0.03093,-0.206266 c 0.04637,-0.309196 -0.01154,-0.827652 -0.13633,-1.220621 -0.161906,-0.509847 -0.445231,-0.953624 -0.895874,-1.403225 -0.442297,-0.441274 -0.929736,-0.777174 -1.691338,-1.165522 -0.577701,-0.294574 -0.693841,-0.418297 -0.694132,-0.739451 -1.37e-4,-0.162038 0.03669,-0.233721 0.258975,-0.50401 0.65533,-0.796839 0.779629,-1.699868 0.355734,-2.584389 -0.535369,-1.117128 -1.936356,-1.581437 -3.086144,-1.022796 -0.266049,0.129264 -0.800271,0.626614 -0.916625,0.85336 -0.0593,0.115552 -0.05599,0.142706 0.03623,0.297824 0.242037,0.407117 0.427012,0.813252 0.541256,1.188397 0.110144,0.361679 0.122704,0.474972 0.123386,1.112867 6.32e-4,0.592009 -0.01603,0.771193 -0.100138,1.076747 -0.104544,0.379803 -0.350884,0.942384 -0.511278,1.167636 -0.05069,0.07119 -0.09209,0.146878 -0.092,0.168188 9.1e-5,0.02131 0.137174,0.109593 0.304624,0.196184 0.167451,0.08659 0.502426,0.289784 0.74439,0.451541 1.072717,0.71713 1.814504,1.512753 2.316402,2.484522 l 0.217716,0.421537 0.350388,-0.03163 c 0.192713,-0.0174 0.649357,-0.08148 1.014764,-0.142408 z M 9.7980558,24.947986 c 0.3054662,-0.665489 0.9447662,-1.464328 1.6250982,-2.030646 0.407449,-0.339167 1.100945,-0.803598 1.497808,-1.003077 0.151203,-0.076 0.281961,-0.144504 0.290575,-0.15223 0.0086,-0.0077 -0.05533,-0.135178 -0.142099,-0.283224 -0.365159,-0.62305 -0.537564,-1.215567 -0.570272,-1.959909 -0.04758,-1.082624 0.260354,-2.021354 0.934595,-2.84914 0.108568,-0.133292 0.197396,-0.262779 0.197396,-0.287749 0,-0.02497 -0.108247,-0.131471 -0.24055,-0.236668 -0.767793,-0.61049 -1.779751,-0.694908 -2.6263,-0.219087 -0.296347,0.166568 -0.707624,0.59693 -0.8624577,0.902479 -0.3436534,0.678168 -0.341456,1.536835 0.00556,2.174426 0.067121,0.123324 0.2201787,0.336376 0.3401287,0.473449 0.224399,0.256434 0.303426,0.472695 0.244216,0.668318 -0.05991,0.197951 -0.271154,0.366554 -0.7781275,0.621069 -0.682833,0.342802 -1.0735064,0.609371 -1.5249392,1.040517 -0.7984038,0.762524 -1.134206,1.518166 -1.1010122,2.477564 l 0.014267,0.412371 0.3894616,0.103785 c 0.5138695,0.136937 1.6783387,0.364971 2.1325046,0.417602 0.026257,0.003 0.1046207,-0.11839 0.1741423,-0.26985 z"
     id="path58" />
  <path
     style="fill:#ffffff;stroke-width:0.045819"
     d="m 32.099708,21.918911 c -2.0128,-0.422422 -4.053259,-2.010609 -4.998478,-3.890555 -0.850837,-1.69223 -1.013986,-3.987329 -0.406053,-5.712159 0.173002,-0.490844 0.261763,-0.672778 0.537282,-1.101272 l 0.213131,-0.331466 1.317375,-0.52764 c 0.752496,-0.301393 1.381193,-0.5272034 1.466208,-0.5266215 0.08186,5.604e-4 0.194691,0.036643 0.25074,0.080183 0.103297,0.080245 1.550076,2.6493295 1.599711,2.8406495 0.06411,0.247101 -0.05145,0.360302 -1.045291,1.02396 l -0.95549,0.638049 0.06623,0.128081 c 0.312301,0.603924 1.826667,3.291979 1.871585,3.32213 0.03682,0.02472 0.423169,-0.128114 1.071424,-0.423826 0.557613,-0.254363 1.052248,-0.462402 1.09919,-0.462308 0.239387,4.81e-4 0.352038,0.153875 1.079784,1.470315 0.395737,0.71586 0.741566,1.36084 0.768509,1.433287 0.09995,0.268761 -0.01814,0.390504 -1.258936,1.297826 l -1.145475,0.837621 -0.549828,-0.0028 c -0.361654,-0.0019 -0.697606,-0.03383 -0.981621,-0.09344 z m 1.995792,-1.41631 c 0.450224,-0.328381 0.823621,-0.622195 0.82977,-0.652921 0.01782,-0.08903 -0.934873,-1.752545 -0.995543,-1.738343 -0.03014,0.0071 -0.488653,0.209541 -1.018927,0.449972 -0.530274,0.24043 -1.024414,0.43886 -1.098089,0.440954 -0.07368,0.0021 -0.18951,-0.03747 -0.257411,-0.08792 -0.182357,-0.135494 -2.574773,-4.463349 -2.574773,-4.657736 0,-0.08078 0.0334,-0.194556 0.07423,-0.252841 0.04082,-0.05828 0.478969,-0.374497 0.973654,-0.702695 0.494686,-0.328198 0.906183,-0.61464 0.914439,-0.636538 0.01478,-0.0392 -0.810944,-1.56358 -0.92082,-1.699949 -0.0494,-0.06131 -0.172829,-0.02349 -0.995679,0.305087 -1.074309,0.428988 -1.060771,0.417659 -1.343583,1.124374 -0.563096,1.407114 -0.529411,3.277511 0.08654,4.805038 0.806358,1.999734 2.987225,3.667808 5.060023,3.870247 0.444888,0.04345 0.405305,0.06117 1.266176,-0.566728 z"
     id="path97" />
</svg>
