<?xml version="1.0" encoding="UTF-8" standalone="no"?>
<svg
   width="40"
   height="40"
   viewBox="0 0 40 40"
   version="1.1"
   id="svg29"
   sodipodi:docname="group_chat_hovered.svg"
   inkscape:version="1.1 (c68e22c387, 2021-05-23)"
   xmlns:inkscape="http://www.inkscape.org/namespaces/inkscape"
   xmlns:sodipodi="http://sodipodi.sourceforge.net/DTD/sodipodi-0.dtd"
   xmlns="http://www.w3.org/2000/svg"
   xmlns:svg="http://www.w3.org/2000/svg">
  <sodipodi:namedview
     id="namedview31"
     pagecolor="#ffffff"
     bordercolor="#666666"
     borderopacity="1.0"
     inkscape:pageshadow="2"
     inkscape:pageopacity="0.0"
     inkscape:pagecheckerboard="0"
     showgrid="false"
     inkscape:zoom="21.825"
     inkscape:cx="20"
     inkscape:cy="19.954181"
     inkscape:window-width="1920"
     inkscape:window-height="1092"
     inkscape:window-x="1920"
     inkscape:window-y="33"
     inkscape:window-maximized="1"
     inkscape:current-layer="svg29" />
  <defs
     id="defs5">
    <filter
       id="hf1nvdl9pa"
       color-interpolation-filters="auto"
       x="0"
       y="0"
       width="1"
       height="1">
      <feColorMatrix
         in="SourceGraphic"
         values="0 0 0 0 1.000000 0 0 0 0 1.000000 0 0 0 0 1.000000 0 0 0 1.000000 0"
         id="feColorMatrix2" />
    </filter>
  </defs>
  <g
     fill="none"
     fill-rule="evenodd"
     id="g27">
    <g
       id="g25">
      <g
         fill="#4B5964"
         id="g9">
        <circle
           cx="20"
           cy="20"
           r="20"
           id="circle7" />
      </g>
      <g
         id="g23">
        <g
           filter="url(#hf1nvdl9pa)"
           transform="translate(5.873063, 10.000000)"
           id="g19">
          <g
             id="g17">
            <g
               fill="#444"
               fill-rule="nonzero"
               id="g15">
              <path
                 d="M4.657 13.441c1.211.363 2.457.595 3.69.718.898.09 1.662.111 2.231.095l.11-.004.112-.001.142.005c.57.016 1.333-.005 2.232-.095 1.232-.123 2.478-.355 3.69-.718.182-.987.005-2.102-.81-3.17-.618-.81-1.57-1.528-2.915-2.12-.034-.014-.066-.032-.097-.053l-.147-.1c-.326-.222-.356-.692-.06-.953.046-.055.056-.067.099-.112.507-.547.794-1.266.794-2.031 0-1.641-1.315-2.969-2.934-2.969h-.068c-1.618 0-2.933 1.328-2.933 2.969 0 .765.287 1.484.794 2.031.043.046.05.055.088.104.307.268.278.74-.05.961l-.148.1c-.03.021-.062.039-.096.054-1.344.59-2.296 1.308-2.915 2.119-.814 1.068-.992 2.183-.81 3.17zm6.079 2.016l-.123.005c-.618.018-1.434-.005-2.387-.1-1.42-.143-2.86-.421-4.259-.87-.18-.057-.324-.197-.386-.377-.029-.082-.066-.216-.101-.395-.258-1.31-.035-2.791 1.026-4.182.653-.857 1.59-1.609 2.833-2.232-.486-.695-.754-1.529-.754-2.404 0-2.306 1.852-4.177 4.141-4.177h.068c2.29 0 4.142 1.871 4.142 4.177 0 .875-.269 1.71-.755 2.404 1.244.624 2.18 1.375 2.834 2.232 1.061 1.39 1.284 2.871 1.026 4.182-.036.179-.073.313-.101.395-.063.18-.206.32-.387.378-1.399.448-2.838.726-4.259.868-.953.096-1.768.119-2.387.1-.053 0-.095-.002-.122-.004h-.05z"
                 transform="translate(0.000000, 0.685585) translate(0.000000, 3.745833)"
                 id="path11" />
              <path
                 d="M14.878 4.902c0 .875-.268 1.709-.755 2.404 1.863.933 3.02 2.14 3.574 3.523 1.058-.08 2.16-.266 3.243-.585.12-.745-.028-1.58-.64-2.383-.484-.634-1.233-1.199-2.296-1.666-.034-.015-.067-.033-.097-.054l-.119-.08c-.326-.222-.355-.692-.06-.952.027-.034.038-.046.072-.083.387-.418.606-.966.606-1.551 0-1.253-1.004-2.267-2.239-2.267h-.054c-.866 0-1.637.502-2.008 1.263.498.7.773 1.545.773 2.43zm2.835.227v-.001zm-4.146 1.916l-.243.554.34-.5-.045-.03-.052-.024zm-.69-.112c.506-.547.793-1.266.793-2.031 0-.724-.256-1.406-.714-1.942-.138-.16-.181-.38-.115-.581C13.305.97 14.616 0 16.113 0h.054c1.905 0 3.447 1.557 3.447 3.475 0 .681-.195 1.332-.552 1.887.956.497 1.683 1.09 2.198 1.766.876 1.148 1.06 2.372.847 3.456-.03.15-.06.262-.086.334-.062.18-.205.32-.386.377-1.452.465-2.931.7-4.327.769-.278.014-.529-.164-.609-.43-.405-1.36-1.524-2.562-3.618-3.482-.034-.015-.066-.033-.097-.054l-.147-.1c-.326-.222-.355-.692-.06-.953.046-.055.056-.067.1-.112zM7.34 7.306c-.487-.695-.755-1.529-.755-2.404 0-1.11.432-2.148 1.177-2.918-.418-.485-1.027-.776-1.687-.776H6.02c-1.235 0-2.238 1.014-2.238 2.267 0 .585.219 1.133.607 1.552.034.037.043.047.07.08.296.261.267.732-.06.954l-.12.081c-.03.02-.062.038-.095.053-1.063.467-1.812 1.032-2.296 1.666-.612.803-.76 1.638-.64 2.383.838.247 1.695.415 2.546.516.565-1.355 1.715-2.537 3.545-3.454zM4.474 5.13zm3.324 1.97l.34.5-.244-.554-.051.023-.045.03zm.826.9l-.148.1c-.03.02-.062.038-.096.053-2.07.91-3.187 2.096-3.604 3.438-.085.272-.349.448-.633.422-1.193-.11-2.409-.338-3.591-.717-.181-.058-.324-.198-.387-.377-.024-.072-.056-.184-.085-.334C-.133 9.5.051 8.276.927 7.128c.516-.675 1.243-1.27 2.199-1.766-.357-.554-.552-1.206-.552-1.887C2.574 1.557 4.115 0 6.02 0h.055C7.34 0 8.484.693 9.088 1.786c.143.26.077.584-.156.767-.714.56-1.14 1.418-1.14 2.349 0 .765.288 1.484.795 2.031.043.046.05.055.088.104.307.268.278.74-.05.961z"
                 transform="translate(0.000000, 0.685585) translate(0.000000, 3.745833)"
                 id="path13" />
            </g>
          </g>
        </g>
        <path
           stroke="#FFF"
           stroke-linecap="round"
           stroke-linejoin="round"
           d="M30.278 6.994c-.907-2.01-3.608-3.397-5.857-3.397h-.047c-2.249 0-4.95 1.388-5.857 3.398l.331 2.602h2.898l.205-2.59h4.893l.205 2.59h2.898l.33-2.603h0z"
           transform="translate(5.873063, 10.000000) translate(24.397663, 6.597392) rotate(-119.000000) translate(-24.397663, -6.597392)"
           id="path21" />
      </g>
    </g>
  </g>
  <path
     style="fill:#ffffff;stroke-width:0.045819"
     d="M 15.166094,29.844075 C 13.87814,29.788111 12.328834,29.559882 11.065292,29.239984 9.786811,28.916304 9.5647637,28.814878 9.4658175,28.509382 9.3354584,28.1069 9.267805,27.482053 9.2935883,26.918671 l 0.026211,-0.572737 -0.640858,-0.104726 C 7.5236868,26.052422 6.3924205,25.735094 6.2044097,25.547083 5.9957122,25.338386 5.8579054,24.597276 5.9064941,23.944926 c 0.1180372,-1.584763 1.0812313,-2.949853 2.787664,-3.950825 0.1701031,-0.09978 0.3092783,-0.191334 0.3092783,-0.203451 0,-0.01212 -0.069846,-0.160727 -0.1552124,-0.330244 C 8.4084997,18.587231 8.3552576,17.61442 8.6973475,16.703674 9.5732363,14.371796 12.537478,13.69901 14.305167,15.430883 l 0.284548,0.278782 0.24237,-0.118598 c 0.640377,-0.313355 1.226703,-0.425396 2.029312,-0.387784 0.7707,0.03612 1.375593,0.221923 1.978932,0.607874 0.13877,0.08877 0.267991,0.155204 0.287159,0.14763 0.01917,-0.0076 0.138973,-0.139477 0.266234,-0.293119 0.419187,-0.506084 1.081053,-0.923376 1.751753,-1.104441 0.4109,-0.110928 1.332069,-0.110723 1.739673,3.88e-4 0.924216,0.251937 1.704888,0.874124 2.169781,1.72929 0.25306,0.465503 0.357779,0.864297 0.384419,1.463963 0.02874,0.646888 -0.07362,1.138768 -0.352301,1.693044 l -0.184481,0.366915 0.194765,0.09901 c 0.107121,0.05446 0.3618,0.209976 0.565953,0.345601 1.091444,0.725079 1.812228,1.623411 2.181451,2.718798 0.141062,0.418493 0.146797,0.464438 0.148702,1.191294 0.003,1.15988 -0.110817,1.419878 -0.699323,1.596941 -0.816586,0.245685 -1.844026,0.463566 -2.740785,0.581216 l -0.601311,0.07889 0.02331,0.491764 c 0.03978,0.839329 -0.116429,1.647701 -0.357624,1.850653 -0.408382,0.343631 -3.284961,0.935142 -5.15264,1.059539 -0.635215,0.04231 -2.482677,0.05101 -3.298969,0.01554 z m 3.894616,-1.226546 c 1.182292,-0.13755 2.179645,-0.317844 3.106027,-0.561485 0.414081,-0.108904 0.552206,-0.164567 0.59176,-0.238474 0.0654,-0.1222 0.06569,-1.087062 4.12e-4,-1.334179 -0.04933,-0.186719 -0.20815,-0.596843 -0.389863,-1.006754 -0.453704,-1.023467 -1.476,-1.950482 -3.008469,-2.728069 -0.731764,-0.3713 -0.872604,-0.5001 -0.872604,-0.797999 0,-0.206913 0.02647,-0.253918 0.425813,-0.756169 0.429245,-0.539859 0.630456,-1.13309 0.630456,-1.858776 0,-0.732703 -0.186883,-1.281402 -0.648472,-1.903947 -0.489183,-0.65976 -1.172593,-1.018856 -2.057282,-1.080993 -1.427808,-0.100283 -2.720604,0.830417 -3.096108,2.228927 -0.116905,0.435396 -0.104389,1.163534 0.02717,1.580756 0.142948,0.453334 0.292169,0.731315 0.588759,1.09679 0.340473,0.419552 0.368969,0.473188 0.370878,0.69809 0.0025,0.294688 -0.14356,0.427438 -0.883291,0.802784 -1.55186,0.787426 -2.471898,1.624229 -2.994977,2.724023 -0.294297,0.618772 -0.39009,1.029328 -0.393997,1.688622 -0.002,0.32926 0.01761,0.588635 0.04876,0.646566 0.120392,0.223887 2.466606,0.69735 4.156399,0.838756 0.637915,0.05338 3.850636,0.02529 4.398625,-0.03847 z m 5.933563,-3.5125 c 0.365406,-0.06093 0.926431,-0.175509 1.246721,-0.254629 l 0.582345,-0.143853 0.03093,-0.206266 c 0.04637,-0.309196 -0.01154,-0.827652 -0.13633,-1.220621 -0.318625,-1.003357 -1.118245,-1.80936 -2.504779,-2.524775 -0.667467,-0.344395 -0.776268,-0.454453 -0.776565,-0.785539 -1.37e-4,-0.163538 0.03299,-0.229461 0.230296,-0.45819 0.849545,-0.98484 0.837153,-2.322598 -0.02973,-3.209414 -0.535662,-0.547978 -1.315078,-0.790076 -2.056693,-0.638839 -0.198187,0.04042 -0.475075,0.12923 -0.615308,0.197364 -0.266049,0.129264 -0.800271,0.626614 -0.916625,0.85336 -0.0593,0.115552 -0.05599,0.142706 0.03623,0.297824 0.242037,0.407117 0.427012,0.813252 0.541256,1.188397 0.110144,0.361679 0.122704,0.474972 0.123386,1.112867 6.32e-4,0.591164 -0.01611,0.77163 -0.09987,1.076747 -0.09363,0.341053 -0.351076,0.924229 -0.5438,1.231857 -0.05324,0.08498 -0.06498,0.138662 -0.03287,0.150289 0.02747,0.0099 0.241366,0.127665 0.475315,0.26159 1.30543,0.7473 2.293657,1.721541 2.861514,2.821017 l 0.219429,0.424855 0.350388,-0.03163 c 0.192713,-0.0174 0.649357,-0.08148 1.014764,-0.142408 z M 9.8082992,24.937255 c 0.3315758,-0.705722 0.9784488,-1.50669 1.6621428,-2.058088 0.427198,-0.344534 1.079263,-0.778296 1.45052,-0.964904 0.151203,-0.076 0.280232,-0.142774 0.286731,-0.148387 0.0065,-0.0056 -0.0891,-0.204199 -0.212439,-0.441305 -0.370401,-0.712047 -0.508564,-1.259916 -0.509227,-2.01928 -7.88e-4,-0.905788 0.303007,-1.798472 0.847445,-2.490157 0.138659,-0.176159 0.265995,-0.349782 0.28297,-0.38583 0.04423,-0.09393 -0.30686,-0.385421 -0.69548,-0.577412 -0.890674,-0.440023 -1.955091,-0.249908 -2.643886,0.472222 -0.4224999,0.442947 -0.6321734,0.970675 -0.6321734,1.591121 0,0.597302 0.1895231,1.089283 0.6005674,1.559006 0.327412,0.374152 0.350269,0.663438 0.07315,0.92575 -0.08074,0.07642 -0.3942174,0.264383 -0.6966229,0.417692 -0.6509622,0.330015 -1.0770464,0.62736 -1.5039382,1.049533 -0.7377375,0.729581 -1.0624044,1.491124 -1.0303751,2.416862 l 0.014267,0.412371 0.3894616,0.103785 c 0.5147595,0.137174 1.6919852,0.367587 2.1336143,0.417602 0.026867,0.003 0.1093412,-0.123219 0.183276,-0.280581 z"
     id="path70" />
</svg>
