<?xml version="1.0" encoding="UTF-8" standalone="no"?>
<svg
   width="80"
   height="80"
   version="1.1"
   id="svg12"
   sodipodi:docname="group_chat_custom.svg"
   inkscape:version="1.1 (c68e22c387, 2021-05-23)"
   xmlns:inkscape="http://www.inkscape.org/namespaces/inkscape"
   xmlns:sodipodi="http://sodipodi.sourceforge.net/DTD/sodipodi-0.dtd"
   xmlns="http://www.w3.org/2000/svg"
   xmlns:svg="http://www.w3.org/2000/svg">
  <defs
     id="defs16" />
  <sodipodi:namedview
     id="namedview14"
     pagecolor="#ffffff"
     bordercolor="#666666"
     borderopacity="1.0"
     inkscape:pageshadow="2"
     inkscape:pageopacity="0.0"
     inkscape:pagecheckerboard="0"
     showgrid="false"
     inkscape:zoom="3.4388592"
     inkscape:cx="61.21216"
     inkscape:cy="63.974704"
     inkscape:window-width="1920"
     inkscape:window-height="1043"
     inkscape:window-x="0"
     inkscape:window-y="0"
     inkscape:window-maximized="1"
     inkscape:current-layer="svg12" />
  <g
     fill="none"
     fill-rule="evenodd"
     id="g10"
     transform="matrix(1.6542328,0,0,1.7438713,13.555656,21.124063)">
    <g
       fill="#000000"
       fill-rule="nonzero"
       id="g6">
      <path
         d="m 5.53,18.873 a 19.75,19.75 0 0 0 3.69,0.717 17.845,17.845 0 0 0 2.34,0.091 h 0.113 l 0.142,0.004 c 0.57,0.017 1.333,-0.005 2.232,-0.095 a 19.754,19.754 0 0 0 3.69,-0.717 c 0.183,-0.987 0.005,-2.103 -0.81,-3.17 -0.618,-0.811 -1.57,-1.529 -2.915,-2.12 a 0.604,0.604 0 0 1 -0.097,-0.054 l -0.147,-0.1 a 0.604,0.604 0 0 1 -0.06,-0.952 2.25,2.25 0 0 1 0.099,-0.113 2.975,2.975 0 0 0 0.794,-2.031 c 0,-1.64 -1.315,-2.968 -2.934,-2.968 H 11.6 c -1.618,0 -2.933,1.327 -2.933,2.968 0,0.766 0.287,1.484 0.794,2.032 0.043,0.046 0.05,0.054 0.088,0.103 a 0.606,0.606 0 0 1 -0.05,0.962 l -0.148,0.1 a 0.604,0.604 0 0 1 -0.096,0.053 c -1.344,0.591 -2.296,1.309 -2.915,2.12 -0.814,1.067 -0.992,2.183 -0.81,3.17 z m 6.079,2.016 A 19.029,19.029 0 0 1 9.099,20.793 20.76,20.76 0 0 1 4.84,19.924 0.604,0.604 0 0 1 4.454,19.547 3.09,3.09 0 0 1 4.353,19.151 c -0.258,-1.31 -0.035,-2.79 1.026,-4.182 0.654,-0.857 1.59,-1.608 2.833,-2.231 A 4.186,4.186 0 0 1 7.458,10.333 c 0,-2.305 1.853,-4.177 4.141,-4.177 h 0.068 c 2.29,0 4.142,1.872 4.142,4.177 0,0.875 -0.269,1.71 -0.755,2.405 1.244,0.623 2.18,1.374 2.834,2.231 1.061,1.391 1.284,2.872 1.026,4.182 a 3.09,3.09 0 0 1 -0.101,0.396 0.604,0.604 0 0 1 -0.387,0.377 20.764,20.764 0 0 1 -4.259,0.869 19.028,19.028 0 0 1 -2.51,0.096 z"
         id="path2" />
      <path
         d="m 15.751,10.333 c 0,0.875 -0.268,1.71 -0.754,2.405 1.862,0.932 3.02,2.14 3.573,3.522 1.058,-0.08 2.16,-0.266 3.243,-0.584 0.12,-0.745 -0.028,-1.58 -0.64,-2.383 -0.484,-0.635 -1.233,-1.2 -2.296,-1.666 A 0.604,0.604 0 0 1 18.78,11.573 l -0.119,-0.08 a 0.604,0.604 0 0 1 -0.06,-0.953 c 0.027,-0.033 0.038,-0.046 0.072,-0.082 0.387,-0.418 0.606,-0.967 0.606,-1.552 0,-1.253 -1.004,-2.266 -2.239,-2.266 h -0.054 c -0.866,0 -1.637,0.502 -2.008,1.262 0.498,0.701 0.773,1.545 0.773,2.431 z m 2.835,0.227 z m -4.146,1.917 -0.243,0.553 0.34,-0.5 -0.045,-0.03 A 12.959,12.959 0 0 0 14.44,12.477 Z m -0.69,-0.113 a 2.975,2.975 0 0 0 0.793,-2.031 c 0,-0.724 -0.256,-1.406 -0.714,-1.941 A 0.604,0.604 0 0 1 13.714,7.81 3.45,3.45 0 0 1 16.986,5.431 h 0.054 c 1.906,0 3.447,1.557 3.447,3.475 0,0.682 -0.195,1.333 -0.552,1.888 0.956,0.496 1.683,1.09 2.198,1.766 0.876,1.148 1.06,2.371 0.847,3.455 -0.03,0.15 -0.06,0.263 -0.086,0.334 a 0.604,0.604 0 0 1 -0.386,0.378 c -1.452,0.464 -2.931,0.7 -4.327,0.768 a 0.604,0.604 0 0 1 -0.608,-0.43 c -0.406,-1.36 -1.525,-2.561 -3.619,-3.482 a 0.604,0.604 0 0 1 -0.097,-0.054 l -0.147,-0.1 a 0.604,0.604 0 0 1 -0.06,-0.952 2.25,2.25 0 0 1 0.1,-0.113 z M 8.212,12.738 A 4.186,4.186 0 0 1 7.458,10.333 c 0,-1.11 0.432,-2.148 1.177,-2.917 A 2.224,2.224 0 0 0 6.948,6.64 H 6.893 c -1.234,0 -2.238,1.013 -2.238,2.266 0,0.585 0.219,1.134 0.607,1.552 0.034,0.037 0.043,0.047 0.07,0.08 a 0.604,0.604 0 0 1 -0.06,0.955 l -0.119,0.08 a 0.604,0.604 0 0 1 -0.096,0.054 c -1.063,0.467 -1.812,1.031 -2.296,1.666 -0.612,0.802 -0.76,1.638 -0.64,2.383 0.838,0.246 1.695,0.414 2.546,0.515 0.565,-1.354 1.715,-2.537 3.545,-3.453 z M 5.348,10.56 Z m 3.324,1.97 0.34,0.5 -0.244,-0.553 -0.05,0.022 z m 0.826,0.9 -0.148,0.1 a 0.604,0.604 0 0 1 -0.096,0.053 c -2.07,0.91 -3.187,2.096 -3.604,3.438 A 0.604,0.604 0 0 1 5.017,17.443 16.85,16.85 0 0 1 1.426,16.727 0.604,0.604 0 0 1 1.04,16.349 2.596,2.596 0 0 1 0.954,16.015 C 0.741,14.931 0.924,13.708 1.8,12.56 2.316,11.884 3.043,11.29 3.999,10.794 A 3.484,3.484 0 0 1 3.447,8.906 c 0,-1.918 1.542,-3.475 3.446,-3.475 h 0.055 c 1.265,0 2.41,0.693 3.013,1.786 A 0.604,0.604 0 0 1 9.805,7.985 2.974,2.974 0 0 0 8.666,10.333 c 0,0.766 0.287,1.484 0.794,2.032 0.043,0.046 0.05,0.054 0.088,0.103 a 0.606,0.606 0 0 1 -0.05,0.962 z"
         id="path4" />
    </g>
    <path
       d="m 22.767,2.262 c -1.318,1.768 -1.222,4.802 -0.132,6.77 l 0.023,0.04 c 1.09,1.968 3.614,3.657 5.81,3.476 L 30.585,10.997 29.18,8.462 26.815,9.538 24.443,5.258 26.609,3.824 25.204,1.289 Z"
       stroke="#000000"
       stroke-linecap="round"
       stroke-linejoin="round"
       id="path8" />
  </g>
</svg>
