<?xml version="1.0" encoding="UTF-8" standalone="no"?>
<svg
   width="40"
   height="40"
   viewBox="0 0 40 40"
   version="1.1"
   id="svg29"
   sodipodi:docname="group_chat_normal.svg"
   inkscape:version="1.1 (c68e22c387, 2021-05-23)"
   xmlns:inkscape="http://www.inkscape.org/namespaces/inkscape"
   xmlns:sodipodi="http://sodipodi.sourceforge.net/DTD/sodipodi-0.dtd"
   xmlns="http://www.w3.org/2000/svg"
   xmlns:svg="http://www.w3.org/2000/svg">
  <sodipodi:namedview
     id="namedview31"
     pagecolor="#ffffff"
     bordercolor="#666666"
     borderopacity="1.0"
     inkscape:pageshadow="2"
     inkscape:pageopacity="0.0"
     inkscape:pagecheckerboard="0"
     showgrid="false"
     inkscape:zoom="21.825"
     inkscape:cx="20"
     inkscape:cy="19.954181"
     inkscape:window-width="1920"
     inkscape:window-height="1092"
     inkscape:window-x="1920"
     inkscape:window-y="33"
     inkscape:window-maximized="1"
     inkscape:current-layer="svg29" />
  <defs
     id="defs5">
    <filter
       id="grto6fqdqa"
       color-interpolation-filters="auto"
       x="0"
       y="0"
       width="1"
       height="1">
      <feColorMatrix
         in="SourceGraphic"
         values="0 0 0 0 1.000000 0 0 0 0 1.000000 0 0 0 0 1.000000 0 0 0 1.000000 0"
         id="feColorMatrix2" />
    </filter>
  </defs>
  <g
     fill="none"
     fill-rule="evenodd"
     id="g27">
    <g
       id="g25">
      <g
         fill="#96A5B1"
         id="g9">
        <circle
           cx="20"
           cy="20"
           r="20"
           id="circle7" />
      </g>
      <g
         id="g23">
        <g
           filter="url(#grto6fqdqa)"
           transform="translate(5.873063, 10.000000)"
           id="g19">
          <g
             id="g17">
            <g
               fill="#444"
               fill-rule="nonzero"
               id="g15">
              <path
                 d="M4.657 13.441c1.211.363 2.457.595 3.69.718.898.09 1.662.111 2.231.095l.11-.004.112-.001.142.005c.57.016 1.333-.005 2.232-.095 1.232-.123 2.478-.355 3.69-.718.182-.987.005-2.102-.81-3.17-.618-.81-1.57-1.528-2.915-2.12-.034-.014-.066-.032-.097-.053l-.147-.1c-.326-.222-.356-.692-.06-.953.046-.055.056-.067.099-.112.507-.547.794-1.266.794-2.031 0-1.641-1.315-2.969-2.934-2.969h-.068c-1.618 0-2.933 1.328-2.933 2.969 0 .765.287 1.484.794 2.031.043.046.05.055.088.104.307.268.278.74-.05.961l-.148.1c-.03.021-.062.039-.096.054-1.344.59-2.296 1.308-2.915 2.119-.814 1.068-.992 2.183-.81 3.17zm6.079 2.016l-.123.005c-.618.018-1.434-.005-2.387-.1-1.42-.143-2.86-.421-4.259-.87-.18-.057-.324-.197-.386-.377-.029-.082-.066-.216-.101-.395-.258-1.31-.035-2.791 1.026-4.182.653-.857 1.59-1.609 2.833-2.232-.486-.695-.754-1.529-.754-2.404 0-2.306 1.852-4.177 4.141-4.177h.068c2.29 0 4.142 1.871 4.142 4.177 0 .875-.269 1.71-.755 2.404 1.244.624 2.18 1.375 2.834 2.232 1.061 1.39 1.284 2.871 1.026 4.182-.036.179-.073.313-.101.395-.063.18-.206.32-.387.378-1.399.448-2.838.726-4.259.868-.953.096-1.768.119-2.387.1-.053 0-.095-.002-.122-.004h-.05z"
                 transform="translate(0.000000, 0.685585) translate(0.000000, 3.745833)"
                 id="path11" />
              <path
                 d="M14.878 4.902c0 .875-.268 1.709-.755 2.404 1.863.933 3.02 2.14 3.574 3.523 1.058-.08 2.16-.266 3.243-.585.12-.745-.028-1.58-.64-2.383-.484-.634-1.233-1.199-2.296-1.666-.034-.015-.067-.033-.097-.054l-.119-.08c-.326-.222-.355-.692-.06-.952.027-.034.038-.046.072-.083.387-.418.606-.966.606-1.551 0-1.253-1.004-2.267-2.239-2.267h-.054c-.866 0-1.637.502-2.008 1.263.498.7.773 1.545.773 2.43zm2.835.227v-.001zm-4.146 1.916l-.243.554.34-.5-.045-.03-.052-.024zm-.69-.112c.506-.547.793-1.266.793-2.031 0-.724-.256-1.406-.714-1.942-.138-.16-.181-.38-.115-.581C13.305.97 14.616 0 16.113 0h.054c1.905 0 3.447 1.557 3.447 3.475 0 .681-.195 1.332-.552 1.887.956.497 1.683 1.09 2.198 1.766.876 1.148 1.06 2.372.847 3.456-.03.15-.06.262-.086.334-.062.18-.205.32-.386.377-1.452.465-2.931.7-4.327.769-.278.014-.529-.164-.609-.43-.405-1.36-1.524-2.562-3.618-3.482-.034-.015-.066-.033-.097-.054l-.147-.1c-.326-.222-.355-.692-.06-.953.046-.055.056-.067.1-.112zM7.34 7.306c-.487-.695-.755-1.529-.755-2.404 0-1.11.432-2.148 1.177-2.918-.418-.485-1.027-.776-1.687-.776H6.02c-1.235 0-2.238 1.014-2.238 2.267 0 .585.219 1.133.607 1.552.034.037.043.047.07.08.296.261.267.732-.06.954l-.12.081c-.03.02-.062.038-.095.053-1.063.467-1.812 1.032-2.296 1.666-.612.803-.76 1.638-.64 2.383.838.247 1.695.415 2.546.516.565-1.355 1.715-2.537 3.545-3.454zM4.474 5.13zm3.324 1.97l.34.5-.244-.554-.051.023-.045.03zm.826.9l-.148.1c-.03.02-.062.038-.096.053-2.07.91-3.187 2.096-3.604 3.438-.085.272-.349.448-.633.422-1.193-.11-2.409-.338-3.591-.717-.181-.058-.324-.198-.387-.377-.024-.072-.056-.184-.085-.334C-.133 9.5.051 8.276.927 7.128c.516-.675 1.243-1.27 2.199-1.766-.357-.554-.552-1.206-.552-1.887C2.574 1.557 4.115 0 6.02 0h.055C7.34 0 8.484.693 9.088 1.786c.143.26.077.584-.156.767-.714.56-1.14 1.418-1.14 2.349 0 .765.288 1.484.795 2.031.043.046.05.055.088.104.307.268.278.74-.05.961z"
                 transform="translate(0.000000, 0.685585) translate(0.000000, 3.745833)"
                 id="path13" />
            </g>
          </g>
        </g>
        <path
           stroke="#FFF"
           stroke-linecap="round"
           stroke-linejoin="round"
           d="M30.278 6.994c-.907-2.01-3.608-3.397-5.857-3.397h-.047c-2.249 0-4.95 1.388-5.857 3.398l.331 2.602h2.898l.205-2.59h4.893l.205 2.59h2.898l.33-2.603h0z"
           transform="translate(5.873063, 10.000000) translate(24.397663, 6.597392) rotate(-119.000000) translate(-24.397663, -6.597392)"
           id="path21" />
      </g>
    </g>
  </g>
  <path
     style="fill:#ffffff;stroke-width:0.045819"
     d="M 15.166094,29.845291 C 13.853136,29.785465 12.448068,29.579937 11.134021,29.255495 9.8374431,28.935366 9.6049552,28.835371 9.4826892,28.545246 9.352759,28.236935 9.2642269,27.468241 9.2929698,26.897976 L 9.3207941,26.345934 8.6695608,26.239588 C 7.9355295,26.119721 6.7201099,25.821392 6.4138366,25.685913 6.1647351,25.575724 6.053548,25.403195 5.9721324,25.000521 c -0.092833,-0.459142 -0.069832,-1.370948 0.045463,-1.802284 0.3366324,-1.259385 1.2842225,-2.399598 2.653653,-3.193078 0.1827033,-0.105862 0.3321878,-0.202392 0.3321878,-0.214509 0,-0.01212 -0.069846,-0.160727 -0.1552124,-0.330244 -0.535314,-1.062991 -0.4919947,-2.29556 0.1170512,-3.330471 0.1078247,-0.18322 0.3524034,-0.484028 0.5666042,-0.69687 0.3187127,-0.31669 0.4502309,-0.410008 0.8520568,-0.604573 0.748349,-0.362353 1.460219,-0.458581 2.224542,-0.300706 0.66929,0.138246 1.175624,0.404408 1.668929,0.877297 l 0.302607,0.290083 0.315949,-0.141788 c 0.627196,-0.281466 0.927682,-0.340176 1.736339,-0.33925 0.564038,6.46e-4 0.801788,0.01991 1.030928,0.08352 0.403952,0.112144 0.857922,0.309334 1.166316,0.506611 0.140719,0.09002 0.27167,0.163668 0.291002,0.163668 0.01933,0 0.111875,-0.102771 0.20565,-0.22838 0.371337,-0.497391 1.144748,-0.998922 1.819277,-1.17974 0.46531,-0.124734 1.386922,-0.111114 1.832761,0.02709 1.136361,0.352243 1.983275,1.193239 2.33665,2.320324 0.06655,0.212265 0.108939,0.494145 0.12534,0.833499 0.0308,0.637268 -0.08392,1.197995 -0.352568,1.723307 l -0.178085,0.348227 0.33105,0.181691 c 1.072562,0.588656 1.948039,1.494532 2.40844,2.492066 0.287292,0.622465 0.346374,0.917571 0.346224,1.729343 -1.37e-4,0.796617 -0.07616,1.16357 -0.280195,1.352664 -0.239571,0.222027 -1.921502,0.628328 -3.316467,0.801153 l -0.43528,0.05393 -2.75e-4,0.717434 c -1.83e-4,0.537471 -0.02164,0.808994 -0.08551,1.082444 -0.111028,0.475349 -0.245044,0.617281 -0.715005,0.757242 -1.420626,0.42308 -2.84991,0.690566 -4.399681,0.823387 -0.709458,0.0608 -2.676889,0.08361 -3.596793,0.04169 z m 4.238259,-1.271264 c 1.361802,-0.168005 3.21464,-0.567385 3.327025,-0.717142 0.146278,-0.194921 0.09865,-1.330555 -0.06987,-1.665996 -0.04578,-0.09113 -0.109497,-0.248163 -0.141588,-0.348965 -0.180444,-0.566787 -0.69979,-1.328683 -1.250424,-1.834407 -0.449513,-0.412852 -1.143669,-0.870652 -1.908924,-1.258949 -0.747331,-0.379202 -0.872597,-0.497095 -0.872597,-0.821234 0,-0.187658 0.02493,-0.248022 0.173574,-0.42031 0.657758,-0.762376 0.880263,-1.311243 0.880263,-2.1714 0,-0.74253 -0.191531,-1.29811 -0.663863,-1.925693 -0.401376,-0.533304 -0.938178,-0.862601 -1.636611,-1.003969 -0.446898,-0.09045 -0.771888,-0.09038 -1.218067,2.75e-4 -0.893945,0.181635 -1.651087,0.770124 -2.042062,1.587192 -0.25237,0.52741 -0.32034,0.814303 -0.317991,1.342196 0.0032,0.725853 0.242527,1.378574 0.714796,1.949718 0.315254,0.381257 0.352801,0.453896 0.352801,0.682536 0,0.279033 -0.188121,0.447331 -0.893471,0.799321 -1.488223,0.742669 -2.421713,1.583275 -2.956536,2.662354 -0.317209,0.640011 -0.418294,1.058014 -0.421594,1.743359 -0.0015,0.316191 0.01868,0.591933 0.04728,0.645377 0.03701,0.06915 0.172176,0.124726 0.52201,0.214628 1.346022,0.34591 2.333189,0.507722 3.931405,0.644415 0.113402,0.0097 0.989691,0.01141 1.947308,0.0038 1.409878,-0.0112 1.884953,-0.03158 2.497137,-0.107104 z m 5.58992,-3.468998 c 0.365406,-0.06093 0.926431,-0.175509 1.246721,-0.254629 l 0.582345,-0.143853 0.03093,-0.206266 c 0.04637,-0.309196 -0.01154,-0.827652 -0.13633,-1.220621 -0.161854,-0.509682 -0.445241,-0.953609 -0.895874,-1.40339 -0.443764,-0.442926 -0.871282,-0.738086 -1.665588,-1.149933 -0.606183,-0.314305 -0.71959,-0.433225 -0.719882,-0.754875 -1.37e-4,-0.162038 0.03669,-0.233721 0.258975,-0.50401 0.65533,-0.796839 0.779629,-1.699868 0.355734,-2.584389 -0.535369,-1.117128 -1.936356,-1.581437 -3.086144,-1.022796 -0.266049,0.129264 -0.800271,0.626614 -0.916625,0.85336 -0.0593,0.115552 -0.05599,0.142706 0.03623,0.297824 0.242037,0.407117 0.427012,0.813252 0.541256,1.188397 0.110144,0.361679 0.122704,0.474972 0.123386,1.112867 6.32e-4,0.592009 -0.01603,0.771193 -0.100138,1.076747 -0.104544,0.379803 -0.350884,0.942384 -0.511278,1.167636 -0.05069,0.07119 -0.09209,0.146878 -0.092,0.168188 9.1e-5,0.02131 0.128959,0.105351 0.286368,0.186758 1.349309,0.697814 2.47371,1.773442 3.079048,2.945489 l 0.217716,0.421537 0.350388,-0.03163 c 0.192713,-0.0174 0.649357,-0.08148 1.014764,-0.142408 z m -15.2384598,-0.0847 c 0.1596067,-0.417924 0.7126778,-1.178256 1.2368438,-1.700344 0.514057,-0.51202 1.310578,-1.095323 1.906441,-1.396114 0.146956,-0.07418 0.277113,-0.150929 0.289237,-0.170547 0.01212,-0.01962 -0.04393,-0.148945 -0.124571,-0.287394 -0.199813,-0.34306 -0.364903,-0.738787 -0.468195,-1.122287 -0.127862,-0.474719 -0.11815,-1.602553 0.01806,-2.09756 0.128293,-0.466232 0.409415,-1.032069 0.708593,-1.426246 0.132112,-0.174061 0.260822,-0.345831 0.286022,-0.381711 0.06456,-0.09192 -0.277788,-0.383929 -0.687285,-0.586234 -1.513866,-0.7479 -3.2760594,0.361973 -3.2760594,2.063343 0,0.598357 0.1894485,1.089198 0.6026404,1.561375 0.224399,0.256434 0.303426,0.472695 0.244216,0.668318 -0.05991,0.197951 -0.271154,0.366554 -0.7781278,0.621069 -0.682833,0.342802 -1.0735064,0.609371 -1.5249392,1.040517 -0.7984038,0.762524 -1.134206,1.518166 -1.1010122,2.477564 l 0.014267,0.412371 0.3894616,0.103785 c 0.5167868,0.137714 1.7150517,0.372003 2.1358141,0.417602 0.028077,0.003 0.085942,-0.08584 0.1285902,-0.197507 z"
     id="path55" />
  <path
     style="fill:#ffffff;stroke-width:0.045819"
     d="M 15.509737,29.863941 C 14.909461,29.846374 13.904468,29.757994 13.241695,29.664487 11.698899,29.446822 9.9275095,29.005108 9.6453751,28.767708 9.3984113,28.559901 9.2470095,27.745665 9.2935237,26.875455 L 9.3218275,26.345934 8.6700776,26.239588 C 7.9358797,26.119789 6.720365,25.821505 6.4138366,25.685913 6.1647351,25.575724 6.053548,25.403195 5.9721324,25.000521 c -0.092833,-0.459142 -0.069832,-1.370948 0.045463,-1.802284 0.3338242,-1.248879 1.2691197,-2.383778 2.6145875,-3.172571 0.2041893,-0.119708 0.3712533,-0.226515 0.3712533,-0.23735 0,-0.01083 -0.069846,-0.158393 -0.1552124,-0.32791 C 8.4159196,18.601965 8.3560427,17.654711 8.6767901,16.748317 8.8625085,16.223498 9.0685482,15.904482 9.5100484,15.458164 9.8511595,15.11333 9.9642992,15.031707 10.38061,14.830117 c 0.742998,-0.359784 1.435831,-0.456889 2.207041,-0.309332 0.660598,0.126393 1.180215,0.398644 1.689756,0.885341 l 0.302607,0.28904 0.314728,-0.141209 c 0.514385,-0.230788 0.909307,-0.322597 1.508465,-0.350674 0.907739,-0.04254 1.634471,0.127224 2.327367,0.543666 0.20222,0.121538 0.380599,0.220978 0.396398,0.220978 0.0158,0 0.105451,-0.102771 0.199226,-0.22838 0.361166,-0.483768 1.046171,-0.940972 1.727639,-1.153108 0.497437,-0.154848 1.427978,-0.1548 1.922784,9.9e-5 1.16081,0.363391 1.984194,1.186058 2.345631,2.343588 0.09229,0.295573 0.10706,0.436577 0.105574,1.008018 -0.0016,0.606084 -0.01293,0.696537 -0.129373,1.030928 -0.0702,0.201604 -0.188325,0.472749 -0.262488,0.602546 l -0.134842,0.235993 0.335275,0.18401 c 1.075335,0.590178 1.945199,1.48876 2.414668,2.494385 0.252056,0.539915 0.324874,0.849861 0.353615,1.50515 0.03909,0.891213 -0.09162,1.471364 -0.368983,1.637732 -0.32687,0.196062 -1.911804,0.566112 -3.076706,0.718348 l -0.595647,0.07784 -2.75e-4,0.716442 c -1.83e-4,0.536502 -0.02167,0.808116 -0.08551,1.081451 -0.14015,0.600031 -0.24799,0.665067 -1.70117,1.025945 -1.69162,0.420091 -3.134266,0.593976 -5.08591,0.613014 -0.680413,0.0066 -1.391753,0.0075 -1.580756,0.002 z m 2.886597,-1.204622 c 0.93263,-0.06308 1.682447,-0.162789 2.605753,-0.346512 1.150658,-0.228961 1.696073,-0.382496 1.755902,-0.494289 0.06262,-0.117009 0.0625,-1.09378 -1.83e-4,-1.335127 -0.07964,-0.306718 -0.412092,-1.079294 -0.600804,-1.396199 -0.537966,-0.903425 -1.434854,-1.645215 -2.876879,-2.379389 -0.663178,-0.337643 -0.79215,-0.464718 -0.79215,-0.780498 0,-0.202008 0.02286,-0.246654 0.292158,-0.570571 0.54531,-0.655907 0.761679,-1.235639 0.761679,-2.040815 0,-0.712569 -0.157197,-1.177134 -0.622793,-1.840544 -0.529645,-0.754672 -1.300919,-1.122615 -2.332534,-1.112757 -0.410969,0.0039 -0.572337,0.02706 -0.874154,0.125305 -0.865967,0.281889 -1.552492,0.955298 -1.887586,1.851525 -0.155628,0.416233 -0.195397,1.260237 -0.0804,1.706371 0.111073,0.430925 0.348464,0.895551 0.633307,1.239524 0.315041,0.380438 0.353167,0.453876 0.353167,0.680268 0,0.276349 -0.180789,0.451018 -0.757899,0.732241 -1.270192,0.618959 -2.144755,1.298909 -2.720714,2.115284 -0.369641,0.523937 -0.608919,1.050982 -0.737494,1.624436 -0.05471,0.243992 -0.07134,1.196668 -0.02353,1.347314 0.07744,0.243993 2.477334,0.737088 4.239638,0.871098 0.702289,0.05341 2.895732,0.0554 3.665521,0.0033 z m 5.959386,-3.458744 c 0.693646,-0.09082 1.18048,-0.181813 1.885216,-0.352347 l 0.582287,-0.140903 0.03099,-0.206654 c 0.04825,-0.321746 -0.01405,-0.844435 -0.149484,-1.254222 -0.327096,-0.989691 -1.170142,-1.81661 -2.595171,-2.545531 -0.555849,-0.284324 -0.672673,-0.411214 -0.672961,-0.730947 -1.37e-4,-0.152201 0.03332,-0.23033 0.166787,-0.389462 0.577754,-0.688861 0.781216,-1.322951 0.658309,-2.051622 -0.27436,-1.626591 -2.1283,-2.433552 -3.51268,-1.528958 -0.278929,0.18226 -0.582804,0.500243 -0.687143,0.719043 -0.07066,0.148181 -0.06975,0.163094 0.01763,0.286824 0.05069,0.07178 0.159578,0.264536 0.241968,0.428339 0.677443,1.346856 0.5988,2.864005 -0.217047,4.187184 -0.05263,0.08536 -0.06381,0.138609 -0.03156,0.150289 0.02747,0.0099 0.23955,0.126625 0.471279,0.25928 1.323789,0.757809 2.290008,1.708973 2.862998,2.818385 0.248923,0.481963 0.171024,0.453113 0.94858,0.351302 z M 9.7827341,24.959845 c 0.1960658,-0.443239 0.7019429,-1.131916 1.1880029,-1.617293 0.531356,-0.530607 1.020866,-0.900877 1.72113,-1.301877 0.252005,-0.144308 0.472682,-0.275957 0.490395,-0.292551 0.01771,-0.0166 -0.03209,-0.133207 -0.110661,-0.259137 -0.341658,-0.547565 -0.538745,-1.217782 -0.572595,-1.947177 -0.05114,-1.101837 0.251673,-2.033409 0.932768,-2.86961 0.195128,-0.239565 0.202132,-0.257973 0.136348,-0.358371 -0.108142,-0.165046 -0.591097,-0.464813 -0.932785,-0.578974 -0.408373,-0.136441 -1.008965,-0.139106 -1.421048,-0.0063 -0.934208,0.301062 -1.5705245,1.187232 -1.5688425,2.184859 9.754e-4,0.578709 0.1935012,1.08 0.5958845,1.551543 0.46981,0.550559 0.353707,0.858488 -0.4818808,1.278039 -0.7416383,0.372379 -1.198855,0.69415 -1.6798244,1.182196 -0.3725635,0.378045 -0.476011,0.517027 -0.6528725,0.87714 -0.280762,0.571667 -0.3542894,0.885341 -0.3379645,1.441784 l 0.013159,0.448513 0.204079,0.05898 c 0.605593,0.175035 2.2632991,0.485358 2.3490265,0.439739 0.018183,-0.0097 0.075639,-0.113851 0.1276813,-0.231501 z"
     id="path94" />
  <path
     style="fill:#ffffff;stroke-width:0.045819"
     d="m 32.302405,21.966794 c -2.034876,-0.342233 -4.228018,-2.002925 -5.201175,-3.938438 -0.850603,-1.691765 -1.013676,-3.982133 -0.406704,-5.712159 0.168987,-0.481653 0.390644,-0.916127 0.625312,-1.225682 l 0.171919,-0.226782 1.282758,-0.515645 c 0.765346,-0.307654 1.347444,-0.5160939 1.443125,-0.5167582 0.0882,-6.124e-4 0.206107,0.03451 0.262013,0.078051 0.103845,0.080878 1.552535,2.6520892 1.600498,2.8406492 0.06299,0.247637 -0.05229,0.360512 -1.045818,1.02396 l -0.95549,0.638049 0.06623,0.128081 c 0.312341,0.604001 1.826671,3.291981 1.871595,3.322137 0.03684,0.02473 0.422118,-0.127996 1.069184,-0.423826 0.556375,-0.254367 1.051006,-0.462409 1.09918,-0.462315 0.241866,4.72e-4 0.352836,0.151266 1.082024,1.470315 0.395737,0.71586 0.741566,1.36084 0.768509,1.433287 0.09951,0.267574 -0.01885,0.389652 -1.258104,1.297646 l -1.144643,0.838673 -0.55066,-0.0054 c -0.302863,-0.0029 -0.653753,-0.0227 -0.779756,-0.04389 z M 34.0955,20.502601 c 0.450224,-0.328381 0.823621,-0.622195 0.82977,-0.652921 0.01782,-0.08903 -0.934873,-1.752545 -0.995543,-1.738343 -0.03014,0.0071 -0.488653,0.209541 -1.018927,0.449972 -0.530274,0.24043 -1.024414,0.43886 -1.098089,0.440954 -0.07368,0.0021 -0.18951,-0.03747 -0.257411,-0.08792 -0.07876,-0.05852 -0.567185,-0.891667 -1.349114,-2.301299 -1.292752,-2.330521 -1.319471,-2.392075 -1.138308,-2.622387 0.04804,-0.06108 0.490866,-0.37829 0.98405,-0.704919 0.493184,-0.326628 0.897175,-0.610981 0.897758,-0.631894 9.79e-4,-0.03517 -0.678984,-1.291511 -0.875373,-1.617389 l -0.08641,-0.143385 -0.950424,0.375947 c -1.087288,0.430084 -1.071302,0.416809 -1.354716,1.125028 -0.563096,1.407114 -0.529411,3.277511 0.08654,4.805038 0.805923,1.998657 2.988341,3.667917 5.060023,3.870247 0.444888,0.04345 0.405305,0.06117 1.266176,-0.566728 z"
     id="path207" />
</svg>
