<?xml version="1.0" encoding="UTF-8" standalone="no"?>
<svg
   xmlns:dc="http://purl.org/dc/elements/1.1/"
   xmlns:cc="http://creativecommons.org/ns#"
   xmlns:rdf="http://www.w3.org/1999/02/22-rdf-syntax-ns#"
   xmlns:svg="http://www.w3.org/2000/svg"
   xmlns="http://www.w3.org/2000/svg"
   xmlns:xlink="http://www.w3.org/1999/xlink"
   xmlns:sodipodi="http://sodipodi.sourceforge.net/DTD/sodipodi-0.dtd"
   xmlns:inkscape="http://www.inkscape.org/namespaces/inkscape"
   width="149"
   height="149"
   viewBox="0 0 149 149"
   version="1.1"
   id="svg22"
   sodipodi:docname="home_use_linphone.svg"
   inkscape:version="0.92.2 2405546, 2018-03-11">
  <metadata
     id="metadata26">
    <rdf:RDF>
      <cc:Work
         rdf:about="">
        <dc:format>image/svg+xml</dc:format>
        <dc:type
           rdf:resource="http://purl.org/dc/dcmitype/StillImage" />
        <dc:title>home_use_linphone</dc:title>
      </cc:Work>
    </rdf:RDF>
  </metadata>
  <sodipodi:namedview
     pagecolor="#ffffff"
     bordercolor="#666666"
     borderopacity="1"
     objecttolerance="10"
     gridtolerance="10"
     guidetolerance="10"
     inkscape:pageopacity="0"
     inkscape:pageshadow="2"
     inkscape:window-width="868"
     inkscape:window-height="480"
     id="namedview24"
     showgrid="false"
     inkscape:zoom="1.5838926"
     inkscape:cx="73.5"
     inkscape:cy="74.5"
     inkscape:window-x="0"
     inkscape:window-y="35"
     inkscape:window-maximized="0"
     inkscape:current-layer="svg22" />
  <!-- Generator: Sketch 42 (36781) - http://www.bohemiancoding.com/sketch -->
  <title
     id="title2">home_use_linphone</title>
  <desc
     id="desc4">Created with Sketch.</desc>
  <defs
     id="defs7">
    <path
       d="M 0,26.775 C 0,41.563 11.988,53.55 26.776,53.55 41.564,53.55 53.55,41.563 53.55,26.775 53.55,11.987 41.564,0 26.776,0 11.988,0 0,11.987 0,26.775 Z"
       id="path-1"
       inkscape:connector-curvature="0" />
  </defs>
  <g
     id="Symbols"
     style="fill:none;fill-rule:evenodd;stroke:none;stroke-width:1"
     transform="translate(1)">
    <g
       id="home_use_linphone">
      <g
         id="Page-1">
        <g
           id="Group-6"
           transform="translate(0,0.633)">
          <g
             id="Group-3"
             style="fill:#4c5964">
            <path
               d="m 146.939,73.8364 c 0,40.576 -32.894,73.47 -73.469,73.47 -40.576,0 -73.47,-32.894 -73.47,-73.47 0,-40.576 32.894,-73.47 73.47,-73.47 40.575,0 73.469,32.894 73.469,73.47"
               id="Fill-1"
               inkscape:connector-curvature="0" />
          </g>
          <path
             d="m 66.0894,44.0962 c -1.88,-1.479 -2.82,-3.858 -2.82,-7.14 0,-3.279 0.94,-5.659 2.82,-7.139 1.879,-1.48 4.459,-2.221 7.74,-2.221 3.28,0 5.86,0.741 7.74,2.221 1.879,1.48 2.82,3.86 2.82,7.139 0,3.282 -0.941,5.661 -2.82,7.14 -1.88,1.481 -4.46,2.221 -7.74,2.221 -3.281,0 -5.861,-0.74 -7.74,-2.221 z m -9.9,65.101 4.8,-2.64 c 1.279,-0.64 2.079,-1.5 2.4,-2.58 0.319,-1.08 0.48,-3.181 0.48,-6.301 v -29.76 c 0,-2.079 -0.161,-3.499 -0.48,-4.259 -0.321,-0.76 -1.16,-1.5 -2.52,-2.22 l -4.68,-2.28 v -2.88 l 25.68,-3.241 1.2,1.201 v 43.439 c 0,3.12 0.16,5.221 0.48,6.301 0.319,1.08 1.12,1.94 2.4,2.58 l 4.8,2.64 v 2.879 h -34.56 z"
             id="Fill-4"
             inkscape:connector-curvature="0"
             style="fill:#fefefe" />
        </g>
        <g
           id="Group-9"
           transform="translate(89,94.633)">
          <mask
             id="mask-2"
             fill="white">
            <use
               xlink:href="#path-1"
               id="use13"
               x="0"
               y="0"
               width="100%"
               height="100%" />
          </mask>
          <use
             id="Clip-8"
             class="color-i-fill"
             xlink:href="#path-1"
             style="fill:#fe5e00"
             x="0"
             y="0"
             width="100%"
             height="100%" />
        </g>
        <path
           d="m 129.059,126.971 c 0,1.765 -1.431,3.196 -3.195,3.196 h -5.133 l -3.049,6.97 -4.355,-6.97 h -8.13 c -1.766,0 -3.197,-1.431 -3.197,-3.196 v -12.775 c 0,-1.766 1.431,-3.196 3.197,-3.196 h 20.667 c 1.764,0 3.195,1.43 3.195,3.196 z"
           id="Stroke-10"
           inkscape:connector-curvature="0"
           style="stroke:#fefefe;stroke-width:2;stroke-linecap:round;stroke-linejoin:round" />
      </g>
    </g>
  </g>
</svg>
