<?xml version="1.0" encoding="UTF-8" standalone="no"?>
<svg
   xmlns:dc="http://purl.org/dc/elements/1.1/"
   xmlns:cc="http://creativecommons.org/ns#"
   xmlns:rdf="http://www.w3.org/1999/02/22-rdf-syntax-ns#"
   xmlns:svg="http://www.w3.org/2000/svg"
   xmlns="http://www.w3.org/2000/svg"
   xmlns:xlink="http://www.w3.org/1999/xlink"
   xmlns:sodipodi="http://sodipodi.sourceforge.net/DTD/sodipodi-0.dtd"
   xmlns:inkscape="http://www.inkscape.org/namespaces/inkscape"
   width="149"
   height="149"
   viewBox="0 0 149 149"
   version="1.1"
   id="svg26"
   sodipodi:docname="home_invite_friends.svg"
   inkscape:version="0.92.2 2405546, 2018-03-11">
  <metadata
     id="metadata30">
    <rdf:RDF>
      <cc:Work
         rdf:about="">
        <dc:format>image/svg+xml</dc:format>
        <dc:type
           rdf:resource="http://purl.org/dc/dcmitype/StillImage" />
        <dc:title>home_invite_friends</dc:title>
      </cc:Work>
    </rdf:RDF>
  </metadata>
  <sodipodi:namedview
     pagecolor="#ffffff"
     bordercolor="#666666"
     borderopacity="1"
     objecttolerance="10"
     gridtolerance="10"
     guidetolerance="10"
     inkscape:pageopacity="0"
     inkscape:pageshadow="2"
     inkscape:window-width="868"
     inkscape:window-height="480"
     id="namedview28"
     showgrid="false"
     inkscape:zoom="1.5838926"
     inkscape:cx="73.5"
     inkscape:cy="74.5"
     inkscape:window-x="0"
     inkscape:window-y="35"
     inkscape:window-maximized="0"
     inkscape:current-layer="svg26" />
  <!-- Generator: Sketch 42 (36781) - http://www.bohemiancoding.com/sketch -->
  <title
     id="title2">home_invite_friends</title>
  <desc
     id="desc4">Created with Sketch.</desc>
  <defs
     id="defs7">
    <path
       d="m 0.706,27.531 c 0,14.788 11.987,26.775 26.775,26.775 14.789,0 26.775,-11.987 26.775,-26.775 C 54.256,12.743 42.27,0.756 27.481,0.756 12.693,0.756 0.706,12.743 0.706,27.531 Z"
       id="path-1"
       inkscape:connector-curvature="0" />
  </defs>
  <g
     id="Symbols"
     style="fill:none;fill-rule:evenodd;stroke:none;stroke-width:1"
     transform="translate(1)">
    <g
       id="home_invite_friends">
      <g
         id="Page-1">
        <g
           id="Group-10"
           transform="translate(0,0.633)">
          <g
             id="Group-3"
             style="fill:#4c5964">
            <path
               d="m 146.939,73.8369 c 0,40.576 -32.893,73.469 -73.469,73.469 -40.576,0 -73.47,-32.893 -73.47,-73.469 0,-40.576 32.894,-73.47 73.47,-73.47 40.576,0 73.469,32.894 73.469,73.47"
               id="Fill-1"
               inkscape:connector-curvature="0" />
          </g>
          <path
             d="m 99.1147,27.2358 c 8.331,0 15.085,6.821 15.085,15.234 0,4.026 -1.547,7.686 -4.071,10.41 -0.354,0.384 -0.217,0.317 -0.612,0.661 l 0.63,0.427 c 22.866,10.053 17.003,26.946 17.003,26.946 -14.724,4.715 -28.013,3.988 -28.013,3.988 h -0.334 c 0,0 -13.292,0.727 -28.014,-3.988 0,0 -5.862,-16.893 17.002,-26.946 l 0.629,-0.427 c -0.393,-0.344 -0.253,-0.277 -0.607,-0.661 -2.527,-2.724 -4.071,-6.384 -4.071,-10.41 0,-8.413 6.752,-15.234 15.085,-15.234 z"
             id="Fill-4"
             inkscape:connector-curvature="0"
             style="fill:#96a5b1" />
          <path
             d="m 48.1147,27.2358 c 8.331,0 15.085,6.821 15.085,15.234 0,4.026 -1.547,7.686 -4.071,10.41 -0.354,0.384 -0.217,0.317 -0.612,0.661 l 0.63,0.427 c 22.866,10.053 17.003,26.946 17.003,26.946 -14.724,4.715 -28.013,3.988 -28.013,3.988 h -0.334 c 0,0 -13.292,0.727 -28.014,-3.988 0,0 -5.862,-16.893 17.002,-26.946 l 0.629,-0.427 c -0.393,-0.344 -0.253,-0.277 -0.607,-0.661 -2.527,-2.724 -4.071,-6.384 -4.071,-10.41 0,-8.413 6.752,-15.234 15.085,-15.234 z"
             id="Fill-6"
             inkscape:connector-curvature="0"
             style="fill:#96a5b1" />
          <path
             d="m 73.6577,35.395 c 10.788,0 19.533,8.833 19.533,19.726 0,5.214 -2.001,9.954 -5.272,13.48 -0.459,0.497 -0.28,0.411 -0.789,0.855 l 0.815,0.554 c 29.608,13.016 22.014,34.891 22.014,34.891 -19.065,6.105 -36.27,5.163 -36.27,5.163 h -0.435 c 0,0 -17.209,0.942 -36.274,-5.163 0,0 -7.59,-21.875 22.016,-34.891 l 0.813,-0.554 c -0.507,-0.444 -0.326,-0.358 -0.785,-0.855 -3.27,-3.526 -5.272,-8.266 -5.272,-13.48 0,-10.893 8.744,-19.726 19.532,-19.726 z"
             id="Fill-8"
             inkscape:connector-curvature="0"
             style="fill:#fefefe" />
        </g>
        <g
           id="Group-13"
           transform="translate(87,94)">
          <mask
             id="mask-2"
             fill="white">
            <use
               xlink:href="#path-1"
               id="use15"
               x="0"
               y="0"
               width="100%"
               height="100%" />
          </mask>
          <use
             id="Clip-12"
             class="color-i-fill"
             xlink:href="#path-1"
             style="fill:#fe5e00"
             x="0"
             y="0"
             width="100%"
             height="100%" />
        </g>
        <g
           id="Group-18"
           transform="translate(98,110)"
           style="stroke:#fefefe;stroke-width:2;stroke-linecap:round;stroke-linejoin:round">
          <path
             d="m 32.2954,21.7427 c 0,0.411 -0.334,0.744 -0.744,0.744 H 1.4104 c -0.411,0 -0.744,-0.333 -0.744,-0.744 V 1.3197 c 0,-0.411 0.333,-0.745 0.744,-0.745 h 30.141 c 0.41,0 0.744,0.334 0.744,0.745 z"
             id="Stroke-14"
             inkscape:connector-curvature="0" />
          <polyline
             id="Stroke-16"
             points="32.2026 1.5024 16.4806 17.2254 0.7576 1.5024" />
        </g>
      </g>
    </g>
  </g>
</svg>
