<?xml version="1.0" encoding="UTF-8" standalone="no"?>
<svg
   width="80"
   height="80"
   version="1.1"
   id="svg4"
   sodipodi:docname="home_custom.svg"
   inkscape:version="1.1 (c68e22c387, 2021-05-23)"
   xmlns:inkscape="http://www.inkscape.org/namespaces/inkscape"
   xmlns:sodipodi="http://sodipodi.sourceforge.net/DTD/sodipodi-0.dtd"
   xmlns="http://www.w3.org/2000/svg"
   xmlns:svg="http://www.w3.org/2000/svg">
  <defs
     id="defs8" />
  <sodipodi:namedview
     id="namedview6"
     pagecolor="#ffffff"
     bordercolor="#666666"
     borderopacity="1.0"
     inkscape:pageshadow="2"
     inkscape:pageopacity="0.0"
     inkscape:pagecheckerboard="0"
     showgrid="false"
     inkscape:zoom="5.45625"
     inkscape:cx="23.73425"
     inkscape:cy="19.97709"
     inkscape:window-width="1920"
     inkscape:window-height="1131"
     inkscape:window-x="0"
     inkscape:window-y="0"
     inkscape:window-maximized="1"
     inkscape:current-layer="svg4" />
  <path
     d="M 51.36028,59.450614 H 28.63972 c -1.789521,0 -3.244916,-1.455636 -3.244916,-3.244361 V 41.606631 h -3.244916 c -0.910134,0 -1.623483,-0.713761 -1.623483,-1.622183 0,-0.430418 0.174237,-0.852185 0.479665,-1.157156 L 39.432191,20.749713 a 0.84658891,0.89328077 0 0 1 1.135618,0 l 18.419969,18.071092 a 1.5271398,1.611366 0 0 1 0.485817,1.163643 c 0,0.908422 -0.713347,1.622183 -1.623483,1.622183 h -3.244917 v 14.599622 c 0,1.788725 -1.455394,3.244361 -3.244915,3.244361 z M 40,22.464899 22.149888,39.980122 l 4.054607,0.0044 c 0.446868,0 0.811742,0.36337 0.811742,0.81109 v 15.410762 c 0,0.893281 0.727697,1.622181 1.621433,1.622181 h 22.72056 c 0.893735,0 1.621435,-0.7289 1.621435,-1.622181 V 40.795659 c 0,-0.44772 0.364871,-0.81109 0.811739,-0.81109 h 4.058708 c 0,-0.0044 -0.0042,-0.0087 -0.0062,-0.01071 z"
     fill="#000000"
     fill-rule="nonzero"
     stroke="#000000"
     stroke-width="1.05281"
     id="path2" />
</svg>
