<?xml version="1.0" encoding="UTF-8" standalone="no"?>
<svg
   width="80"
   height="80"
   viewBox="0 0 80 80"
   version="1.1"
   id="svg10"
   sodipodi:docname="modifyDefault.svg"
   inkscape:version="1.1.2 (0a00cf5339, 2022-02-04)"
   xmlns:inkscape="http://www.inkscape.org/namespaces/inkscape"
   xmlns:sodipodi="http://sodipodi.sourceforge.net/DTD/sodipodi-0.dtd"
   xmlns="http://www.w3.org/2000/svg"
   xmlns:svg="http://www.w3.org/2000/svg">
  <defs
     id="defs14" />
  <sodipodi:namedview
     id="namedview12"
     pagecolor="#ffffff"
     bordercolor="#666666"
     borderopacity="1.0"
     inkscape:pageshadow="2"
     inkscape:pageopacity="0.0"
     inkscape:pagecheckerboard="0"
     showgrid="false"
     width="80px"
     inkscape:zoom="5.20625"
     inkscape:cx="-0.67226891"
     inkscape:cy="37.839136"
     inkscape:window-width="1920"
     inkscape:window-height="1163"
     inkscape:window-x="0"
     inkscape:window-y="0"
     inkscape:window-maximized="1"
     inkscape:current-layer="svg10" />
  <g
     fill="none"
     fill-rule="evenodd"
     id="g8"
     transform="matrix(1.8889439,0,0,2.0000027,1.2216171,-7.7899496e-5)">
    <g
       fill="#000000"
       fill-rule="nonzero"
       id="g6">
      <path
         d="M 26.333,19.846 A 0.66,0.66 0 0 0 25.667,20.5 v 6.538 A 0.66,0.66 0 0 1 25,27.692 H 13 A 0.66,0.66 0 0 1 12.333,27.038 V 13.962 A 0.66,0.66 0 0 1 13,13.308 h 8 A 0.66,0.66 0 0 0 21.667,12.654 0.66,0.66 0 0 0 21,12 h -8 c -1.105,0 -2,0.878 -2,1.962 V 27.038 C 11,28.122 11.895,29 13,29 h 12 c 1.105,0 2,-0.878 2,-1.962 V 20.5 a 0.66,0.66 0 0 0 -0.667,-0.654 z"
         id="path2" />
      <path
         d="m 28.287,11.714 a 2.436,2.436 0 0 0 -3.446,0 l -8.382,8.382 a 0.643,0.643 0 0 0 -0.153,0.248 l -1.273,3.819 a 0.636,0.636 0 0 0 0.804,0.805 l 3.818,-1.273 a 0.637,0.637 0 0 0 0.25,-0.154 l 8.381,-8.382 a 2.436,2.436 0 0 0 0,-3.445 z m -0.9,2.545 -8.273,8.273 -2.472,0.826 0.823,-2.469 8.276,-8.273 a 1.164,1.164 0 0 1 1.646,1.643 z"
         id="path4" />
    </g>
  </g>
</svg>
