<?xml version="1.0" encoding="UTF-8" standalone="no"?>
<svg
   width="80"
   height="80"
   viewBox="0 0 80 80"
   version="1.1"
   id="svg6"
   sodipodi:docname="ics_copy_custom.svg"
   inkscape:version="1.1.2 (0a00cf5339, 2022-02-04)"
   xmlns:inkscape="http://www.inkscape.org/namespaces/inkscape"
   xmlns:sodipodi="http://sodipodi.sourceforge.net/DTD/sodipodi-0.dtd"
   xmlns="http://www.w3.org/2000/svg"
   xmlns:svg="http://www.w3.org/2000/svg">
  <defs
     id="defs10" />
  <sodipodi:namedview
     id="namedview8"
     pagecolor="#ffffff"
     bordercolor="#666666"
     borderopacity="1.0"
     inkscape:pageshadow="2"
     inkscape:pageopacity="0.0"
     inkscape:pagecheckerboard="0"
     showgrid="false"
     width="80px"
     inkscape:zoom="5.6283784"
     inkscape:cx="74"
     inkscape:cy="59.87515"
     inkscape:window-width="1920"
     inkscape:window-height="1043"
     inkscape:window-x="1920"
     inkscape:window-y="0"
     inkscape:window-maximized="1"
     inkscape:current-layer="svg6" />
  <g
     fill="none"
     fill-rule="evenodd"
     id="g4"
     transform="matrix(0.599988,0,0,0.66666667,-4.9994,-9.3333335)">
    <path
       d="M 81.439,104 H 59.28 C 54.163,104 50,99.795 50,94.625 V 62.867 c 0,-5.17 4.163,-9.375 9.28,-9.375 h 22.16 c 5.117,0 9.28,4.206 9.28,9.375 v 31.758 c 0,5.17 -4.163,9.375 -9.28,9.375 z M 59.28,58.18 c -2.559,0 -4.64,2.103 -4.64,4.687 v 31.758 c 0,2.585 2.081,4.688 4.64,4.688 h 22.158 c 2.558,0 4.64,-2.103 4.64,-4.688 V 62.867 c 0,-2.584 -2.082,-4.687 -4.64,-4.687 z M 100,88.766 V 53.375 C 100,48.205 95.837,44 90.72,44 H 64.964 c -1.281,0 -2.32,1.05 -2.32,2.344 0,1.294 1.039,2.343 2.32,2.343 H 90.72 c 2.559,0 4.64,2.103 4.64,4.688 v 35.39 c 0,1.295 1.04,2.344 2.32,2.344 1.282,0 2.321,-1.049 2.321,-2.343 z"
       fill="#000000"
       fill-rule="nonzero"
       id="path2" />
  </g>
</svg>
