<?xml version="1.0" encoding="UTF-8" standalone="no"?>
<svg
   width="8"
   height="8"
   viewBox="0 0 8 8"
   version="1.1"
   id="svg16"
   sodipodi:docname="led_orange.svg"
   inkscape:version="1.1 (c68e22c387, 2021-05-23)"
   xmlns:inkscape="http://www.inkscape.org/namespaces/inkscape"
   xmlns:sodipodi="http://sodipodi.sourceforge.net/DTD/sodipodi-0.dtd"
   xmlns="http://www.w3.org/2000/svg"
   xmlns:svg="http://www.w3.org/2000/svg">
  <defs
     id="defs20" />
  <sodipodi:namedview
     id="namedview18"
     pagecolor="#ffffff"
     bordercolor="#666666"
     borderopacity="1.0"
     inkscape:pageshadow="2"
     inkscape:pageopacity="0.0"
     inkscape:pagecheckerboard="0"
     showgrid="false"
     inkscape:zoom="97"
     inkscape:cx="3.9948454"
     inkscape:cy="4"
     inkscape:window-width="1920"
     inkscape:window-height="1043"
     inkscape:window-x="0"
     inkscape:window-y="0"
     inkscape:window-maximized="1"
     inkscape:current-layer="svg16" />
  <g
     fill="none"
     fill-rule="evenodd"
     id="g14">
    <g
       id="g12">
      <g
         id="g10">
        <g
           id="g8">
          <g
             id="g6">
            <path
               fill="#EFAE00"
               d="M4 8C1.79 8 0 6.21 0 4c0-2.209 1.79-4 4-4 2.209 0 4 1.791 4 4 0 2.21-1.791 4-4 4z"
               transform="translate(-32.000000, -389.000000) translate(0.000000, 200.000000) translate(0.000000, 150.000000) translate(32.000000, 39.000000)"
               id="path2" />
            <path
               stroke="#FFF"
               d="M4 .5c.966 0 1.841.392 2.475 1.025C7.108 2.16 7.5 3.034 7.5 4c0 .967-.392 1.842-1.025 2.475C5.84 7.108 4.966 7.5 4 7.5c-.967 0-1.842-.392-2.475-1.025C.892 5.842.5 4.967.5 4c0-.966.392-1.842 1.025-2.475C2.158.892 3.033.5 4 .5z"
               transform="translate(-32.000000, -389.000000) translate(0.000000, 200.000000) translate(0.000000, 150.000000) translate(32.000000, 39.000000)"
               id="path4" />
          </g>
        </g>
      </g>
    </g>
  </g>
</svg>
