<?xml version="1.0" encoding="UTF-8" standalone="no"?>
<svg
   width="80"
   height="80"
   version="1.1"
   id="svg8"
   sodipodi:docname="meetings_custom.svg"
   inkscape:version="1.1.2 (0a00cf5339, 2022-02-04)"
   xmlns:inkscape="http://www.inkscape.org/namespaces/inkscape"
   xmlns:sodipodi="http://sodipodi.sourceforge.net/DTD/sodipodi-0.dtd"
   xmlns="http://www.w3.org/2000/svg"
   xmlns:svg="http://www.w3.org/2000/svg">
  <defs
     id="defs12" />
  <sodipodi:namedview
     id="namedview10"
     pagecolor="#ffffff"
     bordercolor="#666666"
     borderopacity="1.0"
     inkscape:pageshadow="2"
     inkscape:pageopacity="0.0"
     inkscape:pagecheckerboard="0"
     showgrid="false"
     inkscape:zoom="4.3385417"
     inkscape:cx="51.284513"
     inkscape:cy="53.704681"
     inkscape:window-width="1920"
     inkscape:window-height="1043"
     inkscape:window-x="1920"
     inkscape:window-y="0"
     inkscape:window-maximized="1"
     inkscape:current-layer="g6" />
  <g
     fill="#000000"
     fill-rule="nonzero"
     id="g6"
     transform="matrix(1.7391304,0,0,1.7391304,20,18)">
    <path
       d="M 19.842,10.974 V 4.921 c 0,-1.438 -1.16,-2.626 -2.579,-2.626 h -0.32 v -0.41 c 0,-1.027 -0.82,-1.86 -1.832,-1.86 -1.012,0 -1.832,0.833 -1.832,1.86 v 0.41 H 6.563 V 1.885 C 6.563,0.843 5.732,0 4.706,0 3.681,0 2.85,0.844 2.85,1.884 v 0.41 H 2.573 C 1.154,2.295 0,3.484 0,4.922 v 13.9 c 0,1.438 1.154,2.627 2.572,2.627 H 10.64 A 6.973,6.973 0 0 0 16.011,24 C 19.863,24 23,20.816 23,16.908 a 7.168,7.168 0 0 0 -3.158,-5.934 z m -5.545,-9.09 a 0.809,0.809 0 0 1 0.788,-0.828 h 0.021 a 0.816,0.816 0 0 1 0.819,0.828 v 2.011 h -1.628 v -2.01 z m -10.43,0 A 0.831,0.831 0 0 1 4.701,1.056 h 0.002 c 0.458,0 0.843,0.364 0.843,0.828 v 2.011 h -1.68 v -2.01 z m -2.85,3.037 c 0,-0.869 0.698,-1.594 1.555,-1.594 h 0.277 v 1.106 a 0.5,0.5 0 0 0 0.516,0.495 h 2.677 c 0.28,0 0.521,-0.21 0.521,-0.495 V 3.327 h 6.716 v 1.106 a 0.478,0.478 0 0 0 0.488,0.495 h 2.678 A 0.485,0.485 0 0 0 16.942,4.433 V 3.327 h 0.321 a 1.59,1.59 0 0 1 1.562,1.594 V 6.58 H 1.018 V 4.92 Z M 2.572,20.415 C 1.715,20.415 1.018,19.69 1.018,18.82 V 7.612 h 17.807 v 2.801 a 6.896,6.896 0 0 0 -2.81,-0.598 c -3.851,0 -6.987,3.19 -6.987,7.097 a 7.16,7.16 0 0 0 0.908,3.503 z m 13.44,2.543 c -3.297,0 -5.968,-2.71 -5.968,-6.055 0,-3.344 2.671,-6.055 5.967,-6.055 3.296,0 5.968,2.71 5.968,6.055 -0.004,3.343 -2.674,6.052 -5.968,6.055 z"
       id="path2"
       style="stroke-width:0.48242501;stroke-miterlimit:4;stroke-dasharray:none;stroke:#000000;stroke-opacity:1" />
    <path
       d="M 19.458,16.891 H 17.084 V 13.555 A 0.548,0.548 0 0 0 16.542,13 C 16.242,13 16,13.248 16,13.555 v 3.89 c 0.005,0.308 0.25,0.556 0.552,0.555 h 2.906 C 19.758,18 20,17.752 20,17.445 a 0.548,0.548 0 0 0 -0.542,-0.554 z"
       id="path4" />
  </g>
</svg>
