<?xml version="1.0" encoding="utf-8"?>
<!-- Generator: Adobe Illustrator 24.1.1, SVG Export Plug-In . SVG Version: 6.00 Build 0)  -->
<svg version="1.1" id="Layer_1" xmlns="http://www.w3.org/2000/svg" xmlns:xlink="http://www.w3.org/1999/xlink" x="0px" y="0px"
	 viewBox="0 0 512 512" style="enable-background:new 0 0 512 512;" xml:space="preserve">
<style type="text/css">
	.st0{fill-rule:evenodd;clip-rule:evenodd;}
</style>
<g>
	<path class="st0" d="M315.1,452.9c0,32.6-26.5,59.1-59.1,59.1s-59.1-26.5-59.1-59.1s26.5-59.1,59.1-59.1S315.1,420.3,315.1,452.9z
		 M315.1,256c0,32.6-26.5,59.1-59.1,59.1s-59.1-26.5-59.1-59.1s26.5-59.1,59.1-59.1S315.1,223.4,315.1,256z M315.1,59.1
		c0,32.6-26.5,59.1-59.1,59.1s-59.1-26.5-59.1-59.1S223.4,0,256,0S315.1,26.5,315.1,59.1z"/>
</g>
</svg>
