<?xml version="1.0" encoding="UTF-8" standalone="no"?>
<svg
   width="69"
   height="82"
   viewBox="0 0 69 82"
   version="1.1"
   id="svg12"
   sodipodi:docname="menu_chatroom_ephemeral.svg"
   inkscape:version="1.1 (c68e22c387, 2021-05-23)"
   xmlns:inkscape="http://www.inkscape.org/namespaces/inkscape"
   xmlns:sodipodi="http://sodipodi.sourceforge.net/DTD/sodipodi-0.dtd"
   xmlns="http://www.w3.org/2000/svg"
   xmlns:svg="http://www.w3.org/2000/svg">
  <defs
     id="defs16" />
  <sodipodi:namedview
     id="namedview14"
     pagecolor="#ffffff"
     bordercolor="#666666"
     borderopacity="1.0"
     inkscape:pageshadow="2"
     inkscape:pageopacity="0.0"
     inkscape:pagecheckerboard="0"
     showgrid="false"
     inkscape:zoom="10.646341"
     inkscape:cx="34.5189"
     inkscape:cy="41.046964"
     inkscape:window-width="1920"
     inkscape:window-height="1043"
     inkscape:window-x="0"
     inkscape:window-y="0"
     inkscape:window-maximized="1"
     inkscape:current-layer="svg12" />
  <g
     fill="none"
     fill-rule="evenodd"
     id="g10">
    <g
       fill="#444"
       id="g8">
      <path
         d="M19.256 19.172l-3.665-5.405c-.656-.966-1.937-1.194-2.862-.51l-5.444 4.026c-.925.684-1.144 2.023-.489 2.989l3.696 5.453M56.999 25.725L60.6 21.02c.653-.854.436-2.036-.488-2.642l-5.429-3.559c-.922-.603-2.2-.401-2.853.452l-3.69 4.822M38.773 16.078v-2.002c0-1.28 1.085-2.33 2.412-2.33h1.33c1.33 0 2.415-1.049 2.415-2.33V2.332C44.93 1.049 43.844 0 42.516 0h-17.64c-1.325 0-2.41 1.049-2.41 2.331v7.086c0 1.28 1.085 2.33 2.41 2.33h1.334c1.327 0 2.413 1.048 2.413 2.329v2.002"
         id="path2" />
      <path
         fill-rule="nonzero"
         d="M34.5 13.667C15.89 13.667.802 28.784.802 47.43.802 66.08 15.89 81.196 34.5 81.196c18.61 0 33.698-15.117 33.698-33.765 0-18.647-15.087-33.764-33.698-33.764zm0 4.823c15.952 0 28.884 12.958 28.884 28.941 0 15.984-12.932 28.942-28.884 28.942S5.616 63.415 5.616 47.43c0-15.983 12.932-28.94 28.884-28.94z"
         id="path4" />
      <path
         d="M34.5 22.51c-.067 0-.133.006-.198.006v24.717H9.633c-.001.065-.005.13-.005.199 0 13.676 11.051 24.81 24.674 24.917.066 0 .131.004.198.004 13.714 0 24.872-11.178 24.872-24.921 0-.068-.005-.134-.005-.2C59.26 33.584 48.147 22.51 34.5 22.51z"
         id="path6" />
    </g>
  </g>
</svg>
