<?xml version="1.0" encoding="UTF-8" standalone="no"?>
<svg
   width="80"
   height="80"
   version="1.1"
   id="svg12"
   sodipodi:docname="menu_imdn_info_custom.svg"
   inkscape:version="1.1 (c68e22c387, 2021-05-23)"
   xmlns:inkscape="http://www.inkscape.org/namespaces/inkscape"
   xmlns:sodipodi="http://sodipodi.sourceforge.net/DTD/sodipodi-0.dtd"
   xmlns="http://www.w3.org/2000/svg"
   xmlns:svg="http://www.w3.org/2000/svg">
  <defs
     id="defs16" />
  <sodipodi:namedview
     id="namedview14"
     pagecolor="#ffffff"
     bordercolor="#666666"
     borderopacity="1.0"
     inkscape:pageshadow="2"
     inkscape:pageopacity="0.0"
     inkscape:pagecheckerboard="0"
     showgrid="false"
     inkscape:zoom="3.6375"
     inkscape:cx="-18.281787"
     inkscape:cy="4.6735395"
     inkscape:window-width="1920"
     inkscape:window-height="1131"
     inkscape:window-x="0"
     inkscape:window-y="0"
     inkscape:window-maximized="1"
     inkscape:current-layer="svg12" />
  <g
     transform="matrix(2.6666662,0,0,2.6666642,21.333333,21.333329)"
     fill="none"
     fill-rule="evenodd"
     id="g10">
    <circle
       stroke="#000000"
       cx="7"
       cy="7"
       r="7"
       id="circle2" />
    <g
       transform="translate(5.5,1.5)"
       fill="#000000"
       id="g8">
      <path
         d="M 2.958,4 V 4.101 A 1.424,1.424 0 0 0 2.551,4.171 0.738,0.738 0 0 0 2.272,4.356 0.825,0.825 0 0 0 2.062,4.844 4.82,4.82 0 0 0 2.035,5.38 v 3.238 c 0,0.243 0.012,0.435 0.035,0.576 0.024,0.14 0.062,0.253 0.115,0.338 a 0.711,0.711 0 0 0 0.294,0.262 c 0.12,0.057 0.28,0.091 0.479,0.103 V 9.998 H 0.15 V 9.897 C 0.32,9.888 0.457,9.864 0.56,9.824 A 0.746,0.746 0 0 0 1.024,9.286 C 1.057,9.143 1.073,8.92 1.073,8.618 V 5.38 C 1.073,5.078 1.057,4.855 1.024,4.712 A 0.71,0.71 0 0 0 0.835,4.356 0.698,0.698 0 0 0 0.559,4.171 1.451,1.451 0 0 0 0.15,4.101 V 4 Z"
         stroke="#000000"
         id="path4" />
      <circle
         cx="1.55"
         cy="1.5"
         r="1.5"
         id="circle6" />
    </g>
  </g>
</svg>
