<?xml version="1.0" encoding="UTF-8" standalone="no"?>
<!-- Generator: Adobe Illustrator 24.1.1, SVG Export Plug-In . SVG Version: 6.00 Build 0)  -->

<svg
   version="1.1"
   id="Layer_1"
   x="0px"
   y="0px"
   viewBox="0 0 30 30"
   xml:space="preserve"
   sodipodi:docname="menu_vdots_hovered.svg"
   width="30"
   height="30"
   inkscape:version="1.1 (c68e22c387, 2021-05-23)"
   xmlns:inkscape="http://www.inkscape.org/namespaces/inkscape"
   xmlns:sodipodi="http://sodipodi.sourceforge.net/DTD/sodipodi-0.dtd"
   xmlns="http://www.w3.org/2000/svg"
   xmlns:svg="http://www.w3.org/2000/svg"><defs
   id="defs11" /><sodipodi:namedview
   id="namedview9"
   pagecolor="#ffffff"
   bordercolor="#666666"
   borderopacity="1.0"
   inkscape:pageshadow="2"
   inkscape:pageopacity="0.0"
   inkscape:pagecheckerboard="false"
   showgrid="false"
   width="15px"
   showguides="false"
   borderlayer="false"
   inkscape:zoom="27.28125"
   inkscape:cx="2.7308133"
   inkscape:cy="12.077892"
   inkscape:window-width="1920"
   inkscape:window-height="1092"
   inkscape:window-x="1920"
   inkscape:window-y="33"
   inkscape:window-maximized="1"
   inkscape:current-layer="Layer_1"
   height="30px" />
<style
   type="text/css"
   id="style2">
	.st0{fill-rule:evenodd;clip-rule:evenodd;}
</style>
<g
   id="g6"
   transform="matrix(0.05922166,0,0,0.05859375,-0.16074485,0)">
	<path
   class="st0"
   d="m 315.1,452.9 c 0,32.6 -26.5,59.1 -59.1,59.1 -32.6,0 -59.1,-26.5 -59.1,-59.1 0,-32.6 26.5,-59.1 59.1,-59.1 32.6,0 59.1,26.5 59.1,59.1 z m 0,-196.9 c 0,32.6 -26.5,59.1 -59.1,59.1 -32.6,0 -59.1,-26.5 -59.1,-59.1 0,-32.6 26.5,-59.1 59.1,-59.1 32.6,0 59.1,26.5 59.1,59.1 z m 0,-196.9 c 0,32.6 -26.5,59.1 -59.1,59.1 -32.6,0 -59.1,-26.5 -59.1,-59.1 C 196.9,26.5 223.4,0 256,0 c 32.6,0 59.1,26.5 59.1,59.1 z"
   id="path4" />
</g>
</svg>
