<?xml version="1.0" encoding="UTF-8" standalone="no"?>
<svg
   width="80"
   height="80"
   version="1.1"
   id="svg4"
   sodipodi:docname="menu_copy_text_custom.svg"
   inkscape:version="1.1 (c68e22c387, 2021-05-23)"
   xmlns:inkscape="http://www.inkscape.org/namespaces/inkscape"
   xmlns:sodipodi="http://sodipodi.sourceforge.net/DTD/sodipodi-0.dtd"
   xmlns="http://www.w3.org/2000/svg"
   xmlns:svg="http://www.w3.org/2000/svg">
  <defs
     id="defs8" />
  <sodipodi:namedview
     id="namedview6"
     pagecolor="#ffffff"
     bordercolor="#666666"
     borderopacity="1.0"
     inkscape:pageshadow="2"
     inkscape:pageopacity="0.0"
     inkscape:pagecheckerboard="0"
     showgrid="false"
     inkscape:zoom="4.2868349"
     inkscape:cx="15.512611"
     inkscape:cy="30.791949"
     inkscape:window-width="1920"
     inkscape:window-height="1131"
     inkscape:window-x="0"
     inkscape:window-y="0"
     inkscape:window-maximized="1"
     inkscape:current-layer="svg4" />
  <path
     d="M 44.50799,60 H 28.995997 C 25.416665,60 22.5,57.195556 22.5,53.748889 V 32.577778 c 0,-3.444445 2.914332,-6.248889 6.495997,-6.248889 H 44.50799 c 3.581666,0 6.495998,2.802222 6.495998,6.248889 V 53.748889 C 51.003988,57.195556 48.087322,60 44.50799,60 Z M 28.995997,29.453333 a 3.2666653,3.1111111 0 0 0 -3.247998,3.124445 v 21.171111 a 3.2666653,3.1111111 0 0 0 3.247998,3.126667 H 44.50799 a 3.2666653,3.1111111 0 0 0 3.247999,-3.126667 V 32.577778 A 3.2666653,3.1111111 0 0 0 44.50799,29.453333 Z M 57.499985,49.844444 V 26.251111 C 57.499985,22.804444 54.585653,20 51.003988,20 H 32.976662 a 1.6333326,1.5555556 0 0 0 -1.623999,1.562222 1.6333326,1.5555556 0 0 0 1.623999,1.562222 h 18.027326 a 3.2666653,3.1111111 0 0 1 3.247998,3.126667 v 23.593333 a 1.6333326,1.5555556 0 0 0 1.624,1.562223 1.6333326,1.5555556 0 0 0 1.623999,-1.562223 z"
     fill="#000000"
     fill-rule="nonzero"
     id="path2"
     style="stroke-width:2.2771" />
</svg>
