<?xml version="1.0" encoding="UTF-8" standalone="no"?>
<svg
   width="15"
   height="15"
   viewBox="0 0 15 15"
   version="1.1"
   id="svg12"
   sodipodi:docname="menu_ephemeral.svg"
   inkscape:version="1.1 (c68e22c387, 2021-05-23)"
   xmlns:inkscape="http://www.inkscape.org/namespaces/inkscape"
   xmlns:sodipodi="http://sodipodi.sourceforge.net/DTD/sodipodi-0.dtd"
   xmlns="http://www.w3.org/2000/svg"
   xmlns:svg="http://www.w3.org/2000/svg">
  <defs
     id="defs16" />
  <sodipodi:namedview
     id="namedview14"
     pagecolor="#ffffff"
     bordercolor="#666666"
     borderopacity="1.0"
     inkscape:pageshadow="2"
     inkscape:pageopacity="0.0"
     inkscape:pagecheckerboard="0"
     showgrid="false"
     inkscape:zoom="10.646341"
     inkscape:cx="34.518902"
     inkscape:cy="41.000002"
     inkscape:window-width="1920"
     inkscape:window-height="1092"
     inkscape:window-x="1920"
     inkscape:window-y="33"
     inkscape:window-maximized="1"
     inkscape:current-layer="svg12"
     width="13px" />
  <g
     fill="none"
     fill-rule="evenodd"
     id="g10"
     transform="matrix(0.19288979,0,0,0.18473816,0.84530239,0)">
    <g
       fill="#444444"
       id="g8">
      <path
         d="m 19.256,19.172 -3.665,-5.405 c -0.656,-0.966 -1.937,-1.194 -2.862,-0.51 L 7.285,17.283 C 6.36,17.967 6.141,19.306 6.796,20.272 l 3.696,5.453 m 46.507,0 3.601,-4.705 c 0.653,-0.854 0.436,-2.036 -0.488,-2.642 l -5.429,-3.559 c -0.922,-0.603 -2.2,-0.401 -2.853,0.452 l -3.69,4.822 m -9.367,-4.015 v -2.002 c 0,-1.28 1.085,-2.33 2.412,-2.33 h 1.33 c 1.33,0 2.415,-1.049 2.415,-2.33 V 2.332 C 44.93,1.049 43.844,0 42.516,0 h -17.64 c -1.325,0 -2.41,1.049 -2.41,2.331 v 7.086 c 0,1.28 1.085,2.33 2.41,2.33 h 1.334 c 1.327,0 2.413,1.048 2.413,2.329 v 2.002"
         id="path2" />
      <path
         fill-rule="nonzero"
         d="m 34.5,13.667 c -18.61,0 -33.698,15.117 -33.698,33.763 0,18.65 15.088,33.766 33.698,33.766 18.61,0 33.698,-15.117 33.698,-33.765 0,-18.647 -15.087,-33.764 -33.698,-33.764 z m 0,4.823 c 15.952,0 28.884,12.958 28.884,28.941 0,15.984 -12.932,28.942 -28.884,28.942 C 18.548,76.373 5.616,63.415 5.616,47.43 5.616,31.447 18.548,18.49 34.5,18.49 Z"
         id="path4" />
      <path
         d="m 34.5,22.51 c -0.067,0 -0.133,0.006 -0.198,0.006 V 47.233 H 9.633 c -10e-4,0.065 -0.005,0.13 -0.005,0.199 0,13.676 11.051,24.81 24.674,24.917 0.066,0 0.131,0.004 0.198,0.004 13.714,0 24.872,-11.178 24.872,-24.921 0,-0.068 -0.005,-0.134 -0.005,-0.2 C 59.26,33.584 48.147,22.51 34.5,22.51 Z"
         id="path6" />
    </g>
  </g>
</svg>
