<?xml version="1.0" encoding="UTF-8" standalone="no"?>
<svg
   width="40"
   height="40"
   viewBox="0 0 40 40"
   version="1.1"
   id="svg21"
   sodipodi:docname="new_chat_group_hovered.svg"
   inkscape:version="1.1 (c68e22c387, 2021-05-23)"
   xmlns:inkscape="http://www.inkscape.org/namespaces/inkscape"
   xmlns:sodipodi="http://sodipodi.sourceforge.net/DTD/sodipodi-0.dtd"
   xmlns="http://www.w3.org/2000/svg"
   xmlns:svg="http://www.w3.org/2000/svg">
  <sodipodi:namedview
     id="namedview23"
     pagecolor="#ffffff"
     bordercolor="#666666"
     borderopacity="1.0"
     inkscape:pageshadow="2"
     inkscape:pageopacity="0.0"
     inkscape:pagecheckerboard="0"
     showgrid="false"
     inkscape:zoom="21.825"
     inkscape:cx="20"
     inkscape:cy="19.954181"
     inkscape:window-width="1920"
     inkscape:window-height="1092"
     inkscape:window-x="1920"
     inkscape:window-y="33"
     inkscape:window-maximized="1"
     inkscape:current-layer="svg21" />
  <defs
     id="defs5">
    <filter
       id="inzgn8a8ga"
       color-interpolation-filters="auto"
       x="0"
       y="0"
       width="1"
       height="1">
      <feColorMatrix
         in="SourceGraphic"
         values="0 0 0 0 1.000000 0 0 0 0 1.000000 0 0 0 0 1.000000 0 0 0 1.000000 0"
         id="feColorMatrix2" />
    </filter>
  </defs>
  <g
     fill="none"
     fill-rule="evenodd"
     id="g19">
    <g
       id="g17">
      <path
         fill="#4B5964"
         d="M0 5.005C0 2.241 2.236 0 5.005 0h29.99C37.759 0 40 2.236 40 5.005v29.99C40 37.759 37.764 40 34.995 40H5.005C2.241 40 0 37.764 0 34.995V5.005z"
         transform="translate(20.000000, 20.000000) scale(1, -1) translate(-20.000000, -20.000000)"
         id="path7" />
      <g
         filter="url(#inzgn8a8ga)"
         id="g15">
        <g
           fill="#444"
           fill-rule="nonzero"
           id="g13">
          <path
             d="M24.656 7.186c.547 0 1.074-.115 1.548-.331.026-.012.052-.022.08-.03.032-.01.112-.04.224-.095.194-.097.39-.225.572-.389.158-.141.298-.303.416-.486.232-.36.381-.7.464-1.01.028-.102.046-.192.056-.267l.006-.056.003-.05c.01-.091.014-.183.014-.275 0-1.636-1.501-2.989-3.383-2.989-1.882 0-3.383 1.353-3.383 2.99 0 .779.34 1.513.944 2.07.097.089.162.207.185.337l.008.04c.084.342.084.656.014.942.156-.098.285-.195.397-.291.038-.033.07-.063.099-.09l.023-.022.015-.015.017-.016c.01-.01.01-.01.057-.045l.054-.034.455-.054c.365.11.735.166 1.115.166zm0 1.208c-.38 0-.754-.042-1.116-.125-.138.115-.292.227-.461.333-.774.486-1.635.711-2.542.509-.61-.136-.637-.995-.038-1.17.015-.004.057-.019.116-.045.104-.045.207-.101.3-.169.27-.192.388-.405.338-.71-.757-.764-1.189-1.76-1.189-2.82 0-2.333 2.07-4.197 4.592-4.197 2.523 0 4.592 1.864 4.592 4.197 0 .126-.006.251-.018.376-.006.136-.035.336-.103.588-.115.426-.314.881-.615 1.348-.179.277-.39.52-.625.732-.268.24-.555.428-.842.571-.152.076-.28.127-.374.158-.623.278-1.308.424-2.015.424zM22.8 2.957h3.703c.806 0 .806 1.208 0 1.208H22.8c-.805 0-.805-1.208 0-1.208zm0 1.514h3.703c.806 0 .806 1.208 0 1.208H22.8c-.805 0-.805-1.208 0-1.208zM4.657 17.308c1.211.363 2.457.594 3.69.718.898.09 1.662.11 2.231.095l.11-.005h.112l.142.005c.57.016 1.333-.006 2.232-.095 1.232-.124 2.478-.355 3.69-.718.182-.987.005-2.103-.81-3.17-.618-.811-1.57-1.529-2.915-2.12-.034-.015-.066-.033-.097-.053l-.147-.1c-.326-.223-.356-.692-.06-.953.046-.055.056-.067.099-.113.507-.547.794-1.265.794-2.03 0-1.642-1.315-2.969-2.934-2.969h-.068c-1.618 0-2.933 1.328-2.933 2.968 0 .766.287 1.484.794 2.032.043.046.05.054.088.103.307.269.278.74-.05.962l-.148.1c-.03.02-.062.039-.096.053-1.344.591-2.296 1.309-2.915 2.12-.814 1.067-.992 2.183-.81 3.17zm6.079 2.016l-.123.004c-.618.018-1.434-.005-2.387-.1-1.42-.142-2.86-.42-4.259-.869-.18-.058-.324-.197-.386-.377-.029-.082-.066-.216-.101-.396-.258-1.31-.035-2.79 1.026-4.181.653-.858 1.59-1.609 2.833-2.232-.486-.695-.754-1.53-.754-2.405 0-2.305 1.852-4.176 4.141-4.176h.068c2.29 0 4.142 1.87 4.142 4.176 0 .876-.269 1.71-.755 2.405 1.244.623 2.18 1.374 2.834 2.232 1.061 1.39 1.284 2.87 1.026 4.181-.036.18-.073.314-.101.396-.063.18-.206.32-.387.377-1.399.448-2.838.727-4.259.869-.953.095-1.768.118-2.387.1l-.122-.004h-.05z"
             transform="translate(6.873063, 9.879167)"
             id="path9" />
          <path
             d="M14.878 8.768c0 .876-.268 1.71-.755 2.405 1.863.932 3.02 2.14 3.574 3.523 1.058-.081 2.16-.266 3.243-.585.12-.745-.028-1.58-.64-2.383-.484-.635-1.233-1.199-2.296-1.666-.034-.015-.067-.033-.097-.054l-.119-.08c-.326-.222-.355-.692-.06-.953.027-.033.038-.046.072-.082.387-.418.606-.966.606-1.552 0-1.253-1.004-2.266-2.239-2.266h-.054c-.866 0-1.637.502-2.008 1.262.498.701.773 1.546.773 2.431zm2.835.227zm-4.146 1.917l-.243.553.34-.5-.045-.03-.052-.023zm-.69-.113c.506-.547.793-1.265.793-2.03 0-.725-.256-1.406-.714-1.942-.138-.16-.181-.381-.115-.582.464-1.408 1.775-2.378 3.272-2.378h.054c1.905 0 3.447 1.557 3.447 3.474 0 .682-.195 1.333-.552 1.888.956.497 1.683 1.09 2.198 1.766.876 1.148 1.06 2.372.847 3.456-.03.15-.06.262-.086.333-.062.18-.205.32-.386.378-1.452.465-2.931.7-4.327.769-.278.013-.529-.164-.609-.431-.405-1.36-1.524-2.561-3.618-3.482-.034-.015-.066-.033-.097-.053l-.147-.1c-.326-.223-.355-.692-.06-.953.046-.055.056-.067.1-.113zM7.34 11.173c-.487-.695-.755-1.53-.755-2.405 0-1.11.432-2.147 1.177-2.917-.418-.485-1.027-.776-1.687-.776H6.02c-1.235 0-2.238 1.013-2.238 2.266 0 .586.219 1.134.607 1.552.034.037.043.047.07.081.296.26.267.732-.06.954l-.12.08c-.03.021-.062.04-.095.054-1.063.467-1.812 1.031-2.296 1.666-.612.803-.76 1.638-.64 2.383.838.246 1.695.414 2.546.516.565-1.355 1.715-2.538 3.545-3.454zM4.474 8.996v-.001zm3.324 1.97l.34.5-.244-.554-.051.023-.045.03zm.826.899l-.148.1c-.03.02-.062.039-.096.053-2.07.91-3.187 2.097-3.604 3.438-.085.273-.349.449-.633.423-1.193-.11-2.409-.339-3.591-.717-.181-.058-.324-.198-.387-.378-.024-.07-.056-.184-.085-.334-.214-1.083-.03-2.307.846-3.455.516-.676 1.243-1.27 2.199-1.766-.357-.555-.552-1.206-.552-1.888 0-1.917 1.541-3.474 3.446-3.474h.055c1.265 0 2.409.693 3.013 1.785.143.26.077.585-.156.768-.714.56-1.14 1.417-1.14 2.348 0 .766.288 1.484.795 2.032.043.046.05.054.088.103.307.269.278.74-.05.962z"
             transform="translate(6.873063, 9.879167)"
             id="path11" />
        </g>
      </g>
    </g>
  </g>
  <path
     style="fill:#ffffff;stroke-width:0.045819"
     d="m 16.517755,29.177847 c -1.742172,-0.05702 -3.562423,-0.349463 -5.282977,-0.84876 -0.617676,-0.179246 -0.718323,-0.275 -0.841605,-0.800682 -0.06349,-0.270704 -0.0839,-0.541807 -0.0839,-1.114402 V 25.65733 L 9.6678121,25.551643 C 8.8808501,25.421985 7.6782755,25.119886 7.3997709,24.981889 7.1338148,24.850109 7.0153048,24.620168 6.9400281,24.089864 6.6782829,22.24594 7.7050138,20.457029 9.6792669,19.317186 c 0.1827033,-0.105484 0.3321881,-0.202672 0.3321881,-0.215974 0,-0.0133 -0.051764,-0.112512 -0.1150309,-0.220469 C 9.6127674,18.39672 9.4261313,17.537006 9.4796654,16.961 c 0.1766349,-1.900522 1.7567216,-3.28644 3.6237396,-3.178437 0.821236,0.04751 1.565958,0.36182 2.150323,0.907553 l 0.335912,0.313704 0.379419,-0.164423 c 0.904146,-0.391816 1.996426,-0.446092 2.931285,-0.145658 0.343684,0.11045 0.765414,0.313589 1.035311,0.498692 l 0.187661,0.128702 0.224711,-0.281924 c 0.421979,-0.529418 1.124912,-0.986213 1.782557,-1.158378 0.913299,-0.239093 1.968791,-0.07144 2.746545,0.436268 0.344428,0.224838 0.834894,0.720203 1.048542,1.059016 0.645546,1.023742 0.704597,2.349477 0.151873,3.409681 -0.07883,0.151203 -0.149288,0.287211 -0.156579,0.302239 -0.0073,0.01503 0.1472,0.120659 0.343314,0.234734 1.168737,0.679831 2.095331,1.684398 2.484516,2.693588 0.2191,0.568146 0.292947,1.034066 0.264542,1.669062 -0.02903,0.648943 -0.111195,0.990176 -0.281134,1.167556 -0.235681,0.245996 -1.835101,0.642687 -3.360369,0.833444 l -0.424272,0.05306 0.02782,0.486503 c 0.04852,0.848484 -0.139423,1.729631 -0.406194,1.904426 -0.346214,0.226848 -2.549505,0.733755 -3.881901,0.893103 -1.078058,0.128929 -2.893104,0.196113 -4.16953,0.154335 z m 2.980532,-1.207138 c 1.270238,-0.09815 2.443538,-0.286873 3.555777,-0.571936 0.347892,-0.08916 0.653563,-0.183243 0.679268,-0.209065 0.0278,-0.02793 0.04674,-0.339145 0.04674,-0.768169 0,-0.575296 -0.01448,-0.743974 -0.07158,-0.833692 -0.03937,-0.06186 -0.127976,-0.269217 -0.196907,-0.460792 -0.444245,-1.234659 -1.519198,-2.271189 -3.206135,-3.091535 -0.556801,-0.270769 -0.743651,-0.420882 -0.806298,-0.647769 -0.06223,-0.225375 0.0019,-0.377739 0.316624,-0.752523 0.501087,-0.596669 0.732699,-1.22474 0.732699,-1.986889 0,-0.711476 -0.169888,-1.220929 -0.620259,-1.860007 -0.4856,-0.689069 -1.169755,-1.053625 -2.104618,-1.121457 -1.340168,-0.09724 -2.57947,0.740518 -3.022632,2.043275 -0.116565,0.342666 -0.132147,0.453054 -0.132429,0.938189 -2.75e-4,0.481556 0.01536,0.595288 0.12599,0.91594 0.14659,0.424891 0.360359,0.794637 0.640389,1.107649 0.24953,0.278921 0.303917,0.382409 0.303917,0.578307 0,0.300246 -0.150067,0.436783 -0.918813,0.835973 -0.949354,0.492975 -1.486101,0.867411 -2.036514,1.420679 -0.751836,0.755736 -1.190774,1.605583 -1.310186,2.53671 -0.05029,0.392121 -0.02702,1.025378 0.04175,1.136155 0.09156,0.147497 2.56409,0.641733 3.71975,0.743545 0.315006,0.02775 0.644903,0.05719 0.733105,0.06541 0.404972,0.03776 2.978514,0.02464 3.53036,-0.018 z m 6.504004,-3.552544 c 0.365407,-0.06116 0.924974,-0.175568 1.243482,-0.254246 l 0.579107,-0.143051 0.02749,-0.166219 C 27.972236,23.129911 27.658906,22.1528 27.083912,21.458233 26.660436,20.946693 25.975438,20.442047 25.191795,20.064287 24.682392,19.818726 24.5069,19.6781 24.449236,19.469257 c -0.0617,-0.223473 -0.0019,-0.383878 0.260767,-0.699515 0.636222,-0.764498 0.762693,-1.701087 0.346538,-2.566308 -0.502119,-1.04395 -1.726938,-1.527768 -2.857682,-1.128818 -0.398684,0.140664 -0.867266,0.516918 -1.103256,0.885875 l -0.127124,0.19875 0.163668,0.255853 c 0.859217,1.343174 0.86108,3.032285 0.0049,4.473838 -0.05838,0.09831 -0.08549,0.185949 -0.06024,0.194762 0.139337,0.04863 1.111358,0.655065 1.423055,0.88783 0.809325,0.604378 1.576815,1.498178 1.93411,2.252417 l 0.170806,0.360568 0.366552,-0.02757 c 0.201604,-0.01517 0.665521,-0.07761 1.030928,-0.13877 z m -15.17959,-0.19394 c 0.265312,-0.55403 0.613245,-1.024879 1.157728,-1.566722 0.566907,-0.564158 1.01498,-0.905531 1.673637,-1.275092 0.62985,-0.353399 0.599065,-0.308277 0.411037,-0.60246 -0.21024,-0.328934 -0.407889,-0.848395 -0.50482,-1.326769 -0.104641,-0.516427 -0.07209,-1.434693 0.06832,-1.927409 0.137353,-0.481978 0.461729,-1.112666 0.762129,-1.481815 0.140282,-0.172387 0.245113,-0.33935 0.232956,-0.37103 -0.04177,-0.108839 -0.581033,-0.477668 -0.843941,-0.577207 -1.242275,-0.470337 -2.582955,0.138839 -3.018037,1.371332 -0.131602,0.3728 -0.147816,1.000866 -0.03569,1.382592 0.101285,0.344828 0.306209,0.711944 0.545077,0.97649 0.230036,0.254764 0.282279,0.417535 0.207113,0.645288 -0.07025,0.212863 -0.244725,0.350714 -0.786867,0.621696 -1.0820556,0.540849 -1.7170263,1.083685 -2.2012095,1.881809 -0.3057974,0.504075 -0.4750842,1.228934 -0.4176479,1.788301 l 0.026499,0.258075 0.5782281,0.142624 c 0.4911105,0.121135 0.7862301,0.177285 1.7924323,0.341034 0.063,0.01025 0.135166,0.02029 0.160366,0.0223 0.0252,0.002 0.111911,-0.134354 0.19269,-0.303039 z"
     id="path51" />
  <path
     style="fill:#ffffff;stroke-width:0.045819"
     d="m 27.527906,18.989715 c -0.264205,-0.05219 -0.369883,-0.116175 -0.474058,-0.287026 -0.201486,-0.330443 -0.07575,-0.667754 0.314818,-0.844585 0.556427,-0.251923 0.787119,-0.496013 0.787119,-0.832833 0,-0.102208 -0.05066,-0.198279 -0.177556,-0.336718 -0.238042,-0.259697 -0.564517,-0.772782 -0.706414,-1.110196 -0.222949,-0.530143 -0.279377,-0.828921 -0.281219,-1.48901 -0.002,-0.733448 0.06859,-1.058586 0.363345,-1.672394 0.626448,-1.304554 1.88562,-2.206189 3.425602,-2.4529176 0.539255,-0.086397 1.509649,-0.03411 2.026872,0.1092126 1.483459,0.411066 2.641988,1.464842 3.093344,2.813647 0.126019,0.376587 0.152962,0.534109 0.172203,1.006766 0.03115,0.765078 -0.07983,1.289728 -0.414524,1.959718 -0.336852,0.67431 -0.77484,1.183786 -1.342243,1.561323 -1.038705,0.691131 -2.536472,0.994612 -3.688916,0.747457 -0.210653,-0.04518 -0.222146,-0.04177 -0.456278,0.135441 -0.751319,0.568652 -1.832861,0.851969 -2.642095,0.692115 z m 1.912071,-1.587087 c 0.06231,-0.04253 0.201752,-0.154112 0.309875,-0.247961 0.256635,-0.222755 0.510827,-0.261992 0.996819,-0.153869 0.271369,0.06038 0.490477,0.07337 0.954006,0.0566 0.521386,-0.01887 0.659457,-0.04132 1.034087,-0.168147 0.668794,-0.226415 1.010874,-0.427093 1.366863,-0.801856 0.349988,-0.368447 0.636685,-0.897562 0.761464,-1.405328 0.25034,-1.018704 -0.192051,-2.19232 -1.0772,-2.857698 -0.631794,-0.474929 -1.268552,-0.702581 -2.079133,-0.743325 -1.414353,-0.07109 -2.738308,0.647315 -3.290077,1.785274 -0.212556,0.438371 -0.282062,0.749507 -0.278335,1.245939 0.0053,0.710554 0.252971,1.31669 0.774514,1.895761 0.196294,0.217946 0.310106,0.389133 0.345093,0.519065 0.05519,0.204977 0.06951,0.82759 0.02084,0.906343 -0.04366,0.07064 0.03444,0.05572 0.161188,-0.0308 z"
     id="path103" />
  <path
     style="fill:#ffffff;stroke-width:0.045819"
     d="m 29.512912,15.508159 c -0.49193,-0.14729 -0.560004,-0.852438 -0.103219,-1.069197 0.137886,-0.06543 0.400194,-0.0747 2.113789,-0.0747 2.235432,0 2.210772,-0.0037 2.367773,0.351267 0.150765,0.340831 -0.01604,0.691362 -0.378461,0.795303 -0.192992,0.05535 -3.814178,0.05293 -3.999882,-0.0027 z"
     id="path142" />
  <path
     style="fill:#ffffff;stroke-width:0.045819"
     d="m 29.512912,13.996132 c -0.49193,-0.14729 -0.560004,-0.852439 -0.103219,-1.069197 0.137874,-0.06543 0.399963,-0.0747 2.110731,-0.0747 2.23954,0 2.213806,-0.0037 2.366539,0.341564 0.07597,0.171738 0.08357,0.237211 0.04444,0.382538 -0.05662,0.210256 -0.206658,0.36168 -0.41861,0.422467 -0.192992,0.05535 -3.814178,0.05293 -3.999882,-0.0027 z"
     id="path181" />
</svg>
