<?xml version="1.0" encoding="UTF-8" standalone="no"?>
<svg
   width="80"
   height="80"
   version="1.1"
   id="svg8"
   sodipodi:docname="new_chat_group_custom.svg"
   inkscape:version="1.1 (c68e22c387, 2021-05-23)"
   xmlns:inkscape="http://www.inkscape.org/namespaces/inkscape"
   xmlns:sodipodi="http://sodipodi.sourceforge.net/DTD/sodipodi-0.dtd"
   xmlns="http://www.w3.org/2000/svg"
   xmlns:svg="http://www.w3.org/2000/svg">
  <defs
     id="defs12" />
  <sodipodi:namedview
     id="namedview10"
     pagecolor="#ffffff"
     bordercolor="#666666"
     borderopacity="1.0"
     inkscape:pageshadow="2"
     inkscape:pageopacity="0.0"
     inkscape:pagecheckerboard="0"
     showgrid="false"
     inkscape:zoom="3.7946032"
     inkscape:cx="-16.207228"
     inkscape:cy="-11.858947"
     inkscape:window-width="1920"
     inkscape:window-height="1131"
     inkscape:window-x="0"
     inkscape:window-y="0"
     inkscape:window-maximized="1"
     inkscape:current-layer="svg8" />
  <g
     fill="#000000"
     fill-rule="nonzero"
     id="g6"
     transform="matrix(2.0514308,0,0,2.0691762,10.260285,20.25037)">
    <path
       d="m 24.53,7.065 c 0.546,0 1.073,-0.115 1.547,-0.331 a 0.604,0.604 0 0 1 0.08,-0.03 c 0.032,-0.01 0.112,-0.04 0.224,-0.095 0.194,-0.097 0.39,-0.225 0.572,-0.388 a 2.4,2.4 0 0 0 0.416,-0.487 c 0.232,-0.36 0.381,-0.7 0.464,-1.01 C 27.861,4.622 27.879,4.532 27.889,4.457 27.894,4.42 27.895,4.4 27.895,4.401 l 0.004,-0.05 c 0.009,-0.091 0.013,-0.183 0.013,-0.275 0,-1.635 -1.501,-2.988 -3.383,-2.988 -1.882,0 -3.383,1.353 -3.383,2.988 0,0.78 0.34,1.514 0.944,2.07 0.097,0.09 0.162,0.209 0.185,0.339 l 0.008,0.04 c 0.084,0.34 0.084,0.656 0.014,0.941 a 3.28,3.28 0 0 0 0.519,-0.403 l 0.015,-0.014 0.017,-0.017 0.057,-0.045 0.054,-0.034 0.455,-0.054 c 0.365,0.11 0.735,0.166 1.115,0.166 z m 0,1.208 c -0.381,0 -0.755,-0.042 -1.117,-0.124 A 4.444,4.444 0 0 1 22.952,8.481 C 22.178,8.967 21.317,9.192 20.41,8.991 19.8,8.854 19.773,7.996 20.372,7.821 A 1.635,1.635 0 0 0 20.789,7.607 C 21.057,7.414 21.176,7.201 21.126,6.895 20.369,6.132 19.937,5.137 19.937,4.076 c 0,-2.333 2.07,-4.197 4.592,-4.197 2.523,0 4.592,1.865 4.592,4.197 0,0.126 -0.006,0.252 -0.018,0.376 A 2.798,2.798 0 0 1 29,5.04 4.822,4.822 0 0 1 28.385,6.388 C 28.206,6.665 27.995,6.908 27.76,7.12 27.492,7.36 27.205,7.549 26.918,7.691 A 2.95,2.95 0 0 1 26.544,7.849 4.936,4.936 0 0 1 24.529,8.273 Z M 22.672,2.836 h 3.703 c 0.806,0 0.806,1.208 0,1.208 h -3.703 c -0.805,0 -0.805,-1.208 0,-1.208 z m 0,1.514 h 3.703 c 0.806,0 0.806,1.208 0,1.208 h -3.703 c -0.805,0 -0.805,-1.208 0,-1.208 z M 4.53,17.187 a 19.75,19.75 0 0 0 3.69,0.718 17.845,17.845 0 0 0 2.34,0.09 h 0.113 L 10.815,18 c 0.57,0.016 1.333,-0.005 2.232,-0.095 a 19.754,19.754 0 0 0 3.69,-0.718 c 0.183,-0.987 0.005,-2.103 -0.81,-3.17 -0.618,-0.81 -1.57,-1.528 -2.915,-2.12 a 0.604,0.604 0 0 1 -0.097,-0.053 l -0.147,-0.1 a 0.604,0.604 0 0 1 -0.06,-0.953 2.25,2.25 0 0 1 0.099,-0.113 2.975,2.975 0 0 0 0.794,-2.03 c 0,-1.641 -1.315,-2.969 -2.934,-2.969 H 10.6 c -1.618,0 -2.933,1.328 -2.933,2.968 0,0.766 0.287,1.484 0.794,2.032 0.043,0.046 0.05,0.055 0.088,0.103 a 0.606,0.606 0 0 1 -0.05,0.962 l -0.148,0.1 A 0.604,0.604 0 0 1 8.255,11.898 C 6.911,12.488 5.959,13.206 5.34,14.017 4.526,15.084 4.348,16.2 4.53,17.187 Z m 6.079,2.016 A 19.029,19.029 0 0 1 8.099,19.107 20.76,20.76 0 0 1 3.84,18.239 0.604,0.604 0 0 1 3.454,17.861 3.09,3.09 0 0 1 3.353,17.466 C 3.095,16.155 3.318,14.675 4.379,13.284 5.033,12.427 5.969,11.675 7.212,11.052 A 4.186,4.186 0 0 1 6.458,8.647 c 0,-2.305 1.853,-4.176 4.141,-4.176 h 0.068 c 2.29,0 4.142,1.87 4.142,4.176 0,0.876 -0.269,1.71 -0.755,2.405 1.244,0.623 2.18,1.375 2.834,2.232 1.061,1.39 1.284,2.87 1.026,4.182 a 3.09,3.09 0 0 1 -0.101,0.395 0.604,0.604 0 0 1 -0.387,0.378 20.764,20.764 0 0 1 -4.259,0.868 19.028,19.028 0 0 1 -2.51,0.096 z"
       id="path2" />
    <path
       d="m 14.751,8.647 c 0,0.876 -0.268,1.71 -0.754,2.405 1.862,0.933 3.02,2.14 3.573,3.523 1.058,-0.081 2.16,-0.266 3.243,-0.585 0.12,-0.745 -0.028,-1.58 -0.64,-2.383 C 19.689,10.973 18.94,10.408 17.877,9.941 A 0.604,0.604 0 0 1 17.78,9.887 l -0.119,-0.08 a 0.604,0.604 0 0 1 -0.06,-0.953 c 0.027,-0.033 0.038,-0.045 0.072,-0.082 0.387,-0.418 0.606,-0.966 0.606,-1.551 0,-1.254 -1.004,-2.267 -2.239,-2.267 h -0.054 c -0.866,0 -1.637,0.502 -2.008,1.263 0.498,0.7 0.773,1.545 0.773,2.43 z m 2.835,0.228 V 8.874 Z m -4.146,1.915 -0.243,0.553 0.34,-0.499 -0.045,-0.03 A 12.965,12.965 0 0 0 13.44,10.79 Z m -0.69,-0.113 a 2.975,2.975 0 0 0 0.793,-2.03 c 0,-0.724 -0.256,-1.406 -0.714,-1.942 A 0.604,0.604 0 0 1 12.714,6.123 3.45,3.45 0 0 1 15.986,3.745 h 0.054 c 1.906,0 3.447,1.557 3.447,3.475 0,0.68 -0.195,1.332 -0.552,1.887 0.956,0.497 1.683,1.09 2.198,1.766 0.876,1.148 1.06,2.372 0.847,3.456 -0.03,0.15 -0.06,0.262 -0.086,0.334 a 0.604,0.604 0 0 1 -0.386,0.377 c -1.452,0.465 -2.931,0.7 -4.327,0.769 a 0.604,0.604 0 0 1 -0.608,-0.43 c -0.406,-1.36 -1.525,-2.562 -3.619,-3.482 a 0.604,0.604 0 0 1 -0.097,-0.054 l -0.147,-0.1 a 0.604,0.604 0 0 1 -0.06,-0.953 2.25,2.25 0 0 1 0.1,-0.113 z M 7.212,11.052 A 4.186,4.186 0 0 1 6.458,8.647 C 6.458,7.538 6.89,6.5 7.635,5.73 A 2.224,2.224 0 0 0 5.948,4.954 H 5.893 c -1.234,0 -2.238,1.014 -2.238,2.267 0,0.585 0.219,1.133 0.607,1.552 0.034,0.037 0.043,0.047 0.07,0.08 A 0.604,0.604 0 0 1 4.272,9.807 L 4.153,9.887 A 0.604,0.604 0 0 1 4.057,9.941 c -1.063,0.467 -1.812,1.032 -2.296,1.666 -0.612,0.803 -0.76,1.638 -0.64,2.383 0.838,0.246 1.695,0.414 2.546,0.516 0.565,-1.355 1.715,-2.538 3.545,-3.454 z M 4.348,8.875 Z m 3.324,1.97 0.34,0.5 -0.244,-0.554 -0.05,0.023 -0.046,0.03 z m 0.826,0.899 -0.148,0.1 a 0.604,0.604 0 0 1 -0.096,0.054 c -2.07,0.91 -3.187,2.096 -3.604,3.437 A 0.604,0.604 0 0 1 4.017,15.758 16.85,16.85 0 0 1 0.426,15.041 0.604,0.604 0 0 1 0.04,14.664 2.596,2.596 0 0 1 -0.046,14.33 C -0.259,13.246 -0.076,12.022 0.8,10.874 1.316,10.2 2.043,9.604 3,9.108 A 3.484,3.484 0 0 1 2.448,7.221 c 0,-1.918 1.542,-3.475 3.446,-3.475 h 0.055 c 1.265,0 2.41,0.693 3.013,1.785 A 0.604,0.604 0 0 1 8.806,6.299 2.974,2.974 0 0 0 7.667,8.647 c 0,0.766 0.287,1.484 0.794,2.032 0.043,0.046 0.05,0.055 0.088,0.103 a 0.606,0.606 0 0 1 -0.05,0.962 z"
       id="path4" />
  </g>
</svg>
