<?xml version="1.0" encoding="UTF-8" standalone="no"?>
<svg
   width="40"
   height="40"
   viewBox="0 0 40 40"
   version="1.1"
   id="svg21"
   sodipodi:docname="new_chat_group_normal.svg"
   inkscape:version="1.1 (c68e22c387, 2021-05-23)"
   xmlns:inkscape="http://www.inkscape.org/namespaces/inkscape"
   xmlns:sodipodi="http://sodipodi.sourceforge.net/DTD/sodipodi-0.dtd"
   xmlns="http://www.w3.org/2000/svg"
   xmlns:svg="http://www.w3.org/2000/svg">
  <sodipodi:namedview
     id="namedview23"
     pagecolor="#ffffff"
     bordercolor="#666666"
     borderopacity="1.0"
     inkscape:pageshadow="2"
     inkscape:pageopacity="0.0"
     inkscape:pagecheckerboard="0"
     showgrid="false"
     inkscape:zoom="21.825"
     inkscape:cx="20"
     inkscape:cy="19.862543"
     inkscape:window-width="1920"
     inkscape:window-height="1092"
     inkscape:window-x="1920"
     inkscape:window-y="33"
     inkscape:window-maximized="1"
     inkscape:current-layer="svg21" />
  <defs
     id="defs5">
    <filter
       id="mqanwmw2ka"
       color-interpolation-filters="auto"
       x="0"
       y="0"
       width="1"
       height="1">
      <feColorMatrix
         in="SourceGraphic"
         values="0 0 0 0 1.000000 0 0 0 0 1.000000 0 0 0 0 1.000000 0 0 0 1.000000 0"
         id="feColorMatrix2" />
    </filter>
  </defs>
  <g
     fill="none"
     fill-rule="evenodd"
     id="g19">
    <g
       id="g17">
      <path
         fill="#FF5E00"
         d="M0 5.005C0 2.241 2.236 0 5.005 0h29.99C37.759 0 40 2.236 40 5.005v29.99C40 37.759 37.764 40 34.995 40H5.005C2.241 40 0 37.764 0 34.995V5.005z"
         transform="translate(20.000000, 20.000000) scale(1, -1) translate(-20.000000, -20.000000)"
         id="path7" />
      <g
         filter="url(#mqanwmw2ka)"
         id="g15">
        <g
           fill="#444"
           fill-rule="nonzero"
           id="g13">
          <path
             d="M24.656 7.186c.547 0 1.074-.115 1.548-.331.026-.012.052-.022.08-.03.032-.01.112-.04.224-.095.194-.097.39-.225.572-.389.158-.141.298-.303.416-.486.232-.36.381-.7.464-1.01.028-.102.046-.192.056-.267l.006-.056.003-.05c.01-.091.014-.183.014-.275 0-1.636-1.501-2.989-3.383-2.989-1.882 0-3.383 1.353-3.383 2.99 0 .779.34 1.513.944 2.07.097.089.162.207.185.337l.008.04c.084.342.084.656.014.942.156-.098.285-.195.397-.291.038-.033.07-.063.099-.09l.023-.022.015-.015.017-.016c.01-.01.01-.01.057-.045l.054-.034.455-.054c.365.11.735.166 1.115.166zm0 1.208c-.38 0-.754-.042-1.116-.125-.138.115-.292.227-.461.333-.774.486-1.635.711-2.542.509-.61-.136-.637-.995-.038-1.17.015-.004.057-.019.116-.045.104-.045.207-.101.3-.169.27-.192.388-.405.338-.71-.757-.764-1.189-1.76-1.189-2.82 0-2.333 2.07-4.197 4.592-4.197 2.523 0 4.592 1.864 4.592 4.197 0 .126-.006.251-.018.376-.006.136-.035.336-.103.588-.115.426-.314.881-.615 1.348-.179.277-.39.52-.625.732-.268.24-.555.428-.842.571-.152.076-.28.127-.374.158-.623.278-1.308.424-2.015.424zM22.8 2.957h3.703c.806 0 .806 1.208 0 1.208H22.8c-.805 0-.805-1.208 0-1.208zm0 1.514h3.703c.806 0 .806 1.208 0 1.208H22.8c-.805 0-.805-1.208 0-1.208zM4.657 17.308c1.211.363 2.457.594 3.69.718.898.09 1.662.11 2.231.095l.11-.005h.112l.142.005c.57.016 1.333-.006 2.232-.095 1.232-.124 2.478-.355 3.69-.718.182-.987.005-2.103-.81-3.17-.618-.811-1.57-1.529-2.915-2.12-.034-.015-.066-.033-.097-.053l-.147-.1c-.326-.223-.356-.692-.06-.953.046-.055.056-.067.099-.113.507-.547.794-1.265.794-2.03 0-1.642-1.315-2.969-2.934-2.969h-.068c-1.618 0-2.933 1.328-2.933 2.968 0 .766.287 1.484.794 2.032.043.046.05.054.088.103.307.269.278.74-.05.962l-.148.1c-.03.02-.062.039-.096.053-1.344.591-2.296 1.309-2.915 2.12-.814 1.067-.992 2.183-.81 3.17zm6.079 2.016l-.123.004c-.618.018-1.434-.005-2.387-.1-1.42-.142-2.86-.42-4.259-.869-.18-.058-.324-.197-.386-.377-.029-.082-.066-.216-.101-.396-.258-1.31-.035-2.79 1.026-4.181.653-.858 1.59-1.609 2.833-2.232-.486-.695-.754-1.53-.754-2.405 0-2.305 1.852-4.176 4.141-4.176h.068c2.29 0 4.142 1.87 4.142 4.176 0 .876-.269 1.71-.755 2.405 1.244.623 2.18 1.374 2.834 2.232 1.061 1.39 1.284 2.87 1.026 4.181-.036.18-.073.314-.101.396-.063.18-.206.32-.387.377-1.399.448-2.838.727-4.259.869-.953.095-1.768.118-2.387.1l-.122-.004h-.05z"
             transform="translate(6.873063, 9.879167)"
             id="path9" />
          <path
             d="M14.878 8.768c0 .876-.268 1.71-.755 2.405 1.863.932 3.02 2.14 3.574 3.523 1.058-.081 2.16-.266 3.243-.585.12-.745-.028-1.58-.64-2.383-.484-.635-1.233-1.199-2.296-1.666-.034-.015-.067-.033-.097-.054l-.119-.08c-.326-.222-.355-.692-.06-.953.027-.033.038-.046.072-.082.387-.418.606-.966.606-1.552 0-1.253-1.004-2.266-2.239-2.266h-.054c-.866 0-1.637.502-2.008 1.262.498.701.773 1.546.773 2.431zm2.835.227zm-4.146 1.917l-.243.553.34-.5-.045-.03-.052-.023zm-.69-.113c.506-.547.793-1.265.793-2.03 0-.725-.256-1.406-.714-1.942-.138-.16-.181-.381-.115-.582.464-1.408 1.775-2.378 3.272-2.378h.054c1.905 0 3.447 1.557 3.447 3.474 0 .682-.195 1.333-.552 1.888.956.497 1.683 1.09 2.198 1.766.876 1.148 1.06 2.372.847 3.456-.03.15-.06.262-.086.333-.062.18-.205.32-.386.378-1.452.465-2.931.7-4.327.769-.278.013-.529-.164-.609-.431-.405-1.36-1.524-2.561-3.618-3.482-.034-.015-.066-.033-.097-.053l-.147-.1c-.326-.223-.355-.692-.06-.953.046-.055.056-.067.1-.113zM7.34 11.173c-.487-.695-.755-1.53-.755-2.405 0-1.11.432-2.147 1.177-2.917-.418-.485-1.027-.776-1.687-.776H6.02c-1.235 0-2.238 1.013-2.238 2.266 0 .586.219 1.134.607 1.552.034.037.043.047.07.081.296.26.267.732-.06.954l-.12.08c-.03.021-.062.04-.095.054-1.063.467-1.812 1.031-2.296 1.666-.612.803-.76 1.638-.64 2.383.838.246 1.695.414 2.546.516.565-1.355 1.715-2.538 3.545-3.454zM4.474 8.996v-.001zm3.324 1.97l.34.5-.244-.554-.051.023-.045.03zm.826.899l-.148.1c-.03.02-.062.039-.096.053-2.07.91-3.187 2.097-3.604 3.438-.085.273-.349.449-.633.423-1.193-.11-2.409-.339-3.591-.717-.181-.058-.324-.198-.387-.378-.024-.07-.056-.184-.085-.334-.214-1.083-.03-2.307.846-3.455.516-.676 1.243-1.27 2.199-1.766-.357-.555-.552-1.206-.552-1.888 0-1.917 1.541-3.474 3.446-3.474h.055c1.265 0 2.409.693 3.013 1.785.143.26.077.585-.156.768-.714.56-1.14 1.417-1.14 2.348 0 .766.288 1.484.795 2.032.043.046.05.054.088.103.307.269.278.74-.05.962z"
             transform="translate(6.873063, 9.879167)"
             id="path11" />
        </g>
      </g>
    </g>
  </g>
  <path
     style="fill:#ffffff;stroke-width:0.045819"
     d="m 16.494845,29.178175 c -1.768895,-0.06448 -3.540258,-0.35045 -5.260067,-0.849187 -0.617674,-0.179123 -0.718313,-0.274855 -0.841605,-0.800583 -0.06362,-0.271286 -0.0839,-0.541986 -0.0839,-1.120246 V 25.645643 L 10.057274,25.61642 C 9.2497315,25.522777 7.4166963,25.063708 7.2458642,24.912324 6.889066,24.596146 6.791109,23.319917 7.0541971,22.415197 c 0.3542798,-1.218314 1.2195108,-2.260043 2.5233927,-3.038139 0.2386257,-0.1424 0.4338652,-0.268162 0.4338652,-0.27947 0,-0.01131 -0.051764,-0.108888 -0.1150309,-0.216845 C 9.8331572,18.772786 9.7316224,18.538126 9.6707912,18.359274 9.219476,17.032352 9.5623261,15.647722 10.577298,14.698265 c 1.316242,-1.231279 3.363424,-1.234352 4.677638,-0.007 l 0.337119,0.314832 0.312717,-0.140306 c 0.503414,-0.225867 0.909194,-0.321118 1.492803,-0.350416 0.960698,-0.04823 1.81064,0.178533 2.53808,0.67715 l 0.187661,0.128629 0.224711,-0.281924 c 0.421979,-0.529418 1.124912,-0.986213 1.782557,-1.158378 0.680573,-0.178168 1.541067,-0.121952 2.193924,0.143327 0.795352,0.323181 1.531624,1.060815 1.876332,1.879807 0.377346,0.896534 0.329572,2.013165 -0.123296,2.881831 -0.07883,0.151203 -0.149288,0.287211 -0.156579,0.302239 -0.0073,0.01503 0.1472,0.120659 0.343314,0.234734 1.062933,0.618287 1.873211,1.43704 2.3253,2.349625 0.329742,0.665615 0.41238,1.027594 0.413179,1.809851 0.0012,1.13309 -0.125967,1.423274 -0.699876,1.597593 -0.828183,0.251554 -1.955403,0.485451 -2.909386,0.603697 l -0.448429,0.05558 0.03039,0.441189 c 0.03262,0.473633 -0.02739,1.085627 -0.150027,1.530061 -0.120102,0.435238 -0.227448,0.491137 -1.618095,0.842603 -1.060976,0.268147 -2.180866,0.452887 -3.413517,0.563105 -0.526306,0.04706 -2.626841,0.0866 -3.298969,0.0621 z m 3.003442,-1.207466 c 1.270238,-0.09815 2.443538,-0.286873 3.555777,-0.571936 0.347892,-0.08916 0.653563,-0.183243 0.679268,-0.209065 0.02779,-0.02792 0.04674,-0.338481 0.04674,-0.766096 0,-0.599135 -0.01327,-0.742083 -0.07949,-0.856602 -0.04372,-0.0756 -0.132281,-0.281567 -0.196805,-0.457701 -0.449444,-1.226862 -1.523996,-2.259573 -3.198327,-3.073789 -0.544772,-0.264919 -0.735822,-0.414918 -0.80834,-0.634652 -0.0706,-0.213911 0.0022,-0.388798 0.318666,-0.76564 0.501087,-0.596669 0.732699,-1.22474 0.732699,-1.986889 0,-0.706731 -0.170356,-1.221675 -0.61091,-1.846633 -0.366969,-0.520572 -0.788085,-0.820973 -1.420501,-1.013306 -1.569537,-0.477336 -3.208991,0.380531 -3.720372,1.946736 -0.11356,0.3478 -0.13347,0.481376 -0.132702,0.890294 0.0014,0.747275 0.210638,1.353582 0.655384,1.899116 0.375832,0.461004 0.419459,0.535115 0.419459,0.712567 0,0.315092 -0.140514,0.444944 -0.918813,0.849095 -0.914824,0.475044 -1.47497,0.860689 -1.994456,1.373128 -0.765356,0.754972 -1.2206,1.617146 -1.350193,2.557092 -0.04975,0.360873 -0.02577,1.057862 0.04005,1.163885 0.04386,0.07064 1.368773,0.394519 2.184467,0.53399 0.642116,0.109793 1.673455,0.237499 2.199313,0.272332 0.572185,0.0379 3.044032,0.02696 3.599089,-0.01593 z m 6.504004,-3.552544 c 0.365407,-0.06116 0.924974,-0.175568 1.243482,-0.254246 l 0.579107,-0.143051 0.02749,-0.166219 C 27.972236,23.129911 27.658906,22.1528 27.083912,21.458233 26.660436,20.946693 25.975438,20.442047 25.191795,20.064287 24.682392,19.818726 24.5069,19.6781 24.449236,19.469257 c -0.06149,-0.222702 -0.0044,-0.374604 0.267123,-0.711304 0.636868,-0.789611 0.756604,-1.688742 0.340182,-2.554519 -0.501247,-1.042137 -1.728902,-1.527075 -2.857682,-1.128818 -0.398684,0.140664 -0.867266,0.516918 -1.103256,0.885875 l -0.127124,0.19875 0.163668,0.255853 c 0.861059,1.346053 0.862916,3.029196 0.0049,4.473838 -0.05838,0.09831 -0.08549,0.185949 -0.06024,0.194762 0.146692,0.0512 1.12099,0.662056 1.451039,0.909761 0.803412,0.60297 1.547756,1.473978 1.906126,2.230486 l 0.170806,0.360568 0.366552,-0.02757 c 0.201604,-0.01517 0.665521,-0.07761 1.030928,-0.13877 z M 10.879175,24.120299 c 0.512183,-1.030272 1.541477,-2.04584 2.774891,-2.737888 0.62985,-0.353399 0.599065,-0.308277 0.411037,-0.60246 -0.21024,-0.328934 -0.407889,-0.848395 -0.50482,-1.326769 -0.104641,-0.516427 -0.07209,-1.434693 0.06832,-1.927409 0.139077,-0.488031 0.464061,-1.12194 0.757663,-1.477887 0.157946,-0.191485 0.241519,-0.331237 0.224541,-0.37548 -0.04578,-0.11929 -0.55347,-0.471586 -0.83106,-0.576685 -0.985748,-0.373214 -2.057009,-0.07592 -2.676885,0.742885 -0.308269,0.407196 -0.410691,0.700511 -0.438275,1.255123 -0.03454,0.694515 0.131769,1.179764 0.579833,1.691792 0.255496,0.291969 0.31052,0.453403 0.233788,0.685902 -0.07025,0.212863 -0.244725,0.350714 -0.786867,0.621696 -1.0455005,0.522578 -1.7394485,1.109948 -2.1862883,1.850513 -0.3159287,0.523601 -0.490696,1.259853 -0.4326223,1.822533 l 0.026403,0.255818 0.585367,0.142732 c 0.4945479,0.120587 0.8388293,0.186195 1.7854426,0.340247 0.063,0.01025 0.135166,0.01993 0.160366,0.02151 0.0252,0.0016 0.137325,-0.1812 0.249164,-0.406169 z"
     id="path51" />
  <path
     style="fill:#ffffff;stroke-width:0.045819"
     d="m 27.527906,18.992721 c -0.266698,-0.05685 -0.370655,-0.120447 -0.474058,-0.290032 -0.201486,-0.330443 -0.07575,-0.667754 0.314818,-0.844585 0.38794,-0.175641 0.628317,-0.355173 0.71219,-0.531921 0.127285,-0.268234 0.09854,-0.395207 -0.157522,-0.695864 -0.662348,-0.777691 -0.997525,-1.743181 -0.945017,-2.722148 0.03114,-0.580505 0.12179,-0.953388 0.353328,-1.45334 0.212627,-0.459116 0.383506,-0.711346 0.740366,-1.09283 0.672636,-0.71905 1.682489,-1.241647 2.708976,-1.4018909 0.490149,-0.076517 1.526545,-0.02589 1.979609,0.096701 1.505262,0.407299 2.682696,1.468657 3.139596,2.830084 0.130153,0.387815 0.152618,0.524655 0.171084,1.042086 0.01784,0.500017 0.0055,0.661852 -0.07665,1.008018 -0.18178,0.765605 -0.696216,1.655075 -1.239997,2.143981 -0.529993,0.476509 -1.39904,0.89063 -2.246034,1.070287 -0.451196,0.0957 -1.424683,0.109171 -1.84512,0.02552 l -0.264364,-0.0526 -0.232292,0.175815 c -0.287398,0.217524 -0.824625,0.489676 -1.200559,0.60819 -0.322779,0.101755 -1.133879,0.149417 -1.43835,0.08452 z m 1.912071,-1.590093 c 0.06231,-0.04253 0.201752,-0.154112 0.309875,-0.247961 0.256635,-0.222755 0.510827,-0.261992 0.996819,-0.153869 0.271369,0.06038 0.490477,0.07337 0.954006,0.0566 0.518079,-0.01875 0.660472,-0.04167 1.024295,-0.164866 0.622734,-0.210873 0.936834,-0.386294 1.29259,-0.721896 0.524125,-0.494433 0.920622,-1.384119 0.918641,-2.061307 -0.0024,-0.83469 -0.430823,-1.715227 -1.090114,-2.240728 -1.113512,-0.887545 -2.674651,-1.048538 -3.985232,-0.410977 -0.378454,0.184106 -0.501993,0.27528 -0.857746,0.633026 -0.629706,0.633233 -0.870954,1.197212 -0.864765,2.021607 0.0053,0.710259 0.245878,1.299272 0.771959,1.890249 0.196399,0.220627 0.313378,0.39731 0.347876,0.525424 0.05502,0.204312 0.06918,0.826897 0.02061,0.905496 -0.04366,0.07064 0.03444,0.05572 0.161188,-0.0308 z"
     id="path52" />
  <path
     style="fill:#ffffff;stroke-width:0.045819"
     d="m 29.512912,15.508159 c -0.49193,-0.14729 -0.560004,-0.852438 -0.103219,-1.069197 0.137886,-0.06543 0.400194,-0.0747 2.113789,-0.0747 2.235432,0 2.210772,-0.0037 2.367773,0.351267 0.150765,0.340831 -0.01604,0.691362 -0.378461,0.795303 -0.192992,0.05535 -3.814178,0.05293 -3.999882,-0.0027 z"
     id="path53" />
  <path
     style="fill:#ffffff;stroke-width:0.045819"
     d="m 29.512912,13.996132 c -0.493719,-0.147826 -0.558571,-0.88531 -0.09489,-1.079049 0.232858,-0.09729 3.983021,-0.09522 4.216497,0.0023 0.224063,0.09362 0.364744,0.404907 0.296883,0.656921 -0.05662,0.210256 -0.206658,0.36168 -0.41861,0.422467 -0.192992,0.05535 -3.814178,0.05293 -3.999882,-0.0027 z"
     id="path92" />
</svg>
