<?xml version="1.0" encoding="UTF-8" standalone="no"?>
<svg
   width="41"
   height="40"
   viewBox="0 0 41 40"
   version="1.1"
   id="svg29"
   sodipodi:docname="home.svg"
   inkscape:version="1.1 (c68e22c387, 2021-05-23)"
   xmlns:inkscape="http://www.inkscape.org/namespaces/inkscape"
   xmlns:sodipodi="http://sodipodi.sourceforge.net/DTD/sodipodi-0.dtd"
   xmlns="http://www.w3.org/2000/svg"
   xmlns:svg="http://www.w3.org/2000/svg">
  <sodipodi:namedview
     id="namedview31"
     pagecolor="#ffffff"
     bordercolor="#666666"
     borderopacity="1.0"
     inkscape:pageshadow="2"
     inkscape:pageopacity="0.0"
     inkscape:pagecheckerboard="0"
     showgrid="false"
     inkscape:zoom="19.4"
     inkscape:cx="20.489691"
     inkscape:cy="20"
     inkscape:window-width="1920"
     inkscape:window-height="1131"
     inkscape:window-x="0"
     inkscape:window-y="0"
     inkscape:window-maximized="1"
     inkscape:current-layer="svg29" />
  <defs
     id="defs5">
    <filter
       id="oozatiu60a"
       color-interpolation-filters="auto"
       x="0"
       y="0"
       width="1.0083297"
       height="1">
      <feColorMatrix
         in="SourceGraphic"
         values="0 0 0 0 1.000000 0 0 0 0 1.000000 0 0 0 0 1.000000 0 0 0 1.000000 0"
         id="feColorMatrix2" />
    </filter>
  </defs>
  <g
     fill="none"
     fill-rule="evenodd"
     id="g27">
    <g
       id="g25">
      <g
         id="g23">
        <g
           id="g21">
          <path
             fill="#FF5E00"
             d="M0 5.005C0 2.241 2.237 0 5.008 0H35.01c2.766 0 5.007 2.236 5.007 5.005v29.99c0 2.764-2.237 5.005-5.007 5.005H5.008C2.242 40 0 37.764 0 34.995V5.005z"
             transform="translate(-920.000000, -45.000000) translate(-0.000000, 0.000000) translate(920.402332, 45.000000) translate(20.008746, 20.000000) scale(1, -1) translate(-20.008746, -20.000000)"
             id="path7" />
          <g
             filter="url(#oozatiu60a)"
             transform="translate(-920.000000, -45.000000) translate(-0.000000, 0.000000) translate(920.402332, 45.000000) translate(5.002187, 7.000000)"
             id="g19">
            <g
               fill="#FFF"
               fill-rule="nonzero"
               stroke="#FFF"
               stroke-width=".5"
               id="g11">
              <path
                 d="M15.84.892c-.102-.06-.23-.063-.335-.006l-3.672 1.988V1.681C11.83.753 11.073.001 10.137 0H1.696C.76.001 0 .753 0 1.681V8.32c.001.928.76 1.68 1.696 1.681h8.44c.937-.001 1.695-.753 1.697-1.681V7.148l3.672 1.988c.105.057.233.054.336-.006.103-.06.166-.17.166-.29V1.182c0-.119-.063-.229-.166-.29zm-4.686 7.427c0 .557-.456 1.008-1.017 1.009H1.696C1.134 9.327.679 8.876.678 8.319V1.681c0-.557.456-1.008 1.018-1.009h8.44c.562.001 1.018.452 1.018 1.01v6.637zm4.175-.045l-3.496-1.892V3.64l3.496-1.892v6.526z"
                 transform="translate(14.006122, 9.000000)"
                 id="path9" />
            </g>
            <g
               stroke="#FFF"
               stroke-linecap="round"
               stroke-width="1.5"
               id="g15">
              <path
                 d="M2.001 0L2.001 4M4.002 2L0 2"
                 transform="translate(18.007872, 12.000000)"
                 id="path13" />
            </g>
            <path
               fill="#000"
               fill-rule="nonzero"
               d="M4.002 7.429c0 .315.256.571.571.571h6.86c.316 0 .572-.256.572-.571 0-1.6-.947-2.98-2.31-3.62.366-.405.595-.936.595-1.523C10.29 1.026 9.264 0 8.003 0c-1.26 0-2.286 1.025-2.286 2.286 0 .587.229 1.118.594 1.523-1.362.64-2.31 2.02-2.31 3.62zM6.86 2.286c0-.63.513-1.143 1.143-1.143.631 0 1.144.513 1.144 1.143s-.513 1.143-1.144 1.143c-.63 0-1.143-.513-1.143-1.143zM8.003 4.57c1.38 0 2.536.984 2.801 2.286H5.203c.265-1.302 1.42-2.286 2.8-2.286zM4.002 25.429c0 .315.256.571.571.571h6.86c.316 0 .572-.256.572-.571 0-1.6-.947-2.98-2.31-3.62.366-.405.595-.936.595-1.523 0-1.26-1.026-2.286-2.287-2.286-1.26 0-2.286 1.025-2.286 2.286 0 .587.229 1.118.594 1.523-1.362.64-2.31 2.02-2.31 3.62zm2.858-5.143c0-.63.513-1.143 1.143-1.143.631 0 1.144.513 1.144 1.143s-.513 1.143-1.144 1.143c-.63 0-1.143-.513-1.143-1.143zm1.143 2.285c1.38 0 2.536.984 2.801 2.286H5.203c.265-1.302 1.42-2.286 2.8-2.286zM0 16.429c0 .315.256.571.572.571h6.86c.316 0 .571-.256.571-.571 0-1.6-.947-2.98-2.309-3.62.366-.405.594-.936.594-1.523C6.288 10.026 5.263 9 4.002 9c-1.261 0-2.287 1.025-2.287 2.286 0 .587.229 1.118.594 1.523C.948 13.45 0 14.83 0 16.43zm2.858-5.143c0-.63.513-1.143 1.144-1.143.63 0 1.143.513 1.143 1.143s-.513 1.143-1.143 1.143-1.144-.513-1.144-1.143zm1.144 2.285c1.38 0 2.535.984 2.8 2.286H1.202c.265-1.302 1.42-2.286 2.8-2.286z"
               id="path17" />
          </g>
        </g>
      </g>
    </g>
  </g>
</svg>
