<?xml version="1.0" encoding="UTF-8" standalone="no"?>
<svg
   width="40"
   height="40"
   viewBox="0 0 40 40"
   version="1.1"
   id="svg29"
   sodipodi:docname="new_conference_pressed.svg"
   inkscape:version="1.1 (c68e22c387, 2021-05-23)"
   xmlns:inkscape="http://www.inkscape.org/namespaces/inkscape"
   xmlns:sodipodi="http://sodipodi.sourceforge.net/DTD/sodipodi-0.dtd"
   xmlns="http://www.w3.org/2000/svg"
   xmlns:svg="http://www.w3.org/2000/svg">
  <sodipodi:namedview
     id="namedview31"
     pagecolor="#ffffff"
     bordercolor="#666666"
     borderopacity="1.0"
     inkscape:pageshadow="2"
     inkscape:pageopacity="0.0"
     inkscape:pagecheckerboard="0"
     showgrid="false"
     inkscape:zoom="21.825"
     inkscape:cx="20"
     inkscape:cy="19.862543"
     inkscape:window-width="1920"
     inkscape:window-height="1092"
     inkscape:window-x="1920"
     inkscape:window-y="33"
     inkscape:window-maximized="1"
     inkscape:current-layer="svg29" />
  <defs
     id="defs5">
    <filter
       id="pgl6xh76ba"
       color-interpolation-filters="auto"
       x="0"
       y="0"
       width="1"
       height="1">
      <feColorMatrix
         in="SourceGraphic"
         values="0 0 0 0 1.000000 0 0 0 0 1.000000 0 0 0 0 1.000000 0 0 0 1.000000 0"
         id="feColorMatrix2" />
    </filter>
  </defs>
  <g
     fill="none"
     fill-rule="evenodd"
     id="g27">
    <g
       id="g25">
      <g
         fill="#DC4100"
         id="g9">
        <path
           d="M0 5.005C0 2.241 2.236 0 5.005 0h29.99C37.759 0 40 2.236 40 5.005v29.99C40 37.759 37.764 40 34.995 40H5.005C2.241 40 0 37.764 0 34.995V5.005z"
           transform="translate(20.000000, 20.000000) scale(1, -1) translate(-20.000000, -20.000000)"
           id="path7" />
      </g>
      <g
         id="g23">
        <g
           filter="url(#pgl6xh76ba)"
           transform="translate(5.873063, 10.000000)"
           id="g19">
          <g
             id="g17">
            <g
               fill="#444"
               fill-rule="nonzero"
               id="g15">
              <path
                 d="M4.657 13.441c1.211.363 2.457.595 3.69.718.898.09 1.662.111 2.231.095l.11-.004.112-.001.142.005c.57.016 1.333-.005 2.232-.095 1.232-.123 2.478-.355 3.69-.718.182-.987.005-2.102-.81-3.17-.618-.81-1.57-1.528-2.915-2.12-.034-.014-.066-.032-.097-.053l-.147-.1c-.326-.222-.356-.692-.06-.953.046-.055.056-.067.099-.112.507-.547.794-1.266.794-2.031 0-1.641-1.315-2.969-2.934-2.969h-.068c-1.618 0-2.933 1.328-2.933 2.969 0 .765.287 1.484.794 2.031.043.046.05.055.088.104.307.268.278.74-.05.961l-.148.1c-.03.021-.062.039-.096.054-1.344.59-2.296 1.308-2.915 2.119-.814 1.068-.992 2.183-.81 3.17zm6.079 2.016l-.123.005c-.618.018-1.434-.005-2.387-.1-1.42-.143-2.86-.421-4.259-.87-.18-.057-.324-.197-.386-.377-.029-.082-.066-.216-.101-.395-.258-1.31-.035-2.791 1.026-4.182.653-.857 1.59-1.609 2.833-2.232-.486-.695-.754-1.529-.754-2.404 0-2.306 1.852-4.177 4.141-4.177h.068c2.29 0 4.142 1.871 4.142 4.177 0 .875-.269 1.71-.755 2.404 1.244.624 2.18 1.375 2.834 2.232 1.061 1.39 1.284 2.871 1.026 4.182-.036.179-.073.313-.101.395-.063.18-.206.32-.387.378-1.399.448-2.838.726-4.259.868-.953.096-1.768.119-2.387.1-.053 0-.095-.002-.122-.004h-.05z"
                 transform="translate(0.000000, 0.685585) translate(0.000000, 3.745833)"
                 id="path11" />
              <path
                 d="M14.878 4.902c0 .875-.268 1.709-.755 2.404 1.863.933 3.02 2.14 3.574 3.523 1.058-.08 2.16-.266 3.243-.585.12-.745-.028-1.58-.64-2.383-.484-.634-1.233-1.199-2.296-1.666-.034-.015-.067-.033-.097-.054l-.119-.08c-.326-.222-.355-.692-.06-.952.027-.034.038-.046.072-.083.387-.418.606-.966.606-1.551 0-1.253-1.004-2.267-2.239-2.267h-.054c-.866 0-1.637.502-2.008 1.263.498.7.773 1.545.773 2.43zm2.835.227v-.001zm-4.146 1.916l-.243.554.34-.5-.045-.03-.052-.024zm-.69-.112c.506-.547.793-1.266.793-2.031 0-.724-.256-1.406-.714-1.942-.138-.16-.181-.38-.115-.581C13.305.97 14.616 0 16.113 0h.054c1.905 0 3.447 1.557 3.447 3.475 0 .681-.195 1.332-.552 1.887.956.497 1.683 1.09 2.198 1.766.876 1.148 1.06 2.372.847 3.456-.03.15-.06.262-.086.334-.062.18-.205.32-.386.377-1.452.465-2.931.7-4.327.769-.278.014-.529-.164-.609-.43-.405-1.36-1.524-2.562-3.618-3.482-.034-.015-.066-.033-.097-.054l-.147-.1c-.326-.222-.355-.692-.06-.953.046-.055.056-.067.1-.112zM7.34 7.306c-.487-.695-.755-1.529-.755-2.404 0-1.11.432-2.148 1.177-2.918-.418-.485-1.027-.776-1.687-.776H6.02c-1.235 0-2.238 1.014-2.238 2.267 0 .585.219 1.133.607 1.552.034.037.043.047.07.08.296.261.267.732-.06.954l-.12.081c-.03.02-.062.038-.095.053-1.063.467-1.812 1.032-2.296 1.666-.612.803-.76 1.638-.64 2.383.838.247 1.695.415 2.546.516.565-1.355 1.715-2.537 3.545-3.454zM4.474 5.13zm3.324 1.97l.34.5-.244-.554-.051.023-.045.03zm.826.9l-.148.1c-.03.02-.062.038-.096.053-2.07.91-3.187 2.096-3.604 3.438-.085.272-.349.448-.633.422-1.193-.11-2.409-.338-3.591-.717-.181-.058-.324-.198-.387-.377-.024-.072-.056-.184-.085-.334C-.133 9.5.051 8.276.927 7.128c.516-.675 1.243-1.27 2.199-1.766-.357-.554-.552-1.206-.552-1.887C2.574 1.557 4.115 0 6.02 0h.055C7.34 0 8.484.693 9.088 1.786c.143.26.077.584-.156.767-.714.56-1.14 1.418-1.14 2.349 0 .765.288 1.484.795 2.031.043.046.05.055.088.104.307.268.278.74-.05.961z"
                 transform="translate(0.000000, 0.685585) translate(0.000000, 3.745833)"
                 id="path13" />
            </g>
          </g>
        </g>
        <path
           stroke="#FFF"
           stroke-linecap="round"
           stroke-linejoin="round"
           d="M30.278 6.994c-.907-2.01-3.608-3.397-5.857-3.397h-.047c-2.249 0-4.95 1.388-5.857 3.398l.331 2.602h2.898l.205-2.59h4.893l.205 2.59h2.898l.33-2.603h0z"
           transform="translate(5.873063, 10.000000) translate(24.397663, 6.597392) rotate(-119.000000) translate(-24.397663, -6.597392)"
           id="path21" />
      </g>
    </g>
  </g>
  <path
     style="fill:#ffffff;stroke-width:0.045819"
     d="M 15.166094,29.844075 C 13.87814,29.788111 12.328834,29.559882 11.065292,29.239984 9.786811,28.916304 9.5647637,28.814878 9.4658175,28.509382 9.3354584,28.1069 9.267805,27.482053 9.2935883,26.918671 l 0.026211,-0.572737 -0.650736,-0.106346 C 7.9351915,26.119655 6.7198642,25.821284 6.4138366,25.685913 6.1647351,25.575724 6.053548,25.403195 5.9721324,25.000521 c -0.092833,-0.459142 -0.069832,-1.370948 0.045463,-1.802284 0.3366324,-1.259385 1.2842225,-2.399598 2.653653,-3.193078 0.1827033,-0.105862 0.3321878,-0.202392 0.3321878,-0.214509 0,-0.01212 -0.069846,-0.160727 -0.1552124,-0.330244 -0.8642325,-1.716136 -0.164502,-3.808975 1.5511842,-4.639471 1.339977,-0.64863 2.825412,-0.424877 3.877999,0.584148 l 0.302607,0.290083 0.315949,-0.141788 c 0.627196,-0.281466 0.927682,-0.340176 1.736339,-0.33925 0.564038,6.46e-4 0.801788,0.01991 1.030928,0.08352 0.405425,0.112553 0.858198,0.309511 1.169935,0.508927 0.14271,0.09129 0.275155,0.159786 0.294323,0.152212 0.01917,-0.0076 0.138973,-0.139477 0.266234,-0.293119 0.418899,-0.505737 1.079577,-0.922441 1.751753,-1.104868 0.462407,-0.125497 1.384387,-0.112696 1.832761,0.02545 0.891912,0.274795 1.665329,0.907657 2.080508,1.702414 0.252864,0.484045 0.354338,0.874954 0.380604,1.466208 0.02861,0.644071 -0.07655,1.153097 -0.351884,1.70319 l -0.179856,0.359341 0.192244,0.09769 c 0.321485,0.163373 0.906511,0.565989 1.259004,0.866448 0.487321,0.415386 0.929062,0.986749 1.220114,1.578138 0.355307,0.721948 0.416476,0.9946 0.416317,1.85567 -1.83e-4,1.110399 -0.120075,1.375499 -0.701858,1.552211 -0.824204,0.250344 -1.954908,0.485147 -2.900515,0.602325 l -0.440993,0.05465 0.02336,0.492786 c 0.03983,0.840383 -0.116243,1.648608 -0.357575,1.851675 -0.408382,0.343631 -3.284961,0.935142 -5.15264,1.059539 -0.635215,0.04231 -2.482677,0.05101 -3.298969,0.01554 z m 3.894616,-1.226546 c 1.182292,-0.13755 2.179645,-0.317844 3.106027,-0.561485 0.414081,-0.108904 0.552206,-0.164567 0.59176,-0.238474 0.0654,-0.1222 0.06569,-1.087062 4.12e-4,-1.334179 -0.145116,-0.549276 -0.528948,-1.33619 -0.877149,-1.798287 -0.548095,-0.727378 -1.345946,-1.340211 -2.521183,-1.936536 -0.747338,-0.379202 -0.872604,-0.497095 -0.872604,-0.821234 0,-0.187658 0.02493,-0.248022 0.173574,-0.42031 0.656885,-0.761364 0.882695,-1.31685 0.882695,-2.1714 0,-0.732703 -0.186883,-1.281402 -0.648472,-1.903947 -0.284838,-0.38416 -0.569119,-0.615044 -1.013105,-0.82281 -0.32881,-0.153869 -0.878005,-0.274388 -1.250363,-0.274388 -1.123924,0 -2.170714,0.65504 -2.651095,1.65895 -0.261103,0.54566 -0.324309,0.82243 -0.31698,1.388014 0.0095,0.736471 0.255505,1.370224 0.763626,1.967579 0.257582,0.302819 0.30296,0.394886 0.30296,0.614668 0,0.28344 -0.154166,0.42344 -0.863904,0.784515 -1.553676,0.790424 -2.457134,1.601322 -2.987409,2.681348 -0.319062,0.649842 -0.41883,1.062822 -0.421145,1.743288 -0.0011,0.312767 0.01965,0.592217 0.0478,0.644807 0.11698,0.218579 2.521194,0.703885 4.155935,0.8389 0.640823,0.05293 3.853257,0.02443 4.398625,-0.03902 z m 5.933563,-3.5125 c 0.365406,-0.06093 0.926431,-0.175509 1.246721,-0.254629 l 0.582345,-0.143853 0.03093,-0.206266 c 0.04637,-0.309196 -0.01154,-0.827652 -0.13633,-1.220621 -0.161922,-0.509897 -0.445228,-0.953628 -0.895874,-1.403174 -0.445822,-0.444733 -0.93855,-0.78464 -1.691338,-1.166766 -0.577829,-0.293314 -0.69384,-0.4167 -0.694132,-0.738258 -1.37e-4,-0.162038 0.03669,-0.233721 0.258975,-0.50401 0.65533,-0.796839 0.779629,-1.699868 0.355734,-2.584389 -0.535369,-1.117128 -1.936356,-1.581437 -3.086144,-1.022796 -0.266049,0.129264 -0.800271,0.626614 -0.916625,0.85336 -0.0593,0.115552 -0.05599,0.142706 0.03623,0.297824 0.242037,0.407117 0.427012,0.813252 0.541256,1.188397 0.110144,0.361679 0.122704,0.474972 0.123386,1.112867 6.32e-4,0.592009 -0.01603,0.771193 -0.100138,1.076747 -0.104544,0.379803 -0.350884,0.942384 -0.511278,1.167636 -0.05069,0.07119 -0.09209,0.146878 -0.092,0.168188 9.1e-5,0.02131 0.137174,0.109593 0.304624,0.196184 0.167451,0.08659 0.502426,0.289784 0.74439,0.451541 1.072717,0.71713 1.814504,1.512753 2.316402,2.484522 l 0.217716,0.421537 0.350388,-0.03163 c 0.192713,-0.0174 0.649357,-0.08148 1.014764,-0.142408 z M 9.7980558,24.947986 c 0.3054662,-0.665489 0.9447662,-1.464328 1.6250982,-2.030646 0.407449,-0.339167 1.100945,-0.803598 1.497808,-1.003077 0.151203,-0.076 0.281961,-0.144504 0.290575,-0.15223 0.0086,-0.0077 -0.05533,-0.135178 -0.142099,-0.283224 -0.355579,-0.606702 -0.531827,-1.201329 -0.569998,-1.923062 -0.05437,-1.028 0.220119,-1.940365 0.823113,-2.73591 0.131931,-0.174061 0.260494,-0.345831 0.285694,-0.381711 0.06456,-0.09192 -0.277788,-0.383929 -0.687285,-0.586234 -0.890674,-0.440023 -1.955091,-0.249908 -2.643886,0.472222 -0.4224999,0.442947 -0.6321734,0.970675 -0.6321734,1.591121 0,0.598357 0.1894485,1.089198 0.6026404,1.561375 0.224399,0.256434 0.303426,0.472695 0.244216,0.668318 -0.05991,0.197951 -0.271154,0.366554 -0.7781278,0.621069 -0.682833,0.342802 -1.0735064,0.609371 -1.5249392,1.040517 -0.7984038,0.762524 -1.134206,1.518166 -1.1010122,2.477564 l 0.014267,0.412371 0.3894616,0.103785 c 0.5138695,0.136937 1.6783387,0.364971 2.1325046,0.417602 0.026257,0.003 0.1046207,-0.11839 0.1741428,-0.26985 z"
     id="path55" />
  <path
     style="fill:#ffffff;stroke-width:0.045819"
     d="m 32.099708,21.918911 c -2.0128,-0.422422 -4.053259,-2.010609 -4.998478,-3.890555 -0.850603,-1.691765 -1.013676,-3.982133 -0.406704,-5.712159 0.168987,-0.481653 0.390644,-0.916127 0.625312,-1.225682 l 0.171919,-0.226782 1.282758,-0.515645 c 0.765346,-0.307654 1.347444,-0.5160939 1.443125,-0.5167582 0.0882,-6.124e-4 0.206347,0.03451 0.262546,0.078051 0.117471,0.091012 1.616034,2.7846672 1.616034,2.9048082 0,0.219315 -0.133302,0.339717 -1.06473,0.961699 l -0.952647,0.636151 0.06623,0.128081 c 0.310992,0.601392 1.826544,3.291869 1.871118,3.321694 0.0361,0.02416 0.431717,-0.131773 1.075306,-0.423826 0.560004,-0.254124 1.05485,-0.461966 1.099656,-0.461872 0.235096,4.95e-4 0.350708,0.15849 1.075903,1.470315 0.395737,0.71586 0.741566,1.36084 0.768509,1.433287 0.09995,0.268761 -0.01814,0.390504 -1.258936,1.297826 l -1.145475,0.837621 -0.549828,-0.0028 c -0.361654,-0.0019 -0.697606,-0.03383 -0.981621,-0.09344 z m 1.995792,-1.41631 c 0.450224,-0.328381 0.823621,-0.622195 0.82977,-0.652921 0.01782,-0.08903 -0.934873,-1.752545 -0.995543,-1.738343 -0.03014,0.0071 -0.488653,0.209541 -1.018927,0.449972 -0.530274,0.24043 -1.024414,0.43886 -1.098089,0.440954 -0.07368,0.0021 -0.18951,-0.03761 -0.257411,-0.08823 -0.07852,-0.05854 -0.569558,-0.896029 -1.349114,-2.300984 -1.277303,-2.302018 -1.311836,-2.380275 -1.151434,-2.609282 0.04082,-0.05828 0.478969,-0.374523 0.973654,-0.702752 0.494686,-0.32823 0.90446,-0.620182 0.91061,-0.648783 0.01646,-0.07656 -0.932822,-1.749 -0.986257,-1.737574 -0.154866,0.03311 -1.833989,0.722124 -1.897665,0.778685 -0.112952,0.100332 -0.424963,0.763296 -0.534629,1.135983 -0.34559,1.174455 -0.300912,2.754736 0.11335,4.009164 0.716551,2.169792 2.982073,4.014667 5.195509,4.230841 0.444888,0.04345 0.405305,0.06117 1.266176,-0.566728 z"
     id="path56" />
  <path
     style="fill:#ffffff;stroke-width:0.045819"
     d="m 32.099708,21.918911 c -2.0128,-0.422422 -4.053259,-2.010609 -4.998478,-3.890555 -0.850603,-1.691765 -1.013676,-3.982133 -0.406704,-5.712159 0.168987,-0.481653 0.390644,-0.916127 0.625312,-1.225682 l 0.171919,-0.226782 1.282758,-0.515645 c 0.765346,-0.307654 1.347444,-0.5160939 1.443125,-0.5167582 0.0882,-6.124e-4 0.206347,0.03451 0.262546,0.078051 0.117471,0.091012 1.616034,2.7846672 1.616034,2.9048082 0,0.219369 -0.133299,0.339716 -1.066568,0.962926 l -0.954484,0.637378 0.205028,0.3758 c 0.112766,0.206691 0.544882,0.984048 0.960258,1.727462 0.615041,1.10076 0.77189,1.349843 0.844987,1.341867 0.04937,-0.0054 0.525717,-0.206417 1.058554,-0.446735 0.532838,-0.240318 1.004758,-0.436865 1.048712,-0.436771 0.233381,5e-4 0.350196,0.160368 1.074352,1.470315 0.395737,0.71586 0.741566,1.36084 0.768509,1.433287 0.09951,0.267574 -0.01885,0.389652 -1.258104,1.297646 l -1.144643,0.838673 -0.55066,-0.0033 c -0.360896,-0.0021 -0.699461,-0.03448 -0.982453,-0.09387 z m 1.44571,-1.027732 c 0.544475,-0.365111 1.388204,-1.004078 1.388521,-1.051546 5.17e-4,-0.07791 -0.891279,-1.640045 -0.961587,-1.684382 -0.04669,-0.02944 -0.356261,0.08899 -1.047472,0.400745 -0.539655,0.243399 -1.040801,0.444238 -1.113658,0.44631 -0.07286,0.0021 -0.188021,-0.03765 -0.255922,-0.08827 -0.07852,-0.05854 -0.569558,-0.896029 -1.349114,-2.300984 -1.27547,-2.298714 -1.311649,-2.380542 -1.1528,-2.607331 0.04007,-0.05721 0.471261,-0.370131 0.958195,-0.695377 0.486935,-0.325245 0.898431,-0.612543 0.914435,-0.638439 0.03863,-0.06251 -0.898224,-1.743987 -0.971708,-1.744031 -0.07689,-4.6e-5 -1.804098,0.688077 -1.886577,0.751615 -0.113247,0.08724 -0.497868,0.951567 -0.59323,1.333116 -0.346512,1.386423 -0.212644,3.014734 0.355492,4.324039 0.808644,1.863573 2.92551,3.488028 4.838965,3.713359 0.539152,0.06349 0.54708,0.06205 0.87646,-0.158819 z"
     id="path57" />
</svg>
