<?xml version="1.0" encoding="UTF-8" standalone="no"?>
<svg
   width="80"
   height="80"
   version="1.1"
   id="svg4"
   sodipodi:docname="unmute.svg"
   inkscape:version="1.1 (c68e22c387, 2021-05-23)"
   xmlns:inkscape="http://www.inkscape.org/namespaces/inkscape"
   xmlns:sodipodi="http://sodipodi.sourceforge.net/DTD/sodipodi-0.dtd"
   xmlns:xlink="http://www.w3.org/1999/xlink"
   xmlns="http://www.w3.org/2000/svg"
   xmlns:svg="http://www.w3.org/2000/svg">
   <defs
     id="defs6">
  <sodipodi:namedview
     id="namedview15"
     pagecolor="#ffffff"
     bordercolor="#666666"
     borderopacity="1.0"
     inkscape:pageshadow="2"
     inkscape:pageopacity="0.0"
     inkscape:pagecheckerboard="0"
     showgrid="false"
     inkscape:zoom="3.2539063"
     inkscape:cx="-68.840336"
     inkscape:cy="2.1512605"
     inkscape:window-width="1920"
     inkscape:window-height="1043"
     inkscape:window-x="0"
     inkscape:window-y="0"
     inkscape:window-maximized="1"
     inkscape:current-layer="svg4" />
    <rect
       width="15"
       height="16"
       id="artboard_1"
       x="0"
       y="0" />
    <clipPath
       id="clip_1">
      <use
         xlink:href="#artboard_1"
         clip-rule="evenodd"
         id="use3"
         x="0"
         y="0"
         width="100%"
         height="100%" />
    </clipPath>
  </defs>
  <g
     id="notifs-inactif_alpha"
     clip-path="url(#clip_1)"
     transform="matrix(2.5614426,0,0,2.5614426,19.961774,20)">
    <g
       id="Group"
       transform="translate(0.9909363)">
      <g
         id="Group-21"
         filter="url(#filter_1)">
        <path
           d="m 0.549145,11.7847 c 0.363134,0.3632 0.853445,0.5629 1.379995,0.5629 H 11.9344 c 0.5265,0 1.0168,-0.1997 1.38,-0.5629 0.3813,-0.3814 0.5811,-0.8898 0.5628,-1.4163 C 13.8591,9.8236 13.6411,9.33329 13.2416,8.97016 L 12.7877,8.57068 C 12.606,8.40728 12.5153,8.1712 12.5153,7.93507 V 5.71976 C 12.5153,4.35789 11.9888,2.97789 11.099,1.90652 10.0459,0.671954 8.6296,0 7.06786,0 7.0134,0 6.97704,0 6.94069,0.0181126 6.88623,0 6.83176,0 6.79541,0 5.2338,0 3.79936,0.671824 2.78243,1.8884 1.87451,2.9597 1.36608,4.33983 1.36608,5.70164 v 2.21531 c 0,0.23609 -0.10893,0.47208 -0.27232,0.6356 L 0.639801,8.95204 C 0.240318,9.31517 0.0224514,9.80548 0.00419584,10.3503 -0.0320299,10.8949 0.167718,11.4033 0.549107,11.7847 Z M 1.34801,9.76916 1.80197,9.36968 C 2.20145,9.00654 2.43757,8.47989 2.43757,7.93524 V 5.71992 c 0,-2.85091 2.26979,-4.6122 4.35799,-4.6122 0.05447,0 0.09082,0 0.12717,-0.01811 0.03636,0.01811 0.09082,0.01811 0.12717,0.01811 2.08814,0 4.358,1.76135 4.358,4.6122 v 2.21532 c 0,0.54478 0.2361,1.0713 0.6356,1.43444 l 0.454,0.39948 c 0.1816,0.16339 0.2723,0.38134 0.2723,0.61734 0,0.2361 -0.0908,0.454 -0.2542,0.6356 -0.1453,0.1453 -0.3632,0.236 -0.5993,0.236 H 1.92929 c -0.2361,0 -0.45396,-0.0908 -0.59923,-0.2542 -0.16339,-0.1634 -0.25421,-0.3995 -0.25421,-0.6356 0,-0.236 0.09082,-0.45386 0.27232,-0.59916 z"
           id="Shape"
           fill="#000000"
           stroke="none" />
        <path
           d="m 8.28458,13.1648 c 0,0.7445 -0.61735,1.3618 -1.36188,1.3618 -0.74452,0 -1.36187,-0.6173 -1.36187,-1.3618 0,-0.3087 -0.23609,-0.5448 -0.54478,-0.5448 -0.30868,0 -0.54478,0.2361 -0.54478,0.5448 0,1.3437 1.10766,2.4514 2.45143,2.4514 1.34378,0 2.45144,-1.1077 2.45144,-2.4514 0,-0.3087 -0.2361,-0.5448 -0.54478,-0.5448 -0.30869,0 -0.54478,0.2361 -0.54478,0.5448 z"
           id="Path"
           fill="#000000"
           stroke="none" />
      </g>
    </g>
  </g>
</svg>
