<?xml version="1.0" encoding="UTF-8"?>
<svg width="40px" height="40px" viewBox="0 0 40 40" version="1.1" xmlns="http://www.w3.org/2000/svg" xmlns:xlink="http://www.w3.org/1999/xlink">
    <!-- Generator: Sketch 41 (35326) - http://www.bohemiancoding.com/sketch -->
    <title>options_over</title>
    <desc>Created with Sketch.</desc>
    <defs></defs>
    <g id="Symbols" stroke="none" stroke-width="1" fill="none" fill-rule="evenodd">
        <g id="options_over">
            <path d="M20,40 C31.045695,40 40,31.045695 40,20 C40,8.954305 31.045695,0 20,0 C8.954305,0 0,8.954305 0,20 C0,31.045695 8.954305,40 20,40 Z" fill="#4B5964"></path>
            <path d="M29.0873544,21.9006986 L29.0873544,18.0990443 L27.457167,18.0990443 C27.276035,17.3980628 26.9959394,16.7371962 26.6347091,16.1290447 L27.7891991,14.9803711 L25.0877236,12.2919042 L23.933492,13.441092 C23.3229145,13.0816012 22.6583335,12.8028543 21.9537018,12.6225946 L21.9537018,11 L18.133911,11 L18.133911,12.6225946 C17.4292793,12.8028543 16.765215,13.0816012 16.1538624,13.441092 L14.9993724,12.2919042 L12.298672,14.9803711 L13.453162,16.1290447 C13.0916733,16.7369391 12.8115777,17.3980628 12.6301874,18.0990443 L11,18.0990443 L11,21.9006986 L12.6301874,21.9006986 C12.8115777,22.6019372 13.0916733,23.2630609 13.4523869,23.8712124 L12.298672,25.0196289 L14.9998892,27.7078387 L16.1538624,26.5591651 C16.765215,26.9183988 17.4292793,27.1974028 18.133911,27.3774054 L18.133911,29 L21.9537018,29 L21.9537018,27.3774054 C22.6585919,27.1974028 23.3229145,26.9183988 23.9337503,26.5591651 L25.0877236,27.7078387 L27.7891991,25.0196289 L26.6347091,23.8712124 C26.9959394,23.2630609 27.2762934,22.6019372 27.457167,21.9006986 L29.0873544,21.9006986 L29.0873544,21.9006986 Z M15.9908179,20.0001286 C15.9908179,22.227789 17.8054963,24.0334719 20.0439356,24.0334719 C22.2818581,24.0334719 24.0965365,22.227789 24.0965365,20.0001286 C24.0965365,17.7729825 22.2818581,15.9667852 20.0439356,15.9667852 C17.8054963,15.9667852 15.9908179,17.7729825 15.9908179,20.0001286 L15.9908179,20.0001286 Z" stroke="#FFFFFF" stroke-width="1.5" stroke-linecap="round" stroke-linejoin="round"></path>
        </g>
    </g>
</svg>