<?xml version="1.0" encoding="UTF-8" standalone="no"?>
<svg
   width="20"
   height="20"
   version="1.1"
   id="svg10"
   sodipodi:docname="panel_shown_normal.svg"
   inkscape:version="1.1 (c68e22c387, 2021-05-23)"
   xmlns:inkscape="http://www.inkscape.org/namespaces/inkscape"
   xmlns:sodipodi="http://sodipodi.sourceforge.net/DTD/sodipodi-0.dtd"
   xmlns="http://www.w3.org/2000/svg"
   xmlns:svg="http://www.w3.org/2000/svg">
  <defs
     id="defs14" />
  <sodipodi:namedview
     id="namedview12"
     pagecolor="#ffffff"
     bordercolor="#666666"
     borderopacity="1.0"
     inkscape:pageshadow="2"
     inkscape:pageopacity="0.0"
     inkscape:pagecheckerboard="0"
     showgrid="false"
     inkscape:zoom="38.8"
     inkscape:cx="9.9871134"
     inkscape:cy="10"
     inkscape:window-width="1920"
     inkscape:window-height="1131"
     inkscape:window-x="0"
     inkscape:window-y="0"
     inkscape:window-maximized="1"
     inkscape:current-layer="svg10" />
  <g
     fill="none"
     fill-rule="evenodd"
     id="g8">
    <rect
       fill="#FFC9A9"
       x="1"
       y="1"
       width="5"
       height="18"
       rx="1"
       id="rect2" />
    <path
       d="M17.5 0h-15A2.503 2.503 0 0 0 0 2.5v15C0 18.879 1.121 20 2.5 20h15c1.379 0 2.5-1.121 2.5-2.5v-15C20 1.121 18.879 0 17.5 0zM1.667 17.5v-15c0-.46.373-.833.833-.833h3.333v16.666H2.5a.834.834 0 0 1-.833-.833zm16.666 0c0 .46-.373.833-.833.833h-10V1.667h10c.46 0 .833.373.833.833v15z"
       fill="#4B5964"
       fill-rule="nonzero"
       id="path4" />
    <path
       d="m14 7-3 3m3 3-3-3"
       stroke="#4B5964"
       stroke-width="1.5"
       stroke-linecap="round"
       stroke-linejoin="round"
       id="path6" />
  </g>
</svg>
