<?xml version="1.0" encoding="UTF-8" standalone="no"?>
<svg
   width="20"
   height="20"
   version="1.1"
   id="svg20"
   sodipodi:docname="panel_hidden_normal.svg"
   inkscape:version="1.1 (c68e22c387, 2021-05-23)"
   xmlns:inkscape="http://www.inkscape.org/namespaces/inkscape"
   xmlns:sodipodi="http://sodipodi.sourceforge.net/DTD/sodipodi-0.dtd"
   xmlns="http://www.w3.org/2000/svg"
   xmlns:svg="http://www.w3.org/2000/svg">
  <sodipodi:namedview
     id="namedview22"
     pagecolor="#ffffff"
     bordercolor="#666666"
     borderopacity="1.0"
     inkscape:pageshadow="2"
     inkscape:pageopacity="0.0"
     inkscape:pagecheckerboard="0"
     showgrid="false"
     inkscape:zoom="38.8"
     inkscape:cx="9.9871134"
     inkscape:cy="10"
     inkscape:window-width="1920"
     inkscape:window-height="1131"
     inkscape:window-x="0"
     inkscape:window-y="0"
     inkscape:window-maximized="1"
     inkscape:current-layer="svg20" />
  <defs
     id="defs8">
    <filter
       color-interpolation-filters="auto"
       id="a"
       x="0"
       y="0"
       width="1"
       height="1">
      <feColorMatrix
         in="SourceGraphic"
         values="0 0 0 0 0.588144 0 0 0 0 0.648824 0 0 0 0 0.694542 0 0 0 1.000000 0"
         id="feColorMatrix2" />
    </filter>
    <filter
       color-interpolation-filters="auto"
       id="b"
       x="0"
       y="0"
       width="1"
       height="1">
      <feColorMatrix
         in="SourceGraphic"
         values="0 0 0 0 0.294118 0 0 0 0 0.349020 0 0 0 0 0.392157 0 0 0 1.000000 0"
         id="feColorMatrix5" />
    </filter>
  </defs>
  <g
     fill="none"
     fill-rule="evenodd"
     id="g18">
    <g
       filter="url(#a)"
       id="g14">
      <g
         filter="url(#b)"
         id="g12">
        <path
           d="M17.5 0h-15A2.503 2.503 0 0 0 0 2.5v15C0 18.879 1.121 20 2.5 20h15c1.379 0 2.5-1.121 2.5-2.5v-15C20 1.121 18.879 0 17.5 0zM1.667 17.5v-15c0-.46.373-.833.833-.833h3.333v16.666H2.5a.834.834 0 0 1-.833-.833zm16.666 0c0 .46-.373.833-.833.833h-10V1.667h10c.46 0 .833.373.833.833v15z"
           fill="#000"
           fill-rule="nonzero"
           id="path10" />
      </g>
    </g>
    <path
       d="m11 13 3-3m-3-3 3 3"
       stroke="#96A5B1"
       stroke-width="1.5"
       stroke-linecap="round"
       stroke-linejoin="round"
       id="path16" />
  </g>
</svg>
