<?xml version="1.0" encoding="UTF-8" standalone="no"?>
<svg
   width="80"
   height="80"
   version="1.1"
   id="svg8"
   sodipodi:docname="conference_participants_custom.svg"
   inkscape:version="1.1.1 (3bf5ae0d25, 2021-09-20)"
   xmlns:inkscape="http://www.inkscape.org/namespaces/inkscape"
   xmlns:sodipodi="http://sodipodi.sourceforge.net/DTD/sodipodi-0.dtd"
   xmlns="http://www.w3.org/2000/svg"
   xmlns:svg="http://www.w3.org/2000/svg">
  <defs
     id="defs12" />
  <sodipodi:namedview
     id="namedview10"
     pagecolor="#ffffff"
     bordercolor="#666666"
     borderopacity="1.0"
     inkscape:pageshadow="2"
     inkscape:pageopacity="0.0"
     inkscape:pagecheckerboard="0"
     showgrid="false"
     inkscape:zoom="4.232442"
     inkscape:cx="-17.602131"
     inkscape:cy="66.982607"
     inkscape:window-width="1852"
     inkscape:window-height="1088"
     inkscape:window-x="1983"
     inkscape:window-y="355"
     inkscape:window-maximized="0"
     inkscape:current-layer="svg8" />
  <g
     fill="#000000"
     fill-rule="nonzero"
     id="g6"
     transform="matrix(1.7307618,0,0,1.666979,17.500129,25)">
    <path
       d="m 5.469,15.664 c 1.396,0.418 2.83,0.685 4.25,0.827 a 20.538,20.538 0 0 0 2.697,0.105 h 0.13 l 0.163,0.005 c 0.656,0.019 1.536,-0.006 2.572,-0.11 1.42,-0.142 2.854,-0.409 4.25,-0.827 0.21,-1.138 0.006,-2.425 -0.932,-3.656 -0.713,-0.935 -1.81,-1.762 -3.359,-2.444 A 0.696,0.696 0 0 1 15.128,9.502 L 14.958,9.386 A 0.697,0.697 0 0 1 14.89,8.288 c 0.053,-0.063 0.065,-0.077 0.114,-0.13 0.584,-0.63 0.914,-1.459 0.914,-2.342 0,-1.892 -1.514,-3.423 -3.379,-3.423 h -0.078 c -1.865,0 -3.38,1.531 -3.38,3.423 0,0.883 0.33,1.711 0.916,2.343 0.049,0.053 0.057,0.063 0.101,0.12 0.353,0.309 0.32,0.852 -0.058,1.108 L 9.87,9.503 A 0.696,0.696 0 0 1 9.76,9.564 c -1.55,0.682 -2.647,1.51 -3.359,2.444 -0.938,1.231 -1.143,2.518 -0.932,3.656 z m 7.003,2.324 A 21.9,21.9 0 0 1 9.581,17.878 23.896,23.896 0 0 1 4.674,16.876 0.696,0.696 0 0 1 4.229,16.441 3.567,3.567 0 0 1 4.113,15.985 C 3.815,14.473 4.073,12.767 5.294,11.163 6.048,10.174 7.126,9.308 8.559,8.589 A 4.83,4.83 0 0 1 7.689,5.816 C 7.69,3.158 9.825,1 12.462,1 h 0.078 c 2.637,0 4.771,2.158 4.771,4.816 a 4.83,4.83 0 0 1 -0.87,2.773 c 1.434,0.719 2.512,1.585 3.265,2.574 1.223,1.604 1.48,3.31 1.182,4.822 -0.04,0.207 -0.083,0.361 -0.116,0.456 a 0.696,0.696 0 0 1 -0.445,0.435 23.9,23.9 0 0 1 -4.907,1.002 21.9,21.9 0 0 1 -2.891,0.11 h -0.056 z"
       id="path2" />
    <path
       d="m 17.638,5.688 a 4.906,4.906 0 0 1 -0.864,2.79 c 2.13,1.082 3.455,2.484 4.089,4.088 1.21,-0.094 2.47,-0.309 3.71,-0.678 C 24.71,11.023 24.54,10.054 23.84,9.122 23.286,8.386 22.43,7.731 21.213,7.189 A 0.688,0.688 0 0 1 21.103,7.127 L 20.967,7.033 a 0.707,0.707 0 0 1 -0.069,-1.105 1.23,1.23 0 0 1 0.082,-0.096 2.657,2.657 0 0 0 0.693,-1.8 c 0,-1.454 -1.148,-2.63 -2.56,-2.63 H 19.05 c -0.99,0 -1.873,0.583 -2.297,1.465 0.57,0.814 0.885,1.793 0.885,2.82 z m 3.242,0.263 h 0.001 z M 16.138,8.176 15.86,8.817 16.249,8.238 16.197,8.202 16.137,8.176 Z m -0.79,-0.131 a 3.48,3.48 0 0 0 0.907,-2.357 c 0,-0.84 -0.293,-1.631 -0.817,-2.253 A 0.709,0.709 0 0 1 15.307,2.76 C 15.838,1.126 17.337,0 19.05,0 h 0.062 c 2.18,0 3.944,1.807 3.944,4.032 0,0.79 -0.224,1.547 -0.632,2.19 1.093,0.577 1.925,1.266 2.515,2.05 1.002,1.332 1.213,2.752 0.968,4.01 -0.033,0.173 -0.07,0.304 -0.097,0.387 a 0.696,0.696 0 0 1 -0.443,0.438 c -1.66,0.54 -3.353,0.812 -4.95,0.892 a 0.692,0.692 0 0 1 -0.696,-0.5 c -0.464,-1.577 -1.743,-2.972 -4.14,-4.04 A 0.688,0.688 0 0 1 15.471,9.397 L 15.302,9.28 A 0.707,0.707 0 0 1 15.234,8.175 c 0.053,-0.063 0.064,-0.077 0.113,-0.13 z M 8.81,8.514 A 4.78,4.78 0 0 1 7.904,5.712 c 0,-1.293 0.52,-2.503 1.414,-3.4 A 2.703,2.703 0 0 0 7.293,1.408 H 7.227 c -1.482,0 -2.687,1.18 -2.687,2.641 0,0.682 0.263,1.321 0.729,1.809 0.04,0.043 0.051,0.054 0.083,0.093 A 0.692,0.692 0 0 1 5.281,7.063 L 5.138,7.157 A 0.732,0.732 0 0 1 5.022,7.219 C 3.747,7.763 2.848,8.421 2.267,9.161 1.532,10.096 1.354,11.069 1.497,11.937 2.504,12.224 3.533,12.42 4.554,12.538 5.233,10.96 6.614,9.581 8.81,8.514 Z M 5.372,5.977 V 5.976 Z M 9.362,8.272 9.769,8.854 9.478,8.21 9.416,8.236 Z m 0.992,1.048 -0.177,0.117 a 0.732,0.732 0 0 1 -0.116,0.062 c -2.485,1.06 -3.826,2.442 -4.327,4.006 A 0.725,0.725 0 0 1 4.975,13.997 20.765,20.765 0 0 1 0.664,13.162 0.716,0.716 0 0 1 0.2,12.722 2.954,2.954 0 0 1 0.097,12.332 C -0.159,11.07 0.062,9.645 1.113,8.308 1.732,7.52 2.605,6.828 3.753,6.249 A 3.973,3.973 0 0 1 3.09,4.05 C 3.09,1.814 4.94,0 7.227,0 h 0.066 c 1.518,0 2.892,0.807 3.616,2.08 A 0.69,0.69 0 0 1 10.722,2.975 3.43,3.43 0 0 0 9.355,5.712 c 0,0.892 0.344,1.729 0.954,2.367 0.051,0.054 0.06,0.064 0.105,0.12 a 0.694,0.694 0 0 1 -0.06,1.12 z"
       id="path4" />
  </g>
</svg>
