<?xml version="1.0" encoding="UTF-8" standalone="no"?>
<svg
   width="80"
   height="80"
   version="1.1"
   id="svg10"
   sodipodi:docname="record_custom.svg"
   inkscape:version="1.1 (c68e22c387, 2021-05-23)"
   xmlns:inkscape="http://www.inkscape.org/namespaces/inkscape"
   xmlns:sodipodi="http://sodipodi.sourceforge.net/DTD/sodipodi-0.dtd"
   xmlns="http://www.w3.org/2000/svg"
   xmlns:svg="http://www.w3.org/2000/svg">
  <defs
     id="defs14" />
  <sodipodi:namedview
     id="namedview12"
     pagecolor="#ffffff"
     bordercolor="#666666"
     borderopacity="1.0"
     inkscape:pageshadow="2"
     inkscape:pageopacity="0.0"
     inkscape:pagecheckerboard="0"
     showgrid="false"
     inkscape:zoom="5.45625"
     inkscape:cx="10.171821"
     inkscape:cy="26.208476"
     inkscape:window-width="1920"
     inkscape:window-height="1131"
     inkscape:window-x="0"
     inkscape:window-y="0"
     inkscape:window-maximized="1"
     inkscape:current-layer="svg10" />
  <g
     transform="matrix(2.5165146,0,0,2.5512797,20,16.27564)"
     fill="none"
     fill-rule="evenodd"
     id="g8">
    <circle
       stroke="#000000"
       cx="7.3590002"
       cy="5"
       r="5"
       id="circle2" />
    <circle
       fill="#000000"
       cx="7.3590002"
       cy="5"
       r="3"
       id="circle4" />
    <path
       d="m 0,19 v -5.727 h 2.434 c 0.612,0 1.056,0.052 1.334,0.155 0.277,0.103 0.499,0.286 0.666,0.549 0.166,0.263 0.25,0.563 0.25,0.902 0,0.43 -0.127,0.784 -0.38,1.064 -0.252,0.28 -0.63,0.457 -1.132,0.53 0.25,0.145 0.456,0.306 0.619,0.48 0.163,0.175 0.382,0.484 0.658,0.93 L 5.15,19 H 3.765 L 2.929,17.754 C 2.632,17.309 2.429,17.028 2.319,16.912 A 0.887,0.887 0 0 0 1.972,16.674 C 1.849,16.631 1.655,16.609 1.39,16.609 H 1.155 V 19 Z m 1.156,-3.305 h 0.856 c 0.554,0 0.9,-0.023 1.039,-0.07 A 0.623,0.623 0 0 0 3.375,15.383 0.746,0.746 0 0 0 3.492,14.953 0.687,0.687 0 0 0 3.338,14.486 0.708,0.708 0 0 0 2.902,14.262 9.736,9.736 0 0 0 2.059,14.242 H 1.156 Z M 5.773,19 v -5.727 h 4.247 v 0.97 H 6.93 v 1.269 h 2.875 v 0.965 H 6.93 v 1.558 h 3.199 V 19 Z m 9,-2.105 1.122,0.355 c -0.172,0.625 -0.458,1.09 -0.858,1.393 -0.4,0.303 -0.907,0.455 -1.521,0.455 -0.76,0 -1.386,-0.26 -1.875,-0.78 -0.49,-0.52 -0.735,-1.23 -0.735,-2.13 0,-0.954 0.246,-1.694 0.739,-2.221 0.492,-0.528 1.139,-0.791 1.94,-0.791 0.701,0 1.27,0.207 1.708,0.62 0.26,0.246 0.456,0.597 0.586,1.056 l -1.145,0.273 a 1.214,1.214 0 0 0 -0.423,-0.703 1.214,1.214 0 0 0 -0.784,-0.258 c -0.424,0 -0.769,0.152 -1.033,0.457 -0.264,0.305 -0.396,0.798 -0.396,1.48 0,0.725 0.13,1.24 0.39,1.547 0.26,0.308 0.6,0.461 1.016,0.461 0.307,0 0.572,-0.097 0.793,-0.293 0.221,-0.195 0.38,-0.502 0.476,-0.921 z"
       fill="#000000"
       id="path6" />
  </g>
</svg>
