<?xml version="1.0" encoding="UTF-8" standalone="no"?>
<svg
   width="80"
   height="80"
   version="1.1"
   id="svg8"
   sodipodi:docname="call_screen_sharing_custom.svg"
   inkscape:version="1.1.1 (3bf5ae0d25, 2021-09-20)"
   xmlns:inkscape="http://www.inkscape.org/namespaces/inkscape"
   xmlns:sodipodi="http://sodipodi.sourceforge.net/DTD/sodipodi-0.dtd"
   xmlns="http://www.w3.org/2000/svg"
   xmlns:svg="http://www.w3.org/2000/svg">
  <defs
     id="defs12" />
  <sodipodi:namedview
     id="namedview10"
     pagecolor="#ffffff"
     bordercolor="#666666"
     borderopacity="1.0"
     inkscape:pageshadow="2"
     inkscape:pageopacity="0.0"
     inkscape:pagecheckerboard="0"
     showgrid="false"
     inkscape:zoom="4.061212"
     inkscape:cx="28.93225"
     inkscape:cy="70.545443"
     inkscape:window-width="1458"
     inkscape:window-height="1088"
     inkscape:window-x="2048"
     inkscape:window-y="302"
     inkscape:window-maximized="0"
     inkscape:current-layer="svg8" />
  <g
     fill="none"
     fill-rule="evenodd"
     id="g6"
     transform="matrix(2.0454545,0,0,2.1052632,17.5,20)">
    <path
       d="M 20,0 H 2 C 0.895,0 0,0.85 0,1.9 v 11.4 c 0,1.05 0.895,1.9 2,1.9 h 7 v 1.9 H 7 V 19 h 8 v -1.9 h -2 v -1.9 h 7 c 1.105,0 2,-0.85 2,-1.9 V 1.9 C 22,0.85 21.105,0 20,0 Z m 0,13.3 H 2 V 1.9 h 18 z"
       fill="#000000"
       fill-rule="nonzero"
       id="path2" />
    <path
       d="M 13.806,7.854 11.133,5.18 10.946,4.994 Z m -5.76,0.039 2.9,-2.899 z m 2.898,-2.603 -0.04,5.703 z"
       stroke="#000000"
       stroke-linecap="round"
       stroke-linejoin="round"
       id="path4" />
  </g>
</svg>
