<?xml version="1.0" encoding="UTF-8" standalone="no"?>
<svg
   width="15"
   height="15"
   viewBox="0 0 15 15"
   fill="none"
   version="1.1"
   id="svg10"
   sodipodi:docname="secure_pq_zrtp.svg"
   inkscape:version="1.1.2 (0a00cf5339, 2022-02-04)"
   xmlns:inkscape="http://www.inkscape.org/namespaces/inkscape"
   xmlns:sodipodi="http://sodipodi.sourceforge.net/DTD/sodipodi-0.dtd"
   xmlns="http://www.w3.org/2000/svg"
   xmlns:svg="http://www.w3.org/2000/svg">
  <defs
     id="defs14" />
  <sodipodi:namedview
     id="namedview12"
     pagecolor="#ffffff"
     bordercolor="#666666"
     borderopacity="1.0"
     inkscape:pageshadow="2"
     inkscape:pageopacity="0.0"
     inkscape:pagecheckerboard="0"
     showgrid="false"
     inkscape:zoom="25.052632"
     inkscape:cx="11.415966"
     inkscape:cy="11.296218"
     inkscape:window-width="1920"
     inkscape:window-height="1163"
     inkscape:window-x="1920"
     inkscape:window-y="500"
     inkscape:window-maximized="1"
     inkscape:current-layer="svg10" />
  <path
     fill-rule="evenodd"
     clip-rule="evenodd"
     d="M 7.6357719,14.961926 C 7.5928359,14.986515 7.5442639,15 7.495693,15 7.449704,15 7.404885,14.988329 7.3635906,14.964759 7.2939012,14.925778 5.6359424,13.976423 4.0136432,12.026266 2.5159402,10.223624 0.77984819,7.1954764 1.0229343,3.0055071 1.030208,2.8834212 1.1200754,2.7812561 1.2418528,2.7567007 4.6204301,2.0887976 7.226094,0.18123082 7.3351961,0.09991531 c 0.00376,-0.0027801 0.00822,-0.0064867 0.012912,-0.0092668 l 0.066866,-0.04424872 c 0.097143,-0.06509908 0.2264332,-0.06162404 0.319823,0.0099617 0.025571,0.01992355 2.6258409,1.98377871 6.0217429,2.65516041 0.122002,0.023626 0.211639,0.1267206 0.219214,0.2488064 0.46012,7.9474137 -5.7745014,11.6786487 -6.3141698,11.9853937 -0.00845,0.0053 -0.016653,0.01178 -0.025812,0.0162 z"
     fill="#96c11f"
     id="path2"
     style="stroke-width:0.114041" />
  <path
     d="m 9.1652437,6.9122335 c 0,1.1273286 -0.2080697,2.1342711 -0.5325296,2.8487694 C 8.470335,10.118569 8.2844391,10.390549 8.0924603,10.56936 7.902008,10.746744 7.7186486,10.821611 7.5482699,10.821611 c -0.1703787,0 -0.3537381,-0.07487 -0.5441904,-0.252251 C 6.8121007,10.390549 6.6261934,10.118569 6.4638257,9.7610029 6.1393659,9.0465046 5.9312961,8.0395621 5.9312961,6.9122335 c 0,-1.1273286 0.2080698,-2.1342711 0.5325296,-2.8487694 C 6.6261934,3.7058977 6.8121007,3.4339183 7.0040795,3.2551067 7.1945318,3.077723 7.3778912,3.0028555 7.5482699,3.0028555 c 0.1703787,0 0.3537381,0.074868 0.5441904,0.2522512 0.1919788,0.1788116 0.3778747,0.450791 0.5402538,0.8083574 0.3244599,0.7144983 0.5325296,1.7214408 0.5325296,2.8487694 z"
     stroke="#ffffff"
     stroke-width="0.570206"
     id="path4" />
  <path
     d="M 8.6804362,5.9149682 C 9.589578,6.7157788 10.25499,7.5622894 10.601808,8.2750993 10.775572,8.6322352 10.862983,8.9428098 10.87081,9.1897691 10.8786,9.4359466 10.807881,9.5931376 10.699834,9.6882998 10.5918,9.7834733 10.413353,9.8457741 10.133872,9.8389072 9.8535072,9.8320063 9.5009283,9.7550085 9.0954854,9.6019535 8.2862525,9.2964668 7.3252569,8.7103208 6.4161151,7.9095102 5.5069733,7.1086883 4.8415609,6.2621889 4.4947435,5.5493677 4.3209791,5.1922319 4.2335689,4.8816573 4.2257529,4.6346979 4.2179529,4.3885204 4.2886819,4.2313294 4.396717,4.1361672 4.5047516,4.041005 4.6831988,3.9786929 4.9626911,3.9855712 c 0.280353,0.00689 0.632932,0.083887 1.0383863,0.2369423 0.8092214,0.305498 1.7702285,0.8916328 2.6793588,1.6924547 z"
     stroke="#ffffff"
     stroke-width="0.570206"
     id="path6" />
  <path
     d="M 8.6804477,7.9095102 C 7.7713059,8.7103321 6.8103103,9.2964668 6.0010774,9.6019649 5.5956345,9.7550199 5.2430556,9.8320176 4.9626911,9.8389072 4.6832103,9.8457854 4.5047631,9.7834733 4.3967284,9.6883111 4.2886823,9.5931489 4.2179599,9.435958 4.2257529,9.1897691 4.2335803,8.9428098 4.3209905,8.6322465 4.494755,8.2751107 4.8415609,7.5622894 5.5069848,6.7157901 6.4161266,5.9149682 7.3252569,5.1141576 8.286264,4.5280115 9.0954854,4.2225248 9.5009283,4.0694698 9.8535072,3.9924607 10.133872,3.9855712 c 0.279492,-0.00687 0.457928,0.055434 0.565974,0.1506073 0.108035,0.095162 0.178768,0.2523532 0.170964,0.4985307 -0.0078,0.2469594 -0.09524,0.557534 -0.268991,0.9146698 -0.346817,0.7128099 -1.012241,1.5593206 -1.9213713,2.3601312 z"
     stroke="#ffffff"
     stroke-width="0.570206"
     id="path8" />
</svg>
