<?xml version="1.0" encoding="UTF-8" standalone="no"?>
<svg
   width="19"
   height="21"
   viewBox="0 0 19 21"
   version="1.1"
   id="svg18"
   sodipodi:docname="secure_off.svg"
   inkscape:version="1.1 (c68e22c387, 2021-05-23)"
   xmlns:inkscape="http://www.inkscape.org/namespaces/inkscape"
   xmlns:sodipodi="http://sodipodi.sourceforge.net/DTD/sodipodi-0.dtd"
   xmlns="http://www.w3.org/2000/svg"
   xmlns:svg="http://www.w3.org/2000/svg">
  <defs
     id="defs22" />
  <sodipodi:namedview
     id="namedview20"
     pagecolor="#ffffff"
     bordercolor="#666666"
     borderopacity="1.0"
     inkscape:pageshadow="2"
     inkscape:pageopacity="0.0"
     inkscape:pagecheckerboard="0"
     showgrid="false"
     inkscape:zoom="41.571429"
     inkscape:cx="9.4896907"
     inkscape:cy="10.5"
     inkscape:window-width="1920"
     inkscape:window-height="1092"
     inkscape:window-x="1920"
     inkscape:window-y="33"
     inkscape:window-maximized="1"
     inkscape:current-layer="svg18" />
  <g
     fill="none"
     fill-rule="evenodd"
     id="g16">
    <g
       id="g14">
      <g
         id="g12">
        <g
           id="g10">
          <g
             id="g8">
            <path
               fill="#444"
               fill-opacity=".2"
               d="M9.208 20.924c-.011.008-.023.017-.035.023-.06.034-.127.053-.194.053-.064 0-.126-.016-.183-.05-.096-.054-2.388-1.383-4.63-4.113-2.07-2.524-4.47-6.763-4.134-12.63.01-.17.134-.313.302-.348C5.004 2.924 8.606.254 8.757.14l.018-.012.092-.062c.135-.091.313-.086.442.014.036.028 3.63 2.777 8.324 3.717.169.033.293.178.303.348.636 11.127-7.982 16.35-8.728 16.78"
               transform="translate(-103.000000, -189.000000) translate(73.000000, 89.000000) translate(30.000000, 67.000000) translate(0.000000, 33.000000)"
               id="path2" />
            <path
               fill="#FFF"
               fill-rule="nonzero"
               d="M9.77 15.115c0 .397-.323.719-.72.719-.397 0-.719-.322-.719-.72V4.713c0-.398.322-.72.72-.72.396 0 .718.322.718.72v10.403z"
               transform="translate(-103.000000, -189.000000) translate(73.000000, 89.000000) translate(30.000000, 67.000000) translate(0.000000, 33.000000) translate(9.050235, 9.913249) rotate(-45.000000) translate(-9.050235, -9.913249)"
               id="path4" />
            <path
               fill="#FFF"
               fill-rule="nonzero"
               d="M3.871 10.632c-.397 0-.719-.322-.719-.719 0-.397.322-.719.72-.719h10.403c.397 0 .719.322.719.72 0 .396-.322.718-.72.718H3.872z"
               transform="translate(-103.000000, -189.000000) translate(73.000000, 89.000000) translate(30.000000, 67.000000) translate(0.000000, 33.000000) translate(9.073053, 9.913249) rotate(-45.000000) translate(-9.073053, -9.913249)"
               id="path6" />
          </g>
        </g>
      </g>
    </g>
  </g>
</svg>
