<?xml version="1.0" encoding="UTF-8" standalone="no"?>
<svg
   width="16"
   height="16"
   viewBox="0 0 16 16"
   version="1.1"
   id="svg15"
   sodipodi:docname="timeline_search.svg"
   inkscape:version="1.1 (c68e22c387, 2021-05-23)"
   xmlns:inkscape="http://www.inkscape.org/namespaces/inkscape"
   xmlns:sodipodi="http://sodipodi.sourceforge.net/DTD/sodipodi-0.dtd"
   xmlns="http://www.w3.org/2000/svg"
   xmlns:svg="http://www.w3.org/2000/svg">
  <sodipodi:namedview
     id="namedview17"
     pagecolor="#ffffff"
     bordercolor="#666666"
     borderopacity="1.0"
     inkscape:pageshadow="2"
     inkscape:pageopacity="0.0"
     inkscape:pagecheckerboard="0"
     showgrid="false"
     inkscape:zoom="54.5625"
     inkscape:cx="8"
     inkscape:cy="8"
     inkscape:window-width="1920"
     inkscape:window-height="1092"
     inkscape:window-x="1920"
     inkscape:window-y="33"
     inkscape:window-maximized="1"
     inkscape:current-layer="svg15" />
  <defs
     id="defs5">
    <filter
       id="15qdh5dl2a"
       color-interpolation-filters="auto"
       x="0"
       y="0"
       width="1"
       height="1">
      <feColorMatrix
         in="SourceGraphic"
         values="0 0 0 0 0.294118 0 0 0 0 0.349020 0 0 0 0 0.392157 0 0 0 1.000000 0"
         id="feColorMatrix2" />
    </filter>
  </defs>
  <g
     fill="none"
     fill-rule="evenodd"
     id="g13">
    <g
       id="g11">
      <g
         filter="url(#15qdh5dl2a)"
         transform="translate(-259.000000, -203.000000) translate(49.000000, 196.000000)"
         id="g9">
        <path
           fill="#CBCBCB"
           d="M.605 4.13c.352-.828.828-1.542 1.428-2.142.6-.6 1.315-1.077 2.143-1.429C5.005.207 5.873.03 6.781.03c.908 0 1.776.177 2.605.529.828.352 1.543.829 2.143 1.429.6.6 1.076 1.314 1.428 2.142.353.83.529 1.697.529 2.605 0 1.397-.394 2.664-1.181 3.8l3.266 3.267c.235.235.353.52.353.857 0 .33-.12.616-.362.857-.241.241-.527.362-.857.362-.343 0-.629-.12-.857-.362L10.58 12.26c-1.137.787-2.403 1.181-3.8 1.181-.908 0-1.776-.176-2.605-.529-.828-.352-1.543-.828-2.143-1.428-.6-.6-1.076-1.314-1.428-2.143C.252 8.511.076 7.643.076 6.735c0-.908.176-1.776.529-2.605zm1.91 2.605c0 1.175.417 2.18 1.252 3.015.835.834 1.84 1.252 3.014 1.252 1.175 0 2.18-.418 3.014-1.252.835-.835 1.253-1.84 1.253-3.015 0-1.174-.418-2.18-1.253-3.014-.835-.835-1.84-1.252-3.014-1.252-1.175 0-2.18.417-3.014 1.252-.835.835-1.253 1.84-1.253 3.014z"
           transform="translate(210.000000, 7.000000)"
           id="path7" />
      </g>
    </g>
  </g>
</svg>
