<?xml version="1.0" encoding="UTF-8" standalone="no"?>
<svg
   width="30"
   height="30"
   viewBox="0 0 30 30"
   version="1.1"
   id="svg12"
   sodipodi:docname="timer.svg"
   inkscape:version="1.1 (c68e22c387, 2021-05-23)"
   xmlns:inkscape="http://www.inkscape.org/namespaces/inkscape"
   xmlns:sodipodi="http://sodipodi.sourceforge.net/DTD/sodipodi-0.dtd"
   xmlns="http://www.w3.org/2000/svg"
   xmlns:svg="http://www.w3.org/2000/svg">
  <defs
     id="defs16" />
  <sodipodi:namedview
     id="namedview14"
     pagecolor="#ffffff"
     bordercolor="#666666"
     borderopacity="1.0"
     inkscape:pageshadow="2"
     inkscape:pageopacity="0.0"
     inkscape:pagecheckerboard="0"
     showgrid="false"
     width="30px"
     inkscape:zoom="4.4090909"
     inkscape:cx="84.938144"
     inkscape:cy="99"
     inkscape:window-width="1920"
     inkscape:window-height="1092"
     inkscape:window-x="1920"
     inkscape:window-y="33"
     inkscape:window-maximized="1"
     inkscape:current-layer="svg12" />
  <g
     fill="none"
     fill-rule="evenodd"
     id="g10"
     transform="matrix(0.15097165,0,0,0.15318627,2.0162868,0)">
    <g
       fill="#ff5e00"
       id="g8">
      <path
         d="M 45.544,46.242 36.54,33.206 c -1.61,-2.33 -4.76,-2.88 -7.032,-1.23 l -13.375,9.71 c -2.275,1.65 -2.811,4.88 -1.202,7.209 l 9.08,13.153 m 114.27,0 8.85,-11.353 c 1.603,-2.058 1.069,-4.909 -1.201,-6.37 L 132.59,35.74 c -2.267,-1.456 -5.407,-0.97 -7.011,1.09 l -9.067,11.629 M 93.498,38.78 v -4.83 c 0,-3.089 2.668,-5.619 5.928,-5.619 h 3.27 c 3.263,0 5.932,-2.53 5.932,-5.618 V 5.623 C 108.628,2.53 105.959,0 102.695,0 H 59.355 C 56.097,0 53.43,2.53 53.43,5.622 v 17.09 c 0,3.089 2.667,5.62 5.925,5.62 h 3.275 c 3.261,0 5.929,2.53 5.929,5.619 v 4.83"
         transform="translate(3)"
         id="path2" />
      <path
         fill-rule="nonzero"
         d="m 83,32.963 c -45.726,0 -82.796,36.462 -82.796,81.439 0,44.976 37.07,81.438 82.798,81.438 45.727,0 82.796,-36.462 82.796,-81.438 0,-44.977 -37.07,-81.439 -82.796,-81.439 z m 0,11.634 c 39.195,0 70.97,31.253 70.97,69.805 0,38.55 -31.775,69.804 -70.97,69.804 -39.195,0 -70.97,-31.253 -70.97,-69.804 C 12.03,75.85 43.805,44.597 83,44.597 Z"
         transform="translate(3)"
         id="path4" />
      <path
         d="m 83.001,54.292 c -0.165,0 -0.327,0.015 -0.487,0.015 v 59.615 H 21.9 c -0.003,0.157 -0.012,0.316 -0.012,0.481 0,32.985 27.153,59.838 60.626,60.099 0.16,0 0.322,0.009 0.487,0.009 33.695,0 61.111,-26.96 61.111,-60.108 0,-0.165 -0.011,-0.324 -0.011,-0.481 -0.265,-32.921 -27.568,-59.63 -61.1,-59.63 z"
         transform="translate(3)"
         id="path6" />
    </g>
  </g>
</svg>
