<?xml version="1.0" encoding="UTF-8"?>
<svg width="40px" height="40px" viewBox="0 0 40 40" version="1.1" xmlns="http://www.w3.org/2000/svg" xmlns:xlink="http://www.w3.org/1999/xlink">
    <!-- Generator: Sketch 41.2 (35397) - http://www.bohemiancoding.com/sketch -->
    <title>transfer_clic</title>
    <desc>Created with Sketch.</desc>
    <defs></defs>
    <g id="Symbols" stroke="none" stroke-width="1" fill="none" fill-rule="evenodd">
        <g id="transfer_clic">
            <g id="chat_default-copy-2">
                <path d="M20,40 C31.045695,40 40,31.045695 40,20 C40,8.954305 31.045695,0 20,0 C8.954305,0 0,8.954305 0,20 C0,31.045695 8.954305,40 20,40 Z" id="chat_default" class="color-i-fill" fill="#FE5E00"></path>
                <g id="Group-4" transform="translate(20.000000, 20.000000) rotate(-180.000000) translate(-20.000000, -20.000000) translate(10.000000, 10.000000)" stroke="#FFFFFF" stroke-width="2" stroke-linecap="round" stroke-linejoin="round">
                    <path d="M3.49948648,4.26240154 L3.49948648,15.7427287 L3.50049251,16.5429899 L3.49948648,4.26240154 Z M15.9500062,16.5469565 L3.50049251,16.5429899 L15.9500062,16.5469565 Z M4.13931604,15.9123007 L16.4731373,3.7556686 L4.13931604,15.9123007 Z" id="Imported-Layers" transform="translate(9.986312, 10.151313) rotate(-315.000000) translate(-9.986312, -10.151313) "></path>
                </g>
            </g>
        </g>
    </g>
</svg>