<?xml version="1.0" encoding="UTF-8" standalone="no"?>
<svg
   width="80"
   height="80"
   viewBox="0 0 80 80"
   fill="none"
   version="1.1"
   id="svg6"
   sodipodi:docname="zoom_out_custom.svg"
   inkscape:version="1.1.2 (0a00cf5339, 2022-02-04)"
   xmlns:inkscape="http://www.inkscape.org/namespaces/inkscape"
   xmlns:sodipodi="http://sodipodi.sourceforge.net/DTD/sodipodi-0.dtd"
   xmlns="http://www.w3.org/2000/svg"
   xmlns:svg="http://www.w3.org/2000/svg">
  <defs
     id="defs10" />
  <sodipodi:namedview
     id="namedview8"
     pagecolor="#ffffff"
     bordercolor="#666666"
     borderopacity="1.0"
     inkscape:pageshadow="2"
     inkscape:pageopacity="0.0"
     inkscape:pagecheckerboard="0"
     showgrid="false"
     inkscape:zoom="4.0904163"
     inkscape:cx="8.4343493"
     inkscape:cy="46.694514"
     inkscape:window-width="1920"
     inkscape:window-height="1163"
     inkscape:window-x="1920"
     inkscape:window-y="500"
     inkscape:window-maximized="1"
     inkscape:current-layer="svg6" />
  <path
     d="m 40.891833,35.498167 v 3.203771 h -8.009427 v -3.203771 z"
     fill="#000000"
     id="path2"
     style="stroke-width:2.41936" />
  <path
     fill-rule="evenodd"
     clip-rule="evenodd"
     d="m 21.334125,30.348525 c 0.889431,-2.091347 2.091347,-3.894209 3.605772,-5.408635 1.514426,-1.514425 3.317288,-2.716342 5.408635,-3.605748 C 32.43988,20.444708 34.631365,20 36.923035,20 c 2.29167,0 4.483155,0.444708 6.574478,1.334142 2.091299,0.889406 3.89421,2.091323 5.408732,3.605748 1.51428,1.514426 2.716221,3.317288 3.605579,5.408635 0.8896,2.091348 1.33428,4.282832 1.33428,6.574503 0,3.525668 -0.993633,6.72264 -2.9809,9.591281 l 8.245195,8.245195 C 59.703386,55.35249 60,56.073703 60,56.922899 c 0,0.833472 -0.304598,1.554685 -0.913552,2.163638 -0.608954,0.608954 -1.330167,0.913311 -2.163396,0.913311 -0.865407,0 -1.58662,-0.304356 -2.163638,-0.913311 l -8.244953,-8.221243 c -2.868641,1.987266 -6.065783,2.980899 -9.591426,2.980899 -2.291671,0 -4.483155,-0.444921 -6.574503,-1.334279 -2.091347,-0.889359 -3.894209,-2.091299 -5.408635,-3.605822 -1.514425,-1.51428 -2.716341,-3.31719 -3.605772,-5.408489 C 20.444694,41.406183 20,39.214698 20,36.923028 c 0,-2.291671 0.444694,-4.483155 1.334125,-6.574503 z m 4.819713,6.574503 c 0,2.964762 1.053657,5.500861 3.161045,7.608128 2.107364,2.107508 4.64339,3.161142 7.608152,3.161142 2.964762,0 5.500764,-1.053634 7.608273,-3.161142 2.107266,-2.107267 3.1609,-4.643366 3.1609,-7.608128 0,-2.964738 -1.053634,-5.500764 -3.1609,-7.608152 -2.107509,-2.107364 -4.643511,-3.161045 -7.608273,-3.161045 -2.964762,0 -5.500788,1.053681 -7.608152,3.161045 -2.107388,2.107388 -3.161045,4.643414 -3.161045,7.608152 z"
     fill="#000000"
     id="path4"
     style="stroke-width:2.41936" />
</svg>
