<?xml version="1.0" encoding="UTF-8" standalone="no"?>
<svg
   width="80"
   height="80"
   viewBox="0 0 80 80"
   fill="none"
   version="1.1"
   id="svg6"
   sodipodi:docname="zoom_in_custom.svg"
   inkscape:version="1.1.2 (0a00cf5339, 2022-02-04)"
   xmlns:inkscape="http://www.inkscape.org/namespaces/inkscape"
   xmlns:sodipodi="http://sodipodi.sourceforge.net/DTD/sodipodi-0.dtd"
   xmlns="http://www.w3.org/2000/svg"
   xmlns:svg="http://www.w3.org/2000/svg">
  <defs
     id="defs10" />
  <sodipodi:namedview
     id="namedview8"
     pagecolor="#ffffff"
     bordercolor="#666666"
     borderopacity="1.0"
     inkscape:pageshadow="2"
     inkscape:pageopacity="0.0"
     inkscape:pagecheckerboard="0"
     showgrid="false"
     inkscape:zoom="5.7847222"
     inkscape:cx="3.8895558"
     inkscape:cy="51.687875"
     inkscape:window-width="1920"
     inkscape:window-height="1163"
     inkscape:window-x="1920"
     inkscape:window-y="500"
     inkscape:window-maximized="1"
     inkscape:current-layer="svg6" />
  <path
     fill-rule="evenodd"
     clip-rule="evenodd"
     d="m 21.334123,30.348539 c 0.889432,-2.091349 2.091349,-3.894212 3.605775,-5.408638 1.514427,-1.514427 3.31729,-2.716344 5.408639,-3.605775 C 32.439886,20.444718 34.631372,20 36.923044,20 c 2.291672,0 4.483158,0.444718 6.574459,1.334126 2.0913,0.889431 3.894212,2.091348 5.408735,3.605775 1.514281,1.514426 2.716223,3.317289 3.605824,5.408639 0.889358,2.091348 1.334038,4.282834 1.334038,6.574507 0,3.525645 -0.993634,6.72262 -2.98066,9.591263 l 8.244959,8.2452 C 59.703386,55.352496 60,56.073709 60,56.922907 c 0,0.833472 -0.304598,1.554685 -0.913553,2.16364 -0.608954,0.608954 -1.330168,0.913311 -2.163397,0.913311 -0.865408,0 -1.586621,-0.304357 -2.163398,-0.913311 l -8.2452,-8.221249 c -2.868643,1.987267 -6.065763,2.980901 -9.591408,2.980901 -2.291673,0 -4.483159,-0.444922 -6.574507,-1.334281 -2.091349,-0.889358 -3.894212,-2.0913 -5.408639,-3.605823 C 23.425472,47.391814 22.223555,45.588902 21.334123,43.497601 20.444716,41.406204 20,39.214718 20,36.923047 c 0,-2.291673 0.444716,-4.483159 1.334123,-6.574508 z m 4.819716,6.574507 c 0,2.964764 1.053683,5.500841 3.161048,7.608109 2.107389,2.10751 4.643417,3.161144 7.608157,3.161144 2.964764,0 5.500743,-1.053634 7.608253,-3.161144 2.107269,-2.107268 3.160903,-4.643345 3.160903,-7.608109 0,-2.96474 -1.053635,-5.500768 -3.160903,-7.608157 -2.10751,-2.107388 -4.643489,-3.161047 -7.608253,-3.161047 -2.96474,0 -5.500768,1.053658 -7.608157,3.161047 -2.107365,2.107389 -3.161048,4.643417 -3.161048,7.608157 z"
     fill="#000000"
     id="path2"
     style="stroke-width:2.41936" />
  <path
     d="m 43.167259,36.555472 v 2.965151 H 31.377542 v -2.965151 z m -4.276447,-4.666256 v 12.52218 h -3.22504 v -12.52218 z"
     fill="#000000"
     id="path4"
     style="stroke-width:2.41936" />
</svg>
