<svg xmlns="http://www.w3.org/2000/svg" width="20" height="20"><rect id="backgroundrect" width="100%" height="100%" x="0" y="0" fill="none" stroke="none"/><title>emoji-symbol-outline-20</title><g class="currentLayer" style=""><title>Layer 1</title><path d="M15.438202261924744,4.061797738075256 A1.5,1.5 0 0 1 16.938202261924744,5.561797738075256 V15.561797738075256 A1.5,1.5 0 0 1 15.438202261924744,17.061797738075256 H3.4382022619247437 A1.5,1.5 0 0 1 1.9382022619247437,15.561797738075256 V5.561797738075256 A1.5,1.5 0 0 1 3.4382022619247437,4.061797738075256 H15.438202261924744 M15.438202261924744,2.5617977380752563 H3.4382022619247437 A3,3 0 0 0 0.43820226192474365,5.561797738075256 V15.561797738075256 a3,3 0 0 0 3,3 H15.438202261924744 a3,3 0 0 0 3,-3 V5.561797738075256 a3,3 0 0 0 -3,-3 zM9.449202261924743,15.561797738075256 l0.523,-2.46 H7.838202261924744 L7.311202261924744,15.561797738075256 H5.819202261924744 l0.524,-2.46 H4.267202261924743 V11.650797738075257 H6.6452022619247435 l0.464,-2.178 H5.032202261924744 V8.021797738075257 h2.38 L7.938202261924744,5.561797738075256 H9.428202261924744 L8.904202261924743,8.021797738075257 H11.038202261924743 L11.565202261924744,5.561797738075256 h1.492 L12.538202261924743,8.021797738075257 h2.076 V9.472797738075256 H12.231202261924743 l-0.464,2.178 h2.077 V13.101797738075255 h-2.38 L10.938202261924744,15.561797738075256 zM10.738202261924744,9.472797738075256 H8.601202261924744 L8.138202261924743,11.650797738075257 h2.138 z" id="svg_1" class="selected" fill="#1aebeb" fill-opacity="1"/></g></svg>