<svg xmlns="http://www.w3.org/2000/svg" width="512" height="512.001"><rect id="backgroundrect" width="100%" height="100%" x="0" y="0" fill="none" stroke="none"/><g class="currentLayer" style=""><title>Layer 1</title><path d="m262.03695557185364,248.31820533343506 c33.882813,0 63.21875,-12.152343 87.195313,-36.128906 c23.96875,-23.972656 36.125,-53.304687 36.125,-87.191406 c0,-33.875 -12.152344,-63.210938 -36.128906,-87.191406 c-23.976563,-23.96875 -53.3125,-36.121094 -87.191407,-36.121094 c-33.886718,0 -63.21875,12.152344 -87.191406,36.125 s-36.128906,53.308594 -36.128906,87.1875 c0,33.886719 12.15625,63.222656 36.128906,87.195312 c23.980469,23.96875 53.316406,36.125 87.191406,36.125 zm-65.972656,-189.292968 c18.394532,-18.394532 39.972656,-27.335938 65.972656,-27.335938 c25.996094,0 47.578126,8.941406 65.976563,27.335938 c18.394531,18.398437 27.339844,39.980468 27.339844,65.972656 c0,26 -8.945313,47.578125 -27.339844,65.976562 c-18.398437,18.398438 -39.980469,27.339844 -65.976563,27.339844 c-25.992187,0 -47.570312,-8.945312 -65.972656,-27.339844 c-18.398437,-18.394531 -27.34375,-39.976562 -27.34375,-65.976562 c0,-25.992188 8.945313,-47.574219 27.34375,-65.972656 zm0,0 " id="svg_1" class="" fill="#1aebeb" fill-opacity="1"/><path d="m473.88171600137326,376.8491921424866 c-0.6914060000000002,-9.976563 -2.089844,-20.859375 -4.148437,-32.351563 c-2.078125,-11.578124 -4.753907,-22.523437 -7.957031,-32.527343 c-3.3125,-10.339844 -7.808594,-20.550781 -13.375,-30.335938 c-5.769532,-10.15625 -12.550782,-19 -20.160157,-26.277343 c-7.957031,-7.613282 -17.699219,-13.734376 -28.964843000000002,-18.199219 c-11.226563,-4.441407 -23.667969,-6.691407 -36.976563,-6.691407 c-5.226563,0 -10.28125,2.144532 -20.042969,8.5 c-6.007812,3.9179690000000003 -13.035156,8.449219 -20.878906,13.460938 c-6.707031,4.273438 -15.792969,8.277344 -27.015625,11.902344 c-10.949219,3.542968 -22.066406,5.339844 -33.042969,5.339844 c-10.96875,0 -22.085937,-1.7968760000000001 -33.042968,-5.339844 c-11.210938,-3.6210940000000003 -20.300782,-7.625 -26.996094,-11.898438 c-7.769532,-4.964844 -14.800782,-9.496094 -20.898438,-13.46875 c-9.753906,-6.355468 -14.808594,-8.5 -20.035156,-8.5 c-13.3125,0 -25.75,2.253906 -36.972656,6.699219 c-11.257813,4.457031 -21.003906,10.578125 -28.96875,18.199219 c-7.609375,7.28125 -14.390625,16.121094 -20.15625,26.273437 c-5.558594,9.785157 -10.058594,19.992188 -13.371094,30.339844 c-3.1992190000000003,10.003906 -5.875,20.945313 -7.953125,32.523437 c-2.0625,11.476563 -3.4570309999999997,22.363282 -4.148437,32.363282 c-0.6796880000000004,9.777344 -1.023438,19.953125 -1.023438,30.234375 c0,26.726562 8.496094,48.363281 25.25,64.320312 c16.546875,15.746094 38.4375,23.730469 65.066406,23.730469 h246.53125 c26.621094,0 48.511719,-7.984375 65.0625,-23.730469 c16.757813,-15.945312 25.253906,-37.589843 25.253906,-64.324219 c-0.003906000000000002,-10.316406 -0.3515620000000001,-20.492187 -1.035156,-30.242187 zm-44.90625,72.828125 c-10.933594,10.40625 -25.449218,15.464844 -44.378906,15.464844 h-246.527344 c-18.933594,0 -33.449218,-5.058594 -44.378906,-15.460938 c-10.722656,-10.207031 -15.933594,-24.140625 -15.933594,-42.585937 c0,-9.59375 0.3164060000000002,-19.066407 0.949219,-28.160157 c0.617187,-8.921874 1.8789060000000002,-18.722656 3.75,-29.136718 c1.8476560000000002,-10.285156 4.199219,-19.9375 6.996094,-28.675782 c2.683593,-8.378906 6.34375,-16.675781 10.882812,-24.667968000000002 c4.332031,-7.6171880000000005 9.316407,-14.152344 14.816407,-19.417969 c5.144531,-4.925781 11.628906,-8.957031 19.269531,-11.980469 c7.066406,-2.796875 15.007812,-4.328125 23.628906,-4.558594 c1.050781,0.558594 2.921875,1.625 5.953125,3.601563 c6.167969,4.019531 13.277344,8.605469 21.136719,13.625 c8.859375,5.648437 20.273437,10.75 33.910156,15.152344 c13.941406,4.5078119999999995 28.160156,6.796875 42.273437,6.796875 c14.113282,0 28.335938,-2.289063 42.269532,-6.792969 c13.648437,-4.410156 25.058594,-9.507813 33.929687,-15.164063 c8.042969,-5.140624 14.953125,-9.59375 21.121094,-13.617187 c3.03125,-1.972656 4.902344,-3.042969 5.953125,-3.601563 c8.625,0.23046900000000006 16.566406,1.7617190000000005 23.636719,4.558594 c7.636719,3.023438 14.121093,7.058594 19.265625,11.980469 c5.5,5.261719 10.484375,11.796875 14.816406,19.421875 c4.542969,7.988281 8.207031,16.289062 10.886719,24.660156 c2.800781,8.75 5.15625,18.398438 7,28.675782 c1.867187,10.433593 3.132812,20.238281 3.75,29.144531 v0.007812000000000004 c0.6367190000000003,9.058594 0.9570310000000002,18.527344 0.960937,28.148438 c-0.003906000000000002,18.449219 -5.214844,32.378906 -15.9375,42.582031 zm0,0 " id="svg_2" class="" fill="#1aebeb" fill-opacity="1"/></g></svg>