<?xml version="1.0" encoding="UTF-8" standalone="no"?>
<svg width="534px" height="534px" viewBox="0 0 534 534" version="1.1" xmlns="http://www.w3.org/2000/svg" xmlns:xlink="http://www.w3.org/1999/xlink" xmlns:sketch="http://www.bohemiancoding.com/sketch/ns">
    <!-- Generator: Sketch 3.4.4 (17249) - http://www.bohemiancoding.com/sketch -->
    <title>logo</title>
    <desc>Created with Sketch.</desc>
    <defs></defs>
    <g id="Page-1" stroke="none" stroke-width="1" fill="none" fill-rule="evenodd" sketch:type="MSPage">
        <g id="logo" sketch:type="MSLayerGroup" transform="translate(1.000000, 1.000000)">
            <g id="Page-1" sketch:type="MSShapeGroup">
                <g id="dialer_background">
                    <g id="Page-1">
                        <g id="logo">
                            <g id="OUTILS">
                                <g id="icon-LP">
                                    <g id="Rectangle-843-Copy-8-+-splashscreen-copy-6">
                                        <rect id="Rectangle-843-Copy-8" stroke="#979797" class="color-i-fill" fill="#FE5E00" x="0" y="0" width="532" height="532" rx="23"></rect>
                                        <g id="splashscreen-copy-6" transform="translate(93.618501, 118.571717)" fill="#FFFFFF">
                                            <g id="Fill-1-+-Fill-2-+-Fill-1-+-Fill-2-+-Fill-3">
                                                <g id="Fill-1-+-Fill-2" transform="translate(0.000000, 0.235647)">
                                                    <path d="M82.4012401,272.784215 C93.2990456,277.937524 107.63243,282.536715 125.41063,287.108199 C143.73372,291.125564 164.96597,293.434395 187.897539,293.988514 C203.939478,293.988514 219.418056,292.834099 233.760676,289.407794 C248.657422,286.544844 261.263782,281.954889 273.306781,275.647164 C279.032746,272.784215 285.922376,268.766849 293.947963,263.04095 C301.391718,257.305815 308.844709,250.434735 316.870297,241.83665 C323.75069,233.811155 330.058489,224.058655 334.648496,212.588385 C339.801865,201.118115 342.674084,188.511901 342.674084,174.760506 C342.092251,150.674786 336.366286,128.888661 324.332522,109.974722 C314.007313,93.9144965 300.819122,79.590512 285.340543,68.1294773 L310.571735,0.489978379 L223.444703,36.0182624 C221.145081,35.4364371 218.854694,34.8823178 217.118435,34.2912572 C194.768697,27.4294129 173.554919,24.5572277 152.932206,23.9846378 C125.973991,24.5572277 101.324633,28.5653575 79.5474927,36.5908524 C58.9063102,45.1981726 41.7099425,56.6684426 27.9399187,71.5650171 C14.1883658,87.0434169 5.59018202,104.812177 2.15460265,126.025711 C-0.717615578,146.084831 -0.145019017,164.444651 3.85392148,180.47717 C8.45316482,196.537396 14.7609624,210.298025 23.9317428,222.33165 C31.9665655,234.956335 41.7099425,245.27219 52.0166806,253.297685 C62.3418896,261.304709 72.6578631,267.62167 82.4012401,272.784215 L82.4012401,272.784215 L82.4012401,272.784215 L82.4012401,272.784215 L82.4012401,272.784215 Z M122.538412,271.066445 C106.487237,266.485725 93.8716421,261.89577 84.7100971,256.723989 C76.6752744,252.14327 67.4952586,245.835545 58.3337137,238.38264 C49.7355298,230.929735 41.7099425,222.33165 34.8203129,211.443205 C27.3765577,201.118115 22.7865497,189.084491 20.4961634,175.342331 C17.6331807,155.264741 18.7783738,138.068571 24.5043394,124.307942 C30.230305,110.547312 38.2558923,99.0770416 48.5811012,91.0515467 C59.4881422,82.4442265 70.930838,76.1549722 82.983072,71.5650171 C95.0260707,67.547652 106.487237,64.6939375 117.385042,62.9669323 C127.701016,61.8309876 135.717368,60.6765724 140.879973,60.6765724 C159.803365,60.6765724 178.717523,63.5395222 197.049848,68.7020673 C215.964005,73.855377 233.760676,81.8808719 249.79338,92.205962 C265.281194,103.094407 278.469385,116.273211 288.221997,132.324201 C293.947963,142.076701 297.965374,150.674786 300.819122,159.854696 C303.682105,168.452781 305.40913,177.041631 305.40913,185.067125 C304.836533,201.118115 299.683164,216.58728 289.357955,230.357145 C279.623814,244.690365 264.708597,255.569574 245.221843,264.176894 C226.29845,273.356805 203.939478,277.383405 178.154162,277.383405 C156.931147,277.383405 138.589586,275.08381 122.538412,271.066445 L122.538412,271.066445 L122.538412,271.066445 L122.538412,271.066445 L122.538412,271.066445 Z" id="Fill-1"></path>
                                                    <path d="M135.264832,250.933443 C159.997309,257.435109 186.179749,259.836293 207.744474,254.572159 C248.39883,244.690365 261.503903,231.142147 259.407461,197.026868 C259.407461,197.026868 260.164766,180.587994 225.485732,181.206761 C217.792621,181.345291 198.185806,185.445774 195.387471,193.877623 C192.598371,202.318707 196.818963,210.86138 197.040613,215.00804 C197.271498,219.136229 185.838038,224.742069 181.017145,225.213071 C174.773995,225.841072 159.009118,224.834422 143.124182,220.918646 L142.431524,220.743175 C126.675884,216.291749 112.490265,209.383729 107.373838,205.763482 C103.421075,202.974415 96.2266764,192.446148 98.4708855,188.973667 C100.705859,185.482715 108.592915,180.126228 110.356882,171.426555 C112.093142,162.699175 97.039394,149.464959 90.4360628,145.539947 C60.5779227,127.872776 53.1156966,142.556938 53.1156966,142.556938 C34.4508958,171.167966 39.1517289,189.426197 69.6194071,218.111108 C85.7998777,233.321683 109.728873,244.182422 134.442879,250.72103 L135.264832,250.933443" id="Fill-2"></path>
                                                </g>
                                            </g>
                                        </g>
                                    </g>
                                </g>
                            </g>
                        </g>
                    </g>
                </g>
            </g>
        </g>
    </g>
</svg>