<?xml version="1.0" encoding="UTF-8" standalone="no"?>
<svg
   xmlns:dc="http://purl.org/dc/elements/1.1/"
   xmlns:cc="http://creativecommons.org/ns#"
   xmlns:rdf="http://www.w3.org/1999/02/22-rdf-syntax-ns#"
   xmlns:svg="http://www.w3.org/2000/svg"
   xmlns="http://www.w3.org/2000/svg"
   xmlns:sodipodi="http://sodipodi.sourceforge.net/DTD/sodipodi-0.dtd"
   xmlns:inkscape="http://www.inkscape.org/namespaces/inkscape"
   width="20"
   height="20"
   viewBox="0 0 20 20"
   version="1.1"
   id="svg12"
   sodipodi:docname="attachment_hovered.svg"
   inkscape:version="0.92.2 2405546, 2018-03-11">
  <metadata
     id="metadata16">
    <rdf:RDF>
      <cc:Work
         rdf:about="">
        <dc:format>image/svg+xml</dc:format>
        <dc:type
           rdf:resource="http://purl.org/dc/dcmitype/StillImage" />
        <dc:title>attachment_over</dc:title>
      </cc:Work>
    </rdf:RDF>
  </metadata>
  <sodipodi:namedview
     pagecolor="#ffffff"
     bordercolor="#666666"
     borderopacity="1"
     objecttolerance="10"
     gridtolerance="10"
     guidetolerance="10"
     inkscape:pageopacity="0"
     inkscape:pageshadow="2"
     inkscape:window-width="868"
     inkscape:window-height="480"
     id="namedview14"
     showgrid="false"
     inkscape:zoom="11.8"
     inkscape:cx="-0.46084886"
     inkscape:cy="10"
     inkscape:window-x="0"
     inkscape:window-y="35"
     inkscape:window-maximized="0"
     inkscape:current-layer="svg12" />
  <!-- Generator: Sketch 40.3 (33839) - http://www.bohemiancoding.com/sketch -->
  <title
     id="title2">attachment_over</title>
  <desc
     id="desc4">Created with Sketch.</desc>
  <defs
     id="defs6" />
  <g
     id="Symbols"
     style="fill:none;fill-rule:evenodd;stroke:none;stroke-width:1"
     transform="translate(5)">
    <g
       id="attachment_over"
       style="fill:#4b5964">
      <path
         d="m 8.7625235,14.955155 c -0.00157,2.069833 -1.6891046,3.769579 -3.7656544,3.793784 -2.0773325,0.0203 -3.7593926,-1.64275 -3.7570444,-3.711803 V 3.7807088 c 0,-1.381971 1.1271133,-2.5156557 2.5125235,-2.5297097 1.3838447,-0.015616 2.5023481,1.0915229 2.5023481,2.4742747 V 14.982482 c 0,0.690985 -0.5651221,1.255485 -1.2570445,1.264074 -0.6919223,0.0078 -1.2492172,-0.545761 -1.2507827,-1.238309 V 5.0041826 L 2.4929555,5.016675 v 10.004846 c 0,1.381971 1.1208516,2.48989 2.5070445,2.475836 1.383062,-0.01562 2.5070445,-1.146958 2.5086099,-2.527367 V 3.7120006 C 7.510958,1.6421672 5.8288979,-0.02088269 3.7507827,1.9822272e-4 1.6750156,0.02362146 0.00313087,1.7210254 0,3.7916396 V 15.674248 c 0.30447715,2.463344 2.4397307,4.351257 4.994521,4.325491 C 7.5524421,19.970851 9.6908266,18.039214 10,15.567282 V 2.4440227 H 8.7625235 Z"
         id="path8"
         inkscape:connector-curvature="0" />
    </g>
  </g>
</svg>
