<?xml version="1.0" encoding="UTF-8"?>
<svg width="40px" height="40px" viewBox="0 0 40 40" version="1.1" xmlns="http://www.w3.org/2000/svg" xmlns:xlink="http://www.w3.org/1999/xlink">
    <!-- Generator: Sketch 42 (36781) - http://www.bohemiancoding.com/sketch -->
    <title>record_over</title>
    <desc>Created with Sketch.</desc>
    <defs></defs>
    <g id="Symbols" stroke="none" stroke-width="1" fill="none" fill-rule="evenodd">
        <g id="record_over">
            <path d="M20,40 C31.045695,40 40,31.045695 40,20 C40,8.954305 31.045695,0 20,0 C8.954305,0 0,8.954305 0,20 C0,31.045695 8.954305,40 20,40 Z" fill="#E8E8E8" opacity="0.85"></path>
            <circle class="color-i-stroke" stroke="#FE5E00" cx="19.5" cy="15.5" r="5"></circle>
            <circle class="color-i-fill" fill="#FE5E00" cx="19.5" cy="15.5" r="3"></circle>
            <path d="M12.140625,29.5 L12.140625,23.7734375 L14.5742188,23.7734375 C15.186201,23.7734375 15.630858,23.8248693 15.9082031,23.9277344 C16.1855483,24.0305995 16.4075513,24.2135404 16.5742188,24.4765625 C16.7408862,24.7395846 16.8242188,25.0403629 16.8242188,25.3789062 C16.8242188,25.8085959 16.6979179,26.1634101 16.4453125,26.4433594 C16.1927071,26.7233087 15.8151067,26.8997392 15.3125,26.9726562 C15.5625013,27.1184903 15.7688794,27.278645 15.9316406,27.453125 C16.0944019,27.627605 16.3138007,27.9374978 16.5898438,28.3828125 L17.2890625,29.5 L15.90625,29.5 L15.0703125,28.2539062 C14.773436,27.8085915 14.570313,27.5279954 14.4609375,27.4121094 C14.351562,27.2962234 14.2356777,27.2167971 14.1132812,27.1738281 C13.9908848,27.1308592 13.7968763,27.109375 13.53125,27.109375 L13.296875,27.109375 L13.296875,29.5 L12.140625,29.5 Z M13.296875,26.1953125 L14.1523438,26.1953125 C14.707034,26.1953125 15.0533847,26.1718752 15.1914062,26.125 C15.3294278,26.0781248 15.4374996,25.9973964 15.515625,25.8828125 C15.5937504,25.7682286 15.6328125,25.6250009 15.6328125,25.453125 C15.6328125,25.2604157 15.5813807,25.1048183 15.4785156,24.9863281 C15.3756505,24.8678379 15.2304697,24.7929689 15.0429688,24.7617188 C14.9492183,24.7486979 14.6679711,24.7421875 14.1992188,24.7421875 L13.296875,24.7421875 L13.296875,26.1953125 Z M17.9140625,29.5 L17.9140625,23.7734375 L22.1601562,23.7734375 L22.1601562,24.7421875 L19.0703125,24.7421875 L19.0703125,26.0117188 L21.9453125,26.0117188 L21.9453125,26.9765625 L19.0703125,26.9765625 L19.0703125,28.5351562 L22.2695312,28.5351562 L22.2695312,29.5 L17.9140625,29.5 Z M26.9140625,27.3945312 L28.0351562,27.75 C27.8632804,28.3750031 27.577476,28.8391912 27.1777344,29.1425781 C26.7779928,29.4459651 26.2708364,29.5976562 25.65625,29.5976562 C24.8958295,29.5976562 24.2708358,29.3378932 23.78125,28.8183594 C23.2916642,28.2988255 23.046875,27.5885462 23.046875,26.6875 C23.046875,25.7343702 23.2929663,24.9941433 23.7851562,24.4667969 C24.2773462,23.9394505 24.9244752,23.6757812 25.7265625,23.6757812 C26.4270868,23.6757812 26.9960916,23.8828104 27.4335938,24.296875 C27.6940117,24.5416679 27.8893223,24.8932269 28.0195312,25.3515625 L26.875,25.625 C26.8072913,25.3281235 26.6660167,25.0937509 26.4511719,24.921875 C26.2363271,24.7499991 25.975262,24.6640625 25.6679688,24.6640625 C25.2434875,24.6640625 24.8990899,24.8164047 24.6347656,25.1210938 C24.3704414,25.4257828 24.2382812,25.9192674 24.2382812,26.6015625 C24.2382812,27.3255245 24.3684883,27.8411443 24.6289062,28.1484375 C24.8893242,28.4557307 25.2278625,28.609375 25.6445312,28.609375 C25.9518245,28.609375 26.2161447,28.5117197 26.4375,28.3164062 C26.6588553,28.1210928 26.8177079,27.8138042 26.9140625,27.3945312 Z" class="color-i-fill" fill="#FE5E00"></path>
        </g>
    </g>
</svg>