<?xml version="1.0" encoding="UTF-8" standalone="no"?>
<svg
   xmlns:dc="http://purl.org/dc/elements/1.1/"
   xmlns:cc="http://creativecommons.org/ns#"
   xmlns:rdf="http://www.w3.org/1999/02/22-rdf-syntax-ns#"
   xmlns:svg="http://www.w3.org/2000/svg"
   xmlns="http://www.w3.org/2000/svg"
   xmlns:sodipodi="http://sodipodi.sourceforge.net/DTD/sodipodi-0.dtd"
   xmlns:inkscape="http://www.inkscape.org/namespaces/inkscape"
   width="19"
   height="19"
   viewBox="0 0 19 19"
   version="1.1"
   id="svg11"
   sodipodi:docname="settings_network_normal.svg"
   inkscape:version="0.92.2 2405546, 2018-03-11">
  <metadata
     id="metadata15">
    <rdf:RDF>
      <cc:Work
         rdf:about="">
        <dc:format>image/svg+xml</dc:format>
        <dc:type
           rdf:resource="http://purl.org/dc/dcmitype/StillImage" />
        <dc:title>settings_network_default</dc:title>
      </cc:Work>
    </rdf:RDF>
  </metadata>
  <sodipodi:namedview
     pagecolor="#ffffff"
     bordercolor="#666666"
     borderopacity="1"
     objecttolerance="10"
     gridtolerance="10"
     guidetolerance="10"
     inkscape:pageopacity="0"
     inkscape:pageshadow="2"
     inkscape:window-width="868"
     inkscape:window-height="480"
     id="namedview13"
     showgrid="false"
     inkscape:zoom="12.421053"
     inkscape:cx="8.5"
     inkscape:cy="9.5"
     inkscape:window-x="0"
     inkscape:window-y="35"
     inkscape:window-maximized="0"
     inkscape:current-layer="svg11" />
  <!-- Generator: Sketch 42 (36781) - http://www.bohemiancoding.com/sketch -->
  <title
     id="title2">settings_network_default</title>
  <desc
     id="desc4">Created with Sketch.</desc>
  <defs
     id="defs6" />
  <g
     id="Symbols"
     style="fill:none;fill-rule:evenodd;stroke:none;stroke-width:1"
     transform="translate(1)">
    <g
       id="settings_network_default"
       style="fill:#ffffff">
      <path
         d="m 12.603706,3.0788324 c 0,-0.8519871 0.679004,-1.5426021 1.516697,-1.5426021 0.837595,0 1.516624,0.690615 1.516624,1.5426021 0,0.851888 -0.679029,1.5424782 -1.516624,1.5424782 -0.308689,0 -0.595717,-0.093991 -0.835211,-0.2550664 -0.388666,-0.2613786 -0.652012,-0.6995017 -0.679004,-1.2019359 -0.0015,-0.028343 -0.0025,-0.05686 -0.0025,-0.085476 M 2.8795974,11.050523 c -0.8376201,0 -1.5167215,-0.690615 -1.5167215,-1.542602 0,-0.8518633 0.6791014,-1.5424783 1.5167215,-1.5424783 0.3554682,0 0.6820464,0.124637 0.9406462,0.3329181 0.3507222,0.2825434 0.5760509,0.7192307 0.5760509,1.2095602 0,0.4897601 -0.2246716,0.925878 -0.5745176,1.208422 -0.2588919,0.209048 -0.5860541,0.33418 -0.9421795,0.33418 m 10.4036966,3.578405 c 0.239859,-0.161867 0.527568,-0.256329 0.837109,-0.256329 0.837595,0 1.516624,0.690591 1.516624,1.542479 0,0.851987 -0.679029,1.542601 -1.516624,1.542601 -0.837693,0 -1.516697,-0.690614 -1.516697,-1.542601 0,-0.02785 7.54e-4,-0.0556 0.0023,-0.08315 0.02624,-0.502632 0.289121,-0.941151 0.677301,-1.203 M 12.084121,5.1497614 c 0.264027,0.2685326 0.571864,0.4795119 0.914895,0.6270712 0.355956,0.1531785 0.733207,0.2307083 1.121387,0.2307083 0.388106,0 0.765358,-0.07753 1.121313,-0.2307083 C 15.584723,5.6292733 15.892584,5.418294 16.156612,5.1497614 16.420615,4.8812288 16.628079,4.5681388 16.773162,4.2192543 16.923649,3.8573245 17,3.4735367 17,3.0788324 17,2.684029 16.923649,2.3003403 16.773162,1.9384104 16.628079,1.5894269 16.420615,1.2764111 16.156612,1.0079033 15.892584,0.73937067 15.584723,0.52839137 15.241716,0.38083211 14.885761,0.22765366 14.508509,0.15000001 14.120403,0.15000001 c -0.38818,0 -0.765431,0.0776537 -1.121387,0.2308321 -0.343031,0.14755926 -0.650868,0.35853856 -0.914895,0.62707119 -0.264003,0.2685078 -0.471467,0.5815236 -0.616551,0.9305071 -0.150487,0.3619299 -0.226838,0.7456186 -0.226838,1.140422 0,0.2790531 0.03831,0.5525118 0.113906,0.8167867 L 5.0480147,7.5808876 C 5.0056165,7.5316764 4.961612,7.4836039 4.915782,7.4369919 4.6517546,7.1684841 4.3440147,6.95748 4.0008862,6.8099207 3.6450285,6.6568661 3.267777,6.5792124 2.8795974,6.5792124 c -0.388204,0 -0.7654555,0.077654 -1.1213133,0.2307083 C 1.415253,6.95748 1.1074157,7.1684841 0.84338836,7.4369919 0.57938532,7.7055245 0.37192132,8.0186393 0.22683769,8.367499 0.07625348,8.7295279 0,9.1132167 0,9.507921 c 0,0.3948034 0.07625348,0.778492 0.22683769,1.140521 0.14508363,0.348885 0.35254763,0.661999 0.61655067,0.930507 0.26402734,0.268533 0.57186464,0.479512 0.91489574,0.627071 0.3558578,0.15308 0.7331093,0.230733 1.1213133,0.230733 0.3881796,0 0.7654311,-0.07765 1.1212888,-0.230733 0.3431285,-0.147559 0.6508684,-0.358538 0.9148958,-0.627071 0.046779,-0.04758 0.091636,-0.09659 0.13491,-0.146866 l 6.302705,3.670367 c -0.07472,0.262913 -0.112665,0.53501 -0.112665,0.812628 0,0.394828 0.07635,0.778516 0.226838,1.140446 0.145084,0.348959 0.352548,0.661975 0.616551,0.930582 0.264027,0.268532 0.571864,0.479511 0.914895,0.627071 0.355956,0.153079 0.733207,0.230733 1.121387,0.230733 0.388106,0 0.765358,-0.07765 1.121313,-0.230733 0.343007,-0.14756 0.650868,-0.358539 0.914896,-0.627071 0.264003,-0.268607 0.471467,-0.581623 0.61655,-0.930582 C 16.923649,16.693594 17,16.309906 17,15.915078 c 0,-0.394705 -0.07635,-0.778394 -0.226838,-1.140422 -0.145083,-0.348885 -0.352547,-0.661975 -0.61655,-0.930508 -0.264028,-0.268532 -0.571889,-0.479511 -0.914896,-0.627071 -0.355955,-0.153054 -0.733207,-0.230708 -1.121313,-0.230708 -0.38818,0 -0.765431,0.07765 -1.121387,0.230708 -0.343031,0.14756 -0.650868,0.358539 -0.914895,0.627071 -0.01796,0.01827 -0.03563,0.03683 -0.05313,0.0555 L 5.6780734,10.200071 c 0.053813,-0.2252874 0.081194,-0.4566889 0.081194,-0.692051 0,-0.2367978 -0.027673,-0.469536 -0.082143,-0.6960361 L 12.033934,5.097357 c 0.01655,0.017699 0.03327,0.035101 0.05019,0.052404"
         id="Fill-1"
         inkscape:connector-curvature="0" />
    </g>
  </g>
</svg>
