<?xml version="1.0" encoding="UTF-8"?>
<svg width="16px" height="16px" viewBox="0 0 16 16" version="1.1" xmlns="http://www.w3.org/2000/svg" xmlns:xlink="http://www.w3.org/1999/xlink">
    <!-- Generator: Sketch 42 (36781) - http://www.bohemiancoding.com/sketch -->
    <title>settings_advanced_selected</title>
    <desc>Created with Sketch.</desc>
    <defs></defs>
    <g id="Symbols" stroke="none" stroke-width="1" fill="none" fill-rule="evenodd" stroke-linecap="round" stroke-linejoin="round">
        <g id="settings_advanced_selected" class="color-i-stroke" stroke="#FE5E00" stroke-width="1.5">
            <path d="M15.2200001,9.54049566 L15.2200001,6.50965686 L13.9203461,6.50965686 C13.7759401,5.95080496 13.5526361,5.4239343 13.2646481,4.9390903 L14.1850561,4.02331941 L12.0313261,1.87996039 L11.1111241,2.79614131 C10.6243461,2.50954007 10.0945141,2.28731136 9.53275206,2.14360073 L9.53275206,0.850000024 L6.48745404,0.850000024 L6.48745404,2.14360073 C5.92569204,2.28731136 5.39627204,2.50954007 4.90887603,2.79614131 L3.98846803,1.87996039 L1.83535602,4.02331941 L2.75576402,4.9390903 C2.46757002,5.4237293 2.24426602,5.95080496 2.09965402,6.50965686 L0.800000012,6.50965686 L0.800000012,9.54049566 L2.09965402,9.54049566 C2.24426602,10.0995526 2.46757002,10.6266282 2.75514602,11.1114722 L1.83535602,12.0270381 L3.98888003,14.1701921 L4.90887603,13.2544212 C5.39627204,13.5408175 5.92569204,13.7632512 6.48745404,13.9067568 L6.48745404,15.2003575 L9.53275206,15.2003575 L9.53275206,13.9067568 C10.0947201,13.7632512 10.6243461,13.5408175 11.1113301,13.2544212 L12.0313261,14.1701921 L14.1850561,12.0270381 L13.2646481,11.1114722 C13.5526361,10.6266282 13.7761461,10.0995526 13.9203461,9.54049566 L15.2200001,9.54049566 L15.2200001,9.54049566 Z M4.77889003,8.02528127 C4.77889003,9.80126588 6.22562804,11.2408323 8.01020605,11.2408323 C9.79437206,11.2408323 11.2411101,9.80126588 11.2411101,8.02528127 C11.2411101,6.24970667 9.79437206,4.80973023 8.01020605,4.80973023 C6.22562804,4.80973023 4.77889003,6.24970667 4.77889003,8.02528127 L4.77889003,8.02528127 Z" id="options_default"></path>
        </g>
    </g>
</svg>
