<?xml version="1.0" encoding="UTF-8"?>
<svg width="40px" height="40px" viewBox="0 0 40 40" version="1.1" xmlns="http://www.w3.org/2000/svg" xmlns:xlink="http://www.w3.org/1999/xlink">
    <!-- Generator: Sketch 40.3 (33839) - http://www.bohemiancoding.com/sketch -->
    <title>chat_over</title>
    <desc>Created with Sketch.</desc>
    <defs></defs>
    <g id="Symbols" stroke="none" stroke-width="1" fill="none" fill-rule="evenodd">
        <g id="chat_over">
            <path d="M20,40 C31.045695,40 40,31.045695 40,20 C40,8.954305 31.045695,0 20,0 C8.954305,0 0,8.954305 0,20 C0,31.045695 8.954305,40 20,40 Z" fill="#4B5964"></path>
            <g id="chat_icon" transform="translate(11.000000, 11.000000)" stroke-width="1.5" stroke="#FFFFFF" stroke-linecap="round" stroke-linejoin="round">
                <path d="M6.45514411,16.6653354 C6.45490676,16.6653354 3.61717822,19.6701782 0,18.8619676 C0,18.8619676 3.54193902,17.8269451 2.73827987,14.6957526 L2.71240897,14.5508779 C1.03459842,13.0064191 0,10.8924366 0,8.55995464 C0,3.83252839 4.25137115,1.77635684e-15 9.49414345,1.77635684e-15 C14.7371531,1.77635684e-15 18.9880496,3.83252839 18.9880496,8.55995464 C18.9880496,13.2873809 14.7371531,17.1196718 9.49414345,17.1196718 C8.43082597,17.1196718 7.40904432,16.9626847 6.45466941,16.6719854 L6.45514411,16.6653354 L6.45514411,16.6653354 Z M5.07378077,7.04494575 L13.889822,7.04494575 L5.07378077,7.04494575 Z M5.07378077,10.0749635 L13.889822,10.0749635 L5.07378077,10.0749635 Z"></path>
            </g>
        </g>
    </g>
</svg>