<?xml version="1.0" encoding="UTF-8"?>
<svg width="40px" height="40px" viewBox="0 0 40 40" version="1.1" xmlns="http://www.w3.org/2000/svg" xmlns:xlink="http://www.w3.org/1999/xlink">
    <!-- Generator: Sketch 42 (36781) - http://www.bohemiancoding.com/sketch -->
    <title>download_ended</title>
    <desc>Created with Sketch.</desc>
    <defs></defs>
    <g id="Symbols" stroke="none" stroke-width="1" fill="none" fill-rule="evenodd">
        <g id="download_ended">
            <polygon id="call_pausing_sign" fill="#4B5964" points="0 0 40 0 0 40"></polygon>
            <path d="M15.8862711,16.7118816 C15.8848622,18.47124 14.366077,19.9160243 12.4971822,19.9365977 C10.627583,19.9538529 9.11372887,18.5402605 9.1158422,16.7815657 L9.1158422,7.21360248 C9.1158422,6.03892711 10.1302442,5.0752951 11.3771133,5.06334925 C12.6225736,5.05007608 13.6292267,5.9911437 13.6292267,7.16648273 L13.6292267,16.7351096 C13.6292267,17.3224473 13.1206168,17.8022723 12.4978867,17.8095726 C11.8751565,17.8162091 11.3735911,17.3456753 11.3721822,16.7570103 L11.3721822,8.2535552 L10.24366,8.26417373 L10.24366,16.7682925 C10.24366,17.9429679 11.2524264,18.8846992 12.5,18.8727533 C13.7447558,18.8594801 14.75634,17.8978391 14.7577489,16.7244911 L14.7577489,7.15520054 C14.7598622,5.39584211 13.2460081,3.98224971 11.3757044,4.00016849 C9.50751409,4.02007824 8.00281778,5.46287161 8,7.2228937 L8,17.3231109 C8.27402943,19.4169532 10.1957577,21.0216792 12.4950689,20.9997785 C14.7971979,20.9752231 16.7217439,19.3333322 17,17.2321897 L17,6.07741929 L15.8862711,6.07741929 L15.8862711,16.7118816 Z" id="attachment_default" fill="#FFFFFF" transform="translate(12.500000, 12.500000) rotate(-315.000000) translate(-12.500000, -12.500000) "></path>
        </g>
    </g>
</svg>