<?xml version="1.0" encoding="UTF-8"?>
<svg width="21px" height="18px" viewBox="0 0 21 18" version="1.1" xmlns="http://www.w3.org/2000/svg" xmlns:xlink="http://www.w3.org/1999/xlink">
    <!-- Generator: Sketch 43.2 (39069) - http://www.bohemiancoding.com/sketch -->
    <title>settings_folder_1</title>
    <desc>Created with Sketch.</desc>
    <defs></defs>
    <g id="Symbols" stroke="none" stroke-width="1" fill="none" fill-rule="evenodd">
        <g id="settings_folder_1" stroke="#6B7A86">
            <path d="M10.1717552,2.5 L10.5248326,2.5 L10.6429477,2.16726507 C10.9945521,1.17678114 11.9372463,0.5 13.0057983,0.5 L17.9942017,0.5 C19.3800816,0.5 20.5,1.61712484 20.5,3.00166547 L20.5,4.99833453 C20.4999993,5.00066969 20.4999993,5.00066969 20.4999958,5.00301806 C20.4999993,5.00713802 20.4999993,5.00713802 20.5,5.00947762 L20.5,14.9905224 C20.5,16.3770475 19.3776888,17.5 17.991212,17.5 L3.00878799,17.5 C1.61924805,17.5 0.5,16.3832597 0.5,14.9905224 L0.5,5.00947762 C0.5,3.62295255 1.62231116,2.5 3.00878799,2.5 L10.1717552,2.5 Z" id="Combined-Shape"></path>
        </g>
    </g>
</svg>