<?xml version="1.0" encoding="UTF-8"?>
<svg width="147px" height="149px" viewBox="0 0 147 149" version="1.1" xmlns="http://www.w3.org/2000/svg" xmlns:xlink="http://www.w3.org/1999/xlink">
    <!-- Generator: Sketch 42 (36781) - http://www.bohemiancoding.com/sketch -->
    <title>home_account_assistant</title>
    <desc>Created with Sketch.</desc>
    <defs>
        <polygon id="path-1" points="0.0005 0.367 146.938 0.367 146.938 147.3059 0.0005 147.3059 0.0005 0.367"></polygon>
        <path d="M0.184,27.531 C0.184,42.319 12.171,54.306 26.959,54.306 C41.748,54.306 53.733,42.319 53.733,27.531 C53.733,12.743 41.748,0.756 26.959,0.756 C12.171,0.756 0.184,12.743 0.184,27.531 Z" id="path-3"></path>
    </defs>
    <g id="Symbols" stroke="none" stroke-width="1" fill="none" fill-rule="evenodd">
        <g id="home_account_assistant">
            <g id="Page-1">
                <g id="Group-6" transform="translate(0.000000, 0.633000)">
                    <g id="Group-3">
                        <mask id="mask-2" fill="white">
                            <use xlink:href="#path-1"></use>
                        </mask>
                        <g id="Clip-2"></g>
                        <path d="M146.9385,73.8369 C146.9385,114.4129 114.0455,147.3059 73.4695,147.3059 C32.8935,147.3059 0.0005,114.4129 0.0005,73.8369 C0.0005,33.2609 32.8935,0.3669 73.4695,0.3669 C114.0455,0.3669 146.9385,33.2609 146.9385,73.8369" id="Fill-1" fill="#4C5964" mask="url(#mask-2)"></path>
                    </g>
                    <path d="M73.6572,36.4761 C84.4452,36.4761 93.1902,45.3091 93.1902,56.2021 C93.1902,61.4161 91.1892,66.1561 87.9182,69.6821 C87.4592,70.1791 87.6382,70.0931 87.1292,70.5371 L87.9442,71.0911 C117.5522,84.1071 109.9582,105.9821 109.9582,105.9821 C90.8932,112.0871 73.6882,111.1451 73.6882,111.1451 L73.2532,111.1451 C73.2532,111.1451 56.0442,112.0871 36.9792,105.9821 C36.9792,105.9821 29.3892,84.1071 58.9952,71.0911 L59.8082,70.5371 C59.3012,70.0931 59.4822,70.1791 59.0232,69.6821 C55.7532,66.1561 53.7512,61.4161 53.7512,56.2021 C53.7512,45.3091 62.4952,36.4761 73.2832,36.4761 L73.6572,36.4761 Z" id="Fill-4" fill="#FEFEFE"></path>
                </g>
                <g id="Group-9" transform="translate(82.000000, 93.633000)">
                    <mask id="mask-4" fill="white">
                        <use xlink:href="#path-3"></use>
                    </mask>
                    <g id="Clip-8"></g>
                    <polygon id="Fill-7" fill="#EB601D" mask="url(#mask-4)" points="-6.51 61 60.427 61 60.427 -5.938 -6.51 -5.938"></polygon>
                </g>
                <path d="M124.959,124.5261 L124.959,117.7991 L122.072,117.7991 C121.751,116.5611 121.258,115.3911 120.618,114.3151 L122.661,112.2831 L117.882,107.5271 L115.839,109.5601 C114.758,108.9241 113.583,108.4301 112.336,108.1131 L112.336,105.2421 L105.579,105.2421 L105.579,108.1131 C104.332,108.4301 103.157,108.9241 102.076,109.5601 L100.034,107.5271 L95.255,112.2831 L97.298,114.3151 C96.659,115.3911 96.162,116.5611 95.842,117.7991 L92.958,117.7991 L92.958,124.5261 L95.842,124.5261 C96.162,125.7661 96.659,126.9361 97.296,128.0121 L95.255,130.0451 L100.034,134.8001 L102.076,132.7681 C103.157,133.4031 104.332,133.8961 105.579,134.2151 L105.579,137.0861 L112.336,137.0861 L112.336,134.2151 C113.583,133.8961 114.758,133.4031 115.839,132.7681 L117.882,134.8001 L122.661,130.0451 L120.618,128.0121 C121.258,126.9361 121.753,125.7661 122.072,124.5261 L124.959,124.5261 Z M101.787,121.1641 C101.787,125.1051 104.998,128.2991 108.958,128.2991 C112.916,128.2991 116.128,125.1051 116.128,121.1641 C116.128,117.2251 112.916,114.0281 108.958,114.0281 C104.998,114.0281 101.787,117.2251 101.787,121.1641 Z" id="Stroke-10" stroke="#FEFEFE" stroke-width="2" stroke-linecap="round" stroke-linejoin="round"></path>
            </g>
        </g>
    </g>
</svg>