<?xml version="1.0" encoding="UTF-8"?>
<svg width="147px" height="149px" viewBox="0 0 147 149" version="1.1" xmlns="http://www.w3.org/2000/svg" xmlns:xlink="http://www.w3.org/1999/xlink">
    <!-- Generator: Sketch 42 (36781) - http://www.bohemiancoding.com/sketch -->
    <title>home_use_linphone</title>
    <desc>Created with Sketch.</desc>
    <defs>
        <polygon id="path-1" points="0 73.8367 0 0.367 146.939 0.367 146.939 147.3064 0 147.3064 0 73.8367"></polygon>
        <path d="M0.247,27.531 C0.247,42.319 12.235,54.306 27.023,54.306 C41.811,54.306 53.797,42.319 53.797,27.531 C53.797,12.743 41.811,0.756 27.023,0.756 C12.235,0.756 0.247,12.743 0.247,27.531 Z" id="path-3"></path>
    </defs>
    <g id="Symbols" stroke="none" stroke-width="1" fill="none" fill-rule="evenodd">
        <g id="home_use_linphone">
            <g id="Page-1">
                <g id="Group-6" transform="translate(0.000000, 0.633000)">
                    <g id="Group-3">
                        <mask id="mask-2" fill="white">
                            <use xlink:href="#path-1"></use>
                        </mask>
                        <g id="Clip-2"></g>
                        <path d="M146.939,73.8364 C146.939,114.4124 114.045,147.3064 73.47,147.3064 C32.894,147.3064 0,114.4124 0,73.8364 C0,33.2604 32.894,0.3664 73.47,0.3664 C114.045,0.3664 146.939,33.2604 146.939,73.8364" id="Fill-1" fill="#4C5964" mask="url(#mask-2)"></path>
                    </g>
                    <path d="M66.0894,44.0962 C64.2094,42.6172 63.2694,40.2382 63.2694,36.9562 C63.2694,33.6772 64.2094,31.2972 66.0894,29.8172 C67.9684,28.3372 70.5484,27.5962 73.8294,27.5962 C77.1094,27.5962 79.6894,28.3372 81.5694,29.8172 C83.4484,31.2972 84.3894,33.6772 84.3894,36.9562 C84.3894,40.2382 83.4484,42.6172 81.5694,44.0962 C79.6894,45.5772 77.1094,46.3172 73.8294,46.3172 C70.5484,46.3172 67.9684,45.5772 66.0894,44.0962 L66.0894,44.0962 Z M56.1894,109.1972 L60.9894,106.5572 C62.2684,105.9172 63.0684,105.0572 63.3894,103.9772 C63.7084,102.8972 63.8694,100.7962 63.8694,97.6762 L63.8694,67.9162 C63.8694,65.8372 63.7084,64.4172 63.3894,63.6572 C63.0684,62.8972 62.2294,62.1572 60.8694,61.4372 L56.1894,59.1572 L56.1894,56.2772 L81.8694,53.0362 L83.0694,54.2372 L83.0694,97.6762 C83.0694,100.7962 83.2294,102.8972 83.5494,103.9772 C83.8684,105.0572 84.6694,105.9172 85.9494,106.5572 L90.7494,109.1972 L90.7494,112.0762 L56.1894,112.0762 L56.1894,109.1972 Z" id="Fill-4" fill="#FEFEFE"></path>
                </g>
                <g id="Group-9" transform="translate(88.000000, 93.633000)">
                    <mask id="mask-4" fill="white">
                        <use xlink:href="#path-3"></use>
                    </mask>
                    <g id="Clip-8"></g>
                    <polygon id="Fill-7" fill="#EB601D" mask="url(#mask-4)" points="-6.446 61 60.491 61 60.491 -5.938 -6.446 -5.938"></polygon>
                </g>
                <path d="M128.5508,126.5666 C128.5508,128.3316 127.1198,129.7626 125.3558,129.7626 L120.2228,129.7626 L117.1738,136.7326 L112.8188,129.7626 L104.6888,129.7626 C102.9228,129.7626 101.4918,128.3316 101.4918,126.5666 L101.4918,113.7916 C101.4918,112.0256 102.9228,110.5956 104.6888,110.5956 L125.3558,110.5956 C127.1198,110.5956 128.5508,112.0256 128.5508,113.7916 L128.5508,126.5666 Z" id="Stroke-10" stroke="#FEFEFE" stroke-width="2" stroke-linecap="round" stroke-linejoin="round"></path>
            </g>
        </g>
    </g>
</svg>