<?xml version="1.0" encoding="UTF-8"?>
<svg width="40px" height="40px" viewBox="0 0 40 40" version="1.1" xmlns="http://www.w3.org/2000/svg" xmlns:xlink="http://www.w3.org/1999/xlink">
    <!-- Generator: Sketch 41 (35326) - http://www.bohemiancoding.com/sketch -->
    <title>micro_off</title>
    <desc>Created with Sketch.</desc>
    <defs></defs>
    <g id="Symbols" stroke="none" stroke-width="1" fill="none" fill-rule="evenodd">
        <g id="micro_off">
            <path d="M20,40 C31.045695,40 40,31.045695 40,20 C40,8.954305 31.045695,0 20,0 C8.954305,0 0,8.954305 0,20 C0,31.045695 8.954305,40 20,40 Z" fill="#96A6B1"></path>
            <path d="M15.680106,21.1588052 C15.680106,23.2272241 17.3725587,24.9049836 19.4593354,24.9049836 C21.5467466,24.9049836 23.2391993,23.2272241 23.2391993,21.1588052 L23.2391993,11.7474365 C23.2391993,9.67775946 21.5467466,8 19.4593354,8 C17.3725587,8 15.680106,9.67775946 15.680106,11.7474365 L15.680106,21.1588052 L15.680106,21.1588052 Z M26.6155393,16.5901033 L26.6155393,20.6788163 C26.6155393,24.5976774 23.4114583,27.7732791 19.4593354,27.7732791 M19.4593354,27.7732791 L19.4593354,32.1916307 L19.4593354,27.7732791 Z M17.2326577,32.6854594 L21.6869648,32.6854594 L17.2326577,32.6854594 Z M12.3034487,16.5901033 L12.3034487,20.6788163 C12.3034487,24.5976774 15.5075297,27.7732791 19.4596526,27.7732791 M10,29.8313182 L29.1397841,10.8541412 L10,29.8313182 Z" stroke="#FFFFFF" stroke-width="1.5" stroke-linecap="round" stroke-linejoin="round"></path>
        </g>
    </g>
</svg>
