<svg width="40" height="40" viewBox="0 0 40 40" fill="none" xmlns="http://www.w3.org/2000/svg">
<g filter="url(#filter0_d_4435_19461)">
<path d="M23.42 18.4615C23.42 18.918 23.2863 19.3641 23.0358 19.7436C22.7852 20.1231 22.4291 20.4189 22.0125 20.5936C21.5959 20.7682 21.1375 20.8139 20.6952 20.7249C20.2529 20.6358 19.8467 20.4161 19.5278 20.0933C19.2089 19.7706 18.9918 19.3594 18.9038 18.9117C18.8158 18.4641 18.861 18.0001 19.0336 17.5784C19.2061 17.1567 19.4984 16.7963 19.8733 16.5428C20.2482 16.2892 20.6891 16.1538 21.14 16.1538C21.7447 16.1538 22.3246 16.397 22.7522 16.8298C23.1798 17.2625 23.42 17.8495 23.42 18.4615ZM29.5 11.5385V28.4615C29.5 28.8696 29.3399 29.2609 29.0548 29.5494C28.7697 29.8379 28.3831 30 27.98 30H14.3C13.8969 30 13.5103 29.8379 13.2252 29.5494C12.9401 29.2609 12.78 28.8696 12.78 28.4615V26.1538H11.26C11.0584 26.1538 10.8651 26.0728 10.7226 25.9285C10.5801 25.7843 10.5 25.5886 10.5 25.3846C10.5 25.1806 10.5801 24.9849 10.7226 24.8407C10.8651 24.6964 11.0584 24.6154 11.26 24.6154H12.78V20.7692H11.26C11.0584 20.7692 10.8651 20.6882 10.7226 20.5439C10.5801 20.3997 10.5 20.204 10.5 20C10.5 19.796 10.5801 19.6003 10.7226 19.4561C10.8651 19.3118 11.0584 19.2308 11.26 19.2308H12.78V15.3846H11.26C11.0584 15.3846 10.8651 15.3036 10.7226 15.1593C10.5801 15.0151 10.5 14.8194 10.5 14.6154C10.5 14.4114 10.5801 14.2157 10.7226 14.0715C10.8651 13.9272 11.0584 13.8462 11.26 13.8462H12.78V11.5385C12.78 11.1304 12.9401 10.7391 13.2252 10.4506C13.5103 10.1621 13.8969 10 14.3 10H27.98C28.3831 10 28.7697 10.1621 29.0548 10.4506C29.3399 10.7391 29.5 11.1304 29.5 11.5385ZM26.308 23.3846C25.635 22.4714 24.7376 21.7524 23.705 21.299C24.2709 20.7761 24.6674 20.0922 24.8424 19.3371C25.0174 18.582 24.9628 17.791 24.6857 17.0679C24.4086 16.3448 23.922 15.7234 23.2898 15.2852C22.6575 14.847 21.9091 14.6125 21.1428 14.6125C20.3766 14.6125 19.6282 14.847 18.9959 15.2852C18.3637 15.7234 17.8771 16.3448 17.6 17.0679C17.3229 17.791 17.2683 18.582 17.4433 19.3371C17.6183 20.0922 18.0148 20.7761 18.5807 21.299C17.546 21.7515 16.6465 22.4706 15.972 23.3846C15.9121 23.4654 15.8685 23.5574 15.8438 23.6552C15.819 23.7531 15.8135 23.8549 15.8276 23.9549C15.8418 24.0549 15.8752 24.1511 15.926 24.2381C15.9769 24.325 16.0442 24.4009 16.124 24.4615C16.2038 24.5221 16.2947 24.5662 16.3914 24.5913C16.4881 24.6164 16.5887 24.6219 16.6875 24.6077C16.7863 24.5934 16.8813 24.5595 16.9672 24.5081C17.0531 24.4566 17.1281 24.3885 17.188 24.3077C17.6481 23.6867 18.2448 23.1827 18.9308 22.8356C19.6167 22.4884 20.3731 22.3077 21.14 22.3077C21.9069 22.3077 22.6633 22.4884 23.3492 22.8356C24.0352 23.1827 24.6319 23.6867 25.092 24.3077C25.2129 24.4709 25.393 24.5788 25.5925 24.6077C25.7921 24.6365 25.9947 24.5839 26.156 24.4615C26.3173 24.3391 26.4239 24.1569 26.4524 23.9549C26.4809 23.753 26.4289 23.5478 26.308 23.3846Z" fill="white"/>
</g>
<defs>
<filter id="filter0_d_4435_19461" x="0.5" y="0" width="39" height="40" filterUnits="userSpaceOnUse" color-interpolation-filters="sRGB">
<feFlood flood-opacity="0" result="BackgroundImageFix"/>
<feColorMatrix in="SourceAlpha" type="matrix" values="0 0 0 0 0 0 0 0 0 0 0 0 0 0 0 0 0 0 127 0" result="hardAlpha"/>
<feOffset/>
<feGaussianBlur stdDeviation="5"/>
<feComposite in2="hardAlpha" operator="out"/>
<feColorMatrix type="matrix" values="0 0 0 0 0 0 0 0 0 0 0 0 0 0 0 0 0 0 0.15 0"/>
<feBlend mode="normal" in2="BackgroundImageFix" result="effect1_dropShadow_4435_19461"/>
<feBlend mode="normal" in="SourceGraphic" in2="effect1_dropShadow_4435_19461" result="shape"/>
</filter>
</defs>
</svg>
