<svg width="32" height="32" viewBox="0 0 32 32" fill="none" xmlns="http://www.w3.org/2000/svg">
<path d="M29.7075 12.7075L17.7075 24.7075C17.6146 24.8005 17.5043 24.8742 17.3829 24.9246C17.2615 24.9749 17.1314 25.0008 17 25.0008C16.8686 25.0008 16.7385 24.9749 16.6171 24.9246C16.4957 24.8742 16.3854 24.8005 16.2925 24.7075L4 12.4137V19C4 19.2652 3.89464 19.5196 3.70711 19.7071C3.51957 19.8946 3.26522 20 3 20C2.73478 20 2.48043 19.8946 2.29289 19.7071C2.10536 19.5196 2 19.2652 2 19V10C2 9.73478 2.10536 9.48043 2.29289 9.29289C2.48043 9.10536 2.73478 9 3 9H12C12.2652 9 12.5196 9.10536 12.7071 9.29289C12.8946 9.48043 13 9.73478 13 10C13 10.2652 12.8946 10.5196 12.7071 10.7071C12.5196 10.8946 12.2652 11 12 11H5.41375L17 22.5863L28.2925 11.2925C28.3854 11.1996 28.4957 11.1259 28.6171 11.0756C28.7385 11.0253 28.8686 10.9994 29 10.9994C29.1314 10.9994 29.2615 11.0253 29.3829 11.0756C29.5043 11.1259 29.6146 11.1996 29.7075 11.2925C29.8004 11.3854 29.8741 11.4957 29.9244 11.6171C29.9747 11.7385 30.0006 11.8686 30.0006 12C30.0006 12.1314 29.9747 12.2615 29.9244 12.3829C29.8741 12.5043 29.8004 12.6146 29.7075 12.7075Z" fill="#343330"/>
</svg>
