<svg width="20" height="21" viewBox="0 0 20 21" fill="none" xmlns="http://www.w3.org/2000/svg">
<path d="M13.75 20C13.75 20.1989 13.671 20.3897 13.5303 20.5303C13.3897 20.671 13.1989 20.75 13 20.75H7.00002C6.80111 20.75 6.61034 20.671 6.46969 20.5303C6.32904 20.3897 6.25002 20.1989 6.25002 20C6.25002 19.8011 6.32904 19.6103 6.46969 19.4697C6.61034 19.329 6.80111 19.25 7.00002 19.25H13C13.1989 19.25 13.3897 19.329 13.5303 19.4697C13.671 19.6103 13.75 19.8011 13.75 20ZM19.3178 4.65499C18.4749 3.00748 17.2092 1.61364 15.6503 0.616239C15.567 0.563035 15.4741 0.526817 15.3767 0.509668C15.2794 0.492519 15.1796 0.494776 15.0832 0.516311C14.9867 0.537846 14.8955 0.578233 14.8147 0.635151C14.7339 0.692069 14.6651 0.764396 14.6124 0.847973C14.5596 0.931549 14.5239 1.02473 14.5073 1.12215C14.4906 1.21958 14.4934 1.31933 14.5155 1.41567C14.5376 1.51201 14.5784 1.60304 14.6358 1.68353C14.6931 1.76402 14.7658 1.83238 14.8497 1.88468C16.1871 2.73546 17.2707 3.93076 17.9866 5.34499C18.0812 5.51593 18.2388 5.64321 18.4258 5.69974C18.6128 5.75628 18.8145 5.73761 18.9879 5.6477C19.1614 5.5578 19.2929 5.40376 19.3545 5.21836C19.4161 5.03296 19.403 4.83083 19.3178 4.65499ZM1.34783 5.74999C1.48523 5.74993 1.61998 5.71213 1.73736 5.64071C1.85474 5.56929 1.95025 5.46699 2.01346 5.34499C2.72933 3.93076 3.81291 2.73546 5.15033 1.88468C5.23419 1.83238 5.30689 1.76402 5.36424 1.68353C5.4216 1.60304 5.46248 1.51201 5.48454 1.41567C5.50659 1.31933 5.50939 1.21958 5.49277 1.12215C5.47615 1.02473 5.44043 0.931549 5.38768 0.847973C5.33493 0.764396 5.26617 0.692069 5.18538 0.635151C5.10458 0.578233 5.01333 0.537846 4.91687 0.516311C4.82041 0.494776 4.72065 0.492519 4.62331 0.509668C4.52598 0.526817 4.433 0.563035 4.34971 0.616239C2.79085 1.61364 1.52514 3.00748 0.682206 4.65499C0.622991 4.76929 0.594192 4.8969 0.598581 5.02556C0.602969 5.15421 0.640397 5.27957 0.707263 5.38957C0.774128 5.49956 0.868181 5.5905 0.980369 5.65363C1.09256 5.71675 1.2191 5.74994 1.34783 5.74999ZM18.7947 15.4944C18.9276 15.7222 18.998 15.9811 18.9989 16.2448C18.9998 16.5086 18.9312 16.7679 18.7999 16.9967C18.6686 17.2255 18.4793 17.4156 18.251 17.5478C18.0228 17.6801 17.7638 17.7498 17.5 17.75H2.50002C2.23641 17.7495 1.9776 17.6795 1.74965 17.5471C1.5217 17.4147 1.33266 17.2246 1.20158 16.9959C1.0705 16.7672 1.002 16.508 1.00299 16.2444C1.00398 15.9808 1.07441 15.7221 1.20721 15.4944C2.05189 14.0366 2.50002 11.9637 2.50002 9.49999C2.50002 7.51087 3.29019 5.60321 4.69672 4.19669C6.10324 2.79017 8.01089 1.99999 10 1.99999C11.9891 1.99999 13.8968 2.79017 15.3033 4.19669C16.7098 5.60321 17.5 7.51087 17.5 9.49999C17.5 11.9628 17.9481 14.0356 18.7947 15.4944ZM17.5 16.25C16.5025 14.5372 16 12.2666 16 9.49999C16 7.90869 15.3679 6.38257 14.2427 5.25735C13.1174 4.13213 11.5913 3.49999 10 3.49999C8.40872 3.49999 6.8826 4.13213 5.75738 5.25735C4.63216 6.38257 4.00002 7.90869 4.00002 9.49999C4.00002 12.2675 3.49564 14.5381 2.50002 16.25H17.5Z" fill="#000000"/>
</svg>
