<svg width="1512" height="108" viewBox="0 0 1512 108" fill="none" xmlns="http://www.w3.org/2000/svg">
<path d="M0 0.29875L380.282 54.6952L577.111 36.1953L660.188 0L835.288 48.2605L1126.7 0.804341L1381.42 36.2792L1512 0.862443L1512 108H0V0.29875Z" fill="#FFB9A0"/>
<path d="M0 38.069L343.217 8.6521L450.578 30.1425L546.436 27.9563L651.241 50.4778L819.416 22.0956L1015.14 60.013L1140.76 31.1736L1348.75 75.0722L1473.64 25.1305L1512 38.069L1512 107H0V38.069Z" fill="#FF9E79"/>
<path d="M0 108V101.901L184.732 59.5213L402.005 71.6998L500.424 64.3474L580.945 82.8472L830.176 98.1297L1015.14 61.0131L1174.52 68.3655L1292.51 39.0691L1430.15 67.1323L1512 101.901L1512 108H0Z" fill="#FF723B"/>
</svg>
