<svg width="32" height="32" viewBox="0 0 32 32" fill="none" xmlns="http://www.w3.org/2000/svg">
<path d="M21 28C21 28.2652 20.8946 28.5196 20.7071 28.7071C20.5196 28.8946 20.2652 29 20 29H12C11.7348 29 11.4804 28.8946 11.2929 28.7071C11.1053 28.5196 11 28.2652 11 28C11 27.7348 11.1053 27.4804 11.2929 27.2929C11.4804 27.1054 11.7348 27 12 27H20C20.2652 27 20.5196 27.1054 20.7071 27.2929C20.8946 27.4804 21 27.7348 21 28ZM18 17H15.875L18.8375 12.555C18.9382 12.404 18.996 12.2284 19.0045 12.0471C19.0131 11.8658 18.9721 11.6856 18.8861 11.5258C18.8 11.366 18.6721 11.2326 18.516 11.14C18.3599 11.0474 18.1815 10.999 18 11H14C13.7348 11 13.4804 11.1054 13.2929 11.2929C13.1053 11.4804 13 11.7348 13 12C13 12.2652 13.1053 12.5196 13.2929 12.7071C13.4804 12.8946 13.7348 13 14 13H16.1312L13.1687 17.445C13.0683 17.5955 13.0106 17.7705 13.0018 17.9513C12.993 18.1321 13.0334 18.3118 13.1187 18.4714C13.204 18.631 13.331 18.7645 13.4862 18.8576C13.6415 18.9507 13.819 18.9999 14 19H18C18.2652 19 18.5196 18.8946 18.7071 18.7071C18.8946 18.5196 19 18.2652 19 18C19 17.7348 18.8946 17.4804 18.7071 17.2929C18.5196 17.1054 18.2652 17 18 17ZM27.73 24C27.5566 24.3055 27.3049 24.5592 27.0008 24.7349C26.6967 24.9107 26.3512 25.0022 26 25H5.99999C5.64841 24.9995 5.30317 24.9064 4.99906 24.73C4.69495 24.5535 4.44272 24.3 4.2678 23.9951C4.09288 23.6901 4.00144 23.3444 4.0027 22.9928C4.00396 22.6412 4.09788 22.2962 4.27499 21.9925C4.96874 20.7975 5.99999 17.4175 5.99999 13C5.99999 10.3478 7.05356 7.8043 8.92892 5.92893C10.8043 4.05357 13.3478 3 16 3C18.6522 3 21.1957 4.05357 23.0711 5.92893C24.9464 7.8043 26 10.3478 26 13C26 17.4163 27.0325 20.7975 27.7262 21.9925C27.9051 22.2966 27.9997 22.6429 28.0004 22.9957C28.0011 23.3486 27.9077 23.6952 27.73 24ZM26 23C25.0337 21.3412 24 17.5063 24 13C24 10.8783 23.1571 8.84344 21.6568 7.34315C20.1566 5.84285 18.1217 5 16 5C13.8783 5 11.8434 5.84285 10.3431 7.34315C8.84284 8.84344 7.99999 10.8783 7.99999 13C7.99999 17.5075 6.96499 21.3425 5.99999 23H26Z" fill="#6C7A87"/>
</svg>
