<svg width="40" height="40" viewBox="0 0 40 40" fill="none" xmlns="http://www.w3.org/2000/svg">
<path d="M20 40C17.2667 40 14.6833 39.475 12.25 38.425C9.81667 37.375 7.69167 35.9417 5.875 34.125C4.05833 32.3083 2.625 30.1833 1.575 27.75C0.525 25.3167 0 22.7333 0 20C0 17.2333 0.525 14.6417 1.575 12.225C2.625 9.80833 4.05833 7.69167 5.875 5.875C7.69167 4.05833 9.81667 2.625 12.25 1.575C14.6833 0.525 17.2667 0 20 0C20.5667 0 21.0417 0.191667 21.425 0.575C21.8083 0.958333 22 1.43333 22 2C22 2.56667 21.8083 3.04167 21.425 3.425C21.0417 3.80833 20.5667 4 20 4C15.5667 4 11.7917 5.55833 8.675 8.675C5.55833 11.7917 4 15.5667 4 20C4 24.4333 5.55833 28.2083 8.675 31.325C11.7917 34.4417 15.5667 36 20 36C24.4333 36 28.2083 34.4417 31.325 31.325C34.4417 28.2083 36 24.4333 36 20C36 19.4333 36.1917 18.9583 36.575 18.575C36.9583 18.1917 37.4333 18 38 18C38.5667 18 39.0417 18.1917 39.425 18.575C39.8083 18.9583 40 19.4333 40 20C40 22.7333 39.475 25.3167 38.425 27.75C37.375 30.1833 35.9417 32.3083 34.125 34.125C32.3083 35.9417 30.1917 37.375 27.775 38.425C25.3583 39.475 22.7667 40 20 40Z" fill="#FE5E00"/>
</svg>
