<svg width="20" height="20" viewBox="0 0 20 20" fill="none" xmlns="http://www.w3.org/2000/svg">
<path d="M16.25 3.125H14.375V2.5C14.375 2.33424 14.3092 2.17527 14.1919 2.05806C14.0747 1.94085 13.9158 1.875 13.75 1.875C13.5842 1.875 13.4253 1.94085 13.3081 2.05806C13.1908 2.17527 13.125 2.33424 13.125 2.5V3.125H6.875V2.5C6.875 2.33424 6.80915 2.17527 6.69194 2.05806C6.57473 1.94085 6.41576 1.875 6.25 1.875C6.08424 1.875 5.92527 1.94085 5.80806 2.05806C5.69085 2.17527 5.625 2.33424 5.625 2.5V3.125H3.75C3.41848 3.125 3.10054 3.2567 2.86612 3.49112C2.6317 3.72554 2.5 4.04348 2.5 4.375V16.875C2.5 17.2065 2.6317 17.5245 2.86612 17.7589C3.10054 17.9933 3.41848 18.125 3.75 18.125H16.25C16.5815 18.125 16.8995 17.9933 17.1339 17.7589C17.3683 17.5245 17.5 17.2065 17.5 16.875V4.375C17.5 4.04348 17.3683 3.72554 17.1339 3.49112C16.8995 3.2567 16.5815 3.125 16.25 3.125ZM5.625 4.375V5C5.625 5.16576 5.69085 5.32473 5.80806 5.44194C5.92527 5.55915 6.08424 5.625 6.25 5.625C6.41576 5.625 6.57473 5.55915 6.69194 5.44194C6.80915 5.32473 6.875 5.16576 6.875 5V4.375H13.125V5C13.125 5.16576 13.1908 5.32473 13.3081 5.44194C13.4253 5.55915 13.5842 5.625 13.75 5.625C13.9158 5.625 14.0747 5.55915 14.1919 5.44194C14.3092 5.32473 14.375 5.16576 14.375 5V4.375H16.25V6.875H3.75V4.375H5.625ZM16.25 16.875H3.75V8.125H16.25V16.875Z" fill="#4E6074"/>
</svg>
