<svg width="112" height="112" viewBox="0 0 112 112" fill="none" xmlns="http://www.w3.org/2000/svg">
<g clip-path="url(#clip0_4118_695)">
<path d="M101.5 28V84C101.5 85.8565 100.763 87.637 99.4499 88.9497C98.1371 90.2625 96.3566 91 94.5001 91H30.0632L22.0589 103.298C22.042 103.316 22.0229 103.333 22.002 103.346C20.7451 104.414 19.1494 105 17.5001 105C16.4732 104.998 15.4592 104.771 14.5295 104.335C13.3203 103.778 12.2972 102.884 11.5826 101.76C10.868 100.637 10.4922 99.3314 10.5001 98V28C10.5001 26.1435 11.2376 24.363 12.5504 23.0503C13.8631 21.7375 15.6436 21 17.5001 21H94.5001C96.3566 21 98.1371 21.7375 99.4499 23.0503C100.763 24.363 101.5 26.1435 101.5 28Z" fill="url(#paint0_linear_4118_695)"/>
<path d="M70.7369 43.6211H41.5579C40.8544 43.6211 40.1797 43.9006 39.6822 44.398C39.1847 44.8955 38.9053 45.5702 38.9053 46.2737V67.4948C38.9053 68.1983 39.1847 68.873 39.6822 69.3705C40.1797 69.8679 40.8544 70.1474 41.5579 70.1474H70.7369C71.4404 70.1474 72.1151 69.8679 72.6125 69.3705C73.11 68.873 73.3895 68.1983 73.3895 67.4948V46.2737C73.3895 45.5702 73.11 44.8955 72.6125 44.398C72.1151 43.9006 71.4404 43.6211 70.7369 43.6211ZM45.5369 63.5158C45.5369 63.8676 45.3971 64.2049 45.1484 64.4537C44.8997 64.7024 44.5623 64.8421 44.2105 64.8421C43.8588 64.8421 43.5214 64.7024 43.2727 64.4537C43.024 64.2049 42.8842 63.8676 42.8842 63.5158V50.2527C42.8842 49.9009 43.024 49.5636 43.2727 49.3148C43.5214 49.0661 43.8588 48.9264 44.2105 48.9264C44.5623 48.9264 44.8997 49.0661 45.1484 49.3148C45.3971 49.5636 45.5369 49.9009 45.5369 50.2527V63.5158ZM57.6892 56.9158L55.6401 57.5789L56.9067 59.3197C57.0091 59.4612 57.0827 59.6215 57.1232 59.7915C57.1637 59.9614 57.1703 60.1377 57.1426 60.3102C57.115 60.4827 57.0537 60.648 56.9621 60.7968C56.8706 60.9456 56.7506 61.0749 56.6091 61.1774C56.4676 61.2798 56.3073 61.3534 56.1373 61.3938C55.9674 61.4343 55.7911 61.4409 55.6186 61.4133C55.4461 61.3857 55.2808 61.3243 55.132 61.2328C54.9832 61.1412 54.8539 61.0213 54.7514 60.8798L53.4947 59.1406L52.2298 60.8831C52.0229 61.1689 51.711 61.3608 51.3626 61.4166C51.0142 61.4724 50.6579 61.3876 50.3721 61.1807C50.0863 60.9738 49.8944 60.6619 49.8386 60.3135C49.7828 59.9651 49.8676 59.6088 50.0745 59.323L51.3411 57.5822L49.292 56.9191C49.1264 56.8646 48.9732 56.7781 48.841 56.6645C48.7089 56.5508 48.6004 56.4123 48.5218 56.2567C48.3631 55.9425 48.3357 55.5782 48.4456 55.2438C48.5001 55.0782 48.5866 54.925 48.7002 54.7928C48.8139 54.6607 48.9524 54.5522 49.108 54.4736C49.4222 54.3149 49.7865 54.2875 50.1209 54.3974L52.1684 55.0606V52.9053C52.1684 52.5535 52.3082 52.2162 52.5569 51.9675C52.8056 51.7187 53.143 51.579 53.4947 51.579C53.8465 51.579 54.1839 51.7187 54.4326 51.9675C54.6813 52.2162 54.8211 52.5535 54.8211 52.9053V55.0606L56.8686 54.3974C57.0341 54.343 57.2088 54.3217 57.3826 54.3348C57.5564 54.3478 57.7259 54.395 57.8815 54.4736C58.0371 54.5522 58.1756 54.6607 58.2893 54.7928C58.4029 54.925 58.4894 55.0782 58.5439 55.2438C58.5983 55.4093 58.6196 55.584 58.6065 55.7578C58.5934 55.9316 58.5462 56.1011 58.4677 56.2567C58.3891 56.4123 58.2806 56.5508 58.1485 56.6645C58.0163 56.7781 57.8631 56.8646 57.6975 56.9191L57.6892 56.9158ZM69.6261 56.9158L67.5769 57.5789L68.8435 59.3197C68.946 59.4612 69.0195 59.6215 69.06 59.7915C69.1005 59.9614 69.1071 60.1377 69.0795 60.3102C69.0518 60.4827 68.9905 60.648 68.899 60.7968C68.8074 60.9456 68.6875 61.0749 68.5459 61.1774C68.4044 61.2798 68.2441 61.3534 68.0742 61.3938C67.9042 61.4343 67.728 61.4409 67.5555 61.4133C67.383 61.3857 67.2176 61.3243 67.0688 61.2328C66.92 61.1412 66.7907 61.0213 66.6883 60.8798L65.4316 59.1406L64.1666 60.8831C63.9597 61.1689 63.6478 61.3608 63.2994 61.4166C62.951 61.4724 62.5947 61.3876 62.3089 61.1807C62.0231 60.9738 61.8312 60.6619 61.7754 60.3135C61.7196 59.9651 61.8045 59.6088 62.0114 59.323L63.278 57.5822L61.2288 56.9191C61.0632 56.8646 60.91 56.7781 60.7779 56.6645C60.6457 56.5508 60.5373 56.4123 60.4587 56.2567C60.3 55.9425 60.2725 55.5782 60.3825 55.2438C60.4369 55.0782 60.5234 54.925 60.6371 54.7928C60.7507 54.6607 60.8893 54.5522 61.0448 54.4736C61.359 54.3149 61.7234 54.2875 62.0578 54.3974L64.1053 55.0606V52.9053C64.1053 52.5535 64.245 52.2162 64.4937 51.9675C64.7425 51.7187 65.0798 51.579 65.4316 51.579C65.7833 51.579 66.1207 51.7187 66.3694 51.9675C66.6182 52.2162 66.7579 52.5535 66.7579 52.9053V55.0606L68.8054 54.3974C68.971 54.343 69.1457 54.3217 69.3195 54.3348C69.4933 54.3478 69.6628 54.395 69.8183 54.4736C69.9739 54.5522 70.1125 54.6607 70.2261 54.7928C70.3398 54.925 70.4263 55.0782 70.4807 55.2438C70.5351 55.4093 70.5564 55.584 70.5433 55.7578C70.5303 55.9316 70.4831 56.1011 70.4045 56.2567C70.3259 56.4123 70.2174 56.5508 70.0853 56.6645C69.9532 56.7781 69.7999 56.8646 69.6344 56.9191L69.6261 56.9158Z" fill="white"/>
<path d="M107.579 82.8211H102.274V78.8422C102.274 76.7316 101.435 74.7075 99.9428 73.2151C98.4504 71.7227 96.4263 70.8843 94.3157 70.8843C92.2051 70.8843 90.181 71.7227 88.6886 73.2151C87.1962 74.7075 86.3578 76.7316 86.3578 78.8422V82.8211H81.0525C80.349 82.8211 79.6743 83.1006 79.1768 83.5981C78.6794 84.0955 78.3999 84.7702 78.3999 85.4738V104.042C78.3999 104.746 78.6794 105.42 79.1768 105.918C79.6743 106.415 80.349 106.695 81.0525 106.695H107.579C108.282 106.695 108.957 106.415 109.455 105.918C109.952 105.42 110.231 104.746 110.231 104.042V85.4738C110.231 84.7702 109.952 84.0955 109.455 83.5981C108.957 83.1006 108.282 82.8211 107.579 82.8211ZM95.642 95.8571V100.063C95.642 100.415 95.5023 100.752 95.2535 101.001C95.0048 101.25 94.6675 101.39 94.3157 101.39C93.9639 101.39 93.6266 101.25 93.3778 101.001C93.1291 100.752 92.9894 100.415 92.9894 100.063V95.8571C92.1044 95.5443 91.3586 94.9286 90.8837 94.119C90.4088 93.3094 90.2353 92.358 90.394 91.4329C90.5528 90.5078 91.0334 89.6686 91.751 89.0636C92.4687 88.4586 93.3771 88.1268 94.3157 88.1268C95.2543 88.1268 96.1627 88.4586 96.8803 89.0636C97.598 89.6686 98.0786 90.5078 98.2373 91.4329C98.3961 92.358 98.2226 93.3094 97.7477 94.119C97.2728 94.9286 96.5269 95.5443 95.642 95.8571ZM99.621 82.8211H89.0104V78.8422C89.0104 77.4351 89.5694 76.0857 90.5643 75.0908C91.5592 74.0959 92.9086 73.5369 94.3157 73.5369C95.7227 73.5369 97.0721 74.0959 98.0671 75.0908C99.062 76.0857 99.621 77.4351 99.621 78.8422V82.8211Z" fill="#02528D"/>
</g>
<defs>
<linearGradient id="paint0_linear_4118_695" x1="101.389" y1="8.8421" x2="-21.2211" y2="145.6" gradientUnits="userSpaceOnUse">
<stop stop-color="#4AA8FF"/>
<stop offset="1" stop-color="#4AA8FF" stop-opacity="0.37"/>
</linearGradient>
<clipPath id="clip0_4118_695">
<rect width="112" height="112" fill="white"/>
</clipPath>
</defs>
</svg>
