<svg width="28" height="28" viewBox="0 0 28 28" fill="none" xmlns="http://www.w3.org/2000/svg">
<path d="M26.6617 6.43733C26.5994 6.28357 26.5009 6.14719 26.3744 6.03989C26.2479 5.93259 26.0973 5.85758 25.9354 5.82127C25.7736 5.78497 25.6053 5.78847 25.4451 5.83146C25.2849 5.87446 25.1375 5.95566 25.0156 6.06812L19.8493 10.8358L17.6405 10.3614L17.1661 8.1526L21.9338 2.98628C22.0462 2.86435 22.1274 2.71697 22.1704 2.55677C22.2134 2.39657 22.2169 2.22833 22.1806 2.06648C22.1443 1.90463 22.0693 1.754 21.962 1.62751C21.8547 1.50102 21.7183 1.40244 21.5646 1.34023C20.1633 0.773389 18.6442 0.559365 17.1409 0.716963C15.6376 0.874562 14.1959 1.39896 12.9427 2.24408C11.6894 3.08921 10.6629 4.22919 9.95331 5.56386C9.24373 6.89854 8.87279 8.38706 8.87309 9.89864C8.87142 11.1751 9.13328 12.4381 9.64226 13.6087L1.92354 20.2826C1.90431 20.298 1.88637 20.3159 1.86842 20.3326C1.099 21.102 0.666748 22.1455 0.666748 23.2337C0.666748 23.7724 0.772869 24.3059 0.979052 24.8037C1.18524 25.3015 1.48744 25.7538 1.86842 26.1347C2.2494 26.5157 2.70168 26.8179 3.19945 27.0241C3.69722 27.2303 4.23073 27.3364 4.76951 27.3364C5.85763 27.3364 6.90118 26.9042 7.6706 26.1347C7.68727 26.1181 7.70521 26.0989 7.7206 26.0809L14.3932 18.3596C15.7988 18.9766 17.3361 19.2333 18.8659 19.1065C20.3957 18.9797 21.8697 18.4733 23.1545 17.6332C24.4393 16.7932 25.4943 15.6459 26.2239 14.2954C26.9536 12.9449 27.3349 11.4337 27.3334 9.89864C27.3354 8.71229 27.1073 7.53681 26.6617 6.43733ZM18.1032 17.0777C16.8893 17.076 15.6955 16.7673 14.633 16.1803C14.4271 16.0666 14.1884 16.027 13.9569 16.0683C13.7254 16.1097 13.5151 16.2293 13.3612 16.4072L6.19506 24.7066C5.80726 25.0751 5.29089 25.2774 4.75603 25.2706C4.22117 25.2637 3.71014 25.0482 3.33191 24.67C2.95367 24.2917 2.73815 23.7807 2.73131 23.2459C2.72446 22.711 2.92682 22.1946 3.29525 21.8068L11.5883 14.6419C11.7665 14.488 11.8863 14.2775 11.9276 14.0457C11.969 13.8139 11.9293 13.5749 11.8152 13.3689C11.1614 12.1865 10.8546 10.8436 10.93 9.49454C11.0055 8.14551 11.46 6.84515 12.2415 5.74296C13.023 4.64076 14.0997 3.78147 15.3477 3.26388C16.5958 2.7463 17.9646 2.59142 19.2968 2.81706L15.297 7.15139C15.1857 7.27211 15.1051 7.4178 15.0618 7.57618C15.0185 7.73457 15.0139 7.90104 15.0483 8.06158L15.7739 11.437C15.8154 11.6301 15.9118 11.807 16.0514 11.9466C16.191 12.0863 16.368 12.1826 16.561 12.2241L19.939 12.9497C20.0996 12.9842 20.266 12.9795 20.4244 12.9363C20.5828 12.893 20.7285 12.8123 20.8492 12.701L25.1835 8.70128C25.3563 9.73071 25.3028 10.7854 25.0267 11.7921C24.7506 12.7987 24.2585 13.7331 23.5846 14.5303C22.9108 15.3275 22.0714 15.9684 21.1248 16.4083C20.1781 16.8482 19.1471 17.0766 18.1032 17.0777Z" fill="#FE5E00"/>
</svg>
