<svg width="24" height="24" viewBox="0 0 24 24" fill="none" xmlns="http://www.w3.org/2000/svg">
<path d="M19.6923 2.75H4.30769C3.69565 2.75 3.10868 2.99313 2.67591 3.42591C2.24313 3.85868 2 4.44565 2 5.05769V15.8269C2 16.439 2.24313 17.0259 2.67591 17.4587C3.10868 17.8915 3.69565 18.1346 4.30769 18.1346H11.2308V19.6731H8.92308C8.71906 19.6731 8.52341 19.7541 8.37915 19.8984C8.23489 20.0426 8.15385 20.2383 8.15385 20.4423C8.15385 20.6463 8.23489 20.842 8.37915 20.9862C8.52341 21.1305 8.71906 21.2115 8.92308 21.2115H15.0769C15.2809 21.2115 15.4766 21.1305 15.6209 20.9862C15.7651 20.842 15.8462 20.6463 15.8462 20.4423C15.8462 20.2383 15.7651 20.0426 15.6209 19.8984C15.4766 19.7541 15.2809 19.6731 15.0769 19.6731H12.7692V18.1346H19.6923C20.3043 18.1346 20.8913 17.8915 21.3241 17.4587C21.7569 17.0259 22 16.439 22 15.8269V5.05769C22 4.44565 21.7569 3.85868 21.3241 3.42591C20.8913 2.99313 20.3043 2.75 19.6923 2.75ZM4.30769 4.28846H19.6923C19.8963 4.28846 20.092 4.36951 20.2362 4.51376C20.3805 4.65802 20.4615 4.85368 20.4615 5.05769V12.75H3.53846V5.05769C3.53846 4.85368 3.61951 4.65802 3.76376 4.51376C3.90802 4.36951 4.10368 4.28846 4.30769 4.28846ZM19.6923 16.5962H4.30769C4.10368 16.5962 3.90802 16.5151 3.76376 16.3709C3.61951 16.2266 3.53846 16.0309 3.53846 15.8269V14.2885H20.4615V15.8269C20.4615 16.0309 20.3805 16.2266 20.2362 16.3709C20.092 16.5151 19.8963 16.5962 19.6923 16.5962Z" fill="#4E6074"/>
</svg>
