<svg width="16" height="23" viewBox="0 0 16 23" fill="none" xmlns="http://www.w3.org/2000/svg">
<path d="M8 18.5C6.9 18.5 6 19.4 6 20.5C6 21.6 6.9 22.5 8 22.5C9.1 22.5 10 21.6 10 20.5C10 19.4 9.1 18.5 8 18.5ZM2 0.5C0.9 0.5 0 1.4 0 2.5C0 3.6 0.9 4.5 2 4.5C3.1 4.5 4 3.6 4 2.5C4 1.4 3.1 0.5 2 0.5ZM2 6.5C0.9 6.5 0 7.4 0 8.5C0 9.6 0.9 10.5 2 10.5C3.1 10.5 4 9.6 4 8.5C4 7.4 3.1 6.5 2 6.5ZM2 12.5C0.9 12.5 0 13.4 0 14.5C0 15.6 0.9 16.5 2 16.5C3.1 16.5 4 15.6 4 14.5C4 13.4 3.1 12.5 2 12.5ZM14 4.5C15.1 4.5 16 3.6 16 2.5C16 1.4 15.1 0.5 14 0.5C12.9 0.5 12 1.4 12 2.5C12 3.6 12.9 4.5 14 4.5ZM8 12.5C6.9 12.5 6 13.4 6 14.5C6 15.6 6.9 16.5 8 16.5C9.1 16.5 10 15.6 10 14.5C10 13.4 9.1 12.5 8 12.5ZM14 12.5C12.9 12.5 12 13.4 12 14.5C12 15.6 12.9 16.5 14 16.5C15.1 16.5 16 15.6 16 14.5C16 13.4 15.1 12.5 14 12.5ZM14 6.5C12.9 6.5 12 7.4 12 8.5C12 9.6 12.9 10.5 14 10.5C15.1 10.5 16 9.6 16 8.5C16 7.4 15.1 6.5 14 6.5ZM8 6.5C6.9 6.5 6 7.4 6 8.5C6 9.6 6.9 10.5 8 10.5C9.1 10.5 10 9.6 10 8.5C10 7.4 9.1 6.5 8 6.5ZM8 0.5C6.9 0.5 6 1.4 6 2.5C6 3.6 6.9 4.5 8 4.5C9.1 4.5 10 3.6 10 2.5C10 1.4 9.1 0.5 8 0.5Z" fill="#FE5E00"/>
</svg>
