<svg width="32" height="32" viewBox="0 0 32 32" fill="none" xmlns="http://www.w3.org/2000/svg">
<path d="M27.2819 5.73328H4.71779C4.17375 5.73328 3.652 5.94939 3.26731 6.33408C2.88262 6.71877 2.6665 7.24052 2.6665 7.78456V24.1948C2.6665 24.7388 2.88262 25.2606 3.26731 25.6453C3.652 26.03 4.17375 26.2461 4.71779 26.2461H27.2819C27.8259 26.2461 28.3477 26.03 28.7324 25.6453C29.1171 25.2606 29.3332 24.7388 29.3332 24.1948V7.78456C29.3332 7.24052 29.1171 6.71877 28.7324 6.33408C28.3477 5.94939 27.8259 5.73328 27.2819 5.73328ZM4.71779 7.78456H27.2819V14.964H18.0511C17.5071 14.964 16.9853 15.1802 16.6006 15.5649C16.216 15.9495 15.9998 16.4713 15.9998 17.0153V24.1948H4.71779V7.78456ZM27.2819 24.1948H18.0511V17.0153H27.2819V24.1948Z" fill="#6C7A87"/>
</svg>
