<svg width="32" height="32" viewBox="0 0 32 32" fill="none" xmlns="http://www.w3.org/2000/svg">
<path d="M20.8285 12.6229L17.4503 15.9998L20.8285 19.3768C20.9238 19.472 20.9994 19.5852 21.051 19.7097C21.1026 19.8342 21.1291 19.9676 21.1291 20.1024C21.1291 20.2372 21.1026 20.3706 21.051 20.4951C20.9994 20.6196 20.9238 20.7327 20.8285 20.828C20.7332 20.9233 20.6201 20.9989 20.4956 21.0505C20.3711 21.1021 20.2377 21.1286 20.1029 21.1286C19.9681 21.1286 19.8347 21.1021 19.7102 21.0505C19.5857 20.9989 19.4725 20.9233 19.3773 20.828L16.0003 17.4498L12.6234 20.828C12.5281 20.9233 12.415 20.9989 12.2905 21.0505C12.166 21.1021 12.0325 21.1286 11.8978 21.1286C11.763 21.1286 11.6296 21.1021 11.5051 21.0505C11.3805 20.9989 11.2674 20.9233 11.1721 20.828C11.0768 20.7327 11.0012 20.6196 10.9497 20.4951C10.8981 20.3706 10.8716 20.2372 10.8716 20.1024C10.8716 19.9676 10.8981 19.8342 10.9497 19.7097C11.0012 19.5852 11.0768 19.472 11.1721 19.3768L14.5503 15.9998L11.1721 12.6229C10.9797 12.4305 10.8716 12.1694 10.8716 11.8973C10.8716 11.6251 10.9797 11.3641 11.1721 11.1716C11.3646 10.9792 11.6256 10.8711 11.8978 10.8711C12.1699 10.8711 12.431 10.9792 12.6234 11.1716L16.0003 14.5498L19.3773 11.1716C19.4725 11.0763 19.5857 11.0007 19.7102 10.9492C19.8347 10.8976 19.9681 10.8711 20.1029 10.8711C20.2377 10.8711 20.3711 10.8976 20.4956 10.9492C20.6201 11.0007 20.7332 11.0763 20.8285 11.1716C20.9238 11.2669 20.9994 11.3801 21.051 11.5046C21.1026 11.6291 21.1291 11.7625 21.1291 11.8973C21.1291 12.032 21.1026 12.1655 21.051 12.29C20.9994 12.4145 20.9238 12.5276 20.8285 12.6229ZM29.3337 15.9998C29.3337 18.6369 28.5517 21.2148 27.0866 23.4074C25.6215 25.6001 23.5391 27.3091 21.1028 28.3182C18.6664 29.3274 15.9855 29.5914 13.3991 29.077C10.8127 28.5625 8.43694 27.2926 6.57224 25.4279C4.70754 23.5632 3.43766 21.1875 2.92319 18.601C2.40872 16.0146 2.67277 13.3337 3.68194 10.8974C4.69111 8.46104 6.40007 6.37866 8.59273 4.91358C10.7854 3.44849 13.3632 2.6665 16.0003 2.6665C19.5354 2.67024 22.9246 4.07619 25.4243 6.57587C27.924 9.07554 29.3299 12.4648 29.3337 15.9998ZM27.2824 15.9998C27.2824 13.7685 26.6207 11.5872 25.381 9.73186C24.1413 7.87654 22.3793 6.43049 20.3178 5.57658C18.2563 4.72267 15.9878 4.49925 13.7993 4.93457C11.6108 5.36989 9.60054 6.4444 8.02272 8.02222C6.44489 9.60004 5.37038 11.6103 4.93506 13.7988C4.49974 15.9873 4.72316 18.2558 5.57707 20.3173C6.43099 22.3788 7.87703 24.1408 9.73236 25.3805C11.5877 26.6202 13.769 27.2819 16.0003 27.2819C18.9915 27.2785 21.8591 26.0888 23.9742 23.9737C26.0893 21.8586 27.279 18.991 27.2824 15.9998Z" fill="#6C7A87"/>
</svg>
