<svg width="131" height="112" viewBox="0 0 131 112" fill="none" xmlns="http://www.w3.org/2000/svg">
<path d="M76.7875 21.1824V63.548C76.7875 64.9525 76.2295 66.2994 75.2364 67.2926C74.2433 68.2857 72.8963 68.8437 71.4918 68.8437H22.7434L16.688 78.1475C16.6752 78.1614 16.6607 78.1736 16.6449 78.1839C15.694 78.9918 14.4869 79.4352 13.2391 79.435C12.4623 79.4337 11.6951 79.262 10.9918 78.932C10.077 78.5104 9.30297 77.8342 8.76237 76.9842C8.22177 76.1343 7.93746 75.1466 7.94345 74.1394V21.1824C7.94345 19.7779 8.50139 18.4309 9.49452 17.4378C10.4877 16.4447 11.8346 15.8867 13.2391 15.8867H71.4918C72.8963 15.8867 74.2433 16.4447 75.2364 17.4378C76.2295 18.4309 76.7875 19.7779 76.7875 21.1824Z" fill="url(#paint0_linear_11581_2585)"/>
<path d="M52.9838 42.6507C52.7862 44.9478 51.9367 47.1407 50.5352 48.9714C49.1336 50.802 47.2384 52.1943 45.0725 52.9845C42.9065 53.7746 40.56 53.9297 38.3089 53.4315C36.0578 52.9333 33.9958 51.8025 32.3655 50.1723C30.7352 48.542 29.6045 46.48 29.1063 44.2289C28.6081 41.9778 28.7632 39.6312 29.5533 37.4653C30.3434 35.2994 31.7357 33.4041 33.5664 32.0026C35.3971 30.6011 37.5899 29.7515 39.887 29.5539C40.0092 29.5439 40.1321 29.5579 40.2488 29.5954C40.3654 29.6328 40.4736 29.6928 40.5671 29.7721C40.6606 29.8513 40.7376 29.9482 40.7936 30.0572C40.8496 30.1661 40.8837 30.2851 40.8938 30.4072C40.9038 30.5294 40.8897 30.6523 40.8523 30.769C40.8149 30.8856 40.7548 30.9938 40.6756 31.0873C40.5964 31.1808 40.4995 31.2578 40.3905 31.3138C40.2816 31.3698 40.1626 31.4039 40.0405 31.414C38.0963 31.581 36.2402 32.2999 34.6907 33.486C33.1412 34.6721 31.9627 36.2761 31.2939 38.1092C30.6251 39.9424 30.4938 41.9284 30.9154 43.8337C31.337 45.7389 32.294 47.4841 33.6738 48.864C35.0536 50.2438 36.7988 51.2008 38.7041 51.6224C40.6094 52.044 42.5954 51.9127 44.4286 51.2438C46.2617 50.575 47.8657 49.3965 49.0518 47.847C50.2379 46.2975 50.9568 44.4415 51.1238 42.4973C51.1442 42.2506 51.2617 42.0222 51.4505 41.8621C51.6393 41.7021 51.8839 41.6237 52.1305 41.644C52.3772 41.6644 52.6057 41.7819 52.7657 41.9707C52.9257 42.1595 53.0042 42.4041 52.9838 42.6507ZM39.9637 35.134V41.644C39.9637 41.8907 40.0617 42.1272 40.2361 42.3016C40.4105 42.476 40.6471 42.574 40.8938 42.574H47.4038C47.6504 42.574 47.887 42.476 48.0614 42.3016C48.2358 42.1272 48.3338 41.8907 48.3338 41.644C48.3338 41.3974 48.2358 41.1608 48.0614 40.9864C47.887 40.812 47.6504 40.714 47.4038 40.714H41.8238V35.134C41.8238 34.8873 41.7258 34.6508 41.5514 34.4764C41.377 34.3019 41.1404 34.204 40.8938 34.204C40.6471 34.204 40.4105 34.3019 40.2361 34.4764C40.0617 34.6508 39.9637 34.8873 39.9637 35.134ZM44.6138 32.344C44.8897 32.344 45.1594 32.2621 45.3888 32.1089C45.6182 31.9556 45.797 31.7377 45.9026 31.4828C46.0082 31.2279 46.0358 30.9474 45.982 30.6768C45.9282 30.4062 45.7953 30.1576 45.6002 29.9625C45.4051 29.7674 45.1565 29.6346 44.8859 29.5807C44.6153 29.5269 44.3348 29.5545 44.0799 29.6601C43.825 29.7657 43.6072 29.9445 43.4539 30.1739C43.3006 30.4033 43.2188 30.673 43.2188 30.9489C43.2188 31.3189 43.3657 31.6738 43.6274 31.9354C43.889 32.197 44.2438 32.344 44.6138 32.344ZM48.7988 35.134C49.0747 35.134 49.3444 35.0522 49.5738 34.8989C49.8032 34.7456 49.982 34.5277 50.0876 34.2728C50.1932 34.0179 50.2208 33.7374 50.167 33.4668C50.1132 33.1962 49.9803 32.9476 49.7852 32.7525C49.5901 32.5574 49.3416 32.4246 49.0709 32.3708C48.8003 32.3169 48.5199 32.3446 48.2649 32.4501C48.01 32.5557 47.7922 32.7345 47.6389 32.9639C47.4856 33.1933 47.4038 33.4631 47.4038 33.739C47.4038 34.1089 47.5508 34.4638 47.8124 34.7254C48.074 34.987 48.4288 35.134 48.7988 35.134ZM51.5888 39.319C51.8647 39.319 52.1344 39.2372 52.3638 39.0839C52.5932 38.9306 52.772 38.7127 52.8776 38.4578C52.9832 38.2029 53.0108 37.9224 52.957 37.6518C52.9032 37.3812 52.7703 37.1327 52.5752 36.9376C52.3801 36.7425 52.1316 36.6096 51.861 36.5558C51.5904 36.502 51.3099 36.5296 51.055 36.6352C50.8001 36.7408 50.5822 36.9196 50.4289 37.149C50.2756 37.3784 50.1938 37.6481 50.1938 37.924C50.1938 38.294 50.3408 38.6488 50.6024 38.9104C50.864 39.172 51.2188 39.319 51.5888 39.319Z" fill="#FAFEFF"/>
<path d="M61.3725 54.3001V96.2635C61.3725 97.6547 61.9304 98.9889 62.9236 99.9726C63.9168 100.956 65.2638 101.509 66.6683 101.509H115.418L121.474 110.725C121.487 110.738 121.501 110.75 121.517 110.761C122.468 111.561 123.675 112 124.923 112C125.7 111.999 126.467 111.828 127.17 111.502C128.085 111.084 128.859 110.414 129.4 109.572C129.94 108.73 130.225 107.752 130.219 106.754V54.3001C130.219 52.9089 129.661 51.5747 128.668 50.591C127.674 49.6073 126.327 49.0547 124.923 49.0547H66.6683C65.2638 49.0547 63.9168 49.6073 62.9236 50.591C61.9304 51.5747 61.3725 52.9089 61.3725 54.3001Z" fill="url(#paint1_linear_11581_2585)"/>
<defs>
<linearGradient id="paint0_linear_11581_2585" x1="121.299" y1="-19.6223" x2="-31.6628" y2="110.15" gradientUnits="userSpaceOnUse">
<stop stop-color="#FF9730"/>
<stop offset="1" stop-color="#FFB266" stop-opacity="0.7"/>
</linearGradient>
<linearGradient id="paint1_linear_11581_2585" x1="16.8595" y1="13.8827" x2="168.599" y2="143.856" gradientUnits="userSpaceOnUse">
<stop stop-color="#FF9730"/>
<stop offset="1" stop-color="#FFB266" stop-opacity="0.7"/>
</linearGradient>
</defs>
</svg>

