<svg width="24" height="24" viewBox="0 0 24 24" fill="none" xmlns="http://www.w3.org/2000/svg">
<path d="M20.25 3.75H3.75C3.35218 3.75 2.97064 3.90804 2.68934 4.18934C2.40804 4.47064 2.25 4.85218 2.25 5.25V18.75C2.25 19.1478 2.40804 19.5294 2.68934 19.8107C2.97064 20.092 3.35218 20.25 3.75 20.25H20.25C20.6478 20.25 21.0294 20.092 21.3107 19.8107C21.592 19.5294 21.75 19.1478 21.75 18.75V5.25C21.75 4.85218 21.592 4.47064 21.3107 4.18934C21.0294 3.90804 20.6478 3.75 20.25 3.75ZM20.25 5.25V14.8828L17.8059 12.4397C17.6666 12.3004 17.5013 12.1898 17.3193 12.1144C17.1372 12.039 16.9422 12.0002 16.7452 12.0002C16.5481 12.0002 16.3531 12.039 16.1711 12.1144C15.989 12.1898 15.8237 12.3004 15.6844 12.4397L13.8094 14.3147L9.68438 10.1897C9.4031 9.9086 9.02172 9.7507 8.62406 9.7507C8.22641 9.7507 7.84503 9.9086 7.56375 10.1897L3.75 14.0034V5.25H20.25ZM3.75 16.125L8.625 11.25L16.125 18.75H3.75V16.125ZM20.25 18.75H18.2466L14.8716 15.375L16.7466 13.5L20.25 17.0044V18.75ZM13.5 9.375C13.5 9.1525 13.566 8.93499 13.6896 8.74998C13.8132 8.56498 13.9889 8.42078 14.1945 8.33564C14.4 8.25049 14.6262 8.22821 14.8445 8.27162C15.0627 8.31502 15.2632 8.42217 15.4205 8.5795C15.5778 8.73684 15.685 8.93729 15.7284 9.15552C15.7718 9.37375 15.7495 9.59995 15.6644 9.80552C15.5792 10.0111 15.435 10.1868 15.25 10.3104C15.065 10.434 14.8475 10.5 14.625 10.5C14.3266 10.5 14.0405 10.3815 13.8295 10.1705C13.6185 9.95952 13.5 9.67337 13.5 9.375Z" fill="#343330"/>
</svg>
