<svg width="22" height="19" viewBox="0 0 22 19" fill="none" xmlns="http://www.w3.org/2000/svg">
<path d="M21.7696 9.19914L13.9126 17.0561C13.8027 17.1661 13.6627 17.241 13.5102 17.2714C13.3577 17.3018 13.1996 17.2862 13.056 17.2267C12.9123 17.1672 12.7896 17.0664 12.7033 16.937C12.6169 16.8077 12.5709 16.6557 12.571 16.5002V12.5943C6.96316 12.9125 3.11816 16.5493 2.03882 17.7013C1.86933 17.8823 1.64708 18.0053 1.40368 18.0526C1.16029 18.1 0.908151 18.0694 0.683157 17.9652C0.458164 17.8609 0.271777 17.6884 0.150522 17.4721C0.0292678 17.2558 -0.0206766 17.0068 0.00779724 16.7605C0.372163 13.5922 2.10757 10.5446 4.89482 8.1797C7.20967 6.21546 10.0234 4.96915 12.571 4.75112V0.786313C12.5709 0.630828 12.6169 0.478802 12.7033 0.349481C12.7896 0.220161 12.9123 0.119361 13.056 0.0598424C13.1996 0.000324097 13.3577 -0.0152363 13.5102 0.0151311C13.6627 0.0454985 13.8027 0.120428 13.9126 0.230434L21.7696 8.08738C21.8426 8.16035 21.9006 8.247 21.9401 8.34238C21.9796 8.43777 22 8.54001 22 8.64326C22 8.74651 21.9796 8.84875 21.9401 8.94413C21.9006 9.03951 21.8426 9.12617 21.7696 9.19914Z" fill="#6C7A87"/>
</svg>

