<svg width="32" height="32" viewBox="0 0 32 32" fill="none" xmlns="http://www.w3.org/2000/svg">
<path d="M27.5251 12.5001L25.2751 8.60262C24.98 8.09093 24.5603 7.66222 24.0549 7.35644C23.5496 7.05065 22.9751 6.87772 22.3849 6.85377C21.7948 6.82981 21.2081 6.9556 20.6797 7.21943C20.1512 7.48325 19.6981 7.87652 19.3626 8.36262L17.4451 5.03887C17.1417 4.5136 16.7071 4.07618 16.1838 3.76949C15.6605 3.46281 15.0665 3.29738 14.46 3.28944C13.8534 3.2815 13.2553 3.43132 12.7241 3.7242C12.193 4.01708 11.747 4.44297 11.4301 4.96012C10.811 4.40278 10.0135 4.0845 9.18077 4.06247C8.34808 4.04045 7.53483 4.31614 6.88718 4.83998C6.23953 5.36382 5.79994 6.10148 5.64742 6.92038C5.4949 7.73928 5.63943 8.58573 6.05506 9.30762L6.47256 10.0314C5.88374 10.0787 5.31647 10.2743 4.8236 10.5999C4.33074 10.9255 3.9283 11.3706 3.65379 11.8937C3.37928 12.4167 3.24163 13.0008 3.25365 13.5914C3.26568 14.182 3.42699 14.7599 3.72256 15.2714L8.47256 23.4989C9.19186 24.7521 10.1525 25.8503 11.2989 26.73C12.4452 27.6097 13.7546 28.2534 15.1513 28.6239C16.0858 28.8735 17.049 28.9996 18.0163 28.9989C19.9455 28.9957 21.84 28.4851 23.5096 27.5185C25.1792 26.5519 26.5652 25.1631 27.5285 23.4916C28.4919 21.8201 28.9987 19.9246 28.9981 17.9954C28.9975 16.0662 28.4895 14.171 27.5251 12.5001ZM26.6913 20.3289C26.2307 22.0483 25.2705 23.5925 23.9323 24.7662C22.594 25.9399 20.9378 26.6904 19.173 26.9228C17.4082 27.1552 15.6141 26.8591 14.0176 26.0718C12.4211 25.2846 11.0939 24.0416 10.2038 22.5001L5.45381 14.2726C5.35532 14.102 5.2914 13.9136 5.26571 13.7183C5.24001 13.5229 5.25305 13.3245 5.30406 13.1342C5.40709 12.7498 5.65857 12.4222 6.00319 12.2232C6.3478 12.0243 6.75732 11.9705 7.14165 12.0735C7.33196 12.1245 7.51035 12.2125 7.66664 12.3325C7.82293 12.4524 7.95407 12.602 8.05256 12.7726L10.8026 17.5351C10.8663 17.6525 10.9529 17.7559 11.0572 17.8392C11.1615 17.9226 11.2815 17.9842 11.41 18.0204C11.5386 18.0566 11.673 18.0668 11.8056 18.0502C11.9381 18.0336 12.0659 17.9906 12.1815 17.9238C12.2972 17.8571 12.3983 17.7678 12.4788 17.6613C12.5594 17.5548 12.6178 17.4332 12.6507 17.3038C12.6835 17.1744 12.6901 17.0397 12.67 16.9076C12.6499 16.7756 12.6036 16.649 12.5338 16.5351L7.78381 8.30887C7.63549 8.05193 7.56669 7.75677 7.58612 7.46073C7.60555 7.16469 7.71233 6.88105 7.89296 6.6457C8.07359 6.41035 8.31996 6.23384 8.6009 6.13851C8.88184 6.04318 9.18475 6.0333 9.47131 6.11012C9.66193 6.16039 9.84065 6.24806 9.99708 6.36802C10.1535 6.48797 10.2845 6.63783 10.3826 6.80887L14.6326 14.1701C14.7688 14.3923 14.9865 14.5525 15.2391 14.6166C15.4918 14.6807 15.7595 14.6436 15.9852 14.5132C16.2109 14.3829 16.3768 14.1695 16.4475 13.9186C16.5182 13.6678 16.4882 13.3992 16.3638 13.1701L13.1138 7.54512C12.9235 7.20118 12.8758 6.79628 12.9809 6.41752C13.0861 6.03876 13.3357 5.71642 13.6761 5.51984C14.0165 5.32327 14.4205 5.26817 14.8011 5.3664C15.1817 5.46464 15.5086 5.70836 15.7113 6.04512L20.0001 13.4726C18.9083 14.3772 18.1715 15.6386 17.9198 17.034C17.6682 18.4293 17.918 19.8687 18.6251 21.0976C18.7577 21.3274 18.9761 21.495 19.2323 21.5637C19.4886 21.6324 19.7616 21.5965 19.9913 21.4639C20.2211 21.3313 20.3887 21.1128 20.4574 20.8566C20.5261 20.6004 20.4902 20.3274 20.3576 20.0976C19.8272 19.179 19.6835 18.0873 19.958 17.0626C20.2325 16.038 20.9027 15.1644 21.8213 14.6339C21.9351 14.5682 22.0348 14.4808 22.1148 14.3766C22.1948 14.2724 22.2535 14.1535 22.2875 14.0266C22.3215 13.8997 22.3302 13.7674 22.313 13.6372C22.2959 13.5069 22.2532 13.3814 22.1876 13.2676L20.9376 11.1026C20.7472 10.7587 20.6995 10.3538 20.8047 9.97502C20.9098 9.59626 21.1595 9.27392 21.4999 9.07734C21.8403 8.88077 22.2442 8.82567 22.6249 8.9239C23.0055 9.02214 23.3323 9.26585 23.5351 9.60262L25.7851 13.5001C26.3802 14.5216 26.7668 15.6511 26.9224 16.8231C27.0779 17.995 26.9994 19.1862 26.6913 20.3276V20.3289ZM23.0338 3.74137C23.0678 3.61446 23.1264 3.49548 23.2063 3.39123C23.2863 3.28698 23.386 3.19951 23.4997 3.13381C23.6135 3.0681 23.7391 3.02546 23.8693 3.00831C23.9996 2.99116 24.1319 2.99985 24.2588 3.03387C26.2476 3.56762 27.8838 4.79762 28.8663 6.50012C28.9989 6.72986 29.0348 7.00287 28.9661 7.2591C28.8975 7.51532 28.7298 7.73376 28.5001 7.86637C28.2703 7.99898 27.9973 8.03489 27.7411 7.9662C27.4849 7.89752 27.2664 7.72986 27.1338 7.50012C26.4188 6.26012 25.2138 5.36012 23.7413 4.96637C23.6144 4.93242 23.4954 4.8738 23.3912 4.79386C23.2869 4.71392 23.1995 4.61422 23.1337 4.50046C23.068 4.3867 23.0254 4.2611 23.0083 4.13086C22.9911 4.00061 22.9998 3.86826 23.0338 3.74137ZM10.1138 29.6251C10.0325 29.7283 9.93166 29.8145 9.81703 29.8787C9.7024 29.943 9.57624 29.984 9.44576 29.9994C9.31528 30.0148 9.18304 30.0044 9.05659 29.9687C8.93014 29.933 8.81196 29.8728 8.70881 29.7914C7.33381 28.7051 6.19506 27.3439 5.13381 25.5064C5.0012 25.2766 4.96529 25.0036 5.03398 24.7474C5.10266 24.4912 5.27032 24.2727 5.50006 24.1401C5.72981 24.0075 6.00282 23.9716 6.25904 24.0403C6.51526 24.109 6.7337 24.2766 6.86631 24.5064C7.79631 26.1164 8.77506 27.2964 9.94756 28.2214C10.1557 28.3855 10.29 28.6256 10.3212 28.8888C10.3524 29.1521 10.2778 29.4169 10.1138 29.6251Z" fill="#343330"/>
</svg>
