<svg width="24" height="24" viewBox="0 0 24 24" fill="none" xmlns="http://www.w3.org/2000/svg">
<path d="M5.82666 4.22425C5.76812 4.15825 5.69705 4.10454 5.61759 4.06621C5.53814 4.02788 5.45186 4.0057 5.36377 4.00096C5.27567 3.99622 5.18751 4.00902 5.1044 4.0386C5.02129 4.06818 4.94487 4.11397 4.87959 4.1733C4.8143 4.23263 4.76144 4.30433 4.72406 4.38424C4.68669 4.46416 4.66555 4.55069 4.66187 4.63884C4.65818 4.72698 4.67203 4.81498 4.70261 4.89773C4.73319 4.98048 4.77988 5.05634 4.83999 5.12092L6.44333 6.88508C3.41666 8.74259 2.11499 11.6059 2.05749 11.7359C2.01959 11.8212 2 11.9134 2 12.0068C2 12.1001 2.01959 12.1923 2.05749 12.2776C2.08666 12.3434 2.79249 13.9084 4.36166 15.4776C6.4525 17.5676 9.09333 18.6726 12 18.6726C13.4938 18.6811 14.9726 18.3735 16.3392 17.7701L18.1725 19.7876C18.2311 19.8536 18.3021 19.9073 18.3816 19.9456C18.461 19.984 18.5473 20.0061 18.6354 20.0109C18.7235 20.0156 18.8117 20.0028 18.8948 19.9732C18.9779 19.9437 19.0543 19.8979 19.1196 19.8385C19.1849 19.7792 19.2377 19.7075 19.2751 19.6276C19.3125 19.5477 19.3336 19.4611 19.3373 19.373C19.341 19.2849 19.3271 19.1969 19.2966 19.1141C19.266 19.0314 19.2193 18.9555 19.1592 18.8909L5.82666 4.22425ZM9.77083 10.5443L13.2433 14.3651C12.7204 14.6402 12.1209 14.7338 11.539 14.6313C10.9571 14.5288 10.4257 14.2359 10.0283 13.7986C9.63095 13.3613 9.39003 12.8045 9.34342 12.2154C9.29681 11.6264 9.44715 11.0386 9.77083 10.5443ZM12 17.3393C9.435 17.3393 7.19416 16.4068 5.33916 14.5684C4.57776 13.8117 3.93018 12.9486 3.41666 12.0059C3.80749 11.2734 5.05499 9.22342 7.3625 7.89092L8.8625 9.53675C8.28178 10.2805 7.98269 11.2056 8.01811 12.1486C8.05352 13.0915 8.42115 13.9916 9.05603 14.6897C9.6909 15.3878 10.5521 15.839 11.4875 15.9635C12.4229 16.088 13.3721 15.8778 14.1675 15.3701L15.395 16.7201C14.3117 17.1357 13.1603 17.3457 12 17.3393ZM12.5 9.38675C12.3263 9.3536 12.1729 9.2528 12.0735 9.10652C11.9741 8.96024 11.9368 8.78047 11.97 8.60675C12.0032 8.43303 12.104 8.2796 12.2502 8.18021C12.3965 8.08081 12.5763 8.0436 12.75 8.07675C13.5997 8.24148 14.3733 8.67646 14.9556 9.31683C15.5378 9.95719 15.8975 10.7686 15.9808 11.6301C15.9973 11.8061 15.9432 11.9815 15.8303 12.1176C15.7175 12.2537 15.5552 12.3395 15.3792 12.3559C15.3584 12.3571 15.3375 12.3571 15.3167 12.3559C15.15 12.3566 14.9892 12.2949 14.8658 12.1829C14.7424 12.071 14.6654 11.9168 14.65 11.7509C14.5939 11.1779 14.3543 10.6383 13.967 10.2124C13.5796 9.78642 13.0651 9.49686 12.5 9.38675ZM21.94 12.2776C21.905 12.3559 21.0608 14.2251 19.16 15.9276C19.0951 15.9876 19.0188 16.0341 18.9357 16.0644C18.8526 16.0947 18.7643 16.1081 18.676 16.1039C18.5876 16.0997 18.501 16.078 18.4212 16.04C18.3413 16.002 18.2698 15.9485 18.2108 15.8826C18.1518 15.8167 18.1065 15.7398 18.0776 15.6562C18.0486 15.5726 18.0366 15.4841 18.0422 15.3959C18.0478 15.3076 18.0709 15.2213 18.1101 15.1421C18.1494 15.0628 18.204 14.9922 18.2708 14.9343C19.2034 14.0964 19.9868 13.1062 20.5875 12.0059C20.0729 11.0624 19.4239 10.1987 18.6608 9.44175C16.8058 7.60508 14.565 6.67258 12 6.67258C11.4595 6.67192 10.92 6.71568 10.3867 6.80342C10.2999 6.81875 10.211 6.81676 10.1251 6.79754C10.0391 6.77832 9.95786 6.74226 9.88593 6.69145C9.814 6.64064 9.75285 6.57608 9.70601 6.5015C9.65917 6.42692 9.62757 6.3438 9.61304 6.25694C9.59851 6.17008 9.60133 6.0812 9.62135 5.99544C9.64136 5.90967 9.67817 5.82872 9.72964 5.75727C9.78112 5.68581 9.84624 5.62526 9.92125 5.57911C9.99626 5.53297 10.0797 5.50214 10.1667 5.48842C10.7726 5.38836 11.3858 5.33847 12 5.33925C14.9067 5.33925 17.5475 6.44425 19.6383 8.53509C21.2075 10.1043 21.9133 11.6701 21.9425 11.7359C21.9804 11.8212 22 11.9134 22 12.0068C22 12.1001 21.9804 12.1923 21.9425 12.2776H21.94Z" fill="#343330"/>
</svg>
