<svg width="20" height="20" viewBox="0 0 20 20" fill="none" xmlns="http://www.w3.org/2000/svg">
<path d="M10 0C8.02219 0 6.08879 0.58649 4.4443 1.6853C2.79981 2.78412 1.51809 4.3459 0.761209 6.17316C0.00433284 8.00042 -0.1937 10.0111 0.192152 11.9509C0.578004 13.8907 1.53041 15.6725 2.92894 17.0711C4.32746 18.4696 6.10929 19.422 8.0491 19.8078C9.98891 20.1937 11.9996 19.9957 13.8268 19.2388C15.6541 18.4819 17.2159 17.2002 18.3147 15.5557C19.4135 13.9112 20 11.9778 20 10C19.9972 7.34869 18.9427 4.80678 17.068 2.93202C15.1932 1.05727 12.6513 0.00279983 10 0ZM10 18.4615C8.32647 18.4615 6.69052 17.9653 5.29902 17.0355C3.90753 16.1057 2.823 14.7842 2.18256 13.2381C1.54213 11.6919 1.37456 9.99061 1.70105 8.34923C2.02754 6.70786 2.83343 5.20016 4.01679 4.01679C5.20016 2.83342 6.70786 2.02754 8.34924 1.70105C9.99062 1.37456 11.6919 1.54212 13.2381 2.18256C14.7842 2.82299 16.1057 3.90753 17.0355 5.29902C17.9653 6.69051 18.4615 8.32646 18.4615 10C18.459 12.2434 17.5667 14.3941 15.9804 15.9804C14.3941 17.5667 12.2434 18.459 10 18.4615ZM11.5385 14.6154C11.5385 14.8194 11.4574 15.0151 11.3132 15.1593C11.1689 15.3036 10.9732 15.3846 10.7692 15.3846C10.3612 15.3846 9.96989 15.2225 9.68138 14.934C9.39286 14.6455 9.23077 14.2542 9.23077 13.8462V10C9.02676 10 8.8311 9.91895 8.68684 9.7747C8.54259 9.63044 8.46154 9.43478 8.46154 9.23077C8.46154 9.02675 8.54259 8.8311 8.68684 8.68684C8.8311 8.54258 9.02676 8.46154 9.23077 8.46154C9.6388 8.46154 10.0301 8.62362 10.3186 8.91214C10.6071 9.20066 10.7692 9.59197 10.7692 10V13.8462C10.9732 13.8462 11.1689 13.9272 11.3132 14.0715C11.4574 14.2157 11.5385 14.4114 11.5385 14.6154ZM8.46154 5.76923C8.46154 5.54102 8.52921 5.31794 8.656 5.12819C8.78279 4.93844 8.96299 4.79055 9.17383 4.70321C9.38467 4.61588 9.61667 4.59303 9.84049 4.63755C10.0643 4.68208 10.2699 4.79197 10.4313 4.95334C10.5926 5.11471 10.7025 5.3203 10.7471 5.54413C10.7916 5.76795 10.7687 5.99995 10.6814 6.21079C10.5941 6.42163 10.4462 6.60183 10.2564 6.72862C10.0667 6.8554 9.8436 6.92308 9.61539 6.92308C9.30937 6.92308 9.01588 6.80151 8.79949 6.58512C8.58311 6.36873 8.46154 6.07525 8.46154 5.76923Z" fill="#6C7A87"/>
</svg>
