<svg width="131" height="113" viewBox="0 0 131 113" fill="none" xmlns="http://www.w3.org/2000/svg">
<path d="M76.7875 21.6829V64.0485C76.7875 65.453 76.2295 66.7999 75.2364 67.7931C74.2433 68.7862 72.8963 69.3441 71.4918 69.3441H22.7434L16.688 78.648C16.6752 78.6619 16.6607 78.6741 16.6449 78.6844C15.694 79.4923 14.4869 79.9357 13.2391 79.9355C12.4623 79.9342 11.6951 79.7625 10.9918 79.4324C10.077 79.0109 9.30297 78.3346 8.76237 77.4847C8.22177 76.6348 7.93746 75.6471 7.94345 74.6398V21.6829C7.94345 20.2784 8.50139 18.9314 9.49452 17.9383C10.4877 16.9451 11.8346 16.3872 13.2391 16.3872H71.4918C72.8963 16.3872 74.2433 16.9451 75.2364 17.9383C76.2295 18.9314 76.7875 20.2784 76.7875 21.6829Z" fill="url(#paint0_linear_4118_716)"/>
<path d="M52.8457 44.3151H32.7778C32.2456 44.3151 31.7351 44.5266 31.3588 44.9029C30.9824 45.2793 30.771 45.7897 30.771 46.3219V52.3423C30.771 52.8745 30.9824 53.385 31.3588 53.7613C31.7351 54.1377 32.2456 54.3491 32.7778 54.3491H52.8457C53.3779 54.3491 53.8883 54.1377 54.2647 53.7613C54.641 53.385 54.8525 52.8745 54.8525 52.3423V46.3219C54.8525 45.7897 54.641 45.2793 54.2647 44.9029C53.8883 44.5266 53.3779 44.3151 52.8457 44.3151ZM52.8457 52.3423H32.7778V46.3219H52.8457V52.3423ZM52.8457 32.2744H32.7778C32.2456 32.2744 31.7351 32.4858 31.3588 32.8622C30.9824 33.2385 30.771 33.749 30.771 34.2812V40.3016C30.771 40.8338 30.9824 41.3442 31.3588 41.7206C31.7351 42.0969 32.2456 42.3084 32.7778 42.3084H52.8457C53.3779 42.3084 53.8883 42.0969 54.2647 41.7206C54.641 41.3442 54.8525 40.8338 54.8525 40.3016V34.2812C54.8525 33.749 54.641 33.2385 54.2647 32.8622C53.8883 32.4858 53.3779 32.2744 52.8457 32.2744ZM52.8457 40.3016H32.7778V34.2812H52.8457V40.3016ZM50.8389 37.2914C50.8389 37.5891 50.7506 37.8801 50.5852 38.1276C50.4199 38.3751 50.1848 38.568 49.9098 38.6819C49.6348 38.7958 49.3321 38.8256 49.0402 38.7676C48.7482 38.7095 48.48 38.5661 48.2695 38.3556C48.059 38.1452 47.9157 37.877 47.8576 37.585C47.7996 37.2931 47.8294 36.9904 47.9433 36.7154C48.0572 36.4404 48.2501 36.2053 48.4976 36.0399C48.7451 35.8746 49.0361 35.7863 49.3338 35.7863C49.733 35.7863 50.1158 35.9449 50.3981 36.2271C50.6803 36.5094 50.8389 36.8922 50.8389 37.2914ZM50.8389 49.3321C50.8389 49.6298 50.7506 49.9208 50.5852 50.1683C50.4199 50.4158 50.1848 50.6087 49.9098 50.7226C49.6348 50.8366 49.3321 50.8664 49.0402 50.8083C48.7482 50.7502 48.48 50.6069 48.2695 50.3964C48.059 50.1859 47.9157 49.9177 47.8576 49.6258C47.7996 49.3338 47.8294 49.0312 47.9433 48.7561C48.0572 48.4811 48.2501 48.2461 48.4976 48.0807C48.7451 47.9153 49.0361 47.827 49.3338 47.827C49.733 47.827 50.1158 47.9856 50.3981 48.2679C50.6803 48.5501 50.8389 48.9329 50.8389 49.3321Z" fill="white"/>
<path d="M61.372 54.8001V96.7635C61.372 98.1547 61.93 99.4889 62.9231 100.473C63.9163 101.456 65.2633 102.009 66.6679 102.009H115.418L121.473 111.225C121.486 111.238 121.501 111.25 121.516 111.261C122.467 112.061 123.675 112.5 124.922 112.5C125.699 112.499 126.466 112.328 127.17 112.002C128.085 111.584 128.859 110.914 129.399 110.072C129.94 109.23 130.224 108.252 130.218 107.254V54.8001C130.218 53.4089 129.66 52.0747 128.667 51.091C127.674 50.1073 126.327 49.5547 124.922 49.5547H66.6679C65.2633 49.5547 63.9163 50.1073 62.9231 51.091C61.93 52.0747 61.372 53.4089 61.372 54.8001Z" fill="url(#paint1_linear_4118_716)"/>
<path d="M84.2856 78.3185H106.583C107.175 78.3185 107.742 78.5535 108.16 78.9716C108.578 79.3898 108.813 79.9569 108.813 80.5483V87.2376C108.813 87.829 108.578 88.3961 108.16 88.8143C107.742 89.2324 107.175 89.4674 106.583 89.4674H84.2856C83.6942 89.4674 83.127 89.2324 82.7089 88.8143C82.2907 88.3961 82.0558 87.829 82.0558 87.2376V80.5483C82.0558 79.9569 82.2907 79.3898 82.7089 78.9716C83.127 78.5535 83.6942 78.3185 84.2856 78.3185ZM84.2856 87.2376H106.583V80.5483H84.2856V87.2376ZM84.2856 64.9399H106.583C107.175 64.9399 107.742 65.1749 108.16 65.593C108.578 66.0112 108.813 66.5783 108.813 67.1697V73.859C108.813 74.4504 108.578 75.0175 108.16 75.4357C107.742 75.8538 107.175 76.0888 106.583 76.0888H84.2856C83.6942 76.0888 83.127 75.8538 82.7089 75.4357C82.2907 75.0175 82.0558 74.4504 82.0558 73.859V67.1697C82.0558 66.5783 82.2907 66.0112 82.7089 65.593C83.127 65.1749 83.6942 64.9399 84.2856 64.9399ZM84.2856 73.859H106.583V67.1697H84.2856V73.859ZM86.5153 70.5144C86.5153 70.8451 86.6134 71.1684 86.7972 71.4434C86.9809 71.7185 87.2421 71.9328 87.5477 72.0594C87.8533 72.186 88.1895 72.2191 88.5139 72.1545C88.8383 72.09 89.1363 71.9307 89.3702 71.6969C89.604 71.463 89.7633 71.165 89.8278 70.8406C89.8924 70.5162 89.8593 70.18 89.7327 69.8744C89.6061 69.5688 89.3918 69.3076 89.1167 69.1239C88.8417 68.9401 88.5184 68.842 88.1877 68.842C87.7441 68.842 87.3188 69.0182 87.0051 69.3318C86.6915 69.6455 86.5153 70.0708 86.5153 70.5144ZM86.5153 83.893C86.5153 84.2237 86.6134 84.547 86.7972 84.822C86.9809 85.0971 87.2421 85.3114 87.5477 85.438C87.8533 85.5646 88.1895 85.5977 88.5139 85.5331C88.8383 85.4686 89.1363 85.3093 89.3702 85.0755C89.604 84.8416 89.7633 84.5436 89.8278 84.2192C89.8924 83.8948 89.8593 83.5586 89.7327 83.253C89.6061 82.9474 89.3918 82.6862 89.1167 82.5025C88.8417 82.3187 88.5184 82.2206 88.1877 82.2206C87.7441 82.2206 87.3188 82.3968 87.0051 82.7104C86.6915 83.0241 86.5153 83.4494 86.5153 83.893Z" fill="white"/>
<defs>
<linearGradient id="paint0_linear_4118_716" x1="121.299" y1="-19.1218" x2="-31.6628" y2="110.651" gradientUnits="userSpaceOnUse">
<stop stop-color="#FF9730"/>
<stop offset="1" stop-color="#FFB266" stop-opacity="0.7"/>
</linearGradient>
<linearGradient id="paint1_linear_4118_716" x1="16.859" y1="14.3827" x2="168.599" y2="144.356" gradientUnits="userSpaceOnUse">
<stop stop-color="#FF9730"/>
<stop offset="1" stop-color="#FFB266" stop-opacity="0.7"/>
</linearGradient>
</defs>
</svg>
