<svg width="28" height="28" viewBox="0 0 28 28" fill="none" xmlns="http://www.w3.org/2000/svg">
<path d="M27.3334 2.88884V25.1105C27.3334 25.6999 27.0993 26.2651 26.6826 26.6819C26.2658 27.0986 25.7006 27.3327 25.1112 27.3327H15.1115C14.8168 27.3327 14.5342 27.2157 14.3258 27.0073C14.1175 26.7989 14.0004 26.5163 14.0004 26.2216C14.0004 25.927 14.1175 25.6443 14.3258 25.436C14.5342 25.2276 14.8168 25.1105 15.1115 25.1105H25.1112V2.88884H2.88954V16.2219C2.88954 16.5165 2.77248 16.7992 2.56411 17.0075C2.35574 17.2159 2.07313 17.333 1.77845 17.333C1.48377 17.333 1.20116 17.2159 0.992795 17.0075C0.784426 16.7992 0.667366 16.5165 0.667366 16.2219V2.88884C0.667366 2.29949 0.901487 1.73427 1.31822 1.31753C1.73496 0.900793 2.30018 0.666672 2.88954 0.666672H25.1112C25.7006 0.666672 26.2658 0.900793 26.6826 1.31753C27.0993 1.73427 27.3334 2.29949 27.3334 2.88884ZM13.6754 17.6579C13.5722 17.5546 13.4497 17.4727 13.3148 17.4168C13.1799 17.3609 13.0353 17.3321 12.8893 17.3321C12.7433 17.3321 12.5987 17.3609 12.4638 17.4168C12.3289 17.4727 12.2064 17.5546 12.1032 17.6579L5.11171 24.6508L2.56454 22.1023C2.46131 21.9991 2.33876 21.9172 2.20388 21.8613C2.069 21.8054 1.92444 21.7767 1.77845 21.7767C1.63246 21.7767 1.4879 21.8054 1.35302 21.8613C1.21814 21.9172 1.09559 21.9991 0.992358 22.1023C0.889127 22.2055 0.80724 22.3281 0.751371 22.4629C0.695503 22.5978 0.666748 22.7424 0.666748 22.8884C0.666748 23.0344 0.695503 23.1789 0.751371 23.3138C0.80724 23.4487 0.889127 23.5712 0.992358 23.6745L4.32561 27.0077C4.4288 27.111 4.55134 27.193 4.68623 27.2489C4.82111 27.3048 4.96569 27.3336 5.11171 27.3336C5.25772 27.3336 5.4023 27.3048 5.53719 27.2489C5.67207 27.193 5.79461 27.111 5.8978 27.0077L13.6754 19.2301C13.7787 19.1269 13.8607 19.0044 13.9166 18.8695C13.9725 18.7346 14.0013 18.59 14.0013 18.444C14.0013 18.298 13.9725 18.1534 13.9166 18.0186C13.8607 17.8837 13.7787 17.7611 13.6754 17.6579Z" fill="#FE5E00"/>
</svg>
