<svg width="16" height="17" viewBox="0 0 16 17" fill="none" xmlns="http://www.w3.org/2000/svg">
<path fill-rule="evenodd" clip-rule="evenodd" d="M12 7.16667V4.5C12 2.29133 10.2087 0.5 8 0.5C5.79133 0.5 4 2.29133 4 4.5V7.16667H2V16.5H14V7.16667H12ZM8.66667 12.3153V13.8333H7.33333V12.3153C6.93667 12.084 6.66667 11.6593 6.66667 11.1667C6.66667 10.4307 7.264 9.83333 8 9.83333C8.736 9.83333 9.33333 10.4307 9.33333 11.1667C9.33333 11.6587 9.064 12.084 8.66667 12.3153ZM5.33333 4.5V7.16667H10.6667V4.5C10.6667 3.02933 9.47 1.83333 8 1.83333C6.52933 1.83333 5.33333 3.02933 5.33333 4.5Z" fill="#4E6074"/>
</svg>
