<svg width="395" height="350" viewBox="0 0 395 350" fill="none" xmlns="http://www.w3.org/2000/svg">
<g opacity="0.8" clip-path="url(#clip0_1348_6698)">
<path d="M57.8475 320.372C134.977 359.882 260.023 359.882 337.152 320.372C414.282 280.862 414.282 216.808 337.152 177.298C260.023 137.789 134.977 137.789 57.8475 177.298C-19.2825 216.808 -19.2825 280.862 57.8475 320.372Z" fill="#F9F9F9"/>
<path d="M310.093 257.25C314.316 259.696 322.623 258.852 328.645 255.369L363.352 235.179C369.374 231.696 370.817 226.89 366.585 224.435C362.353 221.989 354.037 222.824 348.015 226.307L313.343 246.506C307.321 249.989 305.87 254.803 310.101 257.241L310.093 257.25Z" fill="#EDEDED"/>
<path d="M101.175 275.873L65.8682 255.457L101.166 235.031L101.175 275.873Z" fill="#EDEDED"/>
<path d="M200.932 288.088L144.041 255.16L200.95 222.293L200.932 288.088Z" fill="#EDEDED"/>
<path d="M50.3136 263.649C49.3316 263.649 48.7407 262.831 48.7407 261.464V115.012L227.74 11.4751V157.335C227.74 159.572 226.167 162.306 224.23 163.42L51.7387 263.205C51.2347 263.501 50.7394 263.649 50.3136 263.649Z" fill="#FAFAFA"/>
<path d="M227.228 12.3543V157.334C227.228 159.372 225.742 161.958 223.978 162.985L51.4867 262.77C51.0609 263.014 50.6525 263.144 50.3136 263.144C49.349 263.144 49.2447 261.977 49.2447 261.472V115.317L227.228 12.3543ZM228.244 10.5869L48.228 114.725V261.472C48.228 263.179 49.0796 264.163 50.3136 264.163C50.8176 264.163 51.3911 263.997 51.9907 263.649L224.482 163.864C226.558 162.663 228.244 159.737 228.244 157.334V10.5869Z" fill="#E0E0E0"/>
<path d="M48.228 114.725V139.225L228.244 35.0956V10.5869L48.228 114.725Z" fill="#FE5E00"/>
<path d="M62.3486 116.031V119.549C62.3486 120.263 62.8613 120.559 63.4783 120.202L118.823 88.1879V82.0586L63.4783 114.072C62.8613 114.429 62.3486 115.317 62.3486 116.031Z" fill="#FAFAFA"/>
<path d="M124.75 78.6282C125.375 78.2712 125.879 78.5586 125.879 79.2812V82.7986C125.879 83.5212 125.375 84.4006 124.75 84.7576L118.814 88.1879V82.0586L124.75 78.6282Z" fill="#22334D"/>
<path d="M48.228 106.829C48.228 104.426 49.9138 101.5 51.9907 100.299L224.482 0.513913C226.558 -0.68758 228.244 0.287545 228.244 2.69053V10.5873L48.228 114.725V106.829Z" fill="#22334D"/>
<path d="M208.241 14.0088C207.267 14.5747 206.477 15.9416 206.477 17.0734C206.477 18.2053 207.267 18.658 208.241 18.0921C209.214 17.5262 210.005 16.1593 210.005 15.0274C210.005 13.8956 209.214 13.4429 208.241 14.0088Z" fill="#4FAE80"/>
<path d="M213.828 10.77C212.855 11.3359 212.064 12.7028 212.064 13.8347C212.064 14.9665 212.855 15.4193 213.828 14.8533C214.801 14.2874 215.592 12.9205 215.592 11.7887C215.592 10.6568 214.801 10.2041 213.828 10.77Z" fill="#FFDC2E"/>
<path d="M219.424 7.53123C218.451 8.09715 217.66 9.46407 217.66 10.5959C217.66 11.7278 218.451 12.1805 219.424 11.6146C220.397 11.0486 221.188 9.68173 221.188 8.54989C221.188 7.41805 220.397 6.96531 219.424 7.53123Z" fill="#DD5F5F"/>
<g opacity="0.1">
<path d="M171.77 51.0461C169.641 52.2824 167.912 55.2774 167.912 57.7414C167.912 60.2053 169.641 61.2065 171.77 59.9702C173.899 58.7339 175.628 55.7389 175.628 53.2749C175.628 50.811 173.899 49.8098 171.77 51.0461Z" fill="black"/>
<path d="M154.121 61.259C151.992 62.4953 150.263 65.4903 150.263 67.9542C150.263 70.4182 151.992 71.4194 154.121 70.1831C156.25 68.9468 157.979 65.9518 157.979 63.4878C157.979 61.0239 156.25 60.0226 154.121 61.259Z" fill="black"/>
<path d="M189.419 40.842C187.29 42.0783 185.56 45.0733 185.56 47.5372C185.56 50.0012 187.29 51.0024 189.419 49.7661C191.548 48.5298 193.277 45.5348 193.277 43.0708C193.277 40.6069 191.548 39.6057 189.419 40.842Z" fill="black"/>
<path d="M207.067 30.612C204.938 31.8483 203.209 34.8433 203.209 37.3073C203.209 39.7712 204.938 40.7724 207.067 39.5361C209.196 38.2998 210.926 35.3048 210.926 32.8409C210.926 30.3769 209.196 29.3757 207.067 30.612Z" fill="black"/>
</g>
<path d="M66.1113 141.132L108.004 116.902C110.081 115.7 111.767 116.675 111.767 119.078V159.38C111.767 161.783 110.081 164.709 108.004 165.91L66.1113 190.14C64.0344 191.342 62.3486 190.367 62.3486 187.964V147.662C62.3486 145.259 64.0344 142.333 66.1113 141.132Z" fill="#C0D1D9"/>
<path d="M126.114 106.428L213.889 55.6516C215.966 54.4501 217.651 55.4252 217.651 57.8282V98.1305C217.651 100.533 215.966 103.459 213.889 104.66L126.114 155.436C124.037 156.638 122.351 155.663 122.351 153.26V112.958C122.351 110.555 124.037 107.629 126.114 106.428Z" fill="#C0D1D9"/>
<path d="M66.1113 202.39L132.709 163.864C134.786 162.663 136.472 163.516 136.472 165.771C136.472 168.026 134.786 170.829 132.709 172.031L66.1113 210.557C64.0344 211.759 62.3486 210.905 62.3486 208.65C62.3486 206.395 64.0344 203.592 66.1113 202.39Z" fill="#C0D1D9"/>
<path d="M66.1113 216.686L132.709 178.16C134.786 176.959 136.472 177.812 136.472 180.067C136.472 182.322 134.786 185.125 132.709 186.327L66.1113 224.853C64.0344 226.055 62.3486 225.201 62.3486 222.946C62.3486 220.691 64.0344 217.888 66.1113 216.686Z" fill="#C0D1D9"/>
<path d="M97.6465 182.514C97.6465 181.068 98.6545 179.318 99.9058 178.596L215.401 111.782C216.644 111.06 218.668 111.06 219.92 111.782L222.466 113.254C223.708 113.976 224.725 115.726 224.725 117.172V205.873C224.725 207.31 223.708 209.068 222.466 209.791L106.971 276.604C105.728 277.318 103.695 277.318 102.452 276.604L99.9058 275.133C98.6632 274.419 97.6465 272.652 97.6465 271.215V182.514Z" fill="#FE5E00"/>
<path opacity="0.4" d="M98.2981 180.284L104.702 183.985L224.047 114.942C223.639 114.237 223.074 113.619 222.457 113.253L219.902 111.791C218.659 111.059 216.635 111.059 215.392 111.791L99.897 178.595C99.2627 178.961 98.6978 179.579 98.2981 180.284Z" fill="white"/>
<path opacity="0.1" d="M97.6377 182.514V271.215C97.6377 272.66 98.6544 274.41 99.9057 275.133L102.452 276.613C102.643 276.718 102.843 276.813 103.069 276.892C103.356 276.988 103.668 277.066 103.999 277.109C104.589 277.188 105.206 277.162 105.78 277.049C105.928 277.014 106.075 276.97 106.214 276.927C106.31 276.892 106.397 276.866 106.484 276.822C106.067 276.97 105.702 276.953 105.406 276.805C104.981 276.578 104.711 276.065 104.711 275.316V186.614C104.711 185.683 105.18 184.978 105.884 184.69L104.711 184.002L98.3068 180.302C97.8984 181.007 97.6464 181.808 97.6464 182.531L97.6377 182.514Z" fill="black"/>
<path opacity="0.2" d="M104.711 183.985L158.196 204.01C162.011 205.429 166.295 204.018 168.511 200.605L177.097 187.424L224.473 114.699L178.808 187.92L224.708 205.916C224.699 206.648 224.429 207.457 224.004 208.171L178.687 188.12L168.702 204.123C166.408 207.797 161.768 209.225 157.823 207.475L150.715 204.332L105.406 276.787C104.981 276.561 104.711 276.047 104.711 275.298V273.818L150.497 204.236L104.711 183.985Z" fill="black"/>
<path d="M200.011 82.1541V285.798C200.011 288.201 201.697 289.176 203.774 287.975L295.085 235.153C297.162 233.951 298.848 231.026 298.848 228.623V24.9874C298.848 22.5844 297.162 21.6093 295.085 22.8108L203.774 75.6329C201.697 76.8344 200.011 79.7598 200.011 82.1628V82.1541Z" fill="#FAFAFA" stroke="#E0E0E0" stroke-width="1.17" stroke-miterlimit="10"/>
<path d="M205.303 85.95C205.303 85.3841 205.738 84.6789 206.285 84.3654L216.687 78.3493C217.226 78.0358 217.669 78.2448 217.669 78.802C217.669 79.3592 217.234 80.0731 216.687 80.3866L206.285 86.4027C205.747 86.7162 205.303 86.5072 205.303 85.95Z" fill="#22334D"/>
<path d="M205.303 90.0076C205.303 89.4417 205.738 88.7365 206.285 88.423L216.687 82.4069C217.226 82.0934 217.669 82.3024 217.669 82.8596C217.669 83.4168 217.234 84.1308 216.687 84.4442L206.285 90.4604C205.747 90.7738 205.303 90.5648 205.303 90.0076Z" fill="#22334D"/>
<path d="M205.303 94.0648C205.303 93.4988 205.738 92.7936 206.285 92.4802L216.687 86.464C217.226 86.1506 217.669 86.3595 217.669 86.9167C217.669 87.474 217.234 88.1879 216.687 88.5013L206.285 94.5175C205.747 94.8309 205.303 94.622 205.303 94.0648Z" fill="#22334D"/>
<path d="M291.784 41.8431V40.215C291.784 40.1193 291.714 40.0757 291.627 40.1105L290.376 40.6765C290.289 40.72 290.193 40.6765 290.167 40.5807C290.098 40.3543 290.002 40.1454 289.889 39.9625C289.837 39.8755 289.828 39.7449 289.872 39.6578L290.706 37.9688C290.75 37.8817 290.715 37.7685 290.628 37.725L289.724 37.2026C289.637 37.1503 289.533 37.1765 289.472 37.2635L288.429 38.8307C288.377 38.9091 288.256 38.97 288.16 38.97C287.943 38.97 287.717 38.9874 287.482 39.0396C287.387 39.0571 287.308 39.0048 287.291 38.9091L287.152 37.5421C287.143 37.4464 287.065 37.4028 286.987 37.4551L285.579 38.2648C285.492 38.317 285.423 38.4302 285.414 38.526L285.275 40.0931C285.266 40.1889 285.197 40.3195 285.127 40.3892C284.858 40.6416 284.588 40.9202 284.345 41.2163C284.284 41.2946 284.163 41.3295 284.067 41.2946L283.163 40.9812C283.068 40.9464 282.955 40.9899 282.911 41.077L281.877 42.8705C281.825 42.9576 281.851 43.0707 281.921 43.1404L282.642 43.7673C282.712 43.8282 282.746 43.9588 282.711 44.0459C282.581 44.4115 282.468 44.7772 282.39 45.1342C282.373 45.2299 282.286 45.3518 282.208 45.4041L280.921 46.3095C280.843 46.3618 280.774 46.4924 280.774 46.5882V48.2163C280.774 48.312 280.843 48.3556 280.93 48.3207L282.181 47.7548C282.268 47.7113 282.364 47.7548 282.39 47.8506C282.46 48.077 282.555 48.2859 282.668 48.4688C282.72 48.5558 282.729 48.6864 282.685 48.7735L281.851 50.4538C281.808 50.5409 281.843 50.6541 281.929 50.6976L282.833 51.22C282.92 51.2722 283.024 51.2461 283.085 51.1591L284.128 49.5919C284.18 49.5135 284.302 49.4526 284.397 49.4526C284.615 49.4526 284.84 49.4352 285.075 49.3829C285.171 49.3655 285.249 49.4178 285.266 49.5135L285.405 50.8804C285.414 50.9762 285.492 51.0197 285.57 50.9675L286.978 50.1578C287.065 50.1056 287.135 49.9924 287.143 49.8966L287.282 48.3294C287.291 48.2337 287.36 48.1031 287.43 48.0334C287.699 47.7809 287.969 47.5023 288.212 47.2063C288.273 47.128 288.395 47.0931 288.49 47.128L289.394 47.4414C289.489 47.4762 289.602 47.4327 289.646 47.3456L290.68 45.5521C290.732 45.465 290.706 45.3518 290.637 45.2822L289.915 44.6553C289.846 44.5944 289.811 44.4638 289.846 44.3767C289.976 44.011 290.089 43.6454 290.167 43.2884C290.185 43.1926 290.272 43.0707 290.35 43.0185L291.636 42.113C291.714 42.0608 291.784 41.9302 291.784 41.8344V41.8431ZM286.283 46.9538C284.971 47.7113 283.911 47.0931 283.911 45.5782C283.911 44.0633 284.971 42.2175 286.283 41.46C287.595 40.7026 288.655 41.3207 288.655 42.8357C288.655 44.3506 287.595 46.1964 286.283 46.9538Z" fill="#22334D"/>
<path d="M249.43 81.9802C260.101 75.8073 268.747 80.8135 268.747 93.1506C268.747 105.488 260.101 120.506 249.43 126.671C238.759 132.843 230.113 127.837 230.113 115.491C230.113 103.146 238.759 88.1357 249.43 81.9715V81.9802Z" fill="#EDEDED"/>
<path d="M249.291 91.6964C252.749 89.6939 255.556 91.3133 255.556 95.3183C255.556 99.3233 252.749 104.19 249.291 106.193C245.832 108.195 243.025 106.576 243.025 102.571C243.025 98.5658 245.832 93.6989 249.291 91.6964Z" fill="#FE5E00"/>
<path d="M261.639 113.045C261.639 106.463 257.024 103.799 251.341 107.09L247.787 109.144C242.104 112.435 237.49 120.437 237.49 127.01V128.804C238.515 129.143 239.628 129.317 240.809 129.317C243.399 129.317 246.327 128.464 249.421 126.67C254.053 123.989 258.311 119.636 261.639 114.56V113.036V113.045Z" fill="#FE5E00"/>
<path d="M231.989 145.041L266.861 124.868C267.904 124.268 268.747 124.694 268.747 125.826C268.747 126.958 267.904 128.351 266.861 128.96L231.989 149.133C230.947 149.734 230.104 149.307 230.104 148.176C230.104 147.044 230.947 145.651 231.989 145.041Z" fill="#FE5E00"/>
<path d="M228.244 159.468L270.598 134.942C271.641 134.341 272.484 134.767 272.484 135.899C272.484 137.031 271.641 138.424 270.598 139.034L228.244 163.56C227.202 164.16 226.359 163.734 226.359 162.602C226.359 161.47 227.202 160.077 228.244 159.468Z" fill="#22334D"/>
<path d="M214.358 196.74L284.484 156.177C286.561 154.975 288.247 155.829 288.247 158.084C288.247 160.339 286.561 163.142 284.484 164.343L214.358 204.907C212.281 206.108 210.595 205.255 210.595 203C210.595 200.745 212.281 197.942 214.358 196.74Z" fill="#C0D1D9"/>
<path d="M214.358 213.073L284.484 172.51C286.561 171.308 288.247 172.162 288.247 174.417C288.247 176.672 286.561 179.475 284.484 180.677L214.358 221.24C212.281 222.441 210.595 221.588 210.595 219.333C210.595 217.078 212.281 214.275 214.358 213.073Z" fill="#C0D1D9"/>
<path d="M237.186 220.291L261.665 206.134C262.708 205.533 263.551 206.021 263.551 207.222V215.119C263.551 216.321 262.708 217.783 261.665 218.384L237.186 232.541C236.143 233.142 235.3 232.654 235.3 231.453V223.556C235.3 222.354 236.143 220.892 237.177 220.291H237.186Z" fill="#FE5E00"/>
<path d="M215.896 197.941C214.923 198.507 214.132 199.874 214.132 201.006C214.132 202.138 214.923 202.591 215.896 202.025C216.869 201.459 217.66 200.092 217.66 198.96C217.66 197.828 216.869 197.375 215.896 197.941Z" fill="#FAFAFA"/>
<path d="M221.484 194.703C220.51 195.269 219.72 196.635 219.72 197.767C219.72 198.899 220.51 199.352 221.484 198.786C222.457 198.22 223.248 196.853 223.248 195.721C223.248 194.589 222.457 194.137 221.484 194.703Z" fill="#FAFAFA"/>
<path d="M227.071 191.464C226.098 192.03 225.307 193.397 225.307 194.529C225.307 195.66 226.098 196.113 227.071 195.547C228.044 194.981 228.835 193.614 228.835 192.483C228.835 191.351 228.044 190.898 227.071 191.464Z" fill="#FAFAFA"/>
<path d="M232.667 188.225C231.694 188.791 230.903 190.158 230.903 191.29C230.903 192.422 231.694 192.874 232.667 192.308C233.641 191.742 234.431 190.376 234.431 189.244C234.431 188.112 233.641 187.659 232.667 188.225Z" fill="#FAFAFA"/>
<path d="M238.255 184.986C237.281 185.552 236.491 186.919 236.491 188.051C236.491 189.183 237.281 189.636 238.255 189.07C239.228 188.504 240.019 187.137 240.019 186.005C240.019 184.873 239.228 184.42 238.255 184.986Z" fill="#FAFAFA"/>
<path d="M243.851 181.748C242.878 182.313 242.087 183.68 242.087 184.812C242.087 185.944 242.878 186.397 243.851 185.831C244.824 185.265 245.615 183.898 245.615 182.766C245.615 181.634 244.824 181.182 243.851 181.748Z" fill="#FAFAFA"/>
<path d="M249.439 178.509C248.465 179.075 247.675 180.442 247.675 181.573C247.675 182.705 248.465 183.158 249.439 182.592C250.412 182.026 251.203 180.659 251.203 179.527C251.203 178.396 250.412 177.943 249.439 178.509Z" fill="#FAFAFA"/>
<path d="M215.896 214.292C214.923 214.858 214.132 216.225 214.132 217.357C214.132 218.489 214.923 218.942 215.896 218.376C216.869 217.81 217.66 216.443 217.66 215.311C217.66 214.179 216.869 213.727 215.896 214.292Z" fill="#FAFAFA"/>
<path d="M221.484 211.054C220.51 211.62 219.72 212.987 219.72 214.118C219.72 215.25 220.51 215.703 221.484 215.137C222.457 214.571 223.248 213.204 223.248 212.072C223.248 210.941 222.457 210.488 221.484 211.054Z" fill="#FAFAFA"/>
<path d="M227.071 207.815C226.098 208.381 225.307 209.748 225.307 210.88C225.307 212.011 226.098 212.464 227.071 211.898C228.044 211.332 228.835 209.965 228.835 208.834C228.835 207.702 228.044 207.249 227.071 207.815Z" fill="#FAFAFA"/>
<path d="M232.667 204.576C231.694 205.142 230.903 206.509 230.903 207.64C230.903 208.772 231.694 209.225 232.667 208.659C233.641 208.093 234.431 206.726 234.431 205.594C234.431 204.462 233.641 204.01 232.667 204.576Z" fill="#FAFAFA"/>
<path d="M238.255 201.337C237.281 201.903 236.491 203.27 236.491 204.402C236.491 205.533 237.281 205.986 238.255 205.42C239.228 204.854 240.019 203.487 240.019 202.356C240.019 201.224 239.228 200.771 238.255 201.337Z" fill="#FAFAFA"/>
<path d="M243.851 198.098C242.878 198.664 242.087 200.031 242.087 201.163C242.087 202.295 242.878 202.747 243.851 202.181C244.824 201.616 245.615 200.249 245.615 199.117C245.615 197.985 244.824 197.532 243.851 198.098Z" fill="#FAFAFA"/>
<path d="M249.439 194.859C248.465 195.425 247.675 196.792 247.675 197.924C247.675 199.056 248.465 199.509 249.439 198.943C250.412 198.377 251.203 197.01 251.203 195.878C251.203 194.746 250.412 194.293 249.439 194.859Z" fill="#FAFAFA"/>
<path d="M327.863 247.342C324.813 247.342 321.928 246.593 319.304 245.078C313.039 241.456 309.45 233.873 309.45 224.279C309.45 207.405 320.155 187.99 333.824 180.085C341.185 175.827 348.493 175.366 354.402 178.787C360.667 182.409 364.256 189.993 364.256 199.587C364.256 216.46 353.55 235.876 339.881 243.781C335.78 246.149 331.695 247.342 327.863 247.342ZM345.816 188.678C343.626 188.678 341.306 189.784 339.881 190.602C329.957 196.34 321.572 211.767 321.572 224.279C321.572 229.346 322.988 233.185 325.361 234.561C328.063 236.128 331.817 234.422 333.816 233.264C343.739 227.526 352.125 212.098 352.125 199.587C352.125 194.52 350.709 190.68 348.336 189.305C347.563 188.852 346.694 188.678 345.816 188.678Z" fill="#364860"/>
<path d="M354.297 202.286C354.297 192.805 348.336 189.305 348.336 189.305C350.708 190.68 352.125 194.52 352.125 199.587C352.125 212.098 343.739 227.517 333.816 233.264C331.817 234.422 328.063 236.128 325.361 234.561C325.361 234.561 330.392 237.687 337.335 233.891C347.398 228.388 354.289 214.806 354.289 202.295L354.297 202.286Z" fill="#22334D"/>
<path d="M344.739 83.7998C344.739 80.3346 341.932 77.5225 338.473 77.5225C335.015 77.5225 332.208 80.3346 332.208 83.7998C332.208 83.7998 332.208 83.8085 332.208 83.8172V183.689C332.208 184.621 332.816 185.544 334.042 186.249C336.492 187.668 340.455 187.668 342.905 186.249C344.13 185.544 344.739 184.612 344.739 183.689V83.8172C344.739 83.8172 344.739 83.8085 344.739 83.7998Z" fill="#22334D"/>
<path d="M339.733 106.114C339.733 103.799 338.117 100.986 336.11 99.8371C335.093 99.245 334.181 99.2102 333.52 99.6107L318.053 108.535L317.679 108.761C317.627 108.787 317.575 108.813 317.531 108.848C317.262 109.031 317.018 109.231 316.793 109.458C315.854 110.389 315.281 111.678 315.281 113.097C315.281 115.047 316.358 116.736 317.948 117.616C318.678 118.007 319.504 118.234 320.399 118.234C321.294 118.234 322.119 118.007 322.841 117.616C322.936 117.563 323.04 117.502 323.136 117.45L338.699 108.465C339.342 108.082 339.742 107.272 339.742 106.123L339.733 106.114Z" fill="#364860"/>
<path d="M339.733 131.128C339.733 128.812 338.117 126 336.11 124.851C335.093 124.259 334.181 124.224 333.52 124.624L315.394 135.046L315.02 135.272C314.968 135.299 314.916 135.325 314.872 135.359C314.603 135.534 314.36 135.743 314.134 135.969C313.195 136.901 312.622 138.189 312.622 139.608C312.622 141.558 313.699 143.248 315.289 144.127C316.019 144.519 316.845 144.745 317.74 144.745C318.635 144.745 319.46 144.519 320.182 144.127C320.277 144.075 320.381 144.014 320.477 143.961L338.699 133.479C339.342 133.096 339.742 132.286 339.742 131.137L339.733 131.128Z" fill="#364860"/>
</g>
<defs>
<clipPath id="clip0_1348_6698">
<rect width="395" height="350" fill="white"/>
</clipPath>
</defs>
</svg>
