<svg width="24" height="24" viewBox="0 0 24 24" fill="none" xmlns="http://www.w3.org/2000/svg">
<path d="M16.25 1.5H7.25C6.65326 1.5 6.08097 1.73705 5.65901 2.15901C5.23705 2.58097 5 3.15326 5 3.75V20.25C5 20.8467 5.23705 21.419 5.65901 21.841C6.08097 22.2629 6.65326 22.5 7.25 22.5H16.25C16.8467 22.5 17.419 22.2629 17.841 21.841C18.2629 21.419 18.5 20.8467 18.5 20.25V3.75C18.5 3.15326 18.2629 2.58097 17.841 2.15901C17.419 1.73705 16.8467 1.5 16.25 1.5ZM17 20.25C17 20.4489 16.921 20.6397 16.7803 20.7803C16.6397 20.921 16.4489 21 16.25 21H7.25C7.05109 21 6.86032 20.921 6.71967 20.7803C6.57902 20.6397 6.5 20.4489 6.5 20.25V3.75C6.5 3.55109 6.57902 3.36032 6.71967 3.21967C6.86032 3.07902 7.05109 3 7.25 3H16.25C16.4489 3 16.6397 3.07902 16.7803 3.21967C16.921 3.36032 17 3.55109 17 3.75V20.25ZM12.875 5.625C12.875 5.8475 12.809 6.06501 12.6854 6.25002C12.5618 6.43502 12.3861 6.57922 12.1805 6.66436C11.975 6.74951 11.7488 6.77179 11.5305 6.72838C11.3123 6.68498 11.1118 6.57783 10.9545 6.4205C10.7972 6.26316 10.69 6.06271 10.6466 5.84448C10.6032 5.62625 10.6255 5.40005 10.7106 5.19448C10.7958 4.98891 10.94 4.81321 11.125 4.6896C11.31 4.56598 11.5275 4.5 11.75 4.5C12.0484 4.5 12.3345 4.61853 12.5455 4.8295C12.7565 5.04048 12.875 5.32663 12.875 5.625Z" fill="#4E6074"/>
</svg>
