<svg width="24" height="24" viewBox="0 0 24 24" fill="none" xmlns="http://www.w3.org/2000/svg">
<path d="M13.8002 12C13.8002 12.356 13.6946 12.704 13.4968 13C13.2991 13.296 13.0179 13.5267 12.689 13.663C12.3601 13.7992 11.9982 13.8349 11.649 13.7654C11.2999 13.696 10.9791 13.5245 10.7274 13.2728C10.4757 13.0211 10.3042 12.7003 10.2348 12.3512C10.1653 12.002 10.201 11.6401 10.3372 11.3112C10.4735 10.9823 10.7042 10.7011 11.0002 10.5034C11.2962 10.3056 11.6442 10.2 12.0002 10.2C12.4776 10.2 12.9354 10.3896 13.273 10.7272C13.6106 11.0648 13.8002 11.5226 13.8002 12ZM12.0002 6.6C12.3562 6.6 12.7042 6.49443 13.0002 6.29665C13.2962 6.09886 13.5269 5.81774 13.6632 5.48883C13.7994 5.15992 13.8351 4.798 13.7656 4.44884C13.6962 4.09967 13.5247 3.77894 13.273 3.52721C13.0213 3.27547 12.7005 3.10404 12.3514 3.03459C12.0022 2.96513 11.6403 3.00078 11.3114 3.13702C10.9825 3.27326 10.7013 3.50397 10.5036 3.79997C10.3058 4.09598 10.2002 4.44399 10.2002 4.8C10.2002 5.27739 10.3898 5.73523 10.7274 6.07279C11.065 6.41036 11.5228 6.6 12.0002 6.6ZM12.0002 17.4C11.6442 17.4 11.2962 17.5056 11.0002 17.7034C10.7042 17.9011 10.4735 18.1823 10.3372 18.5112C10.201 18.8401 10.1653 19.202 10.2348 19.5512C10.3042 19.9003 10.4757 20.2211 10.7274 20.4728C10.9791 20.7245 11.2999 20.896 11.649 20.9654C11.9982 21.0349 12.3601 20.9992 12.689 20.863C13.0179 20.7267 13.2991 20.496 13.4968 20.2C13.6946 19.904 13.8002 19.556 13.8002 19.2C13.8002 18.7226 13.6106 18.2648 13.273 17.9272C12.9354 17.5896 12.4776 17.4 12.0002 17.4Z" fill="#4E6074"/>
</svg>
