<svg width="359" height="314" viewBox="0 0 359 314" fill="none" xmlns="http://www.w3.org/2000/svg">
<g clip-path="url(#clip0_4372_73580)">
<path d="M242.244 6.54704C242.244 6.54704 183.047 -14.565 124.93 19.044C66.8197 52.653 37.4968 119.371 12.3202 172.815C-12.8563 226.26 1.6377 280.622 45.9981 305.407C90.3585 330.192 120.523 293.657 182.757 291.873C244.991 290.096 261.726 299.017 313.367 263.758C365.008 228.507 374.343 145.246 333.608 83.6342C292.858 22.0302 242.244 6.54704 242.244 6.54704Z" fill="#F9F9F9"/>
<path opacity="0.7" d="M242.244 6.54704C242.244 6.54704 183.047 -14.565 124.93 19.044C66.8197 52.653 37.4968 119.371 12.3202 172.815C-12.8563 226.26 1.6377 280.622 45.9981 305.407C90.3585 330.192 120.523 293.657 182.757 291.873C244.991 290.096 261.726 299.017 313.367 263.758C365.008 228.507 374.343 145.246 333.608 83.6342C292.858 22.0302 242.244 6.54704 242.244 6.54704Z" fill="#F9F9F9"/>
<g opacity="0.4">
<path d="M295.269 191.389C292.954 190.396 289.18 186.186 289.18 186.186C289.143 186.141 292.701 184.536 292.939 184.461C295.671 183.588 301.47 183.506 303.339 186.134C304.686 188.022 303.89 190.531 301.954 191.643C299.982 192.77 297.242 192.248 295.269 191.397V191.389Z" fill="#FE5E00"/>
<path d="M282.026 201.191C280.135 199.683 277.746 195.002 277.56 194.629C274.962 195.988 272.185 197.167 269.311 198.205C267.666 198.802 265.991 199.347 264.309 199.877C265.113 199.75 265.835 199.646 265.939 199.638C268.805 199.519 274.418 200.982 275.535 204.006C276.339 206.185 274.902 208.395 272.751 208.948C270.555 209.515 268.046 208.276 266.364 206.939C264.659 205.581 262.545 201.632 262.001 200.579C261.354 200.773 260.706 200.975 260.058 201.169C256.946 202.094 253.835 203.013 250.805 204.006C249.74 204.356 248.698 204.737 247.663 205.118C248.378 205.006 248.981 204.916 249.078 204.916C251.944 204.797 257.557 206.26 258.674 209.284C259.478 211.463 258.041 213.673 255.889 214.226C253.693 214.793 251.185 213.554 249.502 212.217C247.879 210.918 245.892 207.29 245.237 206.044C244.187 206.462 243.13 206.88 242.125 207.335C241.448 207.664 240.778 207.925 240.115 208.291C239.452 208.642 238.797 208.985 238.15 209.321C236.921 210.023 235.656 210.739 234.472 211.456C233.646 211.949 232.872 212.434 232.09 212.919C233.147 212.561 235.232 211.904 235.41 211.867C238.224 211.314 243.993 211.904 245.549 214.726C246.673 216.756 245.587 219.16 243.547 220.034C241.462 220.93 238.79 220.086 236.929 219.018C234.882 217.846 231.911 213.755 231.547 213.248C230.251 214.054 229.001 214.853 227.832 215.622C224.69 217.69 222.018 219.578 219.919 221.109L218.452 219.548C220.641 218.018 223.462 216.107 226.805 214.017C228.115 213.188 229.529 212.337 230.996 211.471C230.847 211.09 230.013 208.94 229.492 206.842C227.065 206.865 222.658 205.215 222.092 204.998C221.46 206.387 220.857 207.746 220.306 209.03C218.862 212.389 217.7 215.375 216.8 217.779L215.206 216.084C216.107 213.852 217.224 211.21 218.564 208.261C219.204 206.85 219.911 205.349 220.656 203.819C220.149 203.461 216.025 200.542 214.827 198.496C213.74 196.645 212.862 193.98 213.732 191.874C214.581 189.814 216.963 188.702 219.003 189.799C221.839 191.322 222.502 197.1 221.988 199.929C221.958 200.094 221.422 201.87 221.073 202.99C221.378 202.363 221.668 201.758 221.996 201.116C222.628 199.847 223.298 198.608 224.013 197.264C224.378 196.63 224.75 195.988 225.13 195.338C225.487 194.689 225.949 194.047 226.358 193.39C227.341 191.889 228.413 190.419 229.522 188.963C228.42 188.403 224.527 186.365 223.164 184.693C221.81 183.028 220.544 180.527 221.08 178.317C221.609 176.152 223.79 174.689 225.971 175.466C229.001 176.541 230.534 182.147 230.452 185.029C230.452 185.208 230.155 187.268 229.976 188.396C230.653 187.522 231.316 186.649 232.031 185.79C234.078 183.312 236.237 180.863 238.373 178.414C239.028 177.668 239.668 176.906 240.316 176.16C239.921 175.966 235.239 173.644 233.713 171.77C232.358 170.105 231.093 167.605 231.629 165.395C232.157 163.23 234.338 161.767 236.519 162.543C239.549 163.618 241.083 169.224 241.001 172.106C241.001 172.323 240.577 175.286 240.428 176.033C241.85 174.376 243.256 172.703 244.574 171.009C246.398 168.665 248.058 166.268 249.487 163.82C249.301 163.73 244.41 161.326 242.847 159.408C241.492 157.743 240.227 155.242 240.763 153.032C241.291 150.867 243.472 149.404 245.654 150.18C248.683 151.255 250.217 156.862 250.135 159.744C250.135 159.967 249.673 163.155 249.547 163.73C249.629 163.581 249.733 163.446 249.822 163.297C251.319 160.669 252.443 157.929 253.373 155.324C253.917 153.809 254.348 152.323 254.736 150.875C253.775 150.524 249.42 148.859 247.827 147.284C246.294 145.776 244.768 143.432 245.058 141.177C245.341 138.967 247.358 137.273 249.606 137.803C252.74 138.534 254.87 143.947 255.108 146.814C255.123 146.97 255.078 148.568 255.026 149.732C255.19 149.076 255.376 148.404 255.517 147.769C256.068 145.395 256.433 143.185 256.738 141.229C256.902 140.117 257.028 139.102 257.14 138.154C256.381 137.318 253.366 133.898 252.681 131.801C252.018 129.755 251.736 126.971 253.031 125.097C254.296 123.268 256.865 122.693 258.621 124.201C261.063 126.299 260.475 132.084 259.358 134.742C259.262 134.973 257.348 138.385 257.311 138.34C257.311 138.34 257.274 138.303 257.267 138.288C257.177 139.199 257.08 140.184 256.947 141.244C256.686 143.215 256.366 145.432 255.867 147.829C255.368 150.225 254.758 152.816 253.872 155.481C252.986 158.153 251.922 160.923 250.455 163.633C250.44 163.663 250.418 163.693 250.403 163.723C251.08 163.066 253.023 161.281 253.187 161.162C255.517 159.475 260.996 157.586 263.587 159.497C265.455 160.871 265.478 163.506 263.989 165.163C262.47 166.851 259.693 167.209 257.557 167.022C255.145 166.813 250.582 164.223 250.217 164.021C248.795 166.589 247.127 169.113 245.304 171.569C244.261 172.972 243.167 174.361 242.051 175.734C242.653 175.182 243.197 174.697 243.279 174.637C245.609 172.95 251.088 171.061 253.678 172.972C255.547 174.346 255.569 176.981 254.08 178.638C252.562 180.325 249.785 180.684 247.649 180.497C245.482 180.311 241.544 178.183 240.51 177.608C240.078 178.131 239.653 178.653 239.214 179.176C237.13 181.677 235.038 184.155 233.058 186.656C232.358 187.537 231.703 188.433 231.048 189.321C231.584 188.836 232.038 188.425 232.112 188.373C234.442 186.686 239.921 184.797 242.512 186.708C244.381 188.082 244.403 190.717 242.914 192.375C241.395 194.062 238.619 194.42 236.482 194.233C234.413 194.054 230.765 192.121 229.529 191.441C228.882 192.375 228.234 193.308 227.646 194.241C227.259 194.89 226.849 195.48 226.492 196.152C226.127 196.809 225.77 197.458 225.42 198.1C224.787 199.362 224.117 200.669 223.529 201.915C223.112 202.781 222.733 203.617 222.346 204.453C223.03 203.573 224.408 201.863 224.534 201.736C225.896 200.392 228.614 198.757 231.13 198.25C231.331 198.048 231.547 197.869 231.777 197.712C233.616 196.466 236.214 196.846 237.316 198.892C238.842 201.729 236.222 206.917 234.234 208.992C234.115 209.112 232.693 210.299 231.785 211.038C232.388 210.687 232.961 210.344 233.586 209.985C234.807 209.276 236.05 208.612 237.39 207.888C238.046 207.559 238.708 207.231 239.378 206.895C240.033 206.551 240.77 206.268 241.477 205.947C243.122 205.245 244.82 204.61 246.554 204.006C245.944 202.931 243.815 199.078 243.599 196.928C243.383 194.786 243.703 192.001 245.371 190.456C247.001 188.94 249.629 188.926 251.021 190.784C252.956 193.36 251.147 198.884 249.495 201.236C249.391 201.385 248.021 202.938 247.247 203.782C248.289 203.431 249.324 203.072 250.388 202.744C253.463 201.811 256.604 200.96 259.731 200.101C260.691 199.84 261.644 199.564 262.597 199.295C262.373 198.914 259.746 194.39 259.507 191.979C259.291 189.836 259.612 187.052 261.279 185.506C262.909 183.991 265.537 183.976 266.929 185.835C268.865 188.41 267.056 193.935 265.403 196.286C265.277 196.466 263.296 198.698 262.768 199.243C264.867 198.645 266.959 198.033 268.991 197.346C271.798 196.398 274.5 195.316 277.046 194.069C276.942 193.89 274.18 189.179 273.934 186.716C273.718 184.573 274.039 181.789 275.706 180.243C277.336 178.728 279.964 178.713 281.356 180.572C283.292 183.147 281.483 188.672 279.83 191.023C279.704 191.21 277.567 193.614 277.15 194.024C277.299 193.95 277.463 193.89 277.619 193.815C280.314 192.449 282.756 190.792 284.967 189.127C286.255 188.164 287.431 187.164 288.547 186.171C287.944 185.35 285.227 181.55 284.758 179.355C284.312 177.25 284.327 174.45 285.808 172.726C287.26 171.039 289.873 170.74 291.466 172.427C293.669 174.771 292.478 180.46 291.093 182.983C291.019 183.118 290.103 184.431 289.418 185.372C289.917 184.917 290.438 184.454 290.915 184.006C292.686 182.334 294.198 180.691 295.53 179.228C296.282 178.392 296.945 177.616 297.555 176.884C297.384 175.764 296.751 171.248 297.332 169.12C297.905 167.045 299.2 164.566 301.307 163.723C303.369 162.901 305.826 163.835 306.466 166.074C307.344 169.172 303.674 173.674 301.285 175.271C301.076 175.406 297.607 177.197 297.592 177.145C297.592 177.145 297.585 177.093 297.585 177.078C297.012 177.795 296.386 178.549 295.687 179.37C294.384 180.87 292.902 182.543 291.16 184.267C289.426 185.992 287.498 187.813 285.287 189.545C283.076 191.285 280.664 193.009 277.947 194.457C277.917 194.472 277.88 194.487 277.85 194.502C278.773 194.323 281.379 193.92 281.58 193.912C284.446 193.793 290.059 195.256 291.175 198.28C291.979 200.46 290.542 202.669 288.391 203.222C286.195 203.789 283.686 202.55 282.004 201.214L282.026 201.191Z" fill="#FE5E00"/>
<path d="M255.264 150.539C255.204 150.524 257.296 147.209 257.445 147.015C259.247 144.775 264.041 141.498 267.041 142.655C269.207 143.484 269.922 146.022 268.917 148.015C267.897 150.046 265.314 151.128 263.207 151.509C260.728 151.965 255.264 150.539 255.264 150.539Z" fill="#FE5E00"/>
</g>
<path d="M231.614 65.1949H127.23C122.354 65.1949 118.401 69.1589 118.401 74.0488V287.304C118.401 292.194 122.354 296.158 127.23 296.158H231.614C236.49 296.158 240.443 292.194 240.443 287.304V74.0488C240.443 69.1589 236.49 65.1949 231.614 65.1949Z" fill="#22334D"/>
<path opacity="0.95" d="M236.222 285.759V75.6016C236.222 72.5959 233.792 70.1593 230.795 70.1593H128.049C125.052 70.1593 122.622 72.5959 122.622 75.6016L122.622 285.759C122.622 288.764 125.052 291.201 128.049 291.201H230.795C233.792 291.201 236.222 288.764 236.222 285.759Z" fill="white"/>
<path d="M179.124 282.758C182.516 282.758 185.265 280 185.265 276.599C185.265 273.197 182.516 270.44 179.124 270.44C175.732 270.44 172.982 273.197 172.982 276.599C172.982 280 175.732 282.758 179.124 282.758Z" fill="#22334D"/>
<path d="M190.067 75.1238H168.784C166.535 75.1238 164.712 76.9521 164.712 79.2073C164.712 81.4626 166.535 83.2909 168.784 83.2909H190.067C192.316 83.2909 194.139 81.4626 194.139 79.2073C194.139 76.9521 192.316 75.1238 190.067 75.1238Z" fill="#22334D"/>
<path d="M107.689 100.401C104.064 91.9432 123.873 83.0893 129.463 96.2582C138.97 100.401 126.821 118.02 129.568 121.006C132.322 123.992 134.384 120.371 134.384 120.371C134.384 120.371 137.161 127.784 130.089 133.734C123.739 139.072 104.667 140.52 104.622 130.009C104.562 116.37 112.461 111.525 107.689 100.409V100.401Z" fill="#263238"/>
<path d="M125.905 278.002L120.575 281.115L107.778 266.446L114.419 260.436L125.905 278.002Z" fill="#FF8B7B"/>
<path d="M119.972 279.771L125.466 275.539C125.667 275.382 125.927 275.389 126.091 275.553L129.776 279.152C130.155 279.525 130.074 280.227 129.605 280.57C127.662 282.011 126.664 282.616 124.245 284.482C122.756 285.624 119.793 288.14 117.738 289.723C115.728 291.268 114.15 289.484 114.872 288.648C118.126 284.922 118.833 282.698 119.361 280.682C119.458 280.316 119.674 279.995 119.964 279.771H119.972Z" fill="#263238"/>
<path d="M118.736 281.989C118.252 282.362 117.746 282.638 117.337 282.616C117.076 282.601 116.875 282.481 116.734 282.25C116.652 282.108 116.644 281.959 116.711 281.809C117.076 281.04 119.734 280.473 120.031 280.413C120.091 280.398 120.15 280.428 120.173 280.481C120.203 280.533 120.188 280.6 120.15 280.645C119.793 281.04 119.272 281.578 118.736 281.996V281.989ZM117.15 281.712C117.061 281.78 116.994 281.847 116.964 281.921C116.935 281.981 116.942 282.041 116.979 282.101C117.076 282.257 117.203 282.339 117.374 282.347C117.858 282.369 118.699 281.794 119.652 280.787C118.751 281.003 117.619 281.361 117.15 281.712Z" fill="#407BFF"/>
<path d="M120.128 280.652C120.128 280.652 120.091 280.675 120.076 280.682C119.309 280.884 117.411 280.779 117.113 280.189C117.046 280.048 117.024 279.824 117.322 279.547C117.545 279.346 117.806 279.241 118.104 279.241C119.079 279.249 120.113 280.398 120.158 280.443C120.188 280.481 120.203 280.533 120.18 280.578C120.173 280.607 120.151 280.63 120.128 280.652ZM117.568 279.689C117.568 279.689 117.523 279.727 117.501 279.749C117.307 279.936 117.352 280.025 117.367 280.055C117.545 280.406 118.915 280.585 119.756 280.466C119.429 280.152 118.714 279.532 118.074 279.532C117.88 279.532 117.716 279.585 117.568 279.697V279.689Z" fill="#407BFF"/>
<path d="M106.535 131.099C106.185 132.704 105.783 134.152 105.336 135.653C104.897 137.138 104.428 138.617 103.9 140.072C102.85 142.991 101.689 145.88 100.282 148.687L99.1873 150.778C98.7928 151.464 98.4057 152.151 97.9962 152.831L97.356 153.838C97.1327 154.182 96.9615 154.488 96.6563 154.891C96.5074 155.085 96.3585 155.279 96.1575 155.511C95.9491 155.742 95.7555 155.966 95.3088 156.317C95.0185 156.504 94.8101 156.713 94.0359 156.922C93.8944 156.959 93.6116 156.996 93.3808 156.996C93.1575 156.996 92.8671 156.966 92.5842 156.884C92.0483 156.742 91.5569 156.384 91.3113 156.108C90.7827 155.526 90.6785 155.1 90.5892 154.839C90.4999 154.548 90.4775 154.346 90.4477 154.152C90.3807 153.443 90.4254 152.995 90.4701 152.532C90.5222 152.084 90.5892 151.666 90.6711 151.263C90.82 150.457 91.0209 149.688 91.2219 148.934C91.6388 147.418 92.1301 145.97 92.7182 144.514L95.6587 145.171L95.4652 149.613C95.428 150.337 95.4131 151.061 95.4056 151.748C95.4056 152.092 95.4131 152.427 95.4354 152.726C95.4577 153.017 95.495 153.323 95.5322 153.361C95.5322 153.361 95.5471 153.338 95.5173 153.226C95.4801 153.152 95.4577 152.898 95.0557 152.45C94.8696 152.241 94.4602 151.942 94.0135 151.823C93.7828 151.756 93.5371 151.733 93.3585 151.726C93.1723 151.726 92.9341 151.763 92.8374 151.785C92.2493 151.95 92.1971 152.047 92.0557 152.129C91.8994 152.241 91.9589 152.181 91.9887 152.129L92.1599 151.838L93.1575 150.046C93.4924 149.419 93.7977 148.777 94.1252 148.142L95.0409 146.194C96.2022 143.559 97.2518 140.856 98.1674 138.087C98.629 136.705 99.0533 135.309 99.4776 133.913C99.8871 132.532 100.282 131.077 100.617 129.755L106.542 131.099H106.535Z" fill="#FF8B7B"/>
<path d="M103.989 123.328C101.823 123.678 98.4058 137.437 98.4058 137.437L103.386 141.282C103.386 141.282 108.389 131.338 108.597 126.866C108.746 123.626 105.619 123.066 103.996 123.328H103.989Z" fill="#FF8B7B"/>
<path d="M96.1801 145.873L95.3389 139.027L91.4307 144.775C91.4307 144.775 91.9294 147.142 94.3414 147.53L96.1801 145.865V145.873Z" fill="#FF8B7B"/>
<path d="M123.493 289.611L117.538 289.82L116.391 268.969L124.662 269.088L123.493 289.611Z" fill="#FF8B7B"/>
<path d="M117.128 287.916L123.806 287.871C124.051 287.871 124.237 288.036 124.252 288.274L124.654 293.567C124.699 294.12 124.193 294.642 123.627 294.635C121.304 294.613 120.188 294.486 117.255 294.501C115.446 294.515 112.796 294.717 110.302 294.739C107.86 294.754 107.838 292.283 108.895 292.052C113.622 291.014 114.448 289.626 116.108 288.289C116.406 288.05 116.771 287.916 117.128 287.916Z" fill="#263238"/>
<path d="M103.624 123.29C103.624 123.29 100.661 124.037 100.617 159.363C110.093 160.206 119.89 161.072 124.498 161.483C125.689 151.636 126.664 145.582 134.577 125.858C134.577 125.858 129.754 124.313 124.654 123.611C120.664 123.059 117.396 122.641 113.808 122.648C109.081 122.663 103.624 123.29 103.624 123.29Z" fill="#364860"/>
<path opacity="0.2" d="M129.873 130.367L131.146 134.72C130.148 137.415 129.322 139.796 128.63 141.939C127.908 137.915 128.913 132.667 129.88 130.367H129.873Z" fill="black"/>
<path d="M95.3315 139.027L91.4307 144.775L96.1727 144.499L98.7112 139.244L95.3315 139.027Z" fill="#FF8B7B"/>
<path d="M97.8103 152.248L102.314 152.181C102.939 152.174 103.416 151.614 103.327 151.002L101.934 140.961C101.86 140.438 101.413 140.057 100.892 140.065L96.3884 140.132C95.7631 140.14 95.2867 140.699 95.376 141.312L96.7681 151.352C96.8426 151.875 97.2892 152.256 97.8103 152.248Z" fill="#263238"/>
<path d="M125.577 111.189C124.319 114.653 122.592 121.043 124.654 123.611C124.654 123.611 120.202 127.65 112.818 130.815C110.331 124.977 113.815 122.648 113.815 122.648C117.857 122.058 118.23 119.132 117.999 116.333L125.585 111.181L125.577 111.189Z" fill="#FF8B7B"/>
<path d="M109.222 107.217C108.597 117.587 102.381 120.558 103.84 125.858C105.902 133.331 114.314 127.478 114.314 127.478C114.314 127.478 109.736 128.964 109.446 125.343C109.208 122.379 119.771 122.82 116.838 115.795C114.962 111.293 109.222 107.217 109.222 107.217Z" fill="#263238"/>
<path opacity="0.2" d="M123.411 113.809L117.992 116.333C118.051 116.997 118.066 117.661 118.014 118.303C119.146 118.4 122.071 117.542 123.18 115.72C123.605 115.026 123.478 114.19 123.411 113.809Z" fill="black"/>
<path d="M126.516 101.439C127.059 107.329 127.416 109.808 124.945 113.257C121.223 118.445 113.89 117.833 111.605 112.227C109.543 107.18 108.999 98.4008 114.337 95.1907C119.592 92.0328 125.98 95.549 126.523 101.439H126.516Z" fill="#FF8B7B"/>
<path d="M125.22 95.5415C120.59 92.3538 116.741 98.468 124.959 104.425C133.178 110.383 130.468 99.1622 125.22 95.5415Z" fill="#263238"/>
<path d="M122.756 93.8245C124.669 95.549 113.28 101.909 107.086 99.8043C100.9 97.7065 105.858 92.9511 108.121 92.3688C106.185 94.2426 109.572 97.0869 111.218 95.3101C112.863 93.5334 118.922 90.3606 122.756 93.8245Z" fill="#263238"/>
<path d="M100.617 159.363C100.617 159.363 88.0139 212.882 89.1156 226.394C90.4035 242.191 107.63 267.655 107.63 267.655L115.543 260.459C115.543 260.459 107.682 239.593 101.875 226.013C103.736 212.426 120.188 174.04 120.188 161.11L100.61 159.37L100.617 159.363Z" fill="#407BFF"/>
<path opacity="0.6" d="M100.617 159.363C100.617 159.363 88.0139 212.882 89.1156 226.394C90.4035 242.191 107.63 267.655 107.63 267.655L115.543 260.459C115.543 260.459 107.682 239.593 101.875 226.013C103.736 212.426 120.188 174.04 120.188 161.11L100.61 159.37L100.617 159.363Z" fill="#22334D"/>
<path d="M117.001 261.526L107.659 268.521L105.254 266.692L115.513 258.57L117.001 261.526Z" fill="#407BFF"/>
<path opacity="0.2" d="M109.937 182.901C102.999 192.546 102.657 210.284 103.088 220.243C105.471 211.09 110.466 197.414 114.448 185.103C114.359 180.37 113.19 178.385 109.937 182.901Z" fill="black"/>
<path d="M105.098 159.408C105.098 159.408 109.706 205.633 111.255 221.228C113.086 239.75 115.773 269.454 115.773 269.454L124.662 269.081C124.662 269.081 126.612 243.9 125.16 227.305C125.428 205.275 128.667 175.339 124.498 161.483L105.098 159.408Z" fill="#407BFF"/>
<path opacity="0.6" d="M105.098 159.408C105.098 159.408 109.706 205.633 111.255 221.228C113.086 239.75 115.773 269.454 115.773 269.454L124.662 269.081C124.662 269.081 126.612 243.9 125.16 227.305C125.428 205.275 128.667 175.339 124.498 161.483L105.098 159.408Z" fill="#22334D"/>
<path d="M125.332 270.716L115.133 270.425L114.418 267.207L125.957 266.886L125.332 270.716Z" fill="#407BFF"/>
<path d="M117.389 110.636C117.151 110.719 116.89 110.786 116.607 110.831C116.533 110.845 116.458 110.793 116.443 110.711C116.429 110.636 116.481 110.562 116.563 110.547C118.64 110.226 119.384 108.613 119.391 108.598C119.421 108.524 119.51 108.494 119.577 108.531C119.652 108.561 119.682 108.651 119.652 108.718C119.622 108.778 119.027 110.077 117.389 110.636Z" fill="#263238"/>
<path d="M128.146 105.456C128.079 106.68 127.446 107.755 126.687 108.412C125.54 109.405 124.327 108.531 124.111 107.113C123.918 105.836 124.275 103.783 125.682 103.335C127.066 102.902 128.228 104.052 128.146 105.456Z" fill="#FF8B7B"/>
<path d="M136.178 133.025C136.289 134.108 136.349 135.048 136.386 136.056C136.423 137.049 136.438 138.034 136.431 139.027C136.401 141.013 136.275 142.991 136.044 144.985C135.821 146.978 135.456 148.971 134.927 150.964C134.667 151.957 134.339 152.95 133.967 153.935C133.781 154.428 133.572 154.921 133.349 155.406C133.349 155.421 133.237 155.638 133.163 155.779C133.081 155.936 132.992 156.078 132.895 156.212C132.694 156.496 132.478 156.72 132.255 156.929C131.808 157.317 131.361 157.571 130.952 157.75C130.141 158.094 129.471 158.213 128.838 158.288C128.212 158.355 127.639 158.37 127.081 158.362C125.972 158.34 124.952 158.228 123.947 158.086C121.944 157.773 120.039 157.347 118.163 156.839C116.287 156.324 114.448 155.757 112.624 155.152C110.808 154.51 109.014 153.876 107.227 153.122L108.158 150.248C109.967 150.643 111.805 151.061 113.637 151.412C115.46 151.793 117.292 152.144 119.116 152.427C120.932 152.711 122.748 152.972 124.505 153.084C125.376 153.144 126.24 153.174 127.029 153.129C127.416 153.107 127.788 153.069 128.101 153.002C128.406 152.943 128.659 152.853 128.719 152.808C128.734 152.793 128.696 152.793 128.607 152.868C128.54 152.913 128.495 152.965 128.428 153.055L128.339 153.189C128.339 153.189 128.272 153.338 128.309 153.241C128.451 152.853 128.592 152.465 128.711 152.062C128.957 151.255 129.173 150.434 129.351 149.583C129.716 147.889 129.94 146.134 130.103 144.357C130.26 142.581 130.319 140.774 130.312 138.967C130.312 138.064 130.312 137.161 130.275 136.258C130.237 135.369 130.193 134.421 130.141 133.615L136.185 133.003L136.178 133.025Z" fill="#FF8B7B"/>
<path d="M134.548 125.858C137.116 127.538 136.245 142.185 136.245 142.185L130.2 143.402C130.2 143.402 130.148 135.974 129.501 131.099C129.061 127.807 132.717 124.671 134.548 125.866V125.858Z" fill="#FF8B7B"/>
<path d="M113.853 288.603C113.711 288.431 113.667 288.2 113.726 287.916C113.778 287.677 113.92 287.565 114.032 287.52C114.746 287.199 116.473 288.357 116.667 288.491C116.712 288.521 116.734 288.58 116.719 288.633C116.704 288.685 116.659 288.73 116.607 288.745C115.826 288.931 114.434 289.17 113.912 288.67C113.89 288.648 113.875 288.625 113.853 288.61V288.603ZM116.22 288.543C115.513 288.103 114.508 287.603 114.136 287.774C114.091 287.797 114.032 287.834 114.009 287.953C113.965 288.177 114.002 288.342 114.121 288.454C114.404 288.73 115.178 288.76 116.228 288.543H116.22Z" fill="#407BFF"/>
<path d="M115.811 288.073C115.394 287.558 115.036 286.886 115.148 286.46C115.185 286.333 115.29 286.11 115.647 286.065C115.87 286.035 116.071 286.095 116.228 286.251C116.831 286.819 116.726 288.536 116.719 288.61C116.719 288.663 116.689 288.707 116.644 288.73C116.6 288.752 116.548 288.752 116.503 288.73C116.302 288.61 116.041 288.372 115.803 288.073H115.811ZM116.094 286.528C116.094 286.528 116.056 286.483 116.034 286.46C115.93 286.363 115.811 286.326 115.669 286.341C115.491 286.363 115.446 286.445 115.424 286.513C115.312 286.923 115.922 287.886 116.458 288.334C116.458 287.797 116.406 286.908 116.094 286.528Z" fill="#407BFF"/>
<path d="M125.086 160.102L125.346 162.312C125.406 162.483 125.175 162.64 124.9 162.618L100.319 160.438C100.103 160.415 99.9392 160.296 99.9541 160.162L100.088 157.982C100.096 157.832 100.304 157.72 100.542 157.743L124.729 159.885C124.907 159.9 125.049 159.99 125.086 160.102Z" fill="white"/>
<path d="M121.394 162.543L122.041 162.603C122.168 162.618 122.28 162.558 122.287 162.476L122.436 159.646C122.436 159.564 122.339 159.49 122.213 159.475L121.565 159.415C121.438 159.4 121.327 159.46 121.319 159.542L121.17 162.371C121.17 162.453 121.267 162.528 121.394 162.543Z" fill="#407BFF"/>
<path opacity="0.6" d="M121.394 162.543L122.041 162.603C122.168 162.618 122.28 162.558 122.287 162.476L122.436 159.646C122.436 159.564 122.339 159.49 122.213 159.475L121.565 159.415C121.438 159.4 121.327 159.46 121.319 159.542L121.17 162.371C121.17 162.453 121.267 162.528 121.394 162.543Z" fill="black"/>
<path d="M102.106 160.826L102.753 160.886C102.88 160.901 102.992 160.841 102.999 160.759L103.148 157.929C103.148 157.847 103.051 157.773 102.925 157.758L102.277 157.698C102.15 157.683 102.039 157.743 102.031 157.825L101.882 160.654C101.882 160.736 101.979 160.811 102.106 160.826Z" fill="#407BFF"/>
<path opacity="0.6" d="M102.106 160.826L102.753 160.886C102.88 160.901 102.992 160.841 102.999 160.759L103.148 157.929C103.148 157.847 103.051 157.773 102.925 157.758L102.277 157.698C102.15 157.683 102.039 157.743 102.031 157.825L101.882 160.654C101.882 160.736 101.979 160.811 102.106 160.826Z" fill="black"/>
<path d="M111.746 161.685L112.393 161.744C112.52 161.759 112.632 161.699 112.639 161.617L112.788 158.788C112.788 158.706 112.691 158.631 112.565 158.616L111.917 158.557C111.79 158.542 111.679 158.601 111.671 158.683L111.522 161.513C111.522 161.595 111.619 161.67 111.746 161.685Z" fill="#407BFF"/>
<path opacity="0.6" d="M111.746 161.685L112.393 161.744C112.52 161.759 112.632 161.699 112.639 161.617L112.788 158.788C112.788 158.706 112.691 158.631 112.565 158.616L111.917 158.557C111.79 158.542 111.679 158.601 111.671 158.683L111.522 161.513C111.522 161.595 111.619 161.67 111.746 161.685Z" fill="black"/>
<path d="M109.081 150.531L105.381 145.552L103.833 151.509C103.833 151.509 106.602 153.935 108.954 152.987L109.081 150.531Z" fill="#FF8B7B"/>
<path d="M100.594 144.454L99.5596 149.494L104.584 152.069L105.388 145.552L100.594 144.454Z" fill="#FF8B7B"/>
<path d="M177.98 214.045C178.08 214.045 178.16 219.985 178.16 227.295C178.16 234.605 178.08 240.555 177.98 240.555C177.88 240.555 177.81 234.615 177.81 227.295C177.81 219.975 177.88 214.045 177.98 214.045Z" fill="#FE5E00"/>
<path d="M174.53 216.965C174.63 216.965 174.7 221.485 174.7 227.075C174.7 232.665 174.63 237.195 174.53 237.195C174.43 237.195 174.35 232.665 174.35 227.075C174.35 221.485 174.39 216.965 174.53 216.965Z" fill="#FE5E00"/>
<path d="M170.64 219.855C170.74 219.855 170.82 223.135 170.82 227.175C170.82 231.215 170.74 234.505 170.64 234.505C170.54 234.505 170.47 231.225 170.47 227.175C170.47 223.125 170.54 219.855 170.64 219.855Z" fill="#FE5E00"/>
<path d="M167.25 222.345C167.43 223.697 167.49 225.063 167.43 226.425C167.49 227.791 167.43 229.16 167.25 230.515C167.023 227.797 167.023 225.064 167.25 222.345Z" fill="#FE5E00"/>
<path d="M164.26 224.335C164.5 225.822 164.5 227.338 164.26 228.825C164.033 227.337 164.033 225.823 164.26 224.335Z" fill="#FE5E00"/>
<path d="M160.87 221.945C161.05 223.3 161.11 224.669 161.05 226.035C161.11 227.398 161.05 228.763 160.87 230.115C160.644 227.396 160.644 224.664 160.87 221.945Z" fill="#FE5E00"/>
<path d="M157.68 218.655C157.78 218.655 157.86 222.095 157.86 226.325C157.86 230.555 157.78 234.005 157.68 234.005C157.58 234.005 157.51 230.565 157.51 226.325C157.51 222.085 157.59 218.655 157.68 218.655Z" fill="#FE5E00"/>
<path d="M198.13 219.855C198.23 219.855 198.3 223.135 198.3 227.175C198.3 231.215 198.23 234.505 198.13 234.505C198.03 234.505 197.95 231.225 197.95 227.175C197.95 223.125 198.03 219.855 198.13 219.855Z" fill="#FE5E00"/>
<path d="M194.74 222.345C194.92 223.697 194.98 225.063 194.92 226.425C194.98 227.791 194.92 229.16 194.74 230.515C194.56 229.16 194.5 227.791 194.56 226.425C194.5 225.063 194.56 223.697 194.74 222.345Z" fill="#FE5E00"/>
<path d="M191.75 224.335C191.99 225.822 191.99 227.338 191.75 228.825C191.51 227.338 191.51 225.822 191.75 224.335Z" fill="#FE5E00"/>
<path d="M188.39 220.745C188.57 222.502 188.63 224.27 188.57 226.035C188.63 227.797 188.57 229.561 188.39 231.315C188.217 229.561 188.16 227.797 188.22 226.035C188.16 224.27 188.217 222.503 188.39 220.745Z" fill="#FE5E00"/>
<path d="M185.17 218.655C185.27 218.655 185.35 222.095 185.35 226.325C185.35 230.555 185.27 234.005 185.17 234.005C185.07 234.005 185 230.565 185 226.325C185 222.085 185.07 218.655 185.17 218.655Z" fill="#FE5E00"/>
<path d="M181.28 217.065C181.38 217.065 181.46 221.435 181.46 226.825C181.46 232.215 181.38 236.595 181.28 236.595C181.18 236.595 181.11 232.225 181.11 226.825C181.11 221.425 181.19 217.065 181.28 217.065Z" fill="#FE5E00"/>
<path d="M201.75 230.115C201.577 228.762 201.52 227.397 201.58 226.035C201.52 224.669 201.577 223.301 201.75 221.945C201.93 223.3 201.99 224.669 201.93 226.035C201.99 227.398 201.929 228.763 201.75 230.115Z" fill="#FE5E00"/>
<path d="M204.74 228.125C204.514 226.637 204.514 225.123 204.74 223.635C204.98 225.122 204.98 226.638 204.74 228.125Z" fill="#FE5E00"/>
<path d="M154.56 221.945C154.74 223.3 154.8 224.669 154.74 226.035C154.8 227.398 154.74 228.763 154.56 230.115C154.333 227.396 154.333 224.664 154.56 221.945Z" fill="#FE5E00"/>
<path d="M151.57 223.935C151.81 225.422 151.81 226.938 151.57 228.425C151.344 226.937 151.344 225.423 151.57 223.935Z" fill="#FE5E00"/>
<path d="M148.59 221.945C148.763 223.301 148.82 224.669 148.76 226.035C148.82 227.397 148.763 228.762 148.59 230.115C148.411 228.763 148.35 227.398 148.41 226.035C148.35 224.669 148.41 223.3 148.59 221.945Z" fill="#FE5E00"/>
<path d="M145.39 218.655C145.49 218.655 145.56 222.095 145.56 226.325C145.56 230.555 145.49 234.005 145.39 234.005C145.29 234.005 145.21 230.565 145.21 226.325C145.21 222.085 145.3 218.655 145.39 218.655Z" fill="#FE5E00"/>
<path d="M142.28 221.945C142.506 224.664 142.506 227.396 142.28 230.115C142.1 228.763 142.04 227.398 142.1 226.035C142.04 224.669 142.1 223.3 142.28 221.945Z" fill="#FE5E00"/>
<path d="M139.29 223.935C139.517 225.423 139.517 226.937 139.29 228.425C139.05 226.938 139.05 225.422 139.29 223.935Z" fill="#FE5E00"/>
<path d="M214.22 221.945C214.4 223.3 214.46 224.669 214.4 226.035C214.46 227.398 214.4 228.763 214.22 230.115C214.047 228.762 213.99 227.397 214.05 226.035C213.99 224.669 214.047 223.301 214.22 221.945Z" fill="#FE5E00"/>
<path d="M211.03 218.655C211.13 218.655 211.21 222.095 211.21 226.325C211.21 230.555 211.13 234.005 211.03 234.005C210.93 234.005 210.86 230.565 210.86 226.325C210.86 222.085 210.93 218.655 211.03 218.655Z" fill="#FE5E00"/>
<path d="M207.91 221.945C208.083 223.301 208.14 224.669 208.08 226.035C208.14 227.397 208.083 228.762 207.91 230.115C207.73 228.763 207.67 227.398 207.73 226.035C207.67 224.669 207.73 223.3 207.91 221.945Z" fill="#FE5E00"/>
<path d="M204.92 223.935C205.147 225.423 205.147 226.937 204.92 228.425C204.68 226.938 204.68 225.422 204.92 223.935Z" fill="#FE5E00"/>
<path d="M218.12 223.935C218.347 225.423 218.347 226.937 218.12 228.425C217.88 226.938 217.88 225.422 218.12 223.935Z" fill="#FE5E00"/>
<g opacity="0.3">
<path d="M222.39 157.275C222.39 157.275 222.39 157.045 222.39 156.575C222.39 156.105 222.39 155.425 222.29 154.575C222.115 151.953 221.703 149.353 221.06 146.805C220.595 144.963 220.004 143.156 219.29 141.395C218.455 139.294 217.452 137.265 216.29 135.325C213.451 130.595 209.739 126.448 205.35 123.105C200.019 119.064 193.818 116.324 187.24 115.105C181.664 114.074 175.94 114.142 170.39 115.305C168.439 115.725 166.519 116.273 164.64 116.945C156.635 119.854 149.674 125.075 144.64 131.945C143.328 133.731 142.158 135.617 141.14 137.585C140.61 138.585 140.14 139.585 139.69 140.585C139.24 141.585 138.85 142.675 138.51 143.755C137.061 148.133 136.318 152.714 136.31 157.325C136.326 159.643 136.513 161.956 136.87 164.245C137.233 166.503 137.782 168.727 138.51 170.895C138.85 171.975 139.28 173.025 139.69 174.065C140.1 175.105 140.6 176.125 141.13 177.065C142.15 179.038 143.324 180.927 144.64 182.715C149.681 189.579 156.64 194.798 164.64 197.715C166.521 198.376 168.441 198.917 170.39 199.335C175.942 200.483 181.663 200.551 187.24 199.535C193.816 198.31 200.016 195.571 205.35 191.535C209.739 188.192 213.451 184.045 216.29 179.315C218.421 175.74 220.028 171.877 221.06 167.845C221.703 165.294 222.115 162.69 222.29 160.065C222.37 159.165 222.36 158.475 222.39 158.015C222.42 157.555 222.39 157.315 222.39 157.315V158.015C222.39 158.475 222.39 159.165 222.32 160.065C222.058 164.594 221.069 169.051 219.39 173.265C218.56 175.375 217.556 177.411 216.39 179.355C213.555 184.116 209.838 188.294 205.44 191.665C200.091 195.748 193.862 198.526 187.25 199.775C181.641 200.809 175.886 200.747 170.3 199.595C168.336 199.173 166.402 198.622 164.51 197.945C156.46 195.024 149.457 189.779 144.39 182.875C143.064 181.079 141.883 179.18 140.86 177.195C140.32 176.195 139.86 175.195 139.4 174.135C138.94 173.075 138.55 172.025 138.21 170.935C137.477 168.751 136.925 166.51 136.56 164.235C136.196 161.919 136.008 159.579 136 157.235C136.002 152.593 136.748 147.981 138.21 143.575C138.56 142.485 138.99 141.435 139.41 140.375C139.83 139.315 140.33 138.305 140.86 137.315C145.872 127.685 154.31 120.282 164.51 116.565C166.402 115.892 168.336 115.344 170.3 114.925C172.21 114.529 174.144 114.259 176.09 114.115C179.818 113.843 183.566 114.054 187.24 114.745C190.671 115.38 194.01 116.438 197.18 117.895C200.11 119.23 202.881 120.891 205.44 122.845C209.84 126.231 213.556 130.422 216.39 135.195C217.557 137.142 218.56 139.183 219.39 141.295C220.097 143.063 220.681 144.877 221.14 146.725C221.776 149.283 222.171 151.894 222.32 154.525C222.39 155.425 222.37 156.115 222.39 156.525V157.275Z" fill="#FE5E00"/>
</g>
<path d="M216.93 156.345C216.93 156.345 216.93 156.145 216.93 155.745C216.93 155.345 216.93 154.745 216.84 153.975C216.693 151.711 216.338 149.464 215.78 147.265C213.695 139.117 208.916 131.914 202.22 126.825C195.018 121.35 186.061 118.703 177.04 119.385C175.359 119.496 173.688 119.727 172.04 120.075C170.344 120.437 168.673 120.912 167.04 121.495C160.149 124.009 154.154 128.504 149.81 134.415C148.679 135.954 147.676 137.583 146.81 139.285C145.903 141.004 145.144 142.797 144.54 144.645C142.009 152.24 142.009 160.45 144.54 168.045C145.146 169.89 145.902 171.683 146.8 173.405C147.672 175.104 148.675 176.732 149.8 178.275C154.142 184.191 160.137 188.69 167.03 191.205C168.664 191.785 170.334 192.256 172.03 192.615C176.816 193.62 181.752 193.678 186.56 192.785C192.234 191.726 197.583 189.356 202.18 185.865C208.882 180.781 213.662 173.576 215.74 165.425C216.298 163.226 216.653 160.979 216.8 158.715C216.88 157.945 216.86 157.345 216.89 156.945C216.92 156.545 216.89 156.345 216.89 156.345C216.89 156.345 216.89 157.165 216.83 158.725C216.708 160.995 216.373 163.248 215.83 165.455C213.782 173.649 209.007 180.903 202.29 186.025C197.679 189.559 192.3 191.957 186.59 193.025C183.417 193.623 180.18 193.808 176.96 193.575C173.545 193.334 170.179 192.621 166.96 191.455C160.011 188.931 153.964 184.408 149.58 178.455C148.453 176.9 147.45 175.258 146.58 173.545C145.662 171.815 144.896 170.008 144.29 168.145C141.743 160.491 141.743 152.219 144.29 144.565C144.9 142.701 145.666 140.891 146.58 139.155C147.465 137.443 148.485 135.805 149.63 134.255C154.008 128.301 160.053 123.777 167 121.255C168.635 120.677 170.305 120.203 172 119.835C173.649 119.489 175.319 119.259 177 119.145C180.217 118.903 183.451 119.085 186.62 119.685C192.332 120.757 197.713 123.155 202.33 126.685C206.123 129.596 209.33 133.199 211.78 137.305C213.621 140.423 214.998 143.791 215.87 147.305C216.414 149.515 216.749 151.772 216.87 154.045C216.95 155.535 216.93 156.345 216.93 156.345Z" fill="#FE5E00"/>
<path d="M179.27 187.905C196.186 187.905 209.9 174.192 209.9 157.275C209.9 140.359 196.186 126.645 179.27 126.645C162.353 126.645 148.64 140.359 148.64 157.275C148.64 174.192 162.353 187.905 179.27 187.905Z" fill="#FE5E00"/>
<path d="M179.34 147.975H179.12C176.944 147.975 175.18 149.739 175.18 151.915V156.885C175.18 159.061 176.944 160.825 179.12 160.825H179.34C181.516 160.825 183.28 159.061 183.28 156.885V151.915C183.28 149.739 181.516 147.975 179.34 147.975Z" fill="#FAFAFA"/>
<path d="M179.22 163.285C177.628 163.285 176.102 162.653 174.977 161.528C173.852 160.403 173.22 158.876 173.22 157.285C173.22 157.211 173.249 157.14 173.302 157.087C173.354 157.035 173.425 157.005 173.5 157.005C173.573 157.008 173.643 157.038 173.695 157.09C173.747 157.142 173.777 157.212 173.78 157.285C173.782 158.717 174.352 160.09 175.364 161.104C176.376 162.118 177.747 162.69 179.18 162.695C179.899 162.728 180.617 162.61 181.288 162.35C181.959 162.09 182.569 161.692 183.078 161.183C183.587 160.674 183.984 160.065 184.245 159.394C184.505 158.722 184.622 158.004 184.59 157.285C184.59 157.211 184.619 157.14 184.672 157.087C184.724 157.035 184.795 157.005 184.87 157.005C184.944 157.005 185.015 157.035 185.068 157.087C185.12 157.14 185.15 157.211 185.15 157.285C185.191 158.078 185.066 158.87 184.783 159.612C184.501 160.354 184.067 161.029 183.509 161.593C182.951 162.158 182.281 162.6 181.542 162.891C180.804 163.183 180.013 163.317 179.22 163.285Z" fill="#FAFAFA"/>
<path d="M179.5 163.005H178.94V165.935H179.5V163.005Z" fill="white"/>
<path d="M182.76 166.085H175.69C175.624 166.073 175.564 166.037 175.52 165.985C175.477 165.933 175.454 165.868 175.454 165.8C175.454 165.733 175.477 165.667 175.52 165.615C175.564 165.563 175.624 165.528 175.69 165.515H182.76C182.826 165.528 182.886 165.563 182.93 165.615C182.973 165.667 182.996 165.733 182.996 165.8C182.996 165.868 182.973 165.933 182.93 165.985C182.886 166.037 182.826 166.073 182.76 166.085Z" fill="white"/>
<path d="M173.3 150.315C173.3 150.395 172.84 150.245 172.3 150.025C171.76 149.805 171.38 149.605 171.41 149.525C171.44 149.445 171.89 149.525 172.41 149.755C172.93 149.985 173.39 150.245 173.3 150.315Z" fill="white"/>
<path d="M175.58 147.295C175.51 147.295 175.15 146.955 174.76 146.425C174.37 145.895 174.11 145.425 174.18 145.425C174.25 145.425 174.61 145.765 175 146.295C175.39 146.825 175.65 147.245 175.58 147.295Z" fill="white"/>
<path d="M179.24 146.205C179.16 146.205 179.1 145.715 179.11 145.095C179.12 144.475 179.19 143.985 179.27 143.985C179.405 144.339 179.449 144.72 179.4 145.095C179.39 145.705 179.33 146.195 179.24 146.205Z" fill="white"/>
<path d="M183.95 145.415C184.01 145.415 183.84 145.875 183.51 146.315C183.18 146.755 182.82 147.035 182.76 146.985C182.7 146.935 182.95 146.565 183.27 146.135C183.59 145.705 183.87 145.365 183.95 145.415Z" fill="white"/>
<path d="M187.1 149.235C187.1 149.305 186.77 149.595 186.26 149.885C185.75 150.175 185.32 150.345 185.26 150.275C185.2 150.205 185.59 149.915 186.1 149.625C186.61 149.335 187.06 149.165 187.1 149.235Z" fill="white"/>
</g>
<defs>
<clipPath id="clip0_4372_73580">
<rect width="359" height="314" fill="white"/>
</clipPath>
</defs>
</svg>
