<svg width="32" height="32" viewBox="0 0 32 32" fill="none" xmlns="http://www.w3.org/2000/svg">
<path d="M11 12C11 11.7348 11.1054 11.4804 11.2929 11.2929C11.4804 11.1054 11.7348 11 12 11H20C20.2652 11 20.5196 11.1054 20.7071 11.2929C20.8946 11.4804 21 11.7348 21 12C21 12.2652 20.8946 12.5196 20.7071 12.7071C20.5196 12.8946 20.2652 13 20 13H12C11.7348 13 11.4804 12.8946 11.2929 12.7071C11.1054 12.5196 11 12.2652 11 12ZM12 17H20C20.2652 17 20.5196 16.8946 20.7071 16.7071C20.8946 16.5196 21 16.2652 21 16C21 15.7348 20.8946 15.4804 20.7071 15.2929C20.5196 15.1054 20.2652 15 20 15H12C11.7348 15 11.4804 15.1054 11.2929 15.2929C11.1054 15.4804 11 15.7348 11 16C11 16.2652 11.1054 16.5196 11.2929 16.7071C11.4804 16.8946 11.7348 17 12 17ZM16 19H12C11.7348 19 11.4804 19.1054 11.2929 19.2929C11.1054 19.4804 11 19.7348 11 20C11 20.2652 11.1054 20.5196 11.2929 20.7071C11.4804 20.8946 11.7348 21 12 21H16C16.2652 21 16.5196 20.8946 16.7071 20.7071C16.8946 20.5196 17 20.2652 17 20C17 19.7348 16.8946 19.4804 16.7071 19.2929C16.5196 19.1054 16.2652 19 16 19ZM28 6V19.5863C28.0008 19.849 27.9494 20.1093 27.8488 20.352C27.7482 20.5947 27.6003 20.815 27.4137 21L21 27.4137C20.815 27.6003 20.5947 27.7482 20.352 27.8488C20.1093 27.9494 19.849 28.0008 19.5863 28H6C5.46957 28 4.96086 27.7893 4.58579 27.4142C4.21071 27.0391 4 26.5304 4 26V6C4 5.46957 4.21071 4.96086 4.58579 4.58579C4.96086 4.21071 5.46957 4 6 4H26C26.5304 4 27.0391 4.21071 27.4142 4.58579C27.7893 4.96086 28 5.46957 28 6ZM6 26H19V20C19 19.7348 19.1054 19.4804 19.2929 19.2929C19.4804 19.1054 19.7348 19 20 19H26V6H6V26ZM21 21V24.5875L24.5863 21H21Z" fill="#343330"/>
</svg>
