<svg width="18" height="18" viewBox="0 0 18 18" fill="none" xmlns="http://www.w3.org/2000/svg">
<path d="M15.1875 3.375V14.625C15.1875 14.9234 15.069 15.2095 14.858 15.4205C14.647 15.6315 14.3609 15.75 14.0625 15.75H11.25C10.9516 15.75 10.6655 15.6315 10.4545 15.4205C10.2435 15.2095 10.125 14.9234 10.125 14.625V3.375C10.125 3.07663 10.2435 2.79048 10.4545 2.5795C10.6655 2.36853 10.9516 2.25 11.25 2.25H14.0625C14.3609 2.25 14.647 2.36853 14.858 2.5795C15.069 2.79048 15.1875 3.07663 15.1875 3.375ZM6.75 2.25H3.9375C3.63913 2.25 3.35298 2.36853 3.142 2.5795C2.93103 2.79048 2.8125 3.07663 2.8125 3.375V14.625C2.8125 14.9234 2.93103 15.2095 3.142 15.4205C3.35298 15.6315 3.63913 15.75 3.9375 15.75H6.75C7.04837 15.75 7.33452 15.6315 7.5455 15.4205C7.75647 15.2095 7.875 14.9234 7.875 14.625V3.375C7.875 3.07663 7.75647 2.79048 7.5455 2.5795C7.33452 2.36853 7.04837 2.25 6.75 2.25Z" fill="#000000"/>
</svg>
