<svg width="24" height="25" viewBox="0 0 24 25" fill="none" xmlns="http://www.w3.org/2000/svg">
<path d="M22 15.6333C22 15.8639 21.9084 16.0851 21.7453 16.2481C21.5822 16.4112 21.3611 16.5028 21.1304 16.5028H18.5217V18.242H20.2609C20.4915 18.242 20.7127 18.3336 20.8757 18.4966C21.0388 18.6597 21.1304 18.8809 21.1304 19.1115C21.1304 19.3421 21.0388 19.5633 20.8757 19.7264C20.7127 19.8895 20.4915 19.9811 20.2609 19.9811H18.5217V21.7202C18.5217 21.9508 18.4301 22.172 18.267 22.3351C18.104 22.4982 17.8828 22.5898 17.6522 22.5898C17.4216 22.5898 17.2004 22.4982 17.0373 22.3351C16.8742 22.172 16.7826 21.9508 16.7826 21.7202V15.6333C16.7826 15.4026 16.8742 15.1815 17.0373 15.0184C17.2004 14.8553 17.4216 14.7637 17.6522 14.7637H21.1304C21.3611 14.7637 21.5822 14.8553 21.7453 15.0184C21.9084 15.1815 22 15.4026 22 15.6333ZM7.65217 17.8072C7.65217 18.6144 7.33152 19.3885 6.76076 19.9592C6.19 20.53 5.41588 20.8507 4.6087 20.8507H3.73913V21.7202C3.73913 21.9508 3.64752 22.172 3.48444 22.3351C3.32137 22.4982 3.10019 22.5898 2.86957 22.5898C2.63894 22.5898 2.41777 22.4982 2.25469 22.3351C2.09161 22.172 2 21.9508 2 21.7202V15.6333C2 15.4026 2.09161 15.1815 2.25469 15.0184C2.41777 14.8553 2.63894 14.7637 2.86957 14.7637H4.6087C5.41588 14.7637 6.19 15.0843 6.76076 15.6551C7.33152 16.2259 7.65217 17 7.65217 17.8072ZM5.91304 17.8072C5.91304 17.4612 5.77562 17.1295 5.53101 16.8849C5.2864 16.6402 4.95463 16.5028 4.6087 16.5028H3.73913V19.1115H4.6087C4.95463 19.1115 5.2864 18.9741 5.53101 18.7295C5.77562 18.4849 5.91304 18.1531 5.91304 17.8072ZM15.4783 18.6767C15.4783 19.7145 15.066 20.7098 14.3322 21.4437C13.5983 22.1775 12.603 22.5898 11.5652 22.5898H9.82609C9.59546 22.5898 9.37429 22.4982 9.21121 22.3351C9.04814 22.172 8.95652 21.9508 8.95652 21.7202V15.6333C8.95652 15.4026 9.04814 15.1815 9.21121 15.0184C9.37429 14.8553 9.59546 14.7637 9.82609 14.7637H11.5652C12.603 14.7637 13.5983 15.176 14.3322 15.9098C15.066 16.6436 15.4783 17.6389 15.4783 18.6767ZM13.7391 18.6767C13.7391 18.1002 13.5101 17.5472 13.1024 17.1395C12.6947 16.7319 12.1418 16.5028 11.5652 16.5028H10.6957V20.8507H11.5652C12.1418 20.8507 12.6947 20.6216 13.1024 20.2139C13.5101 19.8062 13.7391 19.2533 13.7391 18.6767ZM2 11.2854V3.45935C2 2.9981 2.18323 2.55574 2.50938 2.22959C2.83553 1.90344 3.27788 1.72022 3.73913 1.72022H14.1739C14.2881 1.72013 14.4013 1.74254 14.5068 1.78618C14.6124 1.82983 14.7083 1.89384 14.7891 1.97456L20.8761 8.06152C20.9568 8.14233 21.0208 8.23826 21.0645 8.34382C21.1081 8.44939 21.1305 8.56251 21.1304 8.67674V11.2854C21.1304 11.5161 21.0388 11.7372 20.8757 11.9003C20.7127 12.0634 20.4915 12.155 20.2609 12.155C20.0302 12.155 19.8091 12.0634 19.646 11.9003C19.4829 11.7372 19.3913 11.5161 19.3913 11.2854V9.5463H14.1739C13.9433 9.5463 13.7221 9.45469 13.559 9.29161C13.396 9.12854 13.3043 8.90736 13.3043 8.67674V3.45935H3.73913V11.2854C3.73913 11.5161 3.64752 11.7372 3.48444 11.9003C3.32137 12.0634 3.10019 12.155 2.86957 12.155C2.63894 12.155 2.41777 12.0634 2.25469 11.9003C2.09161 11.7372 2 11.5161 2 11.2854ZM15.0435 7.80717H18.162L15.0435 4.68869V7.80717Z" fill="#4E6074"/>
</svg>

