<svg width="32" height="33" viewBox="0 0 32 33" fill="none" xmlns="http://www.w3.org/2000/svg">
<path d="M27.985 23.3848C27.7621 25.0786 26.9303 26.6333 25.6449 27.7586C24.3595 28.884 22.7084 29.5029 21 29.4998C11.075 29.4998 3.00001 21.4248 3.00001 11.4998C2.99695 9.79142 3.61587 8.14034 4.74118 6.85493C5.86649 5.56952 7.42122 4.73769 9.11501 4.51481C9.54318 4.46242 9.97682 4.54986 10.3512 4.76409C10.7256 4.97833 11.0207 5.30787 11.1925 5.70356L13.8325 11.5986V11.6136C13.9639 11.9166 14.0181 12.2475 13.9904 12.5767C13.9627 12.9058 13.8539 13.223 13.6738 13.4998C13.6513 13.5336 13.6275 13.5648 13.6025 13.5961L11 16.6811C11.9363 18.5836 13.9263 20.5561 15.8538 21.4948L18.8963 18.9061C18.9261 18.8809 18.9574 18.8576 18.99 18.8361C19.2663 18.6508 19.5846 18.5378 19.9159 18.5072C20.2471 18.4766 20.5807 18.5295 20.8863 18.6611L20.9025 18.6686L26.7913 21.3073C27.1879 21.4783 27.5185 21.773 27.7337 22.1475C27.9489 22.522 28.037 22.9561 27.985 23.3848ZM26 23.1348C26 23.1348 25.9913 23.1348 25.9863 23.1348L20.1113 20.5023L17.0675 23.0923C17.038 23.1173 17.0071 23.1407 16.975 23.1623C16.6872 23.3543 16.3545 23.4684 16.0094 23.4934C15.6644 23.5183 15.3187 23.4534 15.0063 23.3048C12.665 22.1736 10.3313 19.8573 9.19876 17.5411C9.0488 17.2309 8.9815 16.8872 9.0034 16.5434C9.0253 16.1996 9.13565 15.8672 9.32376 15.5786C9.34496 15.5447 9.36879 15.5125 9.39501 15.4823L12 12.3936L9.37501 6.51856C9.37452 6.51357 9.37452 6.50855 9.37501 6.50356C8.16283 6.66168 7.04986 7.25626 6.24453 8.17595C5.43919 9.09564 4.99674 10.2774 5.00001 11.4998C5.00464 15.7419 6.69184 19.8088 9.69142 22.8084C12.691 25.808 16.758 27.4952 21 27.4998C22.2217 27.504 23.4031 27.0631 24.3233 26.2595C25.2436 25.4559 25.8396 24.3447 26 23.1336V23.1348Z" fill="white"/>
<path d="M15.3434 8.1709C15.3434 8.0624 15.3647 7.95495 15.4062 7.8547C15.4477 7.75445 15.5085 7.66336 15.5852 7.58664C15.662 7.50991 15.7531 7.44907 15.8533 7.40757C15.9536 7.36608 16.061 7.34475 16.1695 7.34481L21.1822 7.34554L19.6723 5.83568C19.5175 5.68084 19.4305 5.47084 19.4305 5.25187C19.4305 5.0329 19.5175 4.8229 19.6723 4.66807C19.8272 4.51323 20.0372 4.42625 20.2561 4.42625C20.4751 4.42625 20.6851 4.51323 20.8399 4.66807L23.759 7.58709C23.9138 7.74193 24.0008 7.95193 24.0008 8.1709C24.0008 8.38987 23.9138 8.59987 23.759 8.7547L20.8399 11.6737C20.6851 11.8286 20.4751 11.9155 20.2561 11.9155C20.0372 11.9155 19.8272 11.8286 19.6723 11.6737C19.5175 11.5189 19.4305 11.3089 19.4305 11.0899C19.4305 10.871 19.5175 10.661 19.6723 10.5061L21.1822 8.99625L16.1695 8.99698C16.061 8.99704 15.9536 8.97572 15.8533 8.93422C15.7531 8.89273 15.662 8.83188 15.5852 8.75516C15.5085 8.67844 15.4477 8.58735 15.4062 8.4871C15.3647 8.38685 15.3434 8.2794 15.3434 8.1709Z" fill="white"/>
</svg>
