<svg width="32" height="32" viewBox="0 0 32 32" fill="none" xmlns="http://www.w3.org/2000/svg">
<path d="M26.8446 20.1351L21.1913 17.6019L21.1757 17.5947C20.8822 17.4691 20.5621 17.4188 20.2442 17.4481C19.9264 17.4774 19.6209 17.5855 19.3553 17.7627C19.3241 17.7833 19.294 17.8057 19.2653 17.8299L16.3445 20.3199C14.4941 19.4211 12.5837 17.5251 11.6849 15.6986L14.1785 12.7334C14.2025 12.7034 14.2253 12.6734 14.2469 12.641C14.4202 12.3762 14.5254 12.0726 14.553 11.7573C14.5806 11.442 14.5299 11.1248 14.4053 10.8338V10.8194L11.8649 5.15657C11.7002 4.77648 11.4169 4.45986 11.0575 4.25397C10.698 4.04807 10.2816 3.96395 9.87045 4.01416C8.2444 4.22813 6.75185 5.02669 5.67154 6.26069C4.59124 7.49469 3.99707 9.07974 4.00001 10.7198C4.00001 20.2479 11.7521 27.9999 21.2801 27.9999C22.9202 28.0029 24.5052 27.4087 25.7393 26.3284C26.9733 25.2481 27.7718 23.7555 27.9858 22.1295C28.0361 21.7184 27.9521 21.3021 27.7465 20.9427C27.5408 20.5833 27.2244 20.3 26.8446 20.1351ZM21.2801 26.0799C17.2077 26.0755 13.3034 24.4557 10.4238 21.5761C7.54419 18.6965 5.92447 14.7922 5.92002 10.7198C5.91551 9.54798 6.33769 8.41458 7.10772 7.53127C7.87774 6.64796 8.94297 6.07513 10.1045 5.91977C10.104 5.92456 10.104 5.92938 10.1045 5.93417L12.6245 11.5742L10.1441 14.543C10.1189 14.572 10.096 14.6029 10.0757 14.6354C9.89507 14.9125 9.78913 15.2316 9.76811 15.5617C9.74709 15.8918 9.81169 16.2217 9.95565 16.5194C11.0429 18.7431 13.2833 20.9667 15.5309 22.0527C15.8309 22.1953 16.1627 22.2577 16.494 22.2337C16.8252 22.2097 17.1446 22.1002 17.4209 21.9159C17.4517 21.8951 17.4814 21.8727 17.5097 21.8487L20.4269 19.3599L26.067 21.8859C26.067 21.8859 26.0766 21.8859 26.0802 21.8859C25.9267 23.049 25.3547 24.1164 24.4713 24.8883C23.5878 25.6602 22.4533 26.0839 21.2801 26.0799Z" fill="#6C7A87"/>
<path d="M16.9336 11.8652H27.3336" stroke="#343330" stroke-linecap="round"/>
<path d="M16.9336 8.26562H27.3336" stroke="#343330" stroke-linecap="round"/>
<path d="M16.9336 4.66602H27.3336" stroke="#343330" stroke-linecap="round"/>
</svg>
