<svg width="24" height="25" viewBox="0 0 24 25" fill="none" xmlns="http://www.w3.org/2000/svg">
<path d="M20.25 3.87012H3.75C3.35218 3.87012 2.97064 4.02815 2.68934 4.30946C2.40804 4.59076 2.25 4.97229 2.25 5.37012V18.8701C2.25 19.2679 2.40804 19.6495 2.68934 19.9308C2.97064 20.2121 3.35218 20.3701 3.75 20.3701H20.25C20.6478 20.3701 21.0294 20.2121 21.3107 19.9308C21.592 19.6495 21.75 19.2679 21.75 18.8701V5.37012C21.75 4.97229 21.592 4.59076 21.3107 4.30946C21.0294 4.02815 20.6478 3.87012 20.25 3.87012ZM20.25 5.37012V15.0029L17.8059 12.5598C17.6666 12.4205 17.5013 12.31 17.3193 12.2346C17.1372 12.1592 16.9422 12.1203 16.7452 12.1203C16.5481 12.1203 16.3531 12.1592 16.1711 12.2346C15.989 12.31 15.8237 12.4205 15.6844 12.5598L13.8094 14.4348L9.68438 10.3098C9.4031 10.0287 9.02172 9.87081 8.62406 9.87081C8.22641 9.87081 7.84503 10.0287 7.56375 10.3098L3.75 14.1236V5.37012H20.25ZM3.75 16.2451L8.625 11.3701L16.125 18.8701H3.75V16.2451ZM20.25 18.8701H18.2466L14.8716 15.4951L16.7466 13.6201L20.25 17.1245V18.8701ZM13.5 9.49512C13.5 9.27261 13.566 9.05511 13.6896 8.8701C13.8132 8.6851 13.9889 8.5409 14.1945 8.45575C14.4 8.3706 14.6262 8.34833 14.8445 8.39173C15.0627 8.43514 15.2632 8.54229 15.4205 8.69962C15.5778 8.85696 15.685 9.05741 15.7284 9.27564C15.7718 9.49387 15.7495 9.72007 15.6644 9.92564C15.5792 10.1312 15.435 10.3069 15.25 10.4305C15.065 10.5541 14.8475 10.6201 14.625 10.6201C14.3266 10.6201 14.0405 10.5016 13.8295 10.2906C13.6185 10.0796 13.5 9.79349 13.5 9.49512Z" fill="#4E6074"/>
</svg>

