<svg width="24" height="24" viewBox="0 0 24 24" fill="none" xmlns="http://www.w3.org/2000/svg">
<path d="M22 11.955C22.0006 12.2019 21.9373 12.4448 21.8162 12.66C21.6951 12.8753 21.5204 13.0555 21.3091 13.1832L8.21091 21.1959C7.99008 21.3311 7.73715 21.4049 7.47825 21.4097C7.21935 21.4145 6.96387 21.3501 6.73818 21.2232C6.51465 21.0982 6.32843 20.9159 6.19869 20.6951C6.06896 20.4743 6.00037 20.2229 6 19.9668V3.94318C6.00037 3.68708 6.06896 3.43569 6.19869 3.21488C6.32843 2.99407 6.51465 2.8118 6.73818 2.68682C6.96387 2.55986 7.21935 2.49545 7.47825 2.50025C7.73715 2.50504 7.99008 2.57887 8.21091 2.71409L21.3091 10.7268C21.5204 10.8545 21.6951 11.0347 21.8162 11.25C21.9373 11.4652 22.0006 11.7081 22 11.955Z" fill="#343330"/>
</svg>
