<svg xmlns="http://www.w3.org/2000/svg" width="18" height="17" viewBox="0 0 18 17" fill="none">
<path d="M9.26562 1.59375C7.50502 1.59568 5.81707 2.29594 4.57213 3.54088C3.32719 4.78582 2.62693 6.47377 2.625 8.23438V13.8344C2.62535 14.1103 2.7351 14.3748 2.93017 14.5698C3.12524 14.7649 3.38971 14.8746 3.66559 14.875H9.26562C11.0268 14.875 12.7159 14.1754 13.9613 12.93C15.2066 11.6846 15.9062 9.99558 15.9062 8.23438C15.9062 6.47317 15.2066 4.7841 13.9613 3.53874C12.7159 2.29339 11.0268 1.59375 9.26562 1.59375ZM9.26562 13.8125H3.6875V8.23438C3.6875 7.13113 4.01465 6.05265 4.62758 5.13533C5.24052 4.21802 6.1117 3.50305 7.13097 3.08086C8.15024 2.65866 9.27181 2.5482 10.3539 2.76343C11.4359 2.97867 12.4298 3.50993 13.21 4.29004C13.9901 5.07016 14.5213 6.06409 14.7366 7.14614C14.9518 8.22819 14.8413 9.34976 14.4191 10.369C13.9969 11.3883 13.282 12.2595 12.3647 12.8724C11.4473 13.4853 10.3689 13.8125 9.26562 13.8125ZM10.0625 8.5C10.0625 8.65761 10.0158 8.81167 9.9282 8.94272C9.84064 9.07377 9.71619 9.1759 9.57058 9.23622C9.42497 9.29653 9.26474 9.31231 9.11016 9.28156C8.95558 9.25082 8.81359 9.17492 8.70215 9.06348C8.5907 8.95203 8.51481 8.81004 8.48406 8.65546C8.45331 8.50088 8.46909 8.34066 8.52941 8.19505C8.58972 8.04944 8.69186 7.92498 8.82291 7.83742C8.95395 7.74986 9.10802 7.70312 9.26562 7.70312C9.47697 7.70312 9.67966 7.78708 9.8291 7.93652C9.97854 8.08597 10.0625 8.28866 10.0625 8.5ZM7.14062 8.5C7.14062 8.65761 7.09389 8.81167 7.00633 8.94272C6.91877 9.07377 6.79431 9.1759 6.6487 9.23622C6.50309 9.29653 6.34287 9.31231 6.18829 9.28156C6.03371 9.25082 5.89172 9.17492 5.78027 9.06348C5.66883 8.95203 5.59293 8.81004 5.56219 8.65546C5.53144 8.50088 5.54722 8.34066 5.60753 8.19505C5.66785 8.04944 5.76998 7.92498 5.90103 7.83742C6.03208 7.74986 6.18614 7.70312 6.34375 7.70312C6.55509 7.70312 6.75778 7.78708 6.90723 7.93652C7.05667 8.08597 7.14062 8.28866 7.14062 8.5ZM12.9844 8.5C12.9844 8.65761 12.9376 8.81167 12.8501 8.94272C12.7625 9.07377 12.6381 9.1759 12.4925 9.23622C12.3468 9.29653 12.1866 9.31231 12.032 9.28156C11.8775 9.25082 11.7355 9.17492 11.624 9.06348C11.5126 8.95203 11.4367 8.81004 11.4059 8.65546C11.3752 8.50088 11.391 8.34066 11.4513 8.19505C11.5116 8.04944 11.6137 7.92498 11.7448 7.83742C11.8758 7.74986 12.0299 7.70312 12.1875 7.70312C12.3988 7.70312 12.6015 7.78708 12.751 7.93652C12.9004 8.08597 12.9844 8.28866 12.9844 8.5Z" fill="#4E6074"/>
</svg>

