<svg width="34" height="35" viewBox="0 0 34 35" fill="none" xmlns="http://www.w3.org/2000/svg">
<path d="M17 3.6875C14.2682 3.6875 11.5976 4.49759 9.32619 6.01533C7.05474 7.53306 5.28436 9.69028 4.23892 12.2142C3.19348 14.7381 2.91995 17.5153 3.45291 20.1947C3.98587 22.874 5.30138 25.3352 7.23309 27.2669C9.16481 29.1986 11.626 30.5141 14.3053 31.0471C16.9847 31.5801 19.7619 31.3065 22.2858 30.2611C24.8097 29.2157 26.9669 27.4453 28.4847 25.1738C30.0024 22.9024 30.8125 20.2319 30.8125 17.5C30.8086 13.8379 29.3522 10.3269 26.7626 7.73736C24.1731 5.14785 20.6621 3.69137 17 3.6875ZM9.83876 26.7305C10.6074 25.5284 11.6663 24.5391 12.9178 23.8538C14.1693 23.1686 15.5732 22.8094 17 22.8094C18.4268 22.8094 19.8307 23.1686 21.0822 23.8538C22.3337 24.5391 23.3926 25.5284 24.1613 26.7305C22.1137 28.3229 19.5939 29.1874 17 29.1874C14.4061 29.1874 11.8863 28.3229 9.83876 26.7305ZM12.75 16.4375C12.75 15.5969 12.9993 14.7752 13.4663 14.0763C13.9333 13.3774 14.597 12.8327 15.3736 12.511C16.1502 12.1893 17.0047 12.1052 17.8291 12.2692C18.6536 12.4331 19.4108 12.8379 20.0052 13.4323C20.5996 14.0267 21.0044 14.7839 21.1683 15.6084C21.3323 16.4328 21.2482 17.2873 20.9265 18.0639C20.6048 18.8405 20.0601 19.5042 19.3612 19.9712C18.6623 20.4382 17.8406 20.6875 17 20.6875C15.8728 20.6875 14.7918 20.2397 13.9948 19.4427C13.1978 18.6457 12.75 17.5647 12.75 16.4375ZM25.7338 25.2576C24.5488 23.5404 22.8825 22.2119 20.9445 21.4392C21.9855 20.6193 22.7452 19.4954 23.1178 18.2237C23.4904 16.952 23.4575 15.5959 23.0236 14.3438C22.5897 13.0917 21.7765 12.0059 20.6969 11.2375C19.6173 10.469 18.3251 10.0561 17 10.0561C15.6749 10.0561 14.3827 10.469 13.3031 11.2375C12.2236 12.0059 11.4103 13.0917 10.9764 14.3438C10.5425 15.5959 10.5096 16.952 10.8822 18.2237C11.2548 19.4954 12.0145 20.6193 13.0555 21.4392C11.1175 22.2119 9.45125 23.5404 8.26626 25.2576C6.76889 23.5737 5.79019 21.4929 5.44803 19.2657C5.10587 17.0386 5.41483 14.7599 6.33771 12.7043C7.26058 10.6486 8.75802 8.90355 10.6497 7.67923C12.5414 6.45491 14.7467 5.80353 17 5.80353C19.2533 5.80353 21.4586 6.45491 23.3503 7.67923C25.242 8.90355 26.7394 10.6486 27.6623 12.7043C28.5852 14.7599 28.8941 17.0386 28.552 19.2657C28.2098 21.4929 27.2311 23.5737 25.7338 25.2576Z" fill="#4E6074"/>
</svg>
