<svg xmlns="http://www.w3.org/2000/svg" width="8" height="8" viewBox="0 0 8 8" fill="none">
<path d="M3.52 3.83333V0.5C3.52 0.367392 3.57057 0.240215 3.66059 0.146447C3.75061 0.0526784 3.8727 0 4 0C4.1273 0 4.24939 0.0526784 4.33941 0.146447C4.42943 0.240215 4.48 0.367392 4.48 0.5V3.83333C4.48 3.96594 4.42943 4.09312 4.33941 4.18689C4.24939 4.28065 4.1273 4.33333 4 4.33333C3.8727 4.33333 3.75061 4.28065 3.66059 4.18689C3.57057 4.09312 3.52 3.96594 3.52 3.83333ZM6.182 0.416667C6.07542 0.348304 5.94741 0.326015 5.82528 0.354551C5.70314 0.383086 5.59654 0.460189 5.5282 0.569422C5.45985 0.678655 5.43517 0.811376 5.45942 0.939291C5.48367 1.0672 5.55493 1.18019 5.658 1.25417C6.5364 1.84875 7.04 2.79167 7.04 3.83333C7.04 4.67319 6.71972 5.47864 6.1496 6.0725C5.57949 6.66637 4.80626 7 4 7C3.19374 7 2.42051 6.66637 1.8504 6.0725C1.28028 5.47864 0.96 4.67319 0.96 3.83333C0.96 2.79167 1.4636 1.84875 2.342 1.25208C2.43959 1.1759 2.50568 1.06387 2.52684 0.938764C2.54801 0.813656 2.52267 0.684847 2.45596 0.578498C2.38926 0.47215 2.28619 0.396237 2.1677 0.36618C2.04921 0.336122 1.92418 0.354173 1.818 0.416667C0.6624 1.19917 0 2.44542 0 3.83333C0 4.9384 0.421427 5.99821 1.17157 6.77961C1.92172 7.56101 2.93913 8 4 8C5.06087 8 6.07828 7.56101 6.82843 6.77961C7.57857 5.99821 8 4.9384 8 3.83333C8 2.44542 7.3376 1.19917 6.182 0.416667Z" fill="#DBB820"/>
</svg>
