<svg xmlns="http://www.w3.org/2000/svg" width="8" height="8" viewBox="0 0 8 8" fill="none">
<path d="M4 0C3.20888 0 2.43552 0.234596 1.77772 0.674121C1.11992 1.11365 0.607234 1.73836 0.304484 2.46927C0.00173314 3.20017 -0.0774802 4.00444 0.0768607 4.78036C0.231202 5.55628 0.612165 6.26902 1.17157 6.82843C1.73098 7.38784 2.44372 7.7688 3.21964 7.92314C3.99556 8.07748 4.79983 7.99827 5.53073 7.69552C6.26164 7.39277 6.88635 6.88008 7.32588 6.22228C7.7654 5.56448 8 4.79112 8 4C7.99882 2.93949 7.57702 1.92276 6.82713 1.17287C6.07724 0.422981 5.06051 0.00117638 4 0ZM4 7.11111C3.38468 7.11111 2.78318 6.92865 2.27156 6.58679C1.75994 6.24494 1.36118 5.75905 1.12571 5.19057C0.890237 4.62209 0.828627 3.99655 0.94867 3.39305C1.06871 2.78956 1.36502 2.23521 1.80011 1.80011C2.23521 1.36502 2.78956 1.06871 3.39305 0.948668C3.99655 0.828625 4.62209 0.890235 5.19057 1.12571C5.75905 1.36118 6.24494 1.75994 6.58679 2.27156C6.92865 2.78318 7.11111 3.38468 7.11111 4C7.11023 4.82485 6.78217 5.61566 6.19891 6.19891C5.61566 6.78217 4.82485 7.11023 4 7.11111ZM3.55556 4.14815V2.22222C3.55556 2.10435 3.60238 1.9913 3.68573 1.90795C3.76908 1.8246 3.88213 1.77778 4 1.77778C4.11788 1.77778 4.23092 1.8246 4.31427 1.90795C4.39762 1.9913 4.44445 2.10435 4.44445 2.22222V4.14815C4.44445 4.26602 4.39762 4.37907 4.31427 4.46242C4.23092 4.54577 4.11788 4.59259 4 4.59259C3.88213 4.59259 3.76908 4.54577 3.68573 4.46242C3.60238 4.37907 3.55556 4.26602 3.55556 4.14815ZM4.59259 5.62963C4.59259 5.74683 4.55784 5.8614 4.49272 5.95886C4.42761 6.05631 4.33506 6.13226 4.22678 6.17711C4.11849 6.22196 3.99934 6.2337 3.88439 6.21083C3.76944 6.18797 3.66385 6.13153 3.58097 6.04865C3.4981 5.96578 3.44166 5.86019 3.41879 5.74524C3.39593 5.63029 3.40766 5.51114 3.45252 5.40285C3.49737 5.29457 3.57332 5.20202 3.67077 5.13691C3.76823 5.07179 3.8828 5.03704 4 5.03704C4.15717 5.03704 4.30789 5.09947 4.41903 5.2106C4.53016 5.32173 4.59259 5.47246 4.59259 5.62963Z" fill="#DD5F5F"/>
</svg>
