<svg width="28" height="22" viewBox="0 0 28 22" fill="none" xmlns="http://www.w3.org/2000/svg">
<path d="M0.94614 11.2169L10.4697 20.7404C10.6029 20.8738 10.7727 20.9646 10.9575 21.0014C11.1423 21.0382 11.3339 21.0194 11.5081 20.9472C11.6822 20.8751 11.831 20.7529 11.9356 20.5961C12.0402 20.4394 12.096 20.2551 12.0959 20.0667V15.3322C18.8933 15.7179 23.5539 20.1262 24.8622 21.5226C25.0676 21.742 25.337 21.891 25.6321 21.9484C25.9271 22.0058 26.2327 21.9687 26.5054 21.8424C26.7781 21.716 27.0041 21.5069 27.151 21.2447C27.298 20.9825 27.3586 20.6807 27.324 20.3821C26.8824 16.5417 24.7789 12.8478 21.4004 9.98119C18.5945 7.6003 15.1839 6.08962 12.0959 5.82534V1.01951C12.096 0.831046 12.0402 0.646772 11.9356 0.49002C11.831 0.333268 11.6822 0.211086 11.5081 0.138942C11.3339 0.0667991 11.1423 0.047938 10.9575 0.084747C10.7727 0.121556 10.6029 0.21238 10.4697 0.345721L0.94614 9.86929C0.857594 9.95774 0.787348 10.0628 0.739422 10.1784C0.691494 10.294 0.666828 10.4179 0.666828 10.5431C0.666828 10.6682 0.691494 10.7922 0.739422 10.9078C0.787348 11.0234 0.857594 11.1284 0.94614 11.2169Z" fill="#6C7A87"/>
</svg>

