<svg width="24" height="25" viewBox="0 0 24 25" fill="none" xmlns="http://www.w3.org/2000/svg">
<path d="M16.2812 19.4698C16.3509 19.5395 16.4062 19.6222 16.4439 19.7132C16.4816 19.8043 16.501 19.9019 16.501 20.0004C16.501 20.099 16.4816 20.1965 16.4439 20.2876C16.4062 20.3786 16.3509 20.4614 16.2812 20.531C16.2115 20.6007 16.1288 20.656 16.0378 20.6937C15.9467 20.7314 15.8491 20.7508 15.7506 20.7508C15.652 20.7508 15.5545 20.7314 15.4634 20.6937C15.3724 20.656 15.2896 20.6007 15.22 20.531L7.71996 13.031C7.65023 12.9614 7.59491 12.8787 7.55717 12.7876C7.51943 12.6966 7.5 12.599 7.5 12.5004C7.5 12.4019 7.51943 12.3043 7.55717 12.2132C7.59491 12.1222 7.65023 12.0394 7.71996 11.9698L15.22 4.46979C15.3607 4.32906 15.5516 4.25 15.7506 4.25C15.9496 4.25 16.1405 4.32906 16.2812 4.46979C16.4219 4.61052 16.501 4.80139 16.501 5.00042C16.501 5.19944 16.4219 5.39031 16.2812 5.53104L9.3109 12.5004L16.2812 19.4698Z" fill="#4E6074"/>
</svg>
