<svg width="30" height="30" viewBox="0 0 30 30" fill="none" xmlns="http://www.w3.org/2000/svg">
<rect x="3.75" y="6.75" width="22.5" height="16.9615" rx="1.25" stroke="#FE5E00" stroke-width="1.5"/>
<path d="M22.2985 16.1988C22.246 16.2382 22.1862 16.2668 22.1226 16.2831C22.059 16.2994 21.9928 16.303 21.9279 16.2938C21.8629 16.2845 21.8003 16.2625 21.7438 16.229C21.6873 16.1956 21.638 16.1513 21.5986 16.0988C21.2973 15.6938 20.905 15.3651 20.4535 15.1394C20.002 14.9136 19.5037 14.797 18.9989 14.7989C18.9006 14.7989 18.8045 14.7699 18.7225 14.7156C18.6406 14.6612 18.5765 14.5839 18.5383 14.4934C18.5124 14.4318 18.499 14.3658 18.499 14.299C18.499 14.2322 18.5124 14.1662 18.5383 14.1046C18.5765 14.0141 18.6406 13.9368 18.7225 13.8824C18.8045 13.8281 18.9006 13.7991 18.9989 13.7991C19.2794 13.799 19.5543 13.7203 19.7923 13.5719C20.0304 13.4235 20.222 13.2113 20.3455 12.9594C20.4689 12.7076 20.5193 12.4261 20.4909 12.147C20.4624 11.868 20.3562 11.6025 20.1844 11.3807C20.0127 11.159 19.7821 10.9898 19.519 10.8925C19.2559 10.7952 18.9708 10.7736 18.6961 10.8303C18.4213 10.8869 18.168 11.0194 17.9648 11.2128C17.7616 11.4062 17.6167 11.6527 17.5466 11.9243C17.5301 11.9879 17.5014 12.0476 17.4619 12.1001C17.4224 12.1526 17.3729 12.1968 17.3163 12.2301C17.2597 12.2635 17.1971 12.2854 17.1321 12.2946C17.0671 12.3037 17.0009 12.3 16.9372 12.2836C16.8736 12.2672 16.8139 12.2384 16.7614 12.1989C16.7089 12.1594 16.6648 12.11 16.6314 12.0534C16.598 11.9968 16.5761 11.9342 16.567 11.8692C16.5578 11.8041 16.5615 11.7379 16.5779 11.6743C16.6753 11.2977 16.8591 10.9489 17.115 10.6559C17.3708 10.3628 17.6915 10.1335 18.0515 9.98621C18.4116 9.8389 18.801 9.77765 19.1889 9.80734C19.5768 9.83703 19.9524 9.95684 20.2858 10.1572C20.6192 10.3576 20.9013 10.6331 21.1095 10.9616C21.3178 11.2902 21.4464 11.6629 21.4853 12.0499C21.5242 12.437 21.4722 12.8278 21.3335 13.1912C21.1947 13.5547 20.9731 13.8807 20.6862 14.1434C21.366 14.4377 21.957 14.9048 22.4004 15.4982C22.4398 15.5509 22.4684 15.6108 22.4846 15.6745C22.5008 15.7383 22.5043 15.8046 22.4948 15.8696C22.4853 15.9347 22.4631 15.9973 22.4294 16.0538C22.3958 16.1103 22.3513 16.1595 22.2985 16.1988ZM18.9314 20.0484C18.9676 20.1053 18.9919 20.1689 19.0028 20.2354C19.0137 20.302 19.0111 20.37 18.9951 20.4355C18.979 20.501 18.9499 20.5626 18.9095 20.6165C18.869 20.6705 18.8181 20.7157 18.7597 20.7494C18.7013 20.7831 18.6367 20.8047 18.5698 20.8129C18.5028 20.821 18.435 20.8155 18.3702 20.7967C18.3054 20.7779 18.2452 20.7462 18.193 20.7035C18.1408 20.6609 18.0978 20.608 18.0665 20.5483C17.7516 20.015 17.303 19.5731 16.7652 19.2661C16.2273 18.9591 15.6187 18.7976 14.9993 18.7976C14.38 18.7976 13.7714 18.9591 13.2335 19.2661C12.6957 19.5731 12.2471 20.015 11.9322 20.5483C11.9009 20.608 11.8579 20.6609 11.8057 20.7035C11.7535 20.7462 11.6932 20.7779 11.6285 20.7967C11.5637 20.8155 11.4958 20.821 11.4289 20.8129C11.362 20.8047 11.2974 20.7831 11.239 20.7494C11.1806 20.7157 11.1297 20.6705 11.0892 20.6165C11.0488 20.5626 11.0197 20.501 11.0036 20.4355C10.9876 20.37 10.9849 20.302 10.9959 20.2354C11.0068 20.1689 11.0311 20.1053 11.0673 20.0484C11.552 19.2156 12.291 18.5602 13.1758 18.1786C12.6779 17.7974 12.312 17.2698 12.1295 16.6699C11.947 16.07 11.9571 15.428 12.1584 14.8341C12.3596 14.2403 12.7419 13.7244 13.2515 13.359C13.761 12.9937 14.3723 12.7972 14.9993 12.7972C15.6264 12.7972 16.2376 12.9937 16.7472 13.359C17.2568 13.7244 17.6391 14.2403 17.8403 14.8341C18.0416 15.428 18.0516 16.07 17.8691 16.6699C17.6866 17.2698 17.3208 17.7974 16.8229 18.1786C17.7077 18.5602 18.4467 19.2156 18.9314 20.0484ZM14.9993 17.7986C15.3949 17.7986 15.7815 17.6813 16.1104 17.4616C16.4392 17.2418 16.6955 16.9295 16.8469 16.5641C16.9983 16.1987 17.0379 15.7966 16.9607 15.4087C16.8835 15.0208 16.6931 14.6645 16.4134 14.3848C16.1337 14.1051 15.7774 13.9146 15.3895 13.8375C15.0016 13.7603 14.5995 13.7999 14.2341 13.9513C13.8687 14.1026 13.5563 14.359 13.3366 14.6878C13.1169 15.0167 12.9996 15.4033 12.9996 15.7988C12.9996 16.3292 13.2103 16.8379 13.5853 17.2129C13.9603 17.5879 14.469 17.7986 14.9993 17.7986ZM11.4997 14.299C11.4997 14.1664 11.4471 14.0392 11.3533 13.9455C11.2596 13.8517 11.1324 13.7991 10.9998 13.7991C10.7193 13.799 10.4444 13.7203 10.2064 13.5719C9.96833 13.4235 9.77669 13.2113 9.65322 12.9594C9.52974 12.7076 9.47937 12.4261 9.50784 12.147C9.5363 11.868 9.64246 11.6025 9.81425 11.3807C9.98603 11.159 10.2166 10.9898 10.4797 10.8925C10.7428 10.7952 11.0279 10.7736 11.3026 10.8303C11.5774 10.8869 11.8307 11.0194 12.0339 11.2128C12.2371 11.4062 12.382 11.6527 12.4521 11.9243C12.4853 12.0527 12.5681 12.1627 12.6824 12.2301C12.7966 12.2975 12.933 12.3168 13.0614 12.2836C13.1899 12.2505 13.2999 12.1676 13.3673 12.0534C13.4347 11.9391 13.4539 11.8027 13.4208 11.6743C13.3234 11.2977 13.1395 10.9489 12.8837 10.6559C12.6279 10.3628 12.3072 10.1335 11.9472 9.98621C11.5871 9.8389 11.1977 9.77765 10.8098 9.80734C10.4219 9.83703 10.0463 9.95684 9.71289 10.1572C9.37947 10.3576 9.09741 10.6331 8.88917 10.9616C8.68093 11.2902 8.55225 11.6629 8.51337 12.0499C8.47449 12.437 8.52648 12.8278 8.66521 13.1912C8.80394 13.5547 9.02558 13.8807 9.31249 14.1434C8.63336 14.438 8.04307 14.9051 7.60018 15.4982C7.52054 15.6043 7.4863 15.7377 7.50499 15.869C7.52369 16.0003 7.59378 16.1188 7.69985 16.1985C7.80593 16.2781 7.9393 16.3124 8.07061 16.2937C8.20193 16.275 8.32045 16.2049 8.40009 16.0988C8.70142 15.6938 9.09364 15.3651 9.54518 15.1394C9.99672 14.9136 10.495 14.797 10.9998 14.7989C11.1324 14.7989 11.2596 14.7463 11.3533 14.6525C11.4471 14.5588 11.4997 14.4316 11.4997 14.299Z" fill="#FE5E00"/>
</svg>
