<svg width="25" height="25" viewBox="0 0 25 25" fill="none" xmlns="http://www.w3.org/2000/svg">
<path d="M22.2748 20.8076L17.4656 15.9994C18.8595 14.3259 19.5546 12.1795 19.4062 10.0066C19.2579 7.83371 18.2775 5.80166 16.6691 4.33317C15.0607 2.86469 12.948 2.07282 10.7707 2.1223C8.59327 2.17179 6.51878 3.05881 4.97874 4.59886C3.4387 6.1389 2.55167 8.21339 2.50219 10.3908C2.4527 12.5682 3.24457 14.6808 4.71306 16.2892C6.18155 17.8976 8.2136 18.878 10.3865 19.0263C12.5594 19.1747 14.7058 18.4796 16.3793 17.0857L21.1875 21.8949C21.2589 21.9663 21.3437 22.023 21.437 22.0616C21.5302 22.1002 21.6302 22.1201 21.7312 22.1201C21.8321 22.1201 21.9321 22.1002 22.0254 22.0616C22.1187 22.023 22.2034 21.9663 22.2748 21.8949C22.3462 21.8235 22.4028 21.7388 22.4415 21.6455C22.4801 21.5522 22.5 21.4523 22.5 21.3513C22.5 21.2503 22.4801 21.1504 22.4415 21.0571C22.4028 20.9638 22.3462 20.879 22.2748 20.8076ZM4.05803 10.5937C4.05803 9.22595 4.46362 7.88889 5.22351 6.75163C5.9834 5.61437 7.06347 4.72798 8.32713 4.20456C9.59078 3.68114 10.9813 3.54418 12.3228 3.81102C13.6643 4.07786 14.8965 4.73651 15.8637 5.70367C16.8308 6.67083 17.4895 7.90307 17.7563 9.24456C18.0231 10.5861 17.8862 11.9765 17.3628 13.2402C16.8393 14.5039 15.953 15.5839 14.8157 16.3438C13.6784 17.1037 12.3414 17.5093 10.9736 17.5093C9.1401 17.5073 7.38228 16.778 6.0858 15.4815C4.78932 14.185 4.06006 12.4272 4.05803 10.5937Z" fill="#6C7A87"/>
</svg>

