<svg width="32" height="32" viewBox="0 0 32 32" fill="none" xmlns="http://www.w3.org/2000/svg">
<path d="M15.9984 9.88217C14.7889 9.88217 13.6066 10.2408 12.601 10.9128C11.5953 11.5847 10.8115 12.5398 10.3486 13.6572C9.88579 14.7746 9.76469 16.0042 10.0007 17.1905C10.2366 18.3767 10.819 19.4664 11.6743 20.3216C12.5295 21.1768 13.6191 21.7592 14.8054 21.9952C15.9916 22.2312 17.2212 22.1101 18.3386 21.6472C19.456 21.1844 20.4111 20.4006 21.0831 19.3949C21.755 18.3892 22.1137 17.2069 22.1137 15.9974C22.112 14.3761 21.4672 12.8216 20.3207 11.6752C19.1742 10.5287 17.6198 9.88386 15.9984 9.88217ZM15.9984 20.0743C15.1921 20.0743 14.4039 19.8352 13.7334 19.3872C13.063 18.9392 12.5405 18.3025 12.2319 17.5576C11.9233 16.8126 11.8426 15.9929 11.9999 15.2021C12.1572 14.4113 12.5455 13.6848 13.1157 13.1147C13.6858 12.5445 14.4122 12.1562 15.2031 11.9989C15.9939 11.8416 16.8136 11.9224 17.5586 12.2309C18.3035 12.5395 18.9402 13.062 19.3882 13.7325C19.8362 14.4029 20.0753 15.1911 20.0753 15.9974C20.0753 17.0787 19.6457 18.1156 18.8812 18.8802C18.1166 19.6448 17.0797 20.0743 15.9984 20.0743ZM27.2097 16.2726C27.2148 16.0892 27.2148 15.9057 27.2097 15.7223L29.1106 13.3475C29.2102 13.2228 29.2792 13.0764 29.312 12.9202C29.3447 12.764 29.3403 12.6023 29.2991 12.448C28.9875 11.2767 28.5214 10.1521 27.913 9.10375C27.8333 8.96656 27.7228 8.84986 27.59 8.76294C27.4573 8.67601 27.3062 8.62127 27.1486 8.60306L24.1266 8.26672C24.0009 8.13422 23.8735 8.00682 23.7444 7.88452L23.3877 4.85491C23.3694 4.6972 23.3144 4.54596 23.2273 4.41325C23.1401 4.28053 23.0232 4.17001 22.8857 4.0905C21.837 3.48324 20.7125 3.01757 19.5414 2.70565C19.3871 2.66462 19.2253 2.66042 19.0691 2.6934C18.9129 2.72637 18.7666 2.79559 18.642 2.89548L16.2736 4.78611C16.0901 4.78611 15.9067 4.78611 15.7232 4.78611L13.3485 2.88911C13.2238 2.78944 13.0774 2.72045 12.9212 2.6877C12.765 2.65495 12.6032 2.65935 12.449 2.70055C11.2779 3.01272 10.1533 3.47883 9.10472 4.08668C8.96754 4.16634 8.85084 4.27692 8.76391 4.40963C8.67699 4.54233 8.62225 4.6935 8.60404 4.85109L8.2677 7.87815C8.1352 8.0047 8.0078 8.1321 7.88549 8.26035L4.85589 8.60816C4.69818 8.6265 4.54694 8.68144 4.41422 8.76859C4.28151 8.85574 4.17099 8.97269 4.09148 9.11012C3.48422 10.1588 3.01855 11.2834 2.70662 12.4544C2.6656 12.6087 2.6614 12.7705 2.69437 12.9267C2.72735 13.083 2.79657 13.2293 2.89645 13.3539L4.78709 15.7223C4.78709 15.9057 4.78709 16.0892 4.78709 16.2726L2.89008 18.6474C2.79041 18.7721 2.72143 18.9184 2.68868 19.0747C2.65592 19.2309 2.66033 19.3926 2.70153 19.5468C3.01314 20.7182 3.47927 21.8428 4.08766 22.8911C4.16731 23.0283 4.2779 23.145 4.4106 23.2319C4.54331 23.3189 4.69447 23.3736 4.85206 23.3918L7.87403 23.7282C8.00058 23.8607 8.12798 23.9881 8.25623 24.1104L8.60913 27.14C8.62748 27.2977 8.68242 27.4489 8.76957 27.5816C8.85672 27.7143 8.97367 27.8249 9.11109 27.9044C10.1598 28.5116 11.2844 28.9773 12.4554 29.2892C12.6097 29.3303 12.7715 29.3345 12.9277 29.3015C13.084 29.2685 13.2303 29.1993 13.3548 29.0994L15.7232 27.2088C15.9067 27.2139 16.0901 27.2139 16.2736 27.2088L18.6484 29.1096C18.7731 29.2093 18.9194 29.2782 19.0756 29.311C19.2319 29.3438 19.3936 29.3393 19.5478 29.2981C20.7191 28.9865 21.8438 28.5204 22.8921 27.912C23.0293 27.8324 23.146 27.7218 23.2329 27.5891C23.3198 27.4564 23.3746 27.3052 23.3928 27.1476L23.7291 24.1257C23.8616 23.9999 23.989 23.8725 24.1113 23.7434L27.1409 23.3867C27.2987 23.3684 27.4499 23.3134 27.5826 23.2263C27.7153 23.1391 27.8258 23.0222 27.9054 22.8848C28.5126 21.836 28.9783 20.7115 29.2902 19.5405C29.3312 19.3862 29.3354 19.2244 29.3025 19.0681C29.2695 18.9119 29.2003 18.7656 29.1004 18.641L27.2097 16.2726ZM25.1586 15.4445C25.1802 15.8128 25.1802 16.1821 25.1586 16.5504C25.1434 16.8025 25.2224 17.0513 25.3803 17.2485L27.1881 19.5073C26.9806 20.1666 26.715 20.8061 26.3944 21.4184L23.5151 21.7445C23.2644 21.7724 23.0328 21.8922 22.8654 22.0809C22.6201 22.3567 22.3589 22.6179 22.0831 22.8631C21.8944 23.0306 21.7746 23.2621 21.7468 23.5128L21.427 26.3896C20.8148 26.7104 20.1753 26.976 19.516 27.1833L17.2559 25.3755C17.075 25.231 16.8504 25.1523 16.6189 25.1525H16.5577C16.1894 25.1742 15.8202 25.1742 15.4519 25.1525C15.1997 25.1373 14.9509 25.2163 14.7537 25.3742L12.4885 27.1833C11.8292 26.9758 11.1897 26.7102 10.5775 26.3896L10.2513 23.5141C10.2235 23.2634 10.1037 23.0319 9.915 22.8644C9.63918 22.6191 9.37799 22.3579 9.13275 22.0821C8.96526 21.8935 8.73375 21.7736 8.48301 21.7458L5.60628 21.4247C5.28547 20.8126 5.01985 20.173 4.81257 19.5137L6.6204 17.2536C6.77825 17.0564 6.85725 16.8076 6.84207 16.5555C6.82042 16.1872 6.82042 15.8179 6.84207 15.4496C6.85725 15.1975 6.77825 14.9487 6.6204 14.7515L4.81257 12.4875C5.02001 11.8283 5.28563 11.1887 5.60628 10.5765L8.48173 10.2504C8.73248 10.2225 8.96399 10.1027 9.13148 9.91402C9.37671 9.63821 9.63791 9.37701 9.91372 9.13178C10.1031 8.96418 10.2235 8.73213 10.2513 8.48075L10.5711 5.6053C11.1833 5.2845 11.8228 5.01888 12.4821 4.81159L14.7422 6.61942C14.9394 6.77728 15.1882 6.85628 15.4404 6.8411C15.8087 6.81944 16.1779 6.81944 16.5462 6.8411C16.7984 6.85628 17.0472 6.77728 17.2444 6.61942L19.5083 4.81159C20.1676 5.01904 20.8071 5.28465 21.4193 5.6053L21.7455 8.48075C21.7733 8.7315 21.8932 8.96301 22.0818 9.1305C22.3576 9.37574 22.6188 9.63693 22.8641 9.91275C23.0316 10.1014 23.2631 10.2213 23.5138 10.2491L26.3906 10.5689C26.7114 11.181 26.977 11.8206 27.1843 12.4799L25.3764 14.74C25.2171 14.9389 25.138 15.1902 25.1548 15.4445H25.1586Z" fill="#6C7A87"/>
</svg>
