<svg width="24" height="24" viewBox="0 0 24 24" fill="none" xmlns="http://www.w3.org/2000/svg">
<path d="M11.25 12.75V9C11.25 8.80109 11.329 8.61032 11.4697 8.46967C11.6103 8.32902 11.8011 8.25 12 8.25C12.1989 8.25 12.3897 8.32902 12.5303 8.46967C12.671 8.61032 12.75 8.80109 12.75 9V12.75C12.75 12.9489 12.671 13.1397 12.5303 13.2803C12.3897 13.421 12.1989 13.5 12 13.5C11.8011 13.5 11.6103 13.421 11.4697 13.2803C11.329 13.1397 11.25 12.9489 11.25 12.75ZM12 17.25C12.2225 17.25 12.44 17.184 12.625 17.0604C12.81 16.9368 12.9542 16.7611 13.0394 16.5555C13.1245 16.35 13.1468 16.1238 13.1034 15.9055C13.06 15.6873 12.9528 15.4868 12.7955 15.3295C12.6382 15.1722 12.4377 15.065 12.2195 15.0216C12.0012 14.9782 11.775 15.0005 11.5695 15.0856C11.3639 15.1708 11.1882 15.315 11.0646 15.5C10.941 15.685 10.875 15.9025 10.875 16.125C10.875 16.4234 10.9935 16.7095 11.2045 16.9205C11.4155 17.1315 11.7016 17.25 12 17.25ZM21 5.25V10.5C21 15.4425 18.6075 18.4378 16.6003 20.0803C14.4384 21.8484 12.2878 22.4494 12.1941 22.4738C12.0652 22.5088 11.9292 22.5088 11.8003 22.4738C11.7066 22.4494 9.55875 21.8484 7.39406 20.0803C5.3925 18.4378 3 15.4425 3 10.5V5.25C3 4.85218 3.15804 4.47064 3.43934 4.18934C3.72064 3.90804 4.10218 3.75 4.5 3.75H19.5C19.8978 3.75 20.2794 3.90804 20.5607 4.18934C20.842 4.47064 21 4.85218 21 5.25ZM19.5 5.25H4.5V10.5C4.5 13.9969 5.79562 16.8291 8.35031 18.9197C9.43805 19.8093 10.6733 20.5013 12 20.9644C13.3443 20.4931 14.595 19.7886 15.6947 18.8831C18.2194 16.7963 19.5 13.9753 19.5 10.5V5.25Z" fill="#364860"/>
</svg>
