<svg width="24" height="24" viewBox="0 0 24 24" fill="none" xmlns="http://www.w3.org/2000/svg">
<path d="M21.9425 11.7267C21.9133 11.6609 21.2075 10.0951 19.6383 8.52591C17.5475 6.43508 14.9067 5.33008 12 5.33008C9.09333 5.33008 6.4525 6.43508 4.36166 8.52591C2.79249 10.0951 2.08333 11.6634 2.05749 11.7267C2.01959 11.812 2 11.9043 2 11.9976C2 12.0909 2.01959 12.1832 2.05749 12.2684C2.08666 12.3342 2.79249 13.8993 4.36166 15.4684C6.4525 17.5584 9.09333 18.6634 12 18.6634C14.9067 18.6634 17.5475 17.5584 19.6383 15.4684C21.2075 13.8993 21.9133 12.3342 21.9425 12.2684C21.9804 12.1832 22 12.0909 22 11.9976C22 11.9043 21.9804 11.812 21.9425 11.7267ZM12 17.3301C9.435 17.3301 7.19416 16.3976 5.33916 14.5593C4.57803 13.8023 3.93048 12.9392 3.41666 11.9967C3.93034 11.0542 4.57791 10.1911 5.33916 9.43425C7.19416 7.59591 9.435 6.66341 12 6.66341C14.565 6.66341 16.8058 7.59591 18.6608 9.43425C19.4235 10.1909 20.0724 11.054 20.5875 11.9967C19.9867 13.1184 17.3692 17.3301 12 17.3301ZM12 7.99675C11.2089 7.99675 10.4355 8.23134 9.77772 8.67087C9.11992 9.1104 8.60723 9.73511 8.30448 10.466C8.00173 11.1969 7.92251 12.0012 8.07686 12.7771C8.2312 13.553 8.61216 14.2658 9.17157 14.8252C9.73098 15.3846 10.4437 15.7656 11.2196 15.9199C11.9956 16.0742 12.7998 15.995 13.5307 15.6923C14.2616 15.3895 14.8864 14.8768 15.3259 14.219C15.7654 13.5612 16 12.7879 16 11.9967C15.9989 10.9362 15.5771 9.91945 14.8272 9.16954C14.0773 8.41963 13.0605 7.99785 12 7.99675ZM12 14.6634C11.4726 14.6634 10.957 14.507 10.5185 14.214C10.0799 13.921 9.73815 13.5045 9.53632 13.0172C9.33449 12.53 9.28168 11.9938 9.38457 11.4765C9.48746 10.9592 9.74144 10.4841 10.1144 10.1111C10.4873 9.73819 10.9625 9.48421 11.4798 9.38132C11.997 9.27843 12.5332 9.33123 13.0205 9.53307C13.5078 9.7349 13.9242 10.0767 14.2173 10.5152C14.5103 10.9538 14.6667 11.4693 14.6667 11.9967C14.6667 12.704 14.3857 13.3823 13.8856 13.8824C13.3855 14.3825 12.7072 14.6634 12 14.6634Z" fill="#343330"/>
</svg>
