<svg width="32" height="32" viewBox="0 0 32 32" fill="none" xmlns="http://www.w3.org/2000/svg">
<path d="M16 3C13.4288 3 10.9154 3.76244 8.77759 5.1909C6.63975 6.61935 4.97351 8.64968 3.98957 11.0251C3.00563 13.4006 2.74819 16.0144 3.2498 18.5362C3.75141 21.0579 4.98953 23.3743 6.80762 25.1924C8.6257 27.0105 10.9421 28.2486 13.4638 28.7502C15.9856 29.2518 18.5995 28.9944 20.9749 28.0104C23.3503 27.0265 25.3807 25.3603 26.8091 23.2224C28.2376 21.0846 29 18.5712 29 16C28.9964 12.5533 27.6256 9.24882 25.1884 6.81163C22.7512 4.37445 19.4467 3.00364 16 3ZM16 27C13.8244 27 11.6977 26.3549 9.88873 25.1462C8.07979 23.9375 6.66989 22.2195 5.83733 20.2095C5.00477 18.1995 4.78693 15.9878 5.21137 13.854C5.63581 11.7202 6.68345 9.7602 8.22183 8.22183C9.76021 6.68345 11.7202 5.6358 13.854 5.21136C15.9878 4.78692 18.1995 5.00476 20.2095 5.83733C22.2195 6.66989 23.9375 8.07979 25.1462 9.88873C26.3549 11.6977 27 13.8244 27 16C26.9967 18.9164 25.8367 21.7123 23.7745 23.7745C21.7123 25.8367 18.9164 26.9967 16 27ZM10 13.5C10 13.2033 10.088 12.9133 10.2528 12.6666C10.4176 12.42 10.6519 12.2277 10.926 12.1142C11.2001 12.0006 11.5017 11.9709 11.7926 12.0288C12.0836 12.0867 12.3509 12.2296 12.5607 12.4393C12.7704 12.6491 12.9133 12.9164 12.9712 13.2074C13.0291 13.4983 12.9994 13.7999 12.8858 14.074C12.7723 14.3481 12.58 14.5824 12.3334 14.7472C12.0867 14.912 11.7967 15 11.5 15C11.1022 15 10.7206 14.842 10.4393 14.5607C10.158 14.2794 10 13.8978 10 13.5ZM22 13.5C22 13.7967 21.912 14.0867 21.7472 14.3334C21.5824 14.58 21.3481 14.7723 21.074 14.8858C20.7999 14.9994 20.4983 15.0291 20.2074 14.9712C19.9164 14.9133 19.6491 14.7704 19.4393 14.5607C19.2296 14.3509 19.0867 14.0836 19.0288 13.7926C18.971 13.5017 19.0007 13.2001 19.1142 12.926C19.2277 12.6519 19.42 12.4176 19.6667 12.2528C19.9133 12.088 20.2033 12 20.5 12C20.8978 12 21.2794 12.158 21.5607 12.4393C21.842 12.7206 22 13.1022 22 13.5ZM21.8663 19.5C20.58 21.7238 18.4413 23 16 23C13.5588 23 11.4213 21.725 10.135 19.5C10.0627 19.3862 10.0141 19.2589 9.99218 19.1258C9.97029 18.9927 9.97555 18.8566 10.0076 18.7256C10.0397 18.5946 10.098 18.4715 10.1789 18.3636C10.2598 18.2557 10.3617 18.1652 10.4785 18.0978C10.5952 18.0303 10.7245 17.9871 10.8583 17.9708C10.9922 17.9546 11.128 17.9655 11.2575 18.0031C11.3871 18.0407 11.5077 18.1041 11.6121 18.1895C11.7164 18.2749 11.8025 18.3805 11.865 18.5C12.7988 20.1138 14.2663 21 16 21C17.7338 21 19.2013 20.1125 20.1338 18.5C20.2664 18.2703 20.4848 18.1026 20.741 18.0339C20.9972 17.9652 21.2703 18.0011 21.5 18.1338C21.7297 18.2664 21.8974 18.4848 21.9661 18.741C22.0348 18.9972 21.9989 19.2703 21.8663 19.5Z" fill="#343330"/>
</svg>
