<svg width="40" height="36" viewBox="0 0 40 36" fill="none" xmlns="http://www.w3.org/2000/svg">
<g filter="url(#filter0_d_4441_41328)">
<path d="M14.676 18.9716C14.6782 19.0168 14.6713 19.062 14.6555 19.1043C14.6398 19.1467 14.6156 19.1855 14.5844 19.2182C14.5532 19.251 14.5157 19.277 14.4741 19.2948C14.4326 19.3126 14.3878 19.3217 14.3426 19.3217H10.6655C10.515 19.3219 10.3688 19.2712 10.2508 19.1779C10.1328 19.0845 10.0498 18.954 10.0154 18.8075C9.99394 18.7072 9.99493 18.6034 10.0183 18.5036C10.0416 18.4037 10.0867 18.3103 10.1504 18.2299C10.7386 17.4498 11.5191 16.8355 12.4157 16.4472C12.0221 16.0883 11.7202 15.6403 11.5353 15.1408C11.3504 14.6412 11.2879 14.1047 11.3531 13.576C11.4182 13.0474 11.609 12.542 11.9096 12.1023C12.2102 11.6625 12.6118 11.3012 13.0808 11.0486C13.5497 10.796 14.0724 10.6595 14.605 10.6504C15.1375 10.6413 15.6645 10.76 16.1418 10.9964C16.6191 11.2329 17.0328 11.5803 17.3482 12.0095C17.6636 12.4388 17.8716 12.9373 17.9547 13.4635C17.9654 13.5342 17.9528 13.6065 17.9186 13.6694C17.8845 13.7323 17.8307 13.7823 17.7655 13.8118C16.8407 14.2394 16.0575 14.9225 15.5083 15.7806C14.9591 16.6388 14.6668 17.6361 14.666 18.6549C14.666 18.7616 14.666 18.8666 14.676 18.9716ZM29.8445 18.229C29.2576 17.4498 28.4789 16.8359 27.5842 16.4472C27.9778 16.0883 28.2797 15.6403 28.4646 15.1408C28.6495 14.6412 28.712 14.1047 28.6469 13.576C28.5817 13.0474 28.3909 12.542 28.0903 12.1023C27.7897 11.6625 27.3881 11.3012 26.9191 11.0486C26.4502 10.796 25.9275 10.6595 25.395 10.6504C24.8624 10.6413 24.3354 10.76 23.8581 10.9964C23.3808 11.2329 22.9671 11.5803 22.6517 12.0095C22.3363 12.4388 22.1283 12.9373 22.0452 13.4635C22.0345 13.5342 22.0472 13.6065 22.0813 13.6694C22.1155 13.7323 22.1692 13.7823 22.2344 13.8118C23.1592 14.2394 23.9424 14.9225 24.4916 15.7806C25.0408 16.6388 25.3331 17.6361 25.334 18.6549C25.334 18.7616 25.334 18.8666 25.324 18.9716C25.3217 19.0168 25.3286 19.062 25.3444 19.1043C25.3601 19.1467 25.3843 19.1855 25.4155 19.2182C25.4467 19.251 25.4842 19.277 25.5258 19.2948C25.5674 19.3126 25.6121 19.3217 25.6573 19.3217H29.3345C29.4849 19.3219 29.6311 19.2712 29.7491 19.1779C29.8671 19.0845 29.9501 18.954 29.9845 18.8075C30.0061 18.707 30.0051 18.603 29.9816 18.503C29.9581 18.403 29.9127 18.3094 29.8487 18.229H29.8445ZM22.4269 21.8278C23.0908 21.3194 23.5787 20.6157 23.822 19.8157C24.0653 19.0157 24.0517 18.1595 23.7833 17.3676C23.5149 16.5757 23.0051 15.8877 22.3255 15.4005C21.6459 14.9133 20.8307 14.6513 19.9945 14.6513C19.1583 14.6513 18.3432 14.9133 17.6636 15.4005C16.984 15.8877 16.4742 16.5757 16.2057 17.3676C15.9373 18.1595 15.9238 19.0157 16.1671 19.8157C16.4104 20.6157 16.8983 21.3194 17.5622 21.8278C16.3841 22.3383 15.4004 23.2124 14.7551 24.3223C14.6966 24.4237 14.6658 24.5387 14.6658 24.6557C14.6658 24.7728 14.6966 24.8878 14.7552 24.9891C14.8137 25.0905 14.8979 25.1747 14.9993 25.2332C15.1007 25.2917 15.2157 25.3225 15.3327 25.3224H24.6672C24.7843 25.3225 24.8993 25.2917 25.0006 25.2332C25.102 25.1747 25.1862 25.0905 25.2447 24.9891C25.3033 24.8878 25.3341 24.7728 25.3341 24.6557C25.3341 24.5387 25.3033 24.4237 25.2448 24.3223C24.5981 23.2117 23.6126 22.3375 22.4328 21.8278H22.4269Z" fill="white"/>
</g>
<defs>
<filter id="filter0_d_4441_41328" x="0" y="0.649902" width="40" height="34.6724" filterUnits="userSpaceOnUse" color-interpolation-filters="sRGB">
<feFlood flood-opacity="0" result="BackgroundImageFix"/>
<feColorMatrix in="SourceAlpha" type="matrix" values="0 0 0 0 0 0 0 0 0 0 0 0 0 0 0 0 0 0 127 0" result="hardAlpha"/>
<feOffset/>
<feGaussianBlur stdDeviation="5"/>
<feComposite in2="hardAlpha" operator="out"/>
<feColorMatrix type="matrix" values="0 0 0 0 0 0 0 0 0 0 0 0 0 0 0 0 0 0 0.15 0"/>
<feBlend mode="normal" in2="BackgroundImageFix" result="effect1_dropShadow_4441_41328"/>
<feBlend mode="normal" in="SourceGraphic" in2="effect1_dropShadow_4441_41328" result="shape"/>
</filter>
</defs>
</svg>
