<svg width="32" height="32" viewBox="0 0 32 32" fill="none" xmlns="http://www.w3.org/2000/svg">
<path d="M27 5H5C4.46957 5 3.96086 5.21071 3.58579 5.58579C3.21071 5.96086 3 6.46957 3 7V25C3 25.5304 3.21071 26.0391 3.58579 26.4142C3.96086 26.7893 4.46957 27 5 27H27C27.5304 27 28.0391 26.7893 28.4142 26.4142C28.7893 26.0391 29 25.5304 29 25V7C29 6.46957 28.7893 5.96086 28.4142 5.58579C28.0391 5.21071 27.5304 5 27 5ZM12 15C12 14.2089 12.2346 13.4355 12.6741 12.7777C13.1136 12.1199 13.7384 11.6072 14.4693 11.3045C15.2002 11.0017 16.0044 10.9225 16.7804 11.0769C17.5563 11.2312 18.269 11.6122 18.8284 12.1716C19.3878 12.731 19.7688 13.4437 19.9231 14.2196C20.0775 14.9956 19.9983 15.7998 19.6955 16.5307C19.3928 17.2616 18.8801 17.8864 18.2223 18.3259C17.5645 18.7654 16.7911 19 16 19C14.9391 19 13.9217 18.5786 13.1716 17.8284C12.4214 17.0783 12 16.0609 12 15ZM9.07125 25C9.77332 23.7836 10.7833 22.7734 11.9995 22.0711C13.2158 21.3688 14.5955 20.9991 16 20.9991C17.4045 20.9991 18.7842 21.3688 20.0005 22.0711C21.2167 22.7734 22.2267 23.7836 22.9287 25H9.07125ZM27 25H25.1663C24.1107 22.5894 22.1489 20.6909 19.705 19.715C20.6866 18.9444 21.4035 17.8868 21.7559 16.6896C22.1082 15.4924 22.0785 14.2151 21.6708 13.0355C21.2631 11.856 20.4978 10.833 19.4814 10.1088C18.4649 9.38473 17.248 8.99557 16 8.99557C14.752 8.99557 13.5351 9.38473 12.5186 10.1088C11.5022 10.833 10.7369 11.856 10.3292 13.0355C9.92149 14.2151 9.89175 15.4924 10.2441 16.6896C10.5965 17.8868 11.3134 18.9444 12.295 19.715C9.85107 20.6909 7.88932 22.5894 6.83375 25H5V7H27V25Z" fill="#343330"/>
</svg>
