<svg width="477" height="346" viewBox="0 0 477 346" fill="none" xmlns="http://www.w3.org/2000/svg">
<g opacity="0.8">
<path d="M64.2447 41.4341C64.1385 40.9034 64.0323 40.2665 64.0323 39.7357C64.0323 38.9926 63.9262 38.3557 63.82 37.6127C63.7139 36.6573 63.5016 35.702 63.2893 34.8527C62.6524 32.3051 61.697 29.8636 60.4232 27.6344C58.7248 24.6622 56.3895 22.0084 53.7357 19.9916C50.445 17.4439 46.7297 15.6394 42.5898 14.7901C37.9191 13.8348 33.1423 14.1532 28.5778 15.6393C26.1363 16.4886 23.9071 17.6562 21.7841 19.1423C20.7226 19.8854 19.6611 20.7346 18.7057 21.5838C17.7504 22.5392 16.9012 23.4945 16.0519 24.5561C8.93981 33.6851 8.62135 46.4232 15.3089 55.8707C16.0519 57.0384 16.9012 58.0999 17.8565 59.0552C18.8119 60.0106 19.7672 60.8598 20.8288 61.709C22.8456 63.3013 25.0748 64.5751 27.4101 65.5305C39.2991 70.2011 52.7803 65.7428 59.6801 55.0215C61.0601 52.8985 62.2278 50.457 62.9708 48.0155C63.2893 47.0601 63.5016 46.2109 63.6077 45.2556C63.7139 44.6187 63.9262 43.8756 63.9262 43.2387C64.0323 42.6018 64.1385 41.9649 64.2447 41.4341C64.3508 41.9649 64.3508 42.6018 64.2447 43.1325C64.2447 43.8756 64.1385 44.5125 64.0323 45.2556C63.9262 46.2109 63.7139 47.1663 63.5016 48.1217C62.8647 50.6693 61.8032 53.2169 60.4232 55.4461C56.2833 62.2398 49.3835 66.9104 41.5283 68.1842C36.6453 69.0335 31.55 68.5027 26.8794 66.6981C24.3318 65.7428 21.9964 64.3628 19.8734 62.7705C18.8119 61.9213 17.7504 60.966 16.795 60.0106C15.8396 58.9491 14.9904 57.8876 14.1412 56.7199C7.13524 46.7417 7.45369 33.3666 14.9904 23.7069C15.8396 22.5392 16.795 21.4777 17.8565 20.5223C18.918 19.567 19.9795 18.7177 21.1472 17.8685C23.3764 16.2763 25.7117 15.1086 28.3655 14.2594C37.3884 11.2871 47.2604 13.0917 54.5849 19.0362C57.3448 21.2654 59.574 24.0253 61.3786 27.1037C62.6524 29.439 63.6077 31.8805 64.1385 34.5343C64.3508 35.4896 64.457 36.445 64.5631 37.4004C64.6693 38.1434 64.6693 38.7803 64.6693 39.5234C64.3508 40.2665 64.3508 40.7972 64.2447 41.4341Z" fill="#EBEBEB"/>
<path d="M58.8308 24.4503C58.8308 24.5565 58.4062 24.9811 57.4508 25.618L55.7524 26.8918C55.4339 27.1041 55.0093 27.4226 54.6909 27.6349L53.3109 28.3779C48.4279 31.1379 42.9081 32.5178 37.2821 32.4117L34.8406 32.3055L32.5052 31.9871C32.0806 31.8809 31.7622 31.8809 31.3376 31.7748L30.2761 31.4563C29.533 31.244 28.8961 31.1379 28.153 30.8194C25.8177 30.0763 23.4824 29.0148 21.3594 27.741C17.7502 25.5118 15.9456 23.495 16.0518 23.3888C16.1579 23.2827 18.1748 24.8749 21.8901 26.7856C24.0131 27.8472 26.3485 28.8025 28.5776 29.5456C29.2146 29.7579 29.8515 29.864 30.5945 30.0763L31.656 30.2886L32.7175 30.5009L34.9467 30.8194L37.2821 30.9256C42.6958 31.0317 48.0033 29.864 52.7801 27.4226L54.1601 26.8918C54.5847 26.6795 55.0093 26.4672 55.3278 26.2549L57.2385 25.1934C58.1939 24.6626 58.7246 24.3442 58.8308 24.4503Z" fill="#EBEBEB"/>
<path d="M15.3088 57.5696C15.2027 57.4634 15.7334 57.0388 16.6888 56.4019L18.4933 55.1281C18.8118 54.9158 19.2364 54.5973 19.5549 54.385L20.9348 53.642C25.8178 50.882 31.3377 49.5021 36.9637 49.6082L39.4052 49.7144L41.7405 50.139C42.1651 50.2451 42.4835 50.2451 42.9082 50.3513L43.9697 50.6697C44.7127 50.882 45.3496 50.9882 46.0927 51.2005C48.428 52.0497 50.7633 53.1112 52.8864 54.385C56.4955 56.6142 58.3001 58.6311 58.1939 58.7373C58.0878 58.8434 56.0709 57.2511 52.3556 55.3404C50.2326 54.2789 48.0034 53.3235 45.6681 52.5805C45.0312 52.3682 44.2881 52.262 43.6512 52.0497L42.5897 51.8374L41.5282 51.6251L39.299 51.3067L36.9637 51.2005C31.55 51.0943 26.2424 52.262 21.4656 54.7035L20.0856 55.3404C19.661 55.5527 19.3426 55.765 18.918 55.9773L17.0072 57.0388C15.9457 57.3573 15.3088 57.5696 15.3088 57.5696Z" fill="#EBEBEB"/>
<path d="M64.2445 42.0718C64.2445 42.4964 52.0371 42.4964 37.0698 42.178C22.1024 41.8595 9.89502 41.2226 9.89502 40.798C9.89502 40.3734 22.1024 40.3734 37.0698 40.6918C52.0371 41.0103 64.2445 41.6472 64.2445 42.0718Z" fill="#EBEBEB"/>
<path d="M35.796 67.9722C35.3714 67.9722 35.3714 55.7648 35.6899 40.6913C36.0083 25.6179 36.6453 13.5166 37.0699 13.5166C37.4945 13.6228 37.4945 25.724 37.176 40.7975C36.8576 55.871 36.2206 67.9722 35.796 67.9722Z" fill="#EBEBEB"/>
<path d="M35.7961 67.9725C35.6899 68.0787 32.7177 66.0618 29.2147 61.4973C27.1978 58.7373 25.6056 55.7651 24.3317 52.6867C22.8456 48.7591 22.1026 44.6192 22.2087 40.4793C22.3149 36.3394 23.2702 32.1995 24.9686 28.3781C26.3486 25.2997 28.1532 22.4336 30.2762 19.7798C33.9915 15.3214 36.9637 13.4107 37.0699 13.5169C37.176 13.623 34.4161 15.9584 31.1254 20.4167C29.2147 23.0705 27.5163 25.9366 26.2425 28.9088C24.6502 32.518 23.801 36.4456 23.6948 40.4793C23.5887 44.4069 24.2256 48.4407 25.6056 52.156C26.6671 55.2344 28.1532 58.1004 30.0639 60.8604C33.2484 65.531 35.9022 67.7602 35.7961 67.9725Z" fill="#EBEBEB"/>
<path d="M37.7066 13.6231C37.8127 13.517 40.785 15.5338 44.288 20.0983C46.3048 22.7521 47.8971 25.7244 49.1709 28.9089C50.657 32.8365 51.4001 36.9764 51.2939 41.1163C51.1878 45.2562 50.2324 49.3961 48.534 53.2176C47.154 56.2959 45.3495 59.162 43.2264 61.8158C39.5111 66.2742 36.5389 68.1849 36.4328 68.0787C36.3266 67.9726 38.9804 65.6373 42.3772 61.1789C44.3941 58.5251 45.9864 55.659 47.2602 52.6868C48.8525 49.0777 49.7017 45.15 49.8078 41.1163C49.914 37.1887 49.2771 33.155 47.8971 29.4397C46.8356 26.3613 45.2433 23.4952 43.4388 20.7352C40.2542 16.0646 37.6004 13.7293 37.7066 13.6231Z" fill="#EBEBEB"/>
<path d="M476.536 249.172C476.43 248.642 476.324 248.005 476.324 247.474C476.324 246.731 476.218 246.094 476.112 245.351C476.005 244.396 475.793 243.44 475.581 242.591C474.944 240.043 473.989 237.602 472.715 235.373C471.016 232.401 468.681 229.747 466.027 227.73C462.736 225.182 459.021 223.378 454.881 222.528C450.211 221.573 445.434 221.892 440.869 223.378C438.428 224.227 436.199 225.395 434.076 226.881C433.014 227.624 431.953 228.473 430.997 229.322C430.042 230.277 429.193 231.233 428.343 232.294C421.231 241.423 420.913 254.161 427.6 263.609C428.343 264.777 429.193 265.838 430.148 266.794C431.103 267.749 432.059 268.598 433.12 269.447C435.137 271.04 437.366 272.313 439.702 273.269C451.591 277.939 465.072 273.481 471.972 262.76C473.352 260.637 474.519 258.195 475.262 255.754C475.581 254.798 475.793 253.949 475.899 252.994C476.005 252.357 476.218 251.614 476.218 250.977C476.324 250.34 476.43 249.703 476.536 249.172C476.642 249.703 476.642 250.34 476.536 250.871C476.536 251.614 476.43 252.251 476.324 252.994C476.218 253.949 476.005 254.905 475.793 255.86C475.156 258.408 474.095 260.955 472.715 263.184C468.575 269.978 461.675 274.649 453.82 275.923C448.937 276.772 443.842 276.241 439.171 274.436C436.623 273.481 434.288 272.101 432.165 270.509C431.103 269.66 430.042 268.704 429.087 267.749C428.131 266.687 427.282 265.626 426.433 264.458C419.427 254.48 419.745 241.105 427.282 231.445C428.131 230.277 429.087 229.216 430.148 228.261C431.21 227.305 432.271 226.456 433.439 225.607C435.668 224.015 438.003 222.847 440.657 221.998C449.68 219.025 459.552 220.83 466.876 226.774C469.636 229.004 471.865 231.764 473.67 234.842C474.944 237.177 475.899 239.619 476.43 242.273C476.642 243.228 476.748 244.183 476.855 245.139C476.961 245.882 476.961 246.519 476.961 247.262C476.748 248.005 476.642 248.536 476.536 249.172Z" fill="#EBEBEB"/>
<path d="M471.123 232.189C471.123 232.295 470.698 232.719 469.743 233.356L468.044 234.63C467.726 234.842 467.301 235.161 466.983 235.373L465.603 236.116C460.72 238.876 455.2 240.256 449.574 240.15L447.133 240.044L444.797 239.619C444.373 239.513 444.054 239.513 443.63 239.407L442.568 239.088C441.825 238.876 441.188 238.77 440.445 238.558C438.11 237.815 435.774 236.753 433.651 235.479C430.042 233.25 428.238 231.233 428.344 231.127C428.45 231.021 430.467 232.613 434.182 234.524C436.305 235.585 438.64 236.541 440.87 237.284C441.507 237.496 442.143 237.602 442.887 237.815L443.948 238.027L445.01 238.133L447.239 238.452L449.574 238.558C454.988 238.664 460.295 237.496 465.072 235.055L466.452 234.524C466.877 234.312 467.301 234.099 467.62 233.887L469.531 232.825C470.486 232.401 471.017 232.082 471.123 232.189Z" fill="#EBEBEB"/>
<path d="M427.601 265.308C427.495 265.202 428.025 264.777 428.981 264.14L430.785 262.866C431.104 262.654 431.528 262.336 431.847 262.123L433.227 261.38C438.11 258.62 443.63 257.24 449.256 257.347L451.697 257.453L454.032 257.877C454.457 257.983 454.776 257.983 455.2 258.09L456.262 258.408C457.005 258.62 457.642 258.726 458.385 258.939C460.72 259.788 463.055 260.85 465.178 262.123C468.788 264.352 470.592 266.369 470.486 266.476C470.38 266.582 468.363 264.989 464.648 263.079C462.525 262.017 460.295 261.062 457.96 260.319C457.323 260.106 456.58 260 455.943 259.788L454.882 259.576L453.82 259.47L451.591 259.151L449.256 259.045C443.842 258.939 438.534 260.106 433.758 262.548L432.378 263.079C431.953 263.291 431.635 263.503 431.21 263.716L429.299 264.777C428.238 265.096 427.601 265.414 427.601 265.308Z" fill="#EBEBEB"/>
<path d="M476.536 249.809C476.536 250.234 464.329 250.234 449.362 249.915C434.394 249.491 422.187 248.96 422.187 248.535C422.187 248.111 434.394 248.111 449.362 248.429C464.435 248.748 476.536 249.384 476.536 249.809Z" fill="#EBEBEB"/>
<path d="M448.088 275.711C447.663 275.711 447.663 263.503 447.981 248.536C448.3 233.569 448.937 221.361 449.361 221.361C449.786 221.361 449.786 233.569 449.468 248.536C449.149 263.503 448.512 275.711 448.088 275.711Z" fill="#EBEBEB"/>
<path d="M448.088 275.711C447.981 275.817 445.009 273.8 441.506 269.236C439.489 266.476 437.897 263.503 436.623 260.425C435.137 256.497 434.394 252.357 434.5 248.218C434.606 244.078 435.562 239.938 437.26 236.116C438.64 233.038 440.445 230.172 442.568 227.518C446.283 223.06 449.255 221.149 449.361 221.255C449.468 221.361 446.708 223.697 443.417 228.155C441.506 230.809 439.808 233.675 438.534 236.647C436.942 240.256 436.092 244.184 435.986 248.218C435.88 252.145 436.517 256.179 437.897 259.894C438.959 262.973 440.445 265.839 442.355 268.599C445.54 273.269 448.194 275.498 448.088 275.711Z" fill="#EBEBEB"/>
<path d="M449.999 221.36C450.105 221.254 453.077 223.271 456.58 227.836C458.597 230.489 460.189 233.462 461.463 236.646C462.949 240.574 463.692 244.714 463.586 248.854C463.48 252.994 462.524 257.133 460.826 260.955C459.446 264.033 457.641 266.899 455.518 269.553C451.803 274.011 448.831 275.922 448.725 275.816C448.619 275.71 451.272 273.375 454.669 268.916C456.686 266.262 458.278 263.396 459.552 260.424C461.144 256.815 461.994 252.887 462.1 248.854C462.206 244.926 461.569 240.892 460.189 237.177C459.128 234.099 457.535 231.233 455.731 228.473C452.546 223.802 449.892 221.467 449.999 221.36Z" fill="#EBEBEB"/>
<path d="M35.2653 236.859L36.6453 233.887C38.9806 228.473 36.5391 222.104 31.1254 219.768C25.7117 217.433 19.3426 219.875 17.0073 225.288L15.6273 228.367C12.7612 227.624 9.78898 229.004 8.51517 231.764L0.659966 249.491C-0.61385 252.569 0.766117 256.072 3.73835 257.452L22.2087 265.414C25.2871 266.687 28.7901 265.307 30.17 262.335L37.9191 244.608C39.0867 241.636 38.0252 238.345 35.2653 236.859ZM19.8734 252.569L15.0965 250.446L17.3257 247.262C16.3704 245.776 16.6888 243.865 18.1749 242.803C19.6611 241.848 21.5718 242.166 22.6333 243.652C23.5887 245.139 23.2702 247.049 21.7841 248.111C21.3595 248.323 20.9349 248.535 20.5103 248.642C20.298 250.128 19.8734 252.569 19.8734 252.569ZM33.1423 235.903L17.6442 229.11L19.0241 226.138C21.041 221.891 26.0301 220.087 30.2762 221.998C34.3099 223.908 36.2207 228.685 34.5222 232.825L33.1423 235.903Z" fill="#EBEBEB"/>
<path d="M445.859 17.975L447.239 15.0028C449.574 9.58906 447.132 3.21999 441.719 0.884661C436.305 -1.45067 429.936 0.990809 427.601 6.40453L426.221 9.48292C423.355 8.73986 420.382 10.1198 419.109 12.8798L411.466 30.607C410.192 33.6854 411.572 37.1884 414.544 38.5684L433.014 46.5297C436.093 47.8035 439.596 46.4236 440.976 43.4513L448.725 25.7241C449.786 22.858 448.619 19.4611 445.859 17.975ZM430.573 33.6854L425.796 31.5624L428.025 28.3778C427.07 26.8917 427.388 24.981 428.874 23.9195C430.361 22.858 432.271 23.2826 433.333 24.7687C434.288 26.2548 433.97 28.1655 432.484 29.2271C432.059 29.4394 431.634 29.6517 431.21 29.7578C430.891 31.2439 430.573 33.6854 430.573 33.6854ZM443.736 17.0197L428.238 10.3321L429.618 7.35989C431.634 3.11384 436.624 1.30926 440.87 3.21999C444.903 5.13071 446.814 9.90752 445.116 14.0474L443.736 17.0197Z" fill="#EBEBEB"/>
<path d="M392.252 47.0604C392.358 47.1665 379.089 58.1001 362.742 71.4752C346.289 84.8502 332.914 95.5715 332.914 95.4653C332.914 95.3592 346.076 84.4256 362.424 71.0505C378.771 57.6755 392.146 46.9542 392.252 47.0604Z" fill="#6C7A87"/>
<path d="M414.013 225.288C414.013 225.394 396.817 219.344 375.799 211.595C354.781 203.952 337.69 197.583 337.796 197.371C337.903 197.264 354.993 203.315 376.011 211.064C397.029 218.813 414.119 225.182 414.013 225.288Z" fill="#6C7A87"/>
<path d="M59.7861 78.2694C59.8923 78.1633 78.2564 87.823 100.973 100.03C123.689 112.238 141.947 122.11 141.841 122.216C141.735 122.322 123.371 112.662 100.654 100.455C77.938 88.2477 59.68 78.3756 59.7861 78.2694Z" fill="#6C7A87"/>
<path d="M66.3677 235.798C66.3677 235.692 81.4412 229.854 100.23 222.848C119.019 215.842 134.198 210.216 134.198 210.322C134.198 210.428 119.125 216.266 100.336 223.272C81.5473 230.278 66.4738 236.01 66.3677 235.798Z" fill="#6C7A87"/>
<path d="M246.082 267.749C195.235 267.749 153.942 226.457 153.942 175.61C153.942 124.764 195.235 83.4707 246.082 83.4707C296.928 83.4707 338.221 124.764 338.221 175.61C338.115 226.457 296.928 267.643 246.082 267.749ZM246.082 84.5322C195.766 84.5322 155.004 125.294 155.004 175.61C155.004 225.926 195.766 266.688 246.082 266.688C296.397 266.688 337.16 225.926 337.16 175.61C337.053 125.294 296.397 84.5322 246.082 84.5322Z" fill="#FE5E00"/>
<path d="M362.53 174.23C362.53 174.23 362.53 173.593 362.424 172.319C362.424 171.682 362.424 170.939 362.318 169.984C362.212 169.028 362.318 167.967 362.212 166.799C362.105 165.632 361.999 164.252 361.893 162.766C361.787 161.279 361.469 159.687 361.256 157.883C360.725 154.38 359.982 150.346 358.921 145.781C357.647 140.792 356.055 135.909 354.144 131.132C351.915 125.506 349.155 119.987 346.077 114.785C338.434 102.047 328.349 90.795 316.46 81.7721C309.561 76.5707 302.13 72.1123 294.275 68.5032C285.783 64.5756 276.76 61.7095 267.525 60.0111C252.451 57.2511 236.953 57.3573 221.986 60.5418C216.678 61.7095 211.477 63.1956 206.488 65.0002C184.833 72.8554 166.044 86.9735 152.457 105.55C148.954 110.433 145.769 115.528 143.009 120.836C142.372 122.216 141.629 123.49 140.992 124.87L139.082 129.009C137.914 131.876 136.852 134.635 135.897 137.608C133.88 143.552 132.394 149.497 131.439 155.653C130.483 161.81 129.953 168.073 129.953 174.336C129.953 180.599 130.483 186.862 131.439 193.019C132.394 199.175 133.88 205.12 135.897 210.958C136.852 213.93 138.02 216.69 139.082 219.556L140.992 223.696C141.629 225.076 142.372 226.456 143.009 227.73C145.769 233.038 148.954 238.133 152.457 243.016C166.044 261.592 184.833 275.711 206.488 283.566C211.583 285.37 216.784 286.856 222.092 287.918C237.059 290.996 252.557 291.209 267.631 288.449C285.358 285.158 302.13 277.621 316.567 266.688C328.455 257.665 338.434 246.413 346.077 233.675C349.261 228.473 351.915 222.953 354.144 217.327C356.055 212.551 357.647 207.668 358.921 202.678C359.982 198.22 360.832 194.186 361.256 190.577C361.469 188.773 361.681 187.18 361.893 185.694C362.105 184.208 362.105 182.828 362.212 181.66C362.318 180.493 362.318 179.431 362.318 178.476C362.318 177.521 362.318 176.778 362.424 176.141C362.424 174.973 362.53 174.336 362.53 174.23C362.53 174.23 362.53 174.867 362.53 176.141C362.53 176.778 362.53 177.521 362.53 178.476C362.53 179.431 362.53 180.493 362.424 181.66C362.318 182.828 362.212 184.208 362.105 185.694C361.999 187.18 361.681 188.879 361.575 190.577C361.044 194.08 360.301 198.114 359.239 202.678C357.966 207.668 356.373 212.551 354.463 217.327C352.233 223.06 349.473 228.579 346.395 233.781C338.752 246.625 328.668 257.877 316.779 267.006C302.342 278.046 285.464 285.583 267.631 288.873C257.759 290.784 247.568 291.315 237.484 290.572C232.176 290.253 226.975 289.51 221.88 288.449C216.572 287.281 211.371 285.795 206.275 283.99C184.514 276.135 165.619 261.911 151.926 243.334C148.317 238.451 145.132 233.356 142.372 228.049C141.735 226.669 140.886 225.395 140.355 223.909C139.825 222.423 139.082 221.149 138.445 219.769C137.277 216.903 136.109 214.037 135.26 211.171C133.243 205.332 131.757 199.282 130.802 193.125C128.785 180.705 128.785 167.967 130.802 155.547C131.757 149.39 133.243 143.34 135.26 137.502C136.215 134.529 137.383 131.769 138.445 128.903C139.082 127.523 139.718 126.143 140.355 124.763C140.992 123.383 141.735 122.003 142.372 120.623C145.132 115.316 148.317 110.114 151.926 105.338C165.619 86.6551 184.514 72.5369 206.275 64.6817C211.371 62.8772 216.572 61.2849 221.88 60.2234C236.953 57.145 252.451 56.9327 267.631 59.6926C276.866 61.391 285.889 64.2571 294.487 68.1847C302.448 71.7939 309.879 76.2522 316.779 81.5598C328.668 90.6888 338.752 101.941 346.395 114.785C349.58 120.093 352.233 125.506 354.463 131.239C356.373 136.015 357.966 140.898 359.239 145.887C360.301 150.346 361.044 154.486 361.575 157.989C361.787 159.793 361.999 161.386 362.105 162.872C362.212 164.358 362.318 165.738 362.424 167.012C362.53 168.285 362.53 169.241 362.53 170.196C362.53 171.152 362.53 171.895 362.53 172.531C362.53 173.593 362.53 174.23 362.53 174.23Z" fill="#6C7A87"/>
<path d="M247.462 306.706V305.645C321.555 305.645 381.531 245.563 381.531 171.469C381.531 97.3759 321.449 37.4004 247.356 37.4004C173.262 37.4004 113.287 97.482 113.287 171.469H112.225C112.225 96.9513 172.837 36.3389 247.356 36.3389C321.98 36.9758 381.956 98.0128 381.319 172.743C380.788 246.518 321.131 306.069 247.462 306.706Z" fill="#FE5E00"/>
<path d="M246.082 293.438V288.13C308.924 288.13 359.876 237.178 359.876 174.336C359.876 111.495 308.924 60.5419 246.082 60.5419V55.2344C311.896 55.2344 365.184 108.522 365.29 174.336C365.396 240.15 311.896 293.438 246.082 293.438Z" fill="#FE5E00"/>
<path d="M384.715 171.576H379.408C378.771 98.65 319.114 40.1606 246.294 40.7975C174.323 41.4344 116.152 99.6053 115.516 171.576H110.208C110.208 95.89 171.776 34.3223 247.462 34.3223C323.254 34.4284 384.609 95.7839 384.715 171.576Z" fill="#FE5E00"/>
<path d="M248.417 327.194C164.027 327.194 95.4531 258.62 95.4531 174.23C95.4531 89.8394 164.133 21.2656 248.417 21.2656V26.5732C166.999 26.5732 100.761 92.8116 100.761 174.23C100.761 255.648 166.999 321.886 248.417 321.886C329.835 321.886 396.074 255.648 396.074 174.23H401.381C401.381 258.514 332.807 327.194 248.417 327.194Z" fill="#FE5E00"/>
<path d="M246.082 345.134H243.428V344.072H246.082V345.134Z" fill="#FE5E00"/>
<path d="M232.601 344.497C230.796 344.391 228.991 344.178 227.293 343.966L227.399 342.905C229.204 343.117 231.008 343.223 232.707 343.435L232.601 344.497ZM216.678 342.586C214.873 342.268 213.069 341.949 211.37 341.525L211.583 340.463C213.281 340.782 215.086 341.206 216.784 341.525L216.678 342.586ZM200.967 338.977C199.269 338.552 197.571 338.022 195.766 337.491L196.085 336.429C197.783 336.96 199.481 337.491 201.18 337.915L200.967 338.977ZM185.576 333.988C183.877 333.351 182.179 332.714 180.586 331.971L181.011 331.016C182.603 331.652 184.302 332.396 186 333.033L185.576 333.988ZM170.714 327.513C169.122 326.663 167.53 325.92 165.938 325.071L166.468 324.116C168.061 324.965 169.653 325.814 171.245 326.557L170.714 327.513ZM156.702 319.657C155.216 318.702 153.624 317.747 152.138 316.791L152.775 315.942C154.261 316.898 155.747 317.959 157.233 318.808L156.702 319.657ZM143.327 310.528C141.947 309.467 140.461 308.299 139.081 307.238L139.718 306.389C141.098 307.45 142.478 308.618 143.858 309.679L143.327 310.528ZM131.014 300.126C129.74 298.958 128.36 297.684 127.086 296.41L127.829 295.667C129.103 296.941 130.377 298.109 131.651 299.383L131.014 300.126ZM119.656 288.555C118.488 287.175 117.32 285.901 116.153 284.521L117.002 283.884C118.169 285.264 119.337 286.644 120.505 287.918L119.656 288.555ZM109.571 276.135C108.51 274.649 107.448 273.163 106.493 271.783L107.342 271.146C108.297 272.632 109.359 274.012 110.42 275.498L109.571 276.135ZM100.548 262.654C99.5929 261.168 98.7437 259.576 97.8945 257.984L98.8499 257.453C99.6991 259.045 100.654 260.531 101.504 262.123L100.548 262.654ZM93.0116 248.43C92.2685 246.838 91.5254 245.139 90.7824 243.547L91.7377 243.122C92.4808 244.715 93.2239 246.413 93.9669 248.005L93.0116 248.43ZM86.7486 233.569C86.1117 231.87 85.581 230.172 84.9441 228.473L86.0056 228.155C86.5363 229.853 87.1732 231.552 87.8101 233.25L86.7486 233.569ZM81.9718 218.177C81.5472 216.478 81.1226 214.674 80.698 212.975L81.7595 212.763C82.1841 214.461 82.6087 216.266 83.0333 217.964L81.9718 218.177ZM78.6811 202.466C78.3627 200.768 78.1504 198.963 77.9381 197.159L78.9996 197.053C79.2119 198.857 79.4242 200.556 79.7426 202.36L78.6811 202.466ZM76.8766 186.331C76.7704 184.527 76.6643 182.722 76.6643 180.918H77.7258C77.7258 182.722 77.8319 184.527 77.9381 186.225L76.8766 186.331ZM77.6196 170.303H76.5581C76.6643 168.498 76.6643 166.693 76.7704 164.889L77.8319 164.995C77.8319 166.693 77.7258 168.498 77.6196 170.303ZM78.8934 154.38L77.8319 154.274C78.0442 152.469 78.2565 150.665 78.575 148.966L79.6365 149.178C79.4242 150.771 79.1057 152.575 78.8934 154.38ZM81.6534 138.563L80.5919 138.351C81.0165 136.653 81.4411 134.848 81.8657 133.15L82.9272 133.362C82.5026 135.06 82.078 136.865 81.6534 138.563ZM85.8994 123.065L84.9441 122.747C85.4748 121.048 86.1117 119.35 86.7486 117.651L87.704 117.97C87.0671 119.668 86.5363 121.367 85.8994 123.065ZM91.6316 108.098L90.6762 107.673C91.4193 106.081 92.1624 104.383 92.9054 102.79L93.8608 103.215C93.1177 104.807 92.3747 106.506 91.6316 108.098ZM98.7437 93.6613L97.7884 93.1305C98.6376 91.5382 99.5929 90.0521 100.442 88.4599L101.291 88.9906C100.548 90.5829 99.6991 92.1751 98.7437 93.6613ZM107.236 80.0739L106.387 79.437C107.448 77.9509 108.51 76.4648 109.465 75.0848L110.314 75.7217C109.359 77.2078 108.297 78.5878 107.236 80.0739ZM117.002 67.3357L116.153 66.5927C117.32 65.2127 118.488 63.8327 119.656 62.5589L120.399 63.302C119.337 64.5758 118.169 65.9558 117.002 67.3357ZM127.829 55.553L127.086 54.8099C128.36 53.5361 129.634 52.2623 131.014 51.0946L131.757 51.8377C130.377 53.1115 129.103 54.2791 127.829 55.553ZM139.824 44.8317L139.187 43.9824C140.567 42.8148 141.947 41.7533 143.433 40.6918L144.07 41.541C142.584 42.6025 141.204 43.7701 139.824 44.8317ZM152.669 35.278L152.032 34.4288C153.518 33.4735 155.004 32.5181 156.49 31.5627L157.021 32.412C155.641 33.3673 154.155 34.3227 152.669 35.278ZM166.468 27.1044L165.938 26.149C167.53 25.2998 169.122 24.4506 170.714 23.7076L171.139 24.6629C169.547 25.406 167.954 26.2552 166.468 27.1044ZM180.905 20.2046L180.48 19.2492C182.179 18.5061 183.771 17.8692 185.469 17.2323L185.894 18.1877C184.196 18.8246 182.497 19.5677 180.905 20.2046ZM195.872 14.7908L195.554 13.8355C197.252 13.3047 198.951 12.774 200.755 12.3494L201.074 13.4109C199.375 13.7293 197.571 14.1539 195.872 14.7908ZM211.37 10.6509L211.158 9.58943C212.856 9.27097 214.661 8.84637 216.466 8.52791L216.678 9.58943C214.979 10.014 213.175 10.3325 211.37 10.6509ZM227.187 8.20946L227.081 7.14794C228.885 6.93564 230.69 6.82949 232.388 6.61719L232.494 7.6787C230.796 7.78485 228.991 7.99715 227.187 8.20946Z" fill="#FE5E00"/>
<path d="M243.428 7.14745V6.08594H246.082V7.14745H243.428Z" fill="#FE5E00"/>
<path d="M186.531 165.419L290.241 123.914C297.034 121.154 304.784 124.551 307.437 131.344L339.389 211.382C342.149 218.176 338.752 225.925 331.958 228.579L228.248 270.084C221.455 272.844 213.706 269.447 211.052 262.654L179.1 182.615C176.447 175.928 179.737 168.179 186.531 165.419Z" fill="#FE5E00"/>
<path d="M297.565 174.973L283.871 180.387L254.149 106.081C247.143 88.566 227.293 79.9678 209.778 86.9738C192.263 93.9797 183.665 113.83 190.671 131.345L220.393 205.651L206.699 211.065L176.977 136.759C166.999 111.707 179.206 83.2585 204.258 73.2802C229.31 63.302 257.758 75.5094 267.736 100.561L297.565 174.973Z" fill="#E0E0E0"/>
<g opacity="0.3">
<path d="M186.955 165.314L289.71 124.233C296.716 121.367 304.783 124.87 307.543 131.876L339.176 210.959C342.042 217.965 338.539 226.032 331.533 228.792L228.779 269.873C221.773 272.739 213.705 269.236 210.945 262.23L179.312 183.147C176.552 176.141 179.949 168.074 186.955 165.314Z" fill="black"/>
</g>
<path d="M180.586 167.861L275.167 130.071C281.961 127.418 289.604 130.708 292.364 137.396L324.421 217.434C327.075 224.228 323.785 231.871 317.097 234.631L222.516 272.42C215.722 275.074 208.08 271.784 205.32 265.096L173.262 185.058C170.608 178.158 173.899 170.515 180.586 167.861Z" fill="#FE5E00"/>
<path d="M261.155 139.307C261.261 139.519 245.339 146.207 225.701 154.38C206.063 162.554 190.034 169.029 190.034 168.817C190.034 168.605 205.85 161.917 225.488 153.743C245.126 145.57 261.049 139.095 261.155 139.307Z" fill="white"/>
<g opacity="0.3">
<path d="M261.686 185.377C258.501 177.309 249.372 173.382 241.305 176.566C233.237 179.751 229.31 188.88 232.494 196.947C235.042 203.529 241.729 207.562 248.735 206.819L255.847 224.653C256.697 226.882 259.244 227.944 261.473 226.988C263.703 226.139 264.764 223.591 263.915 221.468L256.803 203.635C262.216 199.389 264.233 191.958 261.686 185.377Z" fill="black"/>
</g>
<path d="M260.518 205.121C262.004 203.635 263.172 201.936 264.234 200.132C265.295 198.115 266.038 195.992 266.357 193.763C267.312 188.243 265.507 182.723 261.58 178.795C259.988 177.203 258.183 175.823 256.166 174.868C254.255 174.019 252.239 173.382 250.222 172.957C250.752 172.957 251.389 172.957 251.92 173.063C253.406 173.275 254.892 173.7 256.378 174.337C258.501 175.292 260.412 176.672 262.004 178.265C266.144 182.298 268.055 188.137 266.994 193.869C266.675 196.098 265.826 198.327 264.658 200.344C263.915 201.724 262.96 202.892 261.792 203.953C261.474 204.484 261.049 204.802 260.518 205.121Z" fill="#6C7A87"/>
<path d="M235.148 205.121C234.83 204.909 234.511 204.697 234.193 204.485C233.343 203.741 232.6 202.998 231.964 202.149C227.399 196.417 226.868 188.456 230.69 182.087C231.22 181.131 231.857 180.282 232.6 179.539C232.813 179.221 233.131 179.008 233.45 178.796C233.556 178.902 232.388 180.07 231.114 182.405C227.717 188.562 228.142 196.205 232.388 201.937C233.874 203.954 235.148 205.015 235.148 205.121Z" fill="white"/>
<path d="M243.64 209.686C243.64 209.898 242.579 209.898 241.411 209.686C240.243 209.473 239.288 209.155 239.288 208.942C239.288 208.73 240.35 208.73 241.517 208.942C242.685 209.155 243.64 209.579 243.64 209.686Z" fill="white"/>
<path d="M190.671 74.6602C189.928 75.1909 189.185 75.6155 188.336 75.934C186.212 77.1016 184.196 78.4816 182.391 80.0739C167.742 92.069 162.753 112.238 169.865 129.753C170.502 131.345 170.927 132.194 170.821 132.194C170.714 131.982 170.608 131.77 170.502 131.557C170.29 131.133 169.971 130.602 169.653 129.753C168.591 127.524 167.848 125.188 167.211 122.853C163.071 106.718 168.91 89.7336 182.073 79.5431C183.983 78.057 186 76.677 188.229 75.6155C188.972 75.1909 189.609 74.9786 190.034 74.7663C190.246 74.7663 190.459 74.6602 190.671 74.6602Z" fill="white"/>
</g>
</svg>
