<svg width="28" height="26" viewBox="0 0 28 26" fill="none" xmlns="http://www.w3.org/2000/svg">
<g clip-path="url(#clip0_3638_14815)" filter="url(#filter0_d_3638_14815)">
<g filter="url(#filter1_d_3638_14815)">
<path d="M21.125 9.25C21.125 9.4725 21.059 9.69001 20.9354 9.87502C20.8118 10.06 20.6361 10.2042 20.4305 10.2894C20.225 10.3745 19.9988 10.3968 19.7805 10.3534C19.5623 10.31 19.3618 10.2028 19.2045 10.0455C19.0472 9.88816 18.94 9.68771 18.8966 9.46948C18.8532 9.25125 18.8755 9.02505 18.9606 8.81948C19.0458 8.61391 19.19 8.43821 19.375 8.3146C19.56 8.19098 19.7775 8.125 20 8.125C20.2984 8.125 20.5845 8.24353 20.7955 8.4545C21.0065 8.66548 21.125 8.95163 21.125 9.25ZM20 15.625C19.7775 15.625 19.56 15.691 19.375 15.8146C19.19 15.9382 19.0458 16.1139 18.9606 16.3195C18.8755 16.525 18.8532 16.7512 18.8966 16.9695C18.94 17.1877 19.0472 17.3882 19.2045 17.5455C19.3618 17.7028 19.5623 17.81 19.7805 17.8534C19.9988 17.8968 20.225 17.8745 20.4305 17.7894C20.6361 17.7042 20.8118 17.56 20.9354 17.375C21.059 17.19 21.125 16.9725 21.125 16.75C21.125 16.4516 21.0065 16.1655 20.7955 15.9545C20.5845 15.7435 20.2984 15.625 20 15.625ZM11 10.75C10.7033 10.75 10.4133 10.838 10.1666 11.0028C9.91997 11.1676 9.72771 11.4019 9.61418 11.676C9.50065 11.9501 9.47094 12.2517 9.52882 12.5426C9.5867 12.8336 9.72956 13.1009 9.93934 13.3107C10.1491 13.5204 10.4164 13.6633 10.7074 13.7212C10.9983 13.7791 11.2999 13.7494 11.574 13.6358C11.8481 13.5223 12.0824 13.33 12.2472 13.0834C12.412 12.8367 12.5 12.5467 12.5 12.25C12.5 11.8522 12.342 11.4706 12.0607 11.1893C11.7794 10.908 11.3978 10.75 11 10.75ZM23.75 6.25V19.75C23.75 20.1478 23.592 20.5294 23.3107 20.8107C23.0294 21.092 22.6478 21.25 22.25 21.25H5.75C5.35218 21.25 4.97064 21.092 4.68934 20.8107C4.40804 20.5294 4.25 20.1478 4.25 19.75V6.25C4.25 5.85218 4.40804 5.47064 4.68934 5.18934C4.97064 4.90804 5.35218 4.75 5.75 4.75H22.25C22.6478 4.75 23.0294 4.90804 23.3107 5.18934C23.592 5.47064 23.75 5.85218 23.75 6.25ZM17.75 12.25H22.25V6.25H17.75V12.25ZM14.7266 16.5625C14.4839 15.6563 13.9084 14.875 13.115 14.3744C13.5363 13.9555 13.8238 13.421 13.941 12.8386C14.0582 12.2562 13.9999 11.652 13.7733 11.1028C13.5468 10.5536 13.1623 10.084 12.6686 9.75358C12.1748 9.42315 11.5941 9.24675 11 9.24675C10.4059 9.24675 9.82517 9.42315 9.33143 9.75358C8.8377 10.084 8.45319 10.5536 8.22666 11.1028C8.00012 11.652 7.94175 12.2562 8.05896 12.8386C8.17616 13.421 8.46366 13.9555 8.885 14.3744C8.09211 14.8755 7.51681 15.6566 7.27344 16.5625C7.22371 16.7552 7.25257 16.9598 7.35366 17.1312C7.45475 17.3026 7.6198 17.4268 7.8125 17.4766C8.0052 17.5263 8.20975 17.4974 8.38118 17.3963C8.55259 17.2952 8.67683 17.1302 8.72656 16.9375C8.97406 15.9766 9.95094 15.25 11 15.25C12.0491 15.25 13.0269 15.9747 13.2734 16.9375C13.3232 17.1302 13.4474 17.2952 13.6188 17.3963C13.7902 17.4974 13.9948 17.5263 14.1875 17.4766C14.3802 17.4268 14.5452 17.3026 14.6463 17.1312C14.7474 16.9598 14.7763 16.7552 14.7266 16.5625ZM22.25 19.75V13.75H17.75V19.75H22.25Z" fill="white"/>
</g>
</g>
<defs>
<filter id="filter0_d_3638_14815" x="-2" y="-3" width="32" height="32" filterUnits="userSpaceOnUse" color-interpolation-filters="sRGB">
<feFlood flood-opacity="0" result="BackgroundImageFix"/>
<feColorMatrix in="SourceAlpha" type="matrix" values="0 0 0 0 0 0 0 0 0 0 0 0 0 0 0 0 0 0 127 0" result="hardAlpha"/>
<feOffset/>
<feGaussianBlur stdDeviation="2"/>
<feComposite in2="hardAlpha" operator="out"/>
<feColorMatrix type="matrix" values="0 0 0 0 0 0 0 0 0 0 0 0 0 0 0 0 0 0 0.15 0"/>
<feBlend mode="normal" in2="BackgroundImageFix" result="effect1_dropShadow_3638_14815"/>
<feBlend mode="normal" in="SourceGraphic" in2="effect1_dropShadow_3638_14815" result="shape"/>
</filter>
<filter id="filter1_d_3638_14815" x="0.25" y="0.75" width="27.5" height="24.5" filterUnits="userSpaceOnUse" color-interpolation-filters="sRGB">
<feFlood flood-opacity="0" result="BackgroundImageFix"/>
<feColorMatrix in="SourceAlpha" type="matrix" values="0 0 0 0 0 0 0 0 0 0 0 0 0 0 0 0 0 0 127 0" result="hardAlpha"/>
<feOffset/>
<feGaussianBlur stdDeviation="2"/>
<feComposite in2="hardAlpha" operator="out"/>
<feColorMatrix type="matrix" values="0 0 0 0 0 0 0 0 0 0 0 0 0 0 0 0 0 0 0.15 0"/>
<feBlend mode="normal" in2="BackgroundImageFix" result="effect1_dropShadow_3638_14815"/>
<feBlend mode="normal" in="SourceGraphic" in2="effect1_dropShadow_3638_14815" result="shape"/>
</filter>
<clipPath id="clip0_3638_14815">
<rect width="24" height="24" fill="white" transform="translate(2 1)"/>
</clipPath>
</defs>
</svg>
