<svg width="24" height="25" viewBox="0 0 24 25" fill="none" xmlns="http://www.w3.org/2000/svg">
<path d="M18.75 7.25C17.7075 7.25096 16.6889 7.56228 15.824 8.14427C14.959 8.72626 14.287 9.55258 13.8934 10.5179C13.4998 11.4833 13.4025 12.544 13.614 13.5648C13.8254 14.5856 14.336 15.5204 15.0806 16.25H8.91936C9.78874 15.3982 10.3351 14.2708 10.4651 13.0606C10.5951 11.8505 10.3005 10.6327 9.63187 9.61574C8.9632 8.59874 7.96195 7.84568 6.79939 7.48535C5.63683 7.12502 4.38518 7.17982 3.25856 7.64037C2.13194 8.10092 1.20033 8.93861 0.623101 10.0101C0.04587 11.0817 -0.141122 12.3205 0.0941104 13.5147C0.329343 14.7088 0.972184 15.7842 1.91267 16.5568C2.85316 17.3293 4.03287 17.7511 5.24999 17.75H18.75C20.1424 17.75 21.4777 17.1969 22.4623 16.2123C23.4469 15.2277 24 13.8924 24 12.5C24 11.1076 23.4469 9.77226 22.4623 8.78769C21.4777 7.80312 20.1424 7.25 18.75 7.25ZM1.49999 12.5C1.49999 11.7583 1.71992 11.0333 2.13198 10.4166C2.54403 9.79993 3.1297 9.31928 3.81492 9.03545C4.50015 8.75162 5.25415 8.67736 5.98158 8.82205C6.709 8.96675 7.37719 9.3239 7.90164 9.84835C8.42608 10.3728 8.78324 11.041 8.92793 11.7684C9.07263 12.4958 8.99836 13.2498 8.71454 13.9351C8.43071 14.6203 7.95006 15.206 7.33338 15.618C6.71669 16.0301 5.99167 16.25 5.24999 16.25C4.25543 16.25 3.3016 15.8549 2.59834 15.1517C1.89508 14.4484 1.49999 13.4946 1.49999 12.5ZM18.75 16.25C18.0083 16.25 17.2833 16.0301 16.6666 15.618C16.0499 15.206 15.5693 14.6203 15.2854 13.9351C15.0016 13.2498 14.9273 12.4958 15.072 11.7684C15.2167 11.041 15.5739 10.3728 16.0983 9.84835C16.6228 9.3239 17.291 8.96675 18.0184 8.82205C18.7458 8.67736 19.4998 8.75162 20.1851 9.03545C20.8703 9.31928 21.4559 9.79993 21.868 10.4166C22.2801 11.0333 22.5 11.7583 22.5 12.5C22.5 13.4946 22.1049 14.4484 21.4016 15.1517C20.6984 15.8549 19.7446 16.25 18.75 16.25Z" fill="#4E6074"/>
</svg>
