<svg width="32" height="32" viewBox="0 0 32 32" fill="none" xmlns="http://www.w3.org/2000/svg">
<path d="M7 12V20C7 20.2652 6.89464 20.5196 6.70711 20.7071C6.51957 20.8946 6.26522 21 6 21C5.73478 21 5.48043 20.8946 5.29289 20.7071C5.10536 20.5196 5 20.2652 5 20V12C5 11.7348 5.10536 11.4804 5.29289 11.2929C5.48043 11.1054 5.73478 11 6 11C6.26522 11 6.51957 11.1054 6.70711 11.2929C6.89464 11.4804 7 11.7348 7 12ZM11 3C10.7348 3 10.4804 3.10536 10.2929 3.29289C10.1054 3.48043 10 3.73478 10 4V28C10 28.2652 10.1054 28.5196 10.2929 28.7071C10.4804 28.8946 10.7348 29 11 29C11.2652 29 11.5196 28.8946 11.7071 28.7071C11.8946 28.5196 12 28.2652 12 28V4C12 3.73478 11.8946 3.48043 11.7071 3.29289C11.5196 3.10536 11.2652 3 11 3ZM16 7C15.7348 7 15.4804 7.10536 15.2929 7.29289C15.1054 7.48043 15 7.73478 15 8V24C15 24.2652 15.1054 24.5196 15.2929 24.7071C15.4804 24.8946 15.7348 25 16 25C16.2652 25 16.5196 24.8946 16.7071 24.7071C16.8946 24.5196 17 24.2652 17 24V8C17 7.73478 16.8946 7.48043 16.7071 7.29289C16.5196 7.10536 16.2652 7 16 7ZM21 11C20.7348 11 20.4804 11.1054 20.2929 11.2929C20.1054 11.4804 20 11.7348 20 12V20C20 20.2652 20.1054 20.5196 20.2929 20.7071C20.4804 20.8946 20.7348 21 21 21C21.2652 21 21.5196 20.8946 21.7071 20.7071C21.8946 20.5196 22 20.2652 22 20V12C22 11.7348 21.8946 11.4804 21.7071 11.2929C21.5196 11.1054 21.2652 11 21 11ZM26 9C25.7348 9 25.4804 9.10536 25.2929 9.29289C25.1054 9.48043 25 9.73478 25 10V22C25 22.2652 25.1054 22.5196 25.2929 22.7071C25.4804 22.8946 25.7348 23 26 23C26.2652 23 26.5196 22.8946 26.7071 22.7071C26.8946 22.5196 27 22.2652 27 22V10C27 9.73478 26.8946 9.48043 26.7071 9.29289C26.5196 9.10536 26.2652 9 26 9Z" fill="#343330"/>
</svg>
