<svg width="154" height="156" viewBox="0 0 154 156" fill="none" xmlns="http://www.w3.org/2000/svg">
<path d="M13.3113 30.6898C13.3113 30.6898 -2.14567 52.0097 0.25282 61.6037C0.169915 61.2321 10.3798 50.4107 10.3798 50.4107C10.9128 53.3422 35.6972 60.5377 35.6972 60.5377C38.9876 62.6354 40.1219 64.1415 40.7607 67.4667V80.2587C49.3221 85.5855 57.1863 87.3532 76.2051 88.5201C96.4126 87.6588 104.759 85.8693 112.182 80.2587C112.182 80.2587 111.383 70.3981 112.182 66.9337C112.982 63.4692 114.756 61.4877 117.512 60.5377C127.795 58.1853 132.871 55.6117 142.563 50.6772L153.223 61.6037C151.604 49.5902 148.82 42.9404 140.431 31.2228C133.772 23.6131 129.502 19.6216 120.71 13.1009C111.152 7.45367 105.849 5.29726 96.459 2.70738C80.1596 -0.630016 71.1746 -0.619794 55.4182 2.70738C45.7636 5.61813 40.9519 7.81443 33.8317 13.1009C33.8317 13.1009 6.9153 -2.35612 3.45081 0.308867C-0.013679 2.97386 13.3113 30.6898 13.3113 30.6898Z" fill="#FF5E00"/>
<path d="M31.7136 113.262C19.3329 107.842 12.625 103.748 1.06616 94.6071C3.84546 106.113 6.43658 112.171 12.7921 122.323C19.5642 131.488 23.7253 135.578 31.7136 141.244C40.3522 147.174 45.5331 149.765 55.432 152.97C64.3245 155.108 69.2831 155.789 78.0844 155.902C87.0585 155.452 91.7154 154.474 99.4044 152.704C107.885 149.324 112.206 147.193 119.392 143.11C131.307 149.836 146.042 157.501 148.174 154.303C150.306 151.105 138.58 125.255 138.58 125.255C146.4 114.053 149.6 106.51 152.704 93.8076C141.998 102.206 135.043 107.107 121.79 113.262C105.396 119.729 95.8482 121.805 78.0844 122.323C57.3899 121.962 47.2902 119.914 31.7136 113.262Z" fill="#FF5E00"/>
</svg>
