<svg width="28" height="28" viewBox="0 0 28 28" fill="none" xmlns="http://www.w3.org/2000/svg">
<path d="M14.0001 0.666656C11.363 0.666656 8.78514 1.44864 6.59248 2.91373C4.39983 4.37881 2.69086 6.46119 1.68169 8.89754C0.672525 11.3339 0.408481 14.0148 0.92295 16.6012C1.43742 19.1876 2.7073 21.5634 4.572 23.4281C6.4367 25.2928 8.81247 26.5627 11.3989 27.0771C13.9853 27.5916 16.6662 27.3275 19.1025 26.3184C21.5389 25.3092 23.6213 23.6002 25.0863 21.4076C26.5514 19.2149 27.3334 16.6371 27.3334 14C27.3297 10.4649 25.9237 7.0757 23.424 4.57602C20.9244 2.07635 17.5352 0.67039 14.0001 0.666656ZM25.2821 14C25.2833 15.4474 25.0046 16.8814 24.4616 18.2231L18.7309 14.6987C18.4872 14.5483 18.2146 14.4509 17.9309 14.4128L15.0052 14.0179C14.6021 13.9654 14.1924 14.0329 13.8275 14.2122C13.4626 14.3915 13.1587 14.6744 12.9539 15.0256H11.836L11.3488 14.0179C11.2141 13.7373 11.017 13.4913 10.7726 13.2986C10.5281 13.106 10.2428 12.9718 9.93855 12.9064L8.91291 12.6846L9.91547 10.9231H12.0578C12.4044 10.9224 12.7453 10.8342 13.0488 10.6667L14.6193 9.79999C14.7573 9.72307 14.8863 9.63106 15.0039 9.52563L18.4539 6.40512C18.7998 6.09513 19.0297 5.6765 19.1057 5.21829C19.1817 4.76007 19.0992 4.28964 18.8719 3.8846L18.8257 3.80127C20.7562 4.71665 22.3876 6.16075 23.5304 7.96596C24.6732 9.77116 25.2806 11.8635 25.2821 14ZM15.9629 2.88973L17.077 4.8846L13.627 8.00512L12.0578 8.87178H9.91547C9.55488 8.87125 9.20053 8.96578 8.88811 9.14585C8.5757 9.32591 8.31628 9.58514 8.13598 9.89742L7.01675 11.85L5.71547 8.38332L7.11803 5.06666C8.3595 4.10742 9.78763 3.41806 11.311 3.04275C12.8343 2.66744 14.4192 2.61445 15.9642 2.88717L15.9629 2.88973ZM2.71804 14C2.71632 12.3231 3.09045 10.6671 3.81291 9.15383L5.26675 13.0346C5.38791 13.3559 5.5878 13.6417 5.84808 13.8657C6.10836 14.0897 6.42072 14.2447 6.7565 14.3167L9.50393 14.9077L9.99239 15.9231C10.1619 16.2684 10.4246 16.5595 10.7509 16.7634C11.0771 16.9673 11.4538 17.0759 11.8385 17.0769H12.0283L11.1014 19.1577C10.938 19.5241 10.8857 19.9303 10.9509 20.3261C11.0161 20.7219 11.1959 21.0899 11.468 21.3846L11.486 21.4026L14.0001 23.9923L13.7514 25.2743C10.805 25.2058 8.00208 23.9884 5.94075 21.8821C3.87943 19.7757 2.72292 16.9472 2.71804 14ZM15.8693 25.1256L16.0142 24.3808C16.0737 24.0643 16.0584 23.7383 15.9693 23.4289C15.8803 23.1194 15.72 22.8351 15.5014 22.5987C15.4951 22.593 15.4891 22.5871 15.4834 22.5808L12.9744 19.9923L14.7309 16.0513L17.6565 16.4461L23.518 20.0513C22.6688 21.3849 21.5493 22.5256 20.2318 23.3996C18.9144 24.2737 17.4282 24.8617 15.8693 25.1256Z" fill="#FE5E00"/>
</svg>
